<svg id="Layer_1" data-name="Layer 1" xmlns="http://www.w3.org/2000/svg" viewBox="0 0 1000 1000"><defs><style>.cls-1{fill:#fff;}.cls-2{fill:#bed4e4;}.cls-3{fill:#4c7ba2;}.cls-4{fill:#50b0d1;}</style></defs><path class="cls-1" d="M563.16,699c.21-.3.42-.6.62-.91l.08,0Z"/><path class="cls-1" d="M563.86,698.11l-.7.88c.21-.3.42-.6.62-.91Z"/><path class="cls-2" d="M563.86,698.11l-.7.88c.21-.3.42-.6.62-.91Z"/><polygon class="cls-2" points="514.24 678.38 513.22 678.75 512.36 678.38 514.24 678.38"/><path class="cls-3" d="M550.25,246.38c-55.31-5.34-108.76-7.17-144.64-6.29-4.44-6.42-17.09-28.46-7.73-45.07,10.44-18.55,41-27.92,106.32,16v0A517.57,517.57,0,0,1,550.25,246.38Z"/><path class="cls-4" d="M647,259.67c-18.14-3.41-37.22-6.33-56.55-8.81-13.35-1.71-26.8-3.2-40.15-4.48a517.57,517.57,0,0,0-46.05-35.3v0c12.66-21.72,40.07-34.24,70.45-28.9C604.58,187.41,638.56,217.82,647,259.67Z"/><path class="cls-1" d="M664.86,786.92c-23.91,9.28-20.93.53-26.23-10.95s-.43-6.5-6.21-14.18c-9.68-2.19-13.31-10.41-5.4-16.54,3.11-2.41,4.74-1.82,6.47-3.71,2.51-2.72.71-4.38-.35-6.42-6.33-12.14-12.36-24-17.71-36.26-1.83-4.2-3.6-7.69-5.47-11.63-1.3-2.72-2.51-5-3.78-7.71-.36,4.6-.8,9.34-1.31,13.86-.29,2.66-.64,5-1,7.63-.07.56-.15,1-.22,1.54-.15,1-.31,2-.47,3s-.34,2-.5,3c-.1.62-.23,1.25-.33,1.83s-.31,1.65-.4,2.15c-.41,2.31-1.38,6.77-1.82,8.55C598,729.77,595,739.8,592,746.87a12.76,12.76,0,0,0-.91,6.57c.48,30-3.47,60.1-4.39,89-.18,5.52,1.4,3.81,3,5.42,2.75,2.73,5.5,4,7.33,5.44,3.72,3,.89,7.63-1.57,8.09-15.58,2.94-33.18,2.6-47.65,2.05-7.92-.3-9.48-1.88-10.81-8.12-6.29-29.44.23-60.23-3.19-89.37-.62-5.35-2.51-5.32-6.19-5.45-15.62-.53-31.35,0-46.49-.77-4.41-.22-6.21,1.36-7.6,4.94-10.66,27.42-26.1,56.8-41.91,79.74-4.78,6.93-4.76,6.65-8.74,7.83-16.52,4.89-30.43,2.71-46.33,3-3.88.07-2.19-2.12-2.49-4.45,2.68-3.12,6.35-5.16,8.54-8.51s2.74-1.29,4.23-6c11.05-34.75,23.13-69.52,40.41-102.78,1-1.9,1.64-2.36,1.25-7.23-2.05-25.93-2.26-55.35-2.75-82.06-.08-4-.44-4.17-3.79-5.93-15-7.93-25.34-9.09-41.54-15.23-57.24-21.74-102.89-37.88-151.33-82.84-47.85-44.4-99.9-122.42-100.29-193.93-.09-15.39,5.53-34.66,19.76-44.48,8.8-6.08,20.33-12.48,31.53-14.11,23.18,4.79,26.31,9.79,35.5,30.67.94,2.14,1.38,1.69,2.07.63,3.36-5.13,2.35-11.22,9.93-12,2.26-.22,3.69-.66,5.67,3.49,8.67,18.14,8.85,40.17,10.73,61,.69,7.58,3.93,15.85,7,23a37.85,37.85,0,0,0,2,3.45c1.5,2.62,4.2,6.78,5.65,9,20,30.79,51.73,50.73,81.88,66.56.68.35-22.27-6.16,31.48,9.28S544.48,557.7,599,601.89c7.93,6.43,28.39,12.14,31.55,22.3.47,1.53,2.69,2.48,4.18,4.4,7.1,9.2,15.2,19.38,21.58,29.59,0,.05.16.19.19.24,2,3.88,4.56,7.89,6.48,11.74,8.88,17.76,18.06,34.76,22.66,54.13C701.26,749.52,688.77,777.64,664.86,786.92Z"/><path class="cls-2" d="M663,670.29c-14.53,12.73-29.38,22.09-47.71,28.36-1.73-3.83-3.55-7.73-5.4-11.49-1.27-2.59-2.5-5-3.74-7.62-.37,4.59-.8,9.35-1.32,13.88-.3,2.66-.64,5-1,7.61-.07.55-.15,1-.22,1.53l-.47,3c-.17,1-.33,2-.5,3.06-.11.63-.22,1.19-.34,1.85s-.26,1.44-.39,2.12c-13.05-4.22-26-8.73-38.87-13.42l.64-.9a6.48,6.48,0,0,0-.67.89c-13.26-5.14-25.73-10.06-39-15.89-5.51-2.42-14.14-6.69-19.33-9.36-15.39-7.93-29.27-15.46-44.2-23.37,0,0,0,.2,0,.19-40.43-21.9-81.71-41.2-123.36-60.56,1.18.26,2.22.47,3.43.67s2.41.39,3.71.53c.64.07,1.15.16,1.94.22,2.4.19,3.86.48,6.58.55,15,.38,30.56.43,45.67,2.06h0s0,0,0,0c36.59,1.89,73.24,6.55,109.71,11,8.5,1,18,1.69,26.61,2.84,1.49.2,3.08.3,4.58.48s3,.32,4.51.49l1.21.13,1,.1,5.91.62c1.08.11,2.17.24,3.19.32s-.59-.05.4,0,2.06.22,3.11.33c1.93.2,3.94.4,5.88.58l4.39.39,2.93.25c5.37.47,10.84,1,16.16,1.38l6,.45,9.22.7c2.9.22,5.58.47,8.26.67,4,.3,7.7.63,11.62.76,3.93,4.44,6.88,7.49,10.92,12.3a297.1,297.1,0,0,1,22.26,30.18l.12.2Q659.77,664.34,663,670.29Z"/><path class="cls-2" d="M231.44,368.57c-1.48-20.87-2.83-41.49-4.53-62.47,2.68,2.5,3.92-.28,6,4,9.21,18.65,8.89,40.3,11,61.36.77,7.67,4,15.76,6.93,23A314.27,314.27,0,0,0,231.44,368.57Z"/><g id="Forma_1" data-name="Forma 1"><path class="cls-1" d="M773,333.65c0-.87-.09-1.73-.14-2.57s-.13-1.67-.2-2.47c-.15-1.61-.33-3.15-.55-4.62-1.75-11.78-5.71-19.28-11.64-24.29-20.6-17.5-63.42-30.61-113.48-40-18.14-3.41-37.22-6.33-56.55-8.81-13.35-1.71-26.8-3.2-40.15-4.48-55.31-5.34-108.76-7.17-144.64-6.29q-4,.09-7.7.24-4.11.16-8,.49t-7.52.81a138.52,138.52,0,0,0-13.73,2.53,108.43,108.43,0,0,0-22.6,8,82.81,82.81,0,0,0-28.79,22.76c-12.9,16.16-14.51,32-14.51,32.19,0,0-5.29,41.31-7.08,88.59-.94,22.38-1.27,46.07-1,67.19,0,1.18,0,2.35.05,3.51.18,11,.51,21.21,1,30.07.24,4.44.51,8.53.82,12.22.16,1.84.32,3.59.49,5.22s.36,3.15.55,4.55c5.3,38.56,6.2,56.1,34,66.06l0,0c1.11.4,2.26.78,3.46,1.15s2.47.75,3.78,1.1l2,.53c2,.52,4.18,1,6.43,1.49,12.39,2.61,28.32,5.1,46.45,7.44h0c32.74,4.22,72.68,8,112,11.08,9.15.72,18.27,1.41,27.25,2.06l4.63.33,4.59.33,1.25.09,10.28.72h0l13.67.92,3,.19,16.29,1,6,.36,9.36.56,8.22.47,11.6.65c8.45.45,16.09.84,22.71,1.15,8.21.39,15.68.47,22.48.24,1.7-.06,3.36-.14,5-.23s3.2-.22,4.74-.36c3.07-.27,6-.62,8.77-1.06,11.09-1.73,19.8-4.73,26.73-9,13.84-8.61,20.51-22.43,24.63-41.73,15-70.22,27.6-145.83,33.49-190.08,1.48-11.06,2.33-20.61,2.6-28.86C773.13,341,773.11,337.16,773,333.65ZM741.56,382c-2.62,36.71-15.44,101.3-29.31,156.13-3.73,15.1-9.44,25.74-21.31,32.71-6,3.48-13.45,6-23.08,7.64-2.41.41-5,.75-7.64,1-1.35.14-2.72.27-4.14.38l-2.15.16-2.21.13c-6,.33-12.54.42-19.8.25-57.89-.7-207.84-11.78-266.49-22.91-38.75-7.39-38.59-20.35-43.51-56.68-.15-1.14-.29-2.37-.43-3.69s-.26-2.74-.37-4.24-.23-3.08-.33-4.74c0-.41-.05-.83-.07-1.26s-.05-.85-.07-1.28c0-.87-.09-1.76-.13-2.66-.32-7.22-.52-15.56-.59-24.55-.14-18,.26-38.63,1.13-58.16,1.61-39.06,5.68-73.46,5.7-73.46,0-.22,1.25-13.39,12.11-26.5a65.49,65.49,0,0,1,24.53-18.14,93.1,93.1,0,0,1,19.56-6c3.73-.73,7.72-1.32,12-1.73q3.19-.31,6.6-.49l1.71-.08,1.75-.06c1.17,0,2.36-.06,3.56-.07,38.35-.34,106.34,3.36,169.86,11S700.93,303.87,727.33,322c5.54,3.83,9.74,9.67,12.32,19.11.32,1.18.62,2.42.89,3.72.13.65.26,1.31.38,2a2.34,2.34,0,0,0,0,.26c0,.08,0,.17,0,.25l.09.52c.06.35.11.7.16,1.06.21,1.42.4,2.9.55,4.45,0,.39.07.78.1,1.18,0,.2,0,.4.05.6s0,.4,0,.6c0,.41.06.81.08,1.23s0,.83.08,1.25A175,175,0,0,1,741.56,382Z"/><path class="cls-1" d="M741.56,382c-2.62,36.71-15.44,101.3-29.31,156.13-3.73,15.1-9.44,25.74-21.31,32.71-6,3.48-13.45,6-23.08,7.64-2.41.41-5,.75-7.64,1-1.35.14-2.72.27-4.14.38l-2.15.16-2.21.13c-6,.33-12.54.42-19.8.25-57.89-.7-207.84-11.78-266.49-22.91-38.75-7.39-38.59-20.35-43.51-56.68-.15-1.14-.29-2.37-.43-3.69s-.26-2.74-.37-4.24-.23-3.08-.33-4.74c0-.41-.05-.83-.07-1.26s-.05-.85-.07-1.28c0-.87-.09-1.76-.13-2.66-.32-7.22-.52-15.56-.59-24.55-.14-18,.26-38.63,1.13-58.16,1.61-39.06,5.68-73.46,5.7-73.46,0-.22,1.25-13.39,12.11-26.5a65.49,65.49,0,0,1,24.53-18.14,93.1,93.1,0,0,1,19.56-6c3.73-.73,7.72-1.32,12-1.73q3.19-.31,6.6-.49l1.71-.08,1.75-.06c1.17,0,2.36-.06,3.56-.07,38.35-.34,106.34,3.36,169.86,11S700.93,303.87,727.33,322c5.54,3.83,9.74,9.67,12.32,19.11.32,1.18.62,2.42.89,3.72.13.65.26,1.31.38,2a2.34,2.34,0,0,0,0,.26c0,.08,0,.17,0,.25l.09.52c.06.35.11.7.16,1.06.21,1.42.4,2.9.55,4.45,0,.39.07.78.1,1.18,0,.2,0,.4.05.6s0,.4,0,.6c0,.41.06.81.08,1.23s0,.83.08,1.25A175,175,0,0,1,741.56,382Z"/></g><g id="Forma_1_copiar" data-name="Forma 1 copiar"><path class="cls-3" d="M741.56,382c-2.62,36.71-15.44,101.3-29.31,156.13-3.73,15.1-9.44,25.74-21.31,32.71-6,3.48-13.45,6-23.08,7.64-2.41.41-5,.75-7.64,1-1.35.14-2.72.27-4.14.38l-2.15.16-2.21.13c-6,.33-12.54.42-19.8.25-57.89-.7-207.84-11.78-266.49-22.91-38.75-7.39-38.59-20.35-43.51-56.68-.15-1.14-.29-2.37-.43-3.69s-.26-2.74-.37-4.24-.23-3.08-.33-4.74c0-.41-.05-.83-.07-1.26s-.05-.85-.07-1.28c0-.87-.09-1.76-.13-2.66-.32-7.22-.52-15.56-.59-24.55-.14-18,.26-38.63,1.13-58.16,1.61-39.06,5.68-73.46,5.7-73.46,0-.22,1.25-13.39,12.11-26.5a65.49,65.49,0,0,1,24.53-18.14,93.1,93.1,0,0,1,19.56-6c3.73-.73,7.72-1.32,12-1.73q3.19-.31,6.6-.49l1.71-.08,1.75-.06c1.17,0,2.36-.06,3.56-.07,38.35-.34,106.34,3.36,169.86,11S700.93,303.87,727.33,322c5.54,3.83,9.74,9.67,12.32,19.11.32,1.18.62,2.42.89,3.72.13.65.26,1.31.38,2a2.34,2.34,0,0,0,0,.26c0,.08,0,.17,0,.25l.09.52c.06.35.11.7.16,1.06.21,1.42.4,2.9.55,4.45,0,.39.07.78.1,1.18,0,.2,0,.4.05.6s0,.4,0,.6c0,.41.06.81.08,1.23s0,.83.08,1.25A175,175,0,0,1,741.56,382Z"/></g><g id="Forma_1_copiar_2" data-name="Forma 1 copiar 2"><path class="cls-4" d="M731.57,384.14a164.41,164.41,0,0,0,.57-22.71c0-.8-.09-1.59-.15-2.36,0-.19,0-.39,0-.58s0-.38-.05-.57c0-.37-.06-.75-.1-1.12-.14-1.48-.32-2.89-.52-4.24l-.15-1c0-.16-.06-.33-.08-.49l0-.25a2,2,0,0,0,0-.24c-.11-.65-.23-1.28-.36-1.9-.25-1.24-.54-2.41-.84-3.54-2.46-9-6.46-14.56-11.74-18.21-25.15-17.22-81.43-28-142.06-35.33s-125.63-10.17-162.5-9.32c-1.16,0-2.31.06-3.43.11l-1.68.08-1.65.1q-3.27.21-6.35.54c-4.1.45-7.94,1-11.55,1.79a94,94,0,0,0-18.92,5.89A65.62,65.62,0,0,0,346,308c-10.71,12.43-11.93,24.8-11.91,24.8s-4.18,32-5.56,68.85c-.76,18.39-1,37.92-.65,55,.16,8.54.44,16.47.85,23.34,0,.86.1,1.7.15,2.53l.09,1.22c0,.4.05.8.08,1.2.12,1.58.24,3.09.37,4.51s.27,2.78.42,4,.3,2.44.46,3.52c5.22,34.66,5.33,47.09,42.45,54.18,56.25,10.72,199.36,21.32,254.44,22,6.91.17,13.17.08,18.85-.23,1.42-.08,2.81-.17,4.16-.28s2.66-.23,3.94-.37c2.55-.27,5-.6,7.27-1,9.17-1.54,16.31-4,22-7.28,11.31-6.65,16.73-16.78,20.28-31.17C716.86,480.64,729.08,419.12,731.57,384.14Z"/></g><path class="cls-1" d="M470.2,434.93c2.23-20.41,3.73-57.13-11.26-74.43a15.81,15.81,0,0,0-23.54-.39c-12.29,13.15-24.17,42.52-27.86,65.31a24.94,24.94,0,0,0,8.34,23c7.56,6.43,19.62,12.47,36.18,8.05A25,25,0,0,0,470.2,434.93Z"/><path class="cls-1" d="M495.34,494.16h0a42.78,42.78,0,0,0,59.46,7.32l1.29-1c10.7-8.19,3.57-25.25-9.77-23.4l-3.75.52a63.39,63.39,0,0,1-29.83-3l-2.79-1C497.54,469.26,487.14,483.87,495.34,494.16Z"/><path class="cls-1" d="M588,446.05c.53-19.93,3.93-58.92,22-74.48a15.8,15.8,0,0,1,23.35,3c10.59,15.26,18.24,47.55,18.14,70.84a21.9,21.9,0,0,1-9.08,17.65c-8.76,6.31-23.78,12.64-42.71,2.89A21.73,21.73,0,0,1,588,446.05Z"/><path class="cls-3" d="M568.81,677.5a61.27,61.27,0,0,1-4,21.91c-11.53-4.35-23.12-9-34.69-13.81l2.37-1.74a3.6,3.6,0,0,0-2.14-6.51H517l1.51-5.39,2-7.22,5-17.87a3.15,3.15,0,0,0-4.9-3.41l-15.82,11.65-13.16,9.71-3.38,2.49C476,661.67,463.86,655.94,452,650.18A61.59,61.59,0,0,1,568.81,677.5Z"/><path class="cls-4" d="M564.8,699.41A61.59,61.59,0,1,1,452,650.18c11.83,5.76,24,11.49,36.32,17.13l-6.71,4.94a3.51,3.51,0,0,0-.4.36,2.83,2.83,0,0,0,2.1,4.74h29.91l-1.23.44-13,4.75-2.37.86-.77,2.94L490,708.63a2.82,2.82,0,0,0,4.4,3l22.25-16.23,2.89-2.11,10.53-7.68C541.68,690.42,553.27,695.06,564.8,699.41Z"/></svg>