<svg id="Layer_1" data-name="Layer 1" xmlns="http://www.w3.org/2000/svg" viewBox="0 0 1000 1000"><defs><style>.cls-1{fill:#4c7ba2;}.cls-2{fill:#50b0d1;}.cls-3{fill:#fff;}.cls-4{fill:#bed4e4;}</style></defs><path class="cls-1" d="M591,283.11c-68.23-15.69-134.71-26.7-179.68-31.45-4.5-8.74-16.71-38.34-2.31-57.56,16.07-21.48,55.82-28.2,130.22,37.37v0A650.26,650.26,0,0,1,591,283.11Z"/><path class="cls-2" d="M707.68,315.1c-22.11-7.22-45.47-14-69.22-20.23-16.4-4.31-33-8.36-49.43-12.14a652,652,0,0,0-51.77-51.61v0C556.62,206,592.91,194.85,630,206.48,666.53,217.92,704,261.45,707.68,315.1Z"/><g id="Forma_1" data-name="Forma 1"><path class="cls-3" d="M808.91,385.52c-.55-13-4-21.69-9.91-27.83C778.55,336.22,733.33,317,679.8,301c-19.4-5.81-39.89-11.2-60.69-16.13-14.37-3.4-28.87-6.58-43.28-9.51C516.08,263.12,458,255,418.73,251.8q-4.39-.37-8.43-.63c-3-.19-5.93-.33-8.78-.39s-5.61-.05-8.29,0c-5.39.15-10.48.57-15.28,1.18a119,119,0,0,0-25.57,6.13,90.57,90.57,0,0,0-34,21.52c-15.94,16.14-19.52,33.24-19.54,33.45-.05,0-10.54,44.47-17.93,95.84-3.6,24.32-6.69,50.13-8.83,73.21-.11,1.28-.24,2.56-.34,3.83-1.08,12-1.89,23.2-2.4,32.91-.25,4.88-.42,9.38-.52,13.44,0,2-.06,4-.05,5.75s0,3.48.07,5c.07,2.34.14,4.62.2,6.82.11,3.75.22,7.31.35,10.68.63,16.85,1.79,29.19,6.8,38.88a36,36,0,0,0,6.1,8.54c3.95,4.14,9.16,7.75,16.05,11.07l0,0c1.16.56,2.38,1.1,3.65,1.66s2.61,1.1,4,1.62l2.1.82,2.53.9c1.39.49,2.83,1,4.31,1.45,9.62,3.12,21.28,6.37,34.43,9.7q5.14,1.31,10.57,2.61c1.59.39,3.2.78,4.83,1.16h0c7.75,1.84,15.89,3.7,24.32,5.56l2.31.51c3.58.79,7.21,1.57,10.88,2.37,18.9,4,39,8.07,59.25,12l6.64,1.27,6.65,1.27,10.83,2,14.65,2.7,14.84,2.68,5,.89,5,.89,1.36.24,11.14,2h0L552.49,676l3.2.55c5.4.93,10.71,1.84,15.89,2.71l1.77.3,6.51,1.08c3.45.59,6.85,1.15,10.15,1.7l8.91,1.46,12.59,2,8.62,1.36,16,2.51c8.93,1.37,17.06,2.32,24.5,2.85,1.87.13,3.7.24,5.47.32s3.52.13,5.21.16c3.37.05,6.62,0,9.69-.16,12.3-.6,22.15-2.87,30.21-6.78,16.1-7.8,24.95-22.11,31.68-42.69,24.45-74.9,46.9-155.95,58.42-203.55,2.89-11.89,4.91-22.22,6.16-31.19.63-4.48,1-8.64,1.29-12.48.05-1,.09-1.91.14-2.82l.06-2.73C809,388.85,809,387.16,808.91,385.52ZM772.5,414c0,.22,0,.43,0,.65s0,.43,0,.65,0,.44,0,.66,0,.44,0,.66c0,.45,0,.89-.05,1.35l-.06,1.38q-.17,3.11-.5,6.49c0,.26-.05.53-.08.8s0,.25,0,.38c0,.29-.06.61-.1.92-.06.6-.13,1.21-.21,1.82-.2,1.67-.43,3.39-.69,5.17-.07.47-.14.94-.22,1.42-.1.63-.2,1.27-.31,1.91s-.19,1.14-.29,1.71q-.43,2.6-1,5.32c-.12.7-.25,1.4-.38,2.11s-.21,1.12-.33,1.7c-1,5.19-2.2,10.82-3.61,16.81-.14.66-.3,1.32-.46,2q-1.12,4.69-2.38,9.65c-.2.8-.41,1.61-.62,2.42-.62,2.43-1.27,4.91-1.95,7.42-.22.83-.45,1.67-.68,2.52-.7,2.63-1.44,5.29-2.2,8-.32,1.15-.64,2.3-1,3.46s-.66,2.33-1,3.5-.64,2.23-1,3.36a1.09,1.09,0,0,1,0,.17c-.34,1.18-.69,2.37-1,3.56-2.87,9.78-6,19.88-9.23,30.12q-1.67,5.24-3.39,10.52c-.81,2.51-1.64,5-2.48,7.55L735.94,564q-1.87,5.67-3.82,11.33-1.87,5.46-3.76,10.9c-.92,2.62-1.83,5.22-2.76,7.82l-1.32,3.71q-1.31,3.69-2.64,7.34c-.88,2.44-1.77,4.86-2.65,7.26s-1.69,4.46-2.6,6.54c-.23.55-.48,1.09-.72,1.62l-.78,1.64-.12.24q-.39.81-.81,1.59a2.75,2.75,0,0,1-.2.38c-.59,1.11-1.2,2.19-1.83,3.23-.72,1.19-1.47,2.33-2.26,3.42-.29.42-.59.82-.89,1.22q-.66.87-1.35,1.68t-1.23,1.41q-.63.69-1.29,1.35c-.4.41-.82.81-1.24,1.21l-.21.19c-.42.38-.85.75-1.28,1.12s-.94.78-1.42,1.15c-.8.62-1.64,1.22-2.5,1.79l-.78.5a45,45,0,0,1-5.51,3,56,56,0,0,1-9.65,3.3l-1.16.27c-.39.1-.79.19-1.21.27-1.33.29-2.71.55-4.14.77l-.95.15q-1.32.2-2.7.36c-.46.05-.93.11-1.4.15l-1.42.14-1.45.13-2,.14c-1.34.08-2.71.14-4.12.18s-2.86.06-4.34.07-3,0-4.56-.06l-2.36-.08-2.43-.11-2.49-.14q-3.76-.23-7.82-.6-2.7-.24-5.53-.56c-1.88-.21-3.82-.45-5.79-.7l-1.5-.18-2.6-.32-3.93-.49L617,648l-1.26-.16c-4.27-.57-8.85-1.2-13.7-1.9l-2.91-.42-2.86-.42-3.39-.5-.66-.1-3.9-.59-4.93-.76-.94-.14-2.09-.33q-5.85-.91-12-1.91l-3.19-.52h0l-1.6-.26-1.62-.27-5.36-.88-2.41-.4-2.43-.41-1.24-.21-3.65-.61-2.47-.42-2.49-.43-2.5-.42-7.56-1.31-2.55-.45-3.83-.67-3.85-.68-2.58-.45-2.59-.47-2.6-.46-5.21-.94-5.23-.95c-2.77-.5-5.55-1-8.32-1.53l-4.52-.84-2.95-.55-5.29-1-2.63-.49q-5.52-1-11-2.11-3.72-.71-7.42-1.44l-8-1.57c-1.86-.36-3.72-.74-5.57-1.11l-2.08-.41c-7.75-1.55-15.39-3.12-22.85-4.69l-5-1.05-1.38-.29-1.07-.22q-3.94-.84-7.82-1.69l-1.83-.4-2.38-.52-.82-.17c-3.66-.81-7.26-1.61-10.77-2.41l-1.46-.32-.64-.16q-6.83-1.54-13.24-3.08l-2.09-.5-3-.73-2.17-.53c-2.34-.58-4.62-1.14-6.84-1.71l-3.31-.84-.48-.13-1.85-.48c-3.67-1-7.17-1.9-10.46-2.82l-1.68-.47-.63-.18-.91-.27-1.17-.34-.47-.13-2.93-.87-1.91-.59c-.93-.29-1.84-.58-2.72-.88-1.09-.36-2.16-.73-3.19-1.1-.69-.24-1.37-.49-2-.75l-1-.37c-1.62-.63-3.14-1.27-4.59-1.93l-1-.47-1.8-.87-.07,0a56.35,56.35,0,0,1-5.23-3l-.78-.52-.76-.52-.74-.54c-.24-.17-.48-.35-.71-.54l-.54-.42-.28-.23-.53-.45a31,31,0,0,1-3.71-3.72l-.61-.75a29.37,29.37,0,0,1-4.22-7.33c-.34-.83-.65-1.69-.94-2.57a1.73,1.73,0,0,1-.08-.27c-.14-.43-.27-.86-.39-1.3a1.89,1.89,0,0,1-.09-.34c-.13-.44-.24-.89-.35-1.35s-.28-1.21-.41-1.84-.21-1.11-.31-1.68a.64.64,0,0,1,0-.07c-.09-.54-.17-1.09-.26-1.65l0-.23c-.08-.56-.16-1.13-.23-1.71,0-.19-.05-.38-.07-.58-.28-2.38-.48-4.91-.64-7.59-.16-2.88-.28-6-.38-9.22-.12-3.57-.2-7.38-.33-11.46,0-.44,0-.9,0-1.37,0-.86,0-1.76,0-2.71,0-.36,0-.74,0-1.11,0-.76,0-1.54,0-2.34l0-1.22c0-1.65.11-3.38.19-5.21,0-.45,0-.91.07-1.38s0-.93.07-1.4c.05-1,.1-1.94.16-2.92.21-3.46.47-7.16.78-11,.06-.69.11-1.39.17-2.1.18-2.11.37-4.28.56-6.49.11-1.18.21-2.37.32-3.58s.23-2.42.35-3.65c1.92-19.64,4.73-42.12,7.93-63.32,3.82-25.87,8.43-49.74,11.45-64.43.15-.75.3-1.47.45-2.18h0l.63-3c.33-1.57.63-3,.89-4.19q.15-.74.3-1.38c.09-.43.18-.83.26-1.2.45-2,.7-3.12.7-3.12,0-.24,2.9-14.47,16.26-27.52.92-.9,1.89-1.8,2.91-2.68l1-.86.3-.25c.37-.31.74-.61,1.12-.9l.39-.3c.44-.36.9-.7,1.36-1,1.05-.78,2.15-1.55,3.29-2.29,0,0,0,0,0,0,.57-.38,1.15-.74,1.75-1.1.89-.55,1.81-1.08,2.76-1.6l.9-.49c1.31-.69,2.67-1.37,4.09-2l1.05-.47,1.07-.46.88-.37c1.53-.62,3.13-1.21,4.78-1.77l1.19-.4,1.21-.37,1.24-.37.67-.18c.38-.11.75-.22,1.14-.31,1.08-.29,2.2-.57,3.33-.82l1.35-.3,1.36-.28c.36-.08.73-.15,1.1-.21q1.09-.21,2.22-.39c.66-.11,1.32-.22,2-.31.5-.08,1-.15,1.51-.21l.33,0,1.1-.14,1.92-.21,1.55-.15,1.57-.13q1.33-.1,2.7-.18h.19l.32,0c.81,0,1.61-.08,2.43-.1l.91,0c1.68,0,3.4-.05,5.14,0,2.35,0,4.77.09,7.26.22.63,0,1.24.06,1.87.11l1.92.14c1.28.09,2.58.2,3.89.33l3,.3c1.28.13,2.58.26,3.91.41,1.59.16,3.21.35,4.87.54l5.08.59q3.89.46,8,1l4.31.56,1.26.17,2.85.38,5.83.81,3,.42,5.4.78,6.9,1,3.17.49,3.91.6q7.69,1.2,15.75,2.54,7,1.15,14.2,2.41c2.51.43,5,.88,7.57,1.33l4.68.84,3.15.57,3.15.58q4.74.87,9.53,1.78c9.59,1.81,19.3,3.73,29,5.74l5.22,1.08,9.3,2,4.71,1,3.44.76q6.46,1.41,12.88,2.88l3.2.75q8,1.88,15.87,3.8l3.15.78,3.12.77,6.21,1.57,6.16,1.59,4.57,1.21c2.53.67,5.05,1.35,7.54,2q6,1.65,11.8,3.32l2.9.85c1,.27,1.92.56,2.87.84l2.85.86,2.83.85,2.8.87,2.78.86,2.75.88q3.08,1,6.09,2l3,1,2.95,1q4.4,1.51,8.63,3.06l2.79,1h0c2,.77,4.07,1.55,6,2.32,1,.38,2,.77,3,1.17l2.89,1.18c1.14.47,2.27.94,3.39,1.43l3.31,1.43c.79.35,1.57.7,2.34,1.06q2.31,1.05,4.52,2.1c1.19.56,2.37,1.14,3.52,1.71.65.33,1.3.66,1.94,1,1.13.58,2.23,1.16,3.31,1.74,1.7.92,3.35,1.85,4.93,2.79.93.55,1.84,1.1,2.74,1.65q4.38,2.71,8.06,5.52c.27.19.53.39.79.59l.67.54c.67.52,1.31,1.06,1.94,1.59.35.3.69.61,1,.93s.63.6.93.92a2.73,2.73,0,0,1,.23.25,7,7,0,0,1,.59.64c.18.18.34.37.5.56s.52.62.77,1l.26.33.43.59c.15.19.29.39.42.59s.24.35.35.54l.09.13c.25.39.5.8.74,1.21s.5.88.74,1.33c.12.23.24.46.34.69s.37.76.54,1.15c.08.19.17.38.25.58.18.4.34.8.49,1.21s.35.91.5,1.38a43.36,43.36,0,0,1,1.29,4.49c.14.6.28,1.22.4,1.86s.24,1.28.35,1.94c.22,1.32.4,2.71.55,4.16.06.72.13,1.46.18,2.22a2.72,2.72,0,0,0,0,.28,2.64,2.64,0,0,1,0,.28c0,.19,0,.39,0,.58,0,.36,0,.74,0,1.13v.05c0,.39,0,.79,0,1.19s0,.8,0,1.21c0,.63,0,1.26,0,1.91C772.5,413.64,772.51,413.84,772.5,414Z"/><path class="cls-3" d="M768.94,445.33c-7.08,39.75-28.51,108.75-50,167-5.81,16.05-13.26,27-27,33.24-6.89,3.11-15.37,5-26.06,5.68-2.68.17-5.5.24-8.46.25-1.48,0-3,0-4.56-.06l-2.36-.07-2.43-.12c-6.55-.32-13.73-1-21.63-2-63.08-7.43-225.42-36.78-288.13-55.68-41.43-12.52-39.76-26.64-40.95-66.85,0-1.26,0-2.62,0-4.08s0-3,.08-4.67.11-3.38.19-5.21c0-.45,0-.91.07-1.38s0-.93.07-1.4c.05-1,.1-1.93.16-2.92.48-7.91,1.23-17,2.18-26.85,1.92-19.65,4.74-42.12,7.93-63.33,6.26-42.44,14.66-79.5,14.68-79.5,0-.24,2.9-14.46,16.26-27.52a71.91,71.91,0,0,1,28.86-17,101.69,101.69,0,0,1,22-4.3c4.15-.37,8.57-.55,13.26-.51,2.35,0,4.77.09,7.26.22l1.87.11,1.92.14c1.28.09,2.58.2,3.89.33,41.88,4.05,115.64,15.91,184.06,31.59s131.49,34.93,158.21,57.71c5.6,4.82,9.52,11.67,11.24,22.27.22,1.33.4,2.71.55,4.16.06.73.13,1.46.18,2.22a1.42,1.42,0,0,0,0,.29c0,.08,0,.18,0,.27s0,.39,0,.58c0,.39,0,.78,0,1.18.07,1.57.1,3.21.09,4.91,0,.43,0,.86,0,1.3,0,.22,0,.44,0,.66s0,.45,0,.66c0,.46,0,.9-.05,1.36l-.06,1.37A189.89,189.89,0,0,1,768.94,445.33Z"/></g><g id="Forma_1_copiar" data-name="Forma 1 copiar"><path class="cls-1" d="M768.94,445.33c-7.08,39.75-28.51,108.75-50,167-5.81,16.05-13.26,27-27,33.24-6.89,3.11-15.37,5-26.06,5.68-2.68.17-5.5.24-8.46.25-1.48,0-3,0-4.56-.06l-2.36-.07-2.43-.12c-6.55-.32-13.73-1-21.63-2-63.08-7.43-225.42-36.78-288.13-55.68-41.43-12.52-39.76-26.64-40.95-66.85,0-1.26,0-2.62,0-4.08s0-3,.08-4.67.11-3.38.19-5.21c0-.45,0-.91.07-1.38s0-.93.07-1.4c.05-1,.1-1.93.16-2.92.48-7.91,1.23-17,2.18-26.85,1.92-19.65,4.74-42.12,7.93-63.33,6.26-42.44,14.66-79.5,14.68-79.5,0-.24,2.9-14.46,16.26-27.52a71.91,71.91,0,0,1,28.86-17,101.69,101.69,0,0,1,22-4.3c4.15-.37,8.57-.55,13.26-.51,2.35,0,4.77.09,7.26.22l1.87.11,1.92.14c1.28.09,2.58.2,3.89.33,41.88,4.05,115.64,15.91,184.06,31.59s131.49,34.93,158.21,57.71c5.6,4.82,9.52,11.67,11.24,22.27.22,1.33.4,2.71.55,4.16.06.73.13,1.46.18,2.22a1.42,1.42,0,0,0,0,.29c0,.08,0,.18,0,.27s0,.39,0,.58c0,.39,0,.78,0,1.18.07,1.57.1,3.21.09,4.91,0,.43,0,.86,0,1.3,0,.22,0,.44,0,.66s0,.45,0,.66c0,.46,0,.9-.05,1.36l-.06,1.37A189.89,189.89,0,0,1,768.94,445.33Z"/></g><g id="Forma_1_copiar_2" data-name="Forma 1 copiar 2"><path class="cls-2" d="M757.8,446.5A180.26,180.26,0,0,0,761,421.79c.05-.89.08-1.75.11-2.6,0-.21,0-.42,0-.63s0-.42,0-.63c0-.41,0-.83,0-1.23,0-1.63,0-3.2-.08-4.7,0-.37,0-.74,0-1.11,0-.18,0-.37,0-.55v-.27c0-.09,0-.18,0-.27,0-.72-.11-1.42-.18-2.11q-.2-2.07-.51-4c-1.64-10.11-5.37-16.63-10.71-21.22-25.46-21.69-85.62-40-150.93-54.91S462.76,302,422.43,298.72l-3.75-.27-1.84-.1-1.81-.09q-3.6-.15-7-.13c-4.53,0-8.79.23-12.81.62A102.78,102.78,0,0,0,373.91,303a72.15,72.15,0,0,0-28.06,16.05C332.74,331.39,330,344.74,330,344.74s-8.26,34.46-14,74.48c-2.95,20-5.43,41.27-7,59.94-.81,9.33-1.41,18-1.76,25.56,0,.95-.08,1.87-.12,2.78,0,.45,0,.9,0,1.34s0,.89-.05,1.32c-.05,1.74-.09,3.4-.11,5s0,3.06,0,4.45.05,2.7.1,3.9c1.7,38.41.39,52,40.07,64,60.15,18.17,215.07,46.21,275.09,53.28,7.53,1,14.37,1.6,20.6,1.91,1.56.08,3.08.14,4.57.17s2.93.06,4.34.06q4.23,0,8.05-.24c10.19-.63,18.25-2.45,24.81-5.42,13.1-5.94,20.19-16.38,25.71-31.66C730.64,550.1,751.06,484.38,757.8,446.5Z"/></g><path class="cls-4" d="M389.12,644.6c-46.55,17.78-116.67,4.86-116.67,4.86,6-.64,10-1.62,12.52-2.79,11.34-5.21-5.94-14.24-5.94-14.24-56.6-25.06-52.36-64.71-27.63-75.69-4.45,8.63-10.54,28,4.53,38.74,7.87,5.58,17.15,9.62,26.33,12.53,3.95,4.14,9.16,7.75,16.05,11.07l0,0c1.16.56,2.38,1.1,3.65,1.66s2.61,1.1,4,1.62l2.1.82,2.53.9a10.25,10.25,0,0,0-3.54,3.67c-10.29,17.67,18.58,13.17,42.28,7.48q5.14,1.31,10.57,2.61c1.59.39,3.2.78,4.83,1.16h0C372.55,640.88,380.69,642.74,389.12,644.6Z"/><path class="cls-4" d="M392.45,643.27c-1.1.47-2.21.91-3.33,1.33-8.43-1.86-16.57-3.72-24.32-5.56h0c-1.63-.38-3.24-.77-4.83-1.16q-5.43-1.3-10.57-2.61c1.75-.43,3.47-.85,5.15-1.28C378.9,627.78,392.45,643.27,392.45,643.27Z"/><path class="cls-3" d="M606.86,884.27c-9.3.51-33,1.62-46.15.48a8.87,8.87,0,0,1-7.34-5.21c-6.92-15.47-29-67.15-29.12-95.51a4.08,4.08,0,0,0-4.47-4c-9.46.9-31.26,2.48-45.9-.26a4.07,4.07,0,0,0-4.8,4.51c2.22,17.43,8.55,69,9,92.39a6.63,6.63,0,0,1-6.15,6.73c-12.78,1-42.86,2.68-62.45-.4a2.5,2.5,0,0,1-1.36-4.24c4.46-4.45,12.79-12.16,20.32-15.87a5.54,5.54,0,0,0,2.86-6.49c-5.3-18.74-23.08-89.88-14.88-175,.31-3.35.68-6.72,1.08-10.12.13-1.07.26-2.15.4-3.23l0-.23a2.91,2.91,0,0,0-4.42-2.85c-1,.62-2.15,1.31-3.43,2-1.74,1-3.73,2.1-6,3.24-3.32,1.72-7.19,3.55-11.58,5.4-23.12,9.7-60.66,14.94-109.23,7.81-53-7.79-88.19-37.46-95.48-78.11-4-22.23-3.27-44.22,15.86-69.7,1.55-2.07,5.25-5.21,7-7.28s7-4.76,9.25-5.68c34.16-14,80.85,16,71.25,29.5l-.12.17a9.62,9.62,0,0,1-5.78,3.22,18.26,18.26,0,0,1-8.75-.31,43.31,43.31,0,0,0-7.37-1.31,35.69,35.69,0,0,0-17.73,2.76,28.49,28.49,0,0,0-17,21.61,31.13,31.13,0,0,0,.8,13.15c3.76,13.85,16.92,29,43.79,40.93,0,0,17.28,9,5.94,14.24a20.14,20.14,0,0,1-2.37.9,31.55,31.55,0,0,1-8.15,1.89,282.53,282.53,0,0,0,45.27,4.45c23.3.55,51-1.4,72.73-10.64,0,0-13.55-15.49-37.94-9.29s-58.48,12.77-47.43-6.2c3.06-5.24,9.62-10.87,16.67-17.06,1.46-1.27,2.94-2.58,4.42-3.91a33.29,33.29,0,0,0,4.3-3.92c8.37-10.76,30.13-23.07,14.56-46.15-3.55-5.26-11.48-8.35-17.55-5.49-7.41,3.5-21.43,6.11-26.84-.11-9-10.37,38.52-49.79,79.75-6.24,26.68,28.18,52.4,57.4,94.66,77.56,3.34,1.6,6.65,3.3,9.9,5.08l75.64,41.14a233,233,0,0,0,29.7,13.3c4.67,1.75,8.8,4.26,8.9,7.81.49,16.37-16.69,20.37-16.93,21.79-1,6.16-2,12.45-2.8,18.67-2.67,20.06-4.06,39.49-2,52,4.73,29.37,9,65.94,10.35,78.43a8.76,8.76,0,0,0,4.13,6.5c4.25,2.61,11.17,7.44,15,13.2A2.54,2.54,0,0,1,606.86,884.27Z"/><path class="cls-4" d="M288.43,643.88c-.69,3.31-1.17,6.51-13,5.58a142.53,142.53,0,0,1-22.75-6.29,1.37,1.37,0,0,1,.84-2.61C265.57,643.74,279,647.77,288.43,643.88Z"/><path class="cls-4" d="M410.06,667l-6.7-17.46s11.09,7.22,44.47,22.33c36.49,16.52,86.6,34.94,136.43,39.68-1,6.16-2,12.45-2.8,18.67C548.58,720,464.84,694.12,416.4,681.42c.31-3.35.68-6.72,1.08-10.12l.06-.51a2.76,2.76,0,0,0-2.38-3.08l-5.1-.68Z"/><path class="cls-3" d="M547.4,510.89c3,3.05,3.77,9.11,1.69,14.51-8.48,22-26.06,35.89-42.27,32.05s-25.69-24.16-23.39-47.62c.56-5.75,4-10.83,8-12.2h0c21.49-2.06,38.65,1.61,55.95,13.26Z"/><path class="cls-3" d="M443.9,384.49c5.28,20.79,5.7,45.13.06,84.32-2,14-13.86,25.9-27.86,23.82-12.81-1.91-28.2-6.62-40.35-17.68-21.16-19.28,11.69-80.05,42.16-100C426.81,369.12,441.28,374.18,443.9,384.49Z"/><path class="cls-3" d="M635.73,422.92c-14.2,17-25.38,39.56-37.41,78.61-4.3,14,1.63,30.31,15.8,34.59,13,3.91,29.62,6.35,46,1.43,28.56-8.57,24.41-79.84,4.43-112C658.72,416.17,642.78,414.46,635.73,422.92Z"/><path class="cls-2" d="M549.24,716.74c-.13,1.14-.29,2.26-.49,3.38a52.22,52.22,0,0,1-1.43,6,53.29,53.29,0,1,1-100.87-34.22l.51-1.28c.1-.25.2-.49.31-.74.43-1,.9-2,1.41-3l.09-.18c.17-.35.34-.69.54-1,.28-.55.58-1.08.88-1.6,0,0,0,0,0-.05.59-1,1.23-2,1.9-3a.36.36,0,0,1,.07-.1q1.43-2.1,3-4l.43-.5.6-.7c11.61,5.05,24.36,10.16,37.87,14.91l-1.26,1.08-4.33,3.7-2.68,2.3-.89.76h0l-2.14,1.82-.7.6-.43.37-2.33,2-5.47,4.69a2.57,2.57,0,0,0-.33.33,2.44,2.44,0,0,0,2.09,4l25.81-1.86-1,.47-11,4.9-2,.89-.48,2.58-3.62,19.61a2.43,2.43,0,0,0,4,2.29l18.19-15.37,2.37-2,8.61-7.29,1.93-1.63a3.12,3.12,0,0,0-2.24-5.5l-2.61.19-8.87.64.63-3.13.33-1.62.34-1.68.26-1.25v-.07l.46-2.2L507,699l.56-2.7.24-1.14a417.71,417.71,0,0,0,41.56,11.06c0,.26,0,.53.07.8.06.9.1,1.8.11,2.69A53.21,53.21,0,0,1,549.24,716.74Z"/><path class="cls-1" d="M456.26,675.64c11.61,5.05,24.36,10.16,37.87,14.91l-1.26,1.08-4.33,3.7-2.68,2.3-.89.76h0l-2.14,1.82c-12.14-3.59-24.2-7.09-35.55-10.31.43-1,.9-2,1.41-3l.09-.18c.17-.35.34-.69.54-1,.28-.55.58-1.08.88-1.6,0,0,0,0,0-.05.59-1,1.23-2,1.9-3a.36.36,0,0,1,.07-.1q1.43-2.1,3-4l.43-.5Z"/><path class="cls-1" d="M549.24,716.74c-.13,1.14-.29,2.26-.49,3.38-9.08-2.79-19-5.83-29.41-9l-5.73-1.73-8.24-2.49.33-1.62.34-1.68.26-1.25v-.07l.46-2.2L507,699l.56-2.7.24-1.14a417.71,417.71,0,0,0,41.56,11.06c0,.26,0,.53.07.8.06.9.1,1.8.11,2.69A53.21,53.21,0,0,1,549.24,716.74Z"/><path class="cls-4" d="M291,552.38c-.77,1.09-5,7-8.9,8.21-4.26,1.36-12.77,0-12.77,0q-.12-3.2-.23-6.61a43.31,43.31,0,0,1,7.37,1.31,18.26,18.26,0,0,0,8.75.31A9.62,9.62,0,0,0,291,552.38Z"/></svg>