<svg id="Layer_1" data-name="Layer 1" xmlns="http://www.w3.org/2000/svg" xmlns:xlink="http://www.w3.org/1999/xlink" viewBox="0 0 1500 1000"><defs><style>.cls-1{fill:#4c7ba2;}.cls-2{fill:#50b0d1;}.cls-3{fill:#fff;}.cls-4{fill:#bed4e4;}.cls-5{fill:url(#linear-gradient);}</style><linearGradient id="linear-gradient" x1="471.27" y1="887.16" x2="564.17" y2="571.29" gradientUnits="userSpaceOnUse"><stop offset="0" stop-color="#50b0d1"/><stop offset="1" stop-color="#50c3d1"/></linearGradient></defs><path class="cls-1" d="M728.35,151.08c-69.07-11.42-136.1-18.27-181.28-20.22-5-8.45-19.06-37.23-5.88-57.31,14.7-22.43,53.95-31.6,132.28,29.21v0A652.19,652.19,0,0,1,728.35,151.08Z"/><path class="cls-2" d="M842.81,175.76c-22.51-5.83-46.24-11.13-70.33-15.89-16.64-3.29-33.42-6.3-50.09-9.05a653.77,653.77,0,0,0-54.88-48.29v0c17.76-26.22,53.28-39.63,91-30.33C795.71,81.32,835.83,122.44,842.81,175.76Z"/><path class="cls-3" d="M1220.77,390.55c-58.19,60.75-133,110.55-205.79,149.66h0a1418.67,1418.67,0,0,1-153.22,70.34c-66.19,25.88-112.3,38.64-112.3,38.64-4.8,42.58-31,115.57-31,115.57.38.88.75,1.77,1.11,2.68C732.61,800,737,848.39,737,848.39c26.33,2.32,34.07,24,34.07,24-20.9,4.64-70.45,0-70.45,0-28.65-15.49-58.07-99.1-58.07-99.1-17,1.55-59.61-2.32-59.61-2.32,2.32,35.61-15.48,108.38-15.48,108.38-20.91,6.2-76.65,3.87-76.65,3.87s17.81-24.77,31.74-24.77c0,0-15.48-62.71-11.61-91.36l-11.52-26.66-8.68-20.08-6.9-16-69.53-40.87c-3.3-1.93-1-3.35-4.11-1.08-2.54,1.86.35,1.85-1.77,5.17-5.91,9.23-21.88,4-25.73-.46C370.09,652.55,356,607,405.65,581.29l78.19-44.13L767.2,583.61c75.09-17.51,233-126.19,268.64-161s47.23-101.42,57.29-99.87c6.75,1,7.93,15.65,8,25.16a3.08,3.08,0,0,0,5.34,2.09l22.3-24.16c35.94-44.52,91.2-20.65,104.47,15.1C1239.11,356.75,1236.74,374.94,1220.77,390.55Z"/><path class="cls-4" d="M1156.31,359.78a.38.38,0,0,1,.12-.73c3.66,0,11.07.58,14.51,5.08s-.52,11.12-2.73,14.09a.37.37,0,0,1-.66-.32C1168.57,373.86,1169.36,364.4,1156.31,359.78Z"/><path class="cls-4" d="M1220.77,390.55c-58.19,60.75-133,110.55-205.79,149.66,168.81-106.88,218.24-199.31,218.24-199.31C1239.11,356.75,1236.74,374.94,1220.77,390.55Z"/><path class="cls-3" d="M405.22,581.51s20.81,32.37,1.72,78.93l-18.59-3.5Z"/><polygon class="cls-3" points="406.9 580.45 416 669.64 388.36 656.93 406.9 580.45"/><path class="cls-4" d="M749.44,649.2c-4.8,42.58-31,115.57-31,115.57.38.88.75,1.77,1.11,2.68-50.51-1.35-179.49-6.72-220.11-27l-8.68-20.08C512.93,677.46,690,587.74,690,587.74l171.7,22.82C795.55,636.44,749.44,649.2,749.44,649.2Z"/><g id="Forma_1" data-name="Forma 1"><path class="cls-3" d="M1002.29,271.28c0-1.12,0-2.25,0-3.32s-.07-2.17-.11-3.21c-.1-2.09-.23-4.08-.42-6-1.51-15.31-6.16-25.23-13.5-32.07-25.48-23.87-79.91-43.48-143.91-58.78-23.19-5.54-47.64-10.5-72.42-14.92-17.12-3-34.38-5.81-51.53-8.31-71-10.36-139.9-16.07-186.25-17.19q-5.18-.14-10-.18c-3.54,0-7,0-10.34.13s-6.61.31-9.76.58c-6.32.53-12.28,1.36-17.88,2.4a140.25,140.25,0,0,0-29.66,8.9A107.25,107.25,0,0,0,418,166.87c-17.66,20-20.73,40.38-20.74,40.63-.05,0-9.42,53-14.7,113.87C379.9,350.2,378,380.75,377,408c-.05,1.52-.12,3-.15,4.53-.47,14.2-.69,27.4-.63,38.86,0,5.75.12,11,.29,15.82.09,2.39.19,4.66.3,6.77s.27,4.08.43,5.9c4.42,50.1,4.47,72.79,39.73,87.39l0,0c1.41.59,2.87,1.15,4.4,1.71s3.13,1.12,4.8,1.65c.83.27,1.69.53,2.53.81,2.6.8,5.34,1.57,8.21,2.33,15.83,4.14,36.23,8.35,59.47,12.52h.05c14,2.49,29,5,44.67,7.41,31.39,4.89,65.43,9.6,99.11,13.92,11.75,1.5,23.48,3,35,4.36l6,.72,5.9.72,1.6.19L702,615.23h0l17.58,2,3.8.44,18.86,2.13,2.09.23,7.74.84c4.09.46,8.13.89,12,1.31l10.57,1.13c5.17.54,10.16,1,14.93,1.56,10.87,1.11,20.71,2.09,29.23,2.91,10.58,1,20.21,1.59,29,1.73q3.3,0,6.44,0t6.14-.16q6-.24,11.38-.83c14.42-1.53,25.85-4.85,35.07-10,18.4-10.24,27.86-27.65,34.4-52.3,23.77-89.68,44.77-186.46,55.15-243.19,2.6-14.18,4.3-26.44,5.17-37.07C1002,280.72,1002.26,275.81,1002.29,271.28Zm-43.56,60.44c-5.68,47.21-26.28,129.75-47.63,199.63-5.76,19.26-13.79,32.63-29.55,40.87-7.9,4.12-17.73,6.92-30.27,8.42-3.12.37-6.44.65-9.92.86-1.75.09-3.52.17-5.36.22-.92,0-1.86.06-2.78.07s-1.91,0-2.86,0c-7.73.06-16.21-.23-25.58-.92-13.33-.8-30.43-2.22-50-4.11l-9.21-.91c-90-9-223.73-27-283.26-41.27-49.53-12-48.51-28.68-52.58-75.87-.12-1.49-.23-3.08-.32-4.79s-.16-3.56-.22-5.49-.09-4-.13-6.14c0-.53,0-1.08,0-1.63s0-1.1,0-1.66c0-1.13,0-2.28,0-3.44.05-9.34.32-20.11.78-31.72.95-23.22,2.76-49.83,5.11-75,4.54-50.31,12-94.45,12-94.45,0-.27,2.44-17.19,17.28-33.43,7.46-8.18,18-16.18,32.79-21.87a120.89,120.89,0,0,1,25.63-6.52c4.86-.71,10-1.22,15.55-1.48,2.76-.14,5.61-.21,8.55-.23H529l2.26,0c1.51,0,3,.07,4.59.13,49.52,2,137,11,218.5,24.9,81.47,14.07,156.9,32.33,189.84,57.33,6.91,5.28,12,13.09,14.69,25.43.35,1.54.65,3.16.92,4.86.12.85.25,1.71.36,2.59,0,.12,0,.22,0,.34s0,.22,0,.32l.09.68c.05.45.09.9.14,1.38.18,1.84.33,3.76.43,5.77,0,.5,0,1,0,1.53q0,.39,0,.78a6.71,6.71,0,0,1,0,.78c0,.53,0,1,0,1.59s0,1.07,0,1.61A226.8,226.8,0,0,1,958.73,331.72Z"/><path class="cls-3" d="M958.73,331.72C953,378.93,932.44,461.47,911.1,531.35c-5.76,19.25-13.79,32.62-29.55,40.87-7.9,4.12-17.73,6.93-30.26,8.41-3.14.38-6.45.66-9.93.86-1.75.1-3.52.18-5.36.24l-2.79.07c-.94,0-1.9,0-2.86,0-7.72,0-16.2-.25-25.56-.92-74.66-4.54-267.46-28.26-342.44-46.3-49.54-12-48.52-28.68-52.59-75.87-.12-1.48-.23-3.08-.32-4.79s-.17-3.55-.21-5.5-.11-4-.13-6.13c0-.54,0-1.08,0-1.63s0-1.1,0-1.66c0-1.13,0-2.28,0-3.44.05-9.34.31-20.11.79-31.72.94-23.22,2.76-49.83,5.11-75,4.53-50.3,11.94-94.43,12-94.43,0-.29,2.46-17.2,17.29-33.44,7.47-8.18,18-16.18,32.8-21.87a120.53,120.53,0,0,1,25.61-6.52c4.86-.71,10-1.22,15.56-1.48q4.14-.21,8.55-.22c.73,0,1.47,0,2.21,0l2.26,0c1.51,0,3,.07,4.6.13,49.51,2,137,11,218.49,24.9,81.47,14.06,156.91,32.33,189.84,57.33,6.91,5.29,12,13.09,14.7,25.43.33,1.54.64,3.16.91,4.86.13.84.25,1.7.37,2.59a2,2,0,0,0,0,.34c0,.1,0,.22,0,.32s0,.46.08.68c.06.45.1.91.14,1.38.18,1.84.33,3.76.43,5.77,0,.51,0,1,.06,1.53,0,.26,0,.52,0,.78s0,.52,0,.78c0,.53,0,1,0,1.59s0,1.07,0,1.62A225.16,225.16,0,0,1,958.73,331.72Z"/></g><g id="Forma_1_copiar" data-name="Forma 1 copiar"><path class="cls-1" d="M958.73,331.72C953,378.93,932.44,461.47,911.1,531.35c-5.76,19.25-13.79,32.62-29.55,40.87-7.9,4.12-17.73,6.93-30.26,8.41-3.14.38-6.45.66-9.93.86-1.75.1-3.52.18-5.36.24l-2.79.07c-.94,0-1.9,0-2.86,0-7.72,0-16.2-.25-25.56-.92-74.66-4.54-267.46-28.26-342.44-46.3-49.54-12-48.52-28.68-52.59-75.87-.12-1.48-.23-3.08-.32-4.79s-.17-3.55-.21-5.5-.11-4-.13-6.13c0-.54,0-1.08,0-1.63s0-1.1,0-1.66c0-1.13,0-2.28,0-3.44.05-9.34.31-20.11.79-31.72.94-23.22,2.76-49.83,5.11-75,4.53-50.3,11.94-94.43,12-94.43,0-.29,2.46-17.2,17.29-33.44,7.47-8.18,18-16.18,32.8-21.87a120.53,120.53,0,0,1,25.61-6.52c4.86-.71,10-1.22,15.56-1.48q4.14-.21,8.55-.22c.73,0,1.47,0,2.21,0l2.26,0c1.51,0,3,.07,4.6.13,49.51,2,137,11,218.49,24.9,81.47,14.06,156.91,32.33,189.84,57.33,6.91,5.29,12,13.09,14.7,25.43.33,1.54.64,3.16.91,4.86.13.84.25,1.7.37,2.59a2,2,0,0,0,0,.34c0,.1,0,.22,0,.32s0,.46.08.68c.06.45.1.91.14,1.38.18,1.84.33,3.76.43,5.77,0,.51,0,1,.06,1.53,0,.26,0,.52,0,.78s0,.52,0,.78c0,.53,0,1,0,1.59s0,1.07,0,1.62A225.16,225.16,0,0,1,958.73,331.72Z"/></g><g id="Forma_1_copiar_2" data-name="Forma 1 copiar 2"><path class="cls-2" d="M945.71,333.84a213.44,213.44,0,0,0,2.16-29.27c0-1,0-2.06,0-3.06,0-.25,0-.5,0-.75l0-.74-.06-1.45c-.09-1.91-.23-3.75-.4-5.51-.05-.44-.09-.88-.14-1.31,0-.21,0-.43-.08-.64l0-.32c0-.1,0-.21,0-.31-.11-.85-.23-1.67-.35-2.48-.25-1.61-.54-3.15-.86-4.62-2.61-11.76-7.43-19.19-14-24.23-31.37-23.8-103.31-41.28-181.09-54.52-77.77-13.09-161.48-21-209.12-22.23-1.5,0-3-.06-4.43-.07H535l-2.14,0q-4.23.08-8.23.31c-5.32.31-10.31.85-15,1.58a121.09,121.09,0,0,0-24.79,6.41c-14.36,5.48-24.64,13-31.91,20.75C438.33,226.77,436,242.65,436,242.64s-7.42,41.07-11.5,88.5c-2.13,23.69-3.64,48.88-4.3,70.94-.33,11-.46,21.27-.37,30.17,0,1.11,0,2.2,0,3.27l0,1.58c0,.53,0,1,0,1.55q.07,3.08.19,5.85c.08,1.85.18,3.6.29,5.24s.23,3.16.38,4.57c4.55,45.05,3.91,61.1,51.36,72.58,71.92,17.37,255.92,40,327,44.35,8.92.64,17,.92,24.35.88,1.84,0,3.63,0,5.38-.1s3.45-.13,5.1-.23q5-.28,9.45-.81c11.94-1.42,21.3-4.1,28.81-8,15-7.86,22.65-20.6,28.13-38.94C920.66,457.44,940.3,378.81,945.71,333.84Z"/></g><path class="cls-3" d="M582.52,294.9c6.58,22.49,8,49.06,3.36,92.07-1.65,15.38-14.12,28.83-29.49,27.1-14.06-1.58-31-6.12-44.75-17.73-23.87-20.22,9.64-87.87,42.13-110.85C563.26,278.77,579.26,283.73,582.52,294.9Z"/><path class="cls-3" d="M793.49,318.11c-14.61,21.08-25.18,48.14-35,94.32-3.52,16.52,5,34.73,21.73,38.21,15.32,3.18,34.74,4.28,53.11-3.05,32-12.79,19.93-94.42-6.35-129.38C819.25,308,800.74,307.66,793.49,318.11Z"/><path class="cls-3" d="M700.94,421.74c3.18,2.61,4.52,8.33,3.08,13.7-5.9,21.88-21.31,36.94-37.2,34.9s-27-20.52-27.16-43.18c0-5.55,2.71-10.75,6.44-12.47h0c20.35-4.14,37.12-2.35,54.84,7.05Z"/><path class="cls-5" d="M705.26,502.58V695a41.15,41.15,0,0,1-41,41H447.93a41.15,41.15,0,0,1-41-41V670a6.24,6.24,0,0,1,1.19-3.68c4.07-5.56,16.64-26.24,6.92-58.86-.28-.95-.57-1.84-.85-2.66a71.13,71.13,0,0,0-6-19.12,12,12,0,0,1-1.27-5.19V502.59a41.16,41.16,0,0,1,41-41H664.23A41.16,41.16,0,0,1,705.26,502.58Z"/><path class="cls-3" d="M480.51,692.26a16.88,16.88,0,0,1-16.86-16.86V632.72a10.83,10.83,0,0,1,10.82-10.81h4.64a10.82,10.82,0,0,1,10.81,10.81v20.82a15.38,15.38,0,0,0,15.36,15.36H606.87a15.38,15.38,0,0,0,15.36-15.36V632.72A10.82,10.82,0,0,1,633,621.91h4.64a10.83,10.83,0,0,1,10.82,10.81V675.4a16.87,16.87,0,0,1-16.86,16.86Z"/><path class="cls-3" d="M606.7,585.9l-33.35,42.86a21.87,21.87,0,0,1-34.54,0L505.45,585.9a9.92,9.92,0,1,1,15.65-12.18l25.06,32.21V515.26a9.92,9.92,0,0,1,19.83,0v90.67l25.07-32.21A9.91,9.91,0,1,1,606.7,585.9Z"/></svg>