<svg id="Layer_1" data-name="Layer 1" xmlns="http://www.w3.org/2000/svg" viewBox="0 0 1000 1000"><defs><style>.cls-1{fill:#fff;}.cls-2{fill:#bed4e4;}.cls-3{fill:#50b0d1;}.cls-4{fill:#4c7ba2;}</style></defs><path class="cls-1" d="M825.79,610a62.17,62.17,0,0,1-21,22.48,220.41,220.41,0,0,1-110.59,35.41c-41.61,2-77.85-7.14-100.79-15.09h0a203.78,203.78,0,0,1-25.92-10.71c.56,8,.95,15.45,1.2,22.34,1.54,42.24-2.23,63.93-4.56,73a36.24,36.24,0,0,0-1,12.36C567.34,795.63,562,822.86,560,831a2.51,2.51,0,0,0,1.87,3.07,28.59,28.59,0,0,1,14.77,9,5,5,0,0,1-1.11,7.57c-14.84,9-45.26,5.4-54.76,4a4.56,4.56,0,0,1-3.74-3.31c-9.09-32.55-7.58-73.78-6.8-88.5a5.14,5.14,0,0,0-4.57-5.37c-18.58-2.12-46.4-.09-56.21.75a3.6,3.6,0,0,0-3.28,3.88c4.75,58.25-.47,80.56-2.79,89.25a6,6,0,0,1-4.42,4.28c-13.62,3.17-46.15,2.41-55.06,2.13a3,3,0,0,1-2.85-2.81c-.44-9.71,14-21,19.41-24.89a3.75,3.75,0,0,0,1.45-3.92c-7.45-32.33-4.94-66.38-4-76.3a14.69,14.69,0,0,0-.51-5.52c-9.87-33.38-4.81-79.06-3.13-91.6.28-2.13.47-3.3.47-3.3a33.75,33.75,0,0,0-7.42,2c-26.15,10.07-52.83,51.09-60.24,63.17a3.86,3.86,0,0,0,.77,5c1.72,1.45,3.75,4.11,4.57,8.84,1,5.91-2.87,9.27-5.61,10.85a2.6,2.6,0,0,0-.94,3.51c2.11,3.7,5.17,11.19.74,18.28-13.42,21.68-78.68,15.65-50.29-59.19,11.63-30.66,30.55-47.66,57.1-62.94h0c38.26-22,77.83-30.13,77.83-30.13s31.87-29,153-7.35a515.69,515.69,0,0,0,51.89,7h0c92.44,7.44,126-20.88,136.23-36.45,12-18.2,20.9-17,21.29-10.45.24,4.07-2.34,10.08-4.34,14.06a1.61,1.61,0,0,0,2.07,2.2c12.1-5.2,46.13-18.19,55.3-4.26C834.75,586.51,831.26,599.87,825.79,610Z"/><path class="cls-2" d="M593.38,652.77a203.78,203.78,0,0,1-25.92-10.71c.56,8,.95,15.45,1.2,22.34l-3.53,1.66C500.34,669,438,660.84,394.34,652.72c.28-2.13.47-3.3.47-3.3a33.75,33.75,0,0,0-7.42,2c-33.18-6.46-53.89-12.5-53.89-12.5,38.26-22,77.83-30.13,77.83-30.13s31.87-29,153-7.35a515.69,515.69,0,0,0,51.89,7C580.38,631.06,593,652.21,593.38,652.77Z"/><path class="cls-2" d="M825.79,610a62.17,62.17,0,0,1-21,22.48,220.41,220.41,0,0,1-110.59,35.41s112-17.54,132.63-94.32C834.75,586.51,831.26,599.87,825.79,610Z"/><path class="cls-2" d="M759.28,601.19a.38.38,0,0,1,.11-.73c3.67,0,11.08.57,14.51,5.08s-.51,11.11-2.73,14.08a.37.37,0,0,1-.66-.31C771.53,615.27,772.32,605.8,759.28,601.19Z"/><path class="cls-3" d="M489.18,672.1l-.26,1.17,10.26-.54Q494.14,672.45,489.18,672.1Zm6.37-28.21-3.9,17.22-.89,3.94c15.19,1,30.94,1.62,47,1.62a58.61,58.61,0,0,0-114.42-9.06c12.7,1.92,26.37,3.71,40.75,5.18l.18-.15,12-9.9,14.45-11.84A3,3,0,0,1,495.55,643.89Zm-6.63,29.38,10.26-.54q-5-.29-10-.63Z"/><path class="cls-3" d="M538.2,673.91a58.58,58.58,0,1,1-116.4-9.45,57.61,57.61,0,0,1,1.53-6.85c12.7,1.92,26.37,3.71,40.75,5.18l-2.91,2.36-4.76,3.92-1.36,1.12a3.23,3.23,0,0,0-.37.37,2.69,2.69,0,0,0,2.23,4.39l28.41-1.49-1.14.48L472,679.11l-2.2.93-.58,2.83-4.39,21.45a2.68,2.68,0,0,0,4.33,2.63l20.31-16.52,2.66-2.15,9.61-7.83,2.17-1.76a3.44,3.44,0,0,0-.62-5.73,3.48,3.48,0,0,0-1.74-.35l-2.38.12q-5-.29-10-.63l.89-4,.69-3c15.19,1,30.94,1.62,47,1.62.17,1.38.3,2.77.37,4.18C538.17,671.88,538.2,672.89,538.2,673.91Z"/><path class="cls-4" d="M501.56,672.61a3.48,3.48,0,0,1,1.74.35l-4.12-.23Z"/><path class="cls-4" d="M495.55,643.89a3,3,0,0,0-4.82-3l-14.45,11.84-12,9.9-.18.15c-14.38-1.47-28.05-3.26-40.75-5.18a58.59,58.59,0,0,1,114.42,9.06c-16,0-31.8-.6-47-1.62l.89-3.94Z"/><path class="cls-3" d="M415.12,264.78l31.95,6.12c-30.07,4.74-63,7.34-86.65,2.16,0,0-17.48-76.51,70.09-87.83,24-3.09,42,2,55.49,10.69C442.06,221.31,415.12,264.78,415.12,264.78Z"/><path class="cls-4" d="M527.55,259.45l-76.26,13.33-13.46-3.95-31.06-9.13s29.86-41.57,75.12-63.29c20.84-10,45-15.76,70.9-11.34,14.37,2.46,23.84,16.83,19.11,29.77C563.55,237.68,527.55,259.45,527.55,259.45Z"/><g id="Forma_1" data-name="Forma 1"><path class="cls-1" d="M705.61,311.91q-.89-6.3-2.05-11.58c-.19-.88-.39-1.75-.59-2.59s-.42-1.66-.64-2.46c-.43-1.61-.89-3.13-1.37-4.59-3.83-11.63-9.17-18.53-16.06-22.56C652.28,248.9,579.28,245.18,504,248.53s-152.95,13.78-196.9,23.16c-2.76.58-5.43,1.22-8,1.89s-5.07,1.4-7.48,2.16a138.23,138.23,0,0,0-13.47,5,112,112,0,0,0-21.49,12.07,85.24,85.24,0,0,0-25.17,28.13c-10.29,18.75-9.07,35.17-9,35.17s1.91,42.79,8.4,91c3.15,24.12,7.24,49.59,11.47,71.81,2.1,11.1,4.23,21.4,6.27,30.3,1,4.45,2,8.55,3,12.23.48,1.84,1,3.58,1.42,5.2s.91,3.13,1.35,4.51c14.11,44.31,17.23,60.91,62.73,62.56,69.17,2.5,239-16.11,306.06-24.49,8.38-1.05,16-2.28,22.82-3.71q2.56-.54,5-1.11c1.62-.39,3.2-.78,4.74-1.19q4.6-1.23,8.7-2.62c10.93-3.7,19.24-8.28,25.49-13.86,12.52-11.16,16.85-26.34,17.63-46.62,2.86-73.78,2.34-152.62.53-198.49C707.6,330.14,706.79,320.32,705.61,311.91Z"/></g><g id="Forma_1_copiar" data-name="Forma 1 copiar"><path class="cls-4" d="M680.25,354.86a177.34,177.34,0,0,0-3.58-24.26c-.1-.43-.19-.85-.29-1.26s-.2-.82-.31-1.23l-.15-.6-.15-.6c-.11-.4-.21-.79-.32-1.17-.43-1.55-.87-3-1.33-4.42-.12-.36-.24-.7-.35-1l-.18-.51-.09-.26-.09-.25c-.24-.67-.49-1.32-.74-1.95-.5-1.27-1-2.47-1.55-3.61-4.27-9.12-9.55-14.29-15.84-17.2-29.93-13.68-91.7-14.75-157.44-11.5s-135.25,11.59-174,18.68c-1.22.22-2.42.45-3.6.7l-1.75.37-1.73.38c-2.28.52-4.47,1.07-6.6,1.65-4.24,1.17-8.17,2.46-11.83,3.86a95,95,0,0,0-18.75,9.53,67.36,67.36,0,0,0-21.68,22.69c-8.76,15.33-7.62,29-7.61,29s1.91,35.56,7.14,75.44c2.55,19.94,5.77,40.92,9.08,59.13,1.65,9.1,3.31,17.52,4.91,24.77q.3,1.37.6,2.67l.3,1.29c.09.43.19.85.29,1.27.39,1.66.78,3.24,1.16,4.74s.76,2.91,1.13,4.23.73,2.54,1.08,3.66c11.37,36,13.49,49.11,54.05,49.79,61.39,1,215.28-14.16,274-23.62,7.39-1.11,14-2.35,20-3.73l2.21-.53,2.15-.54c1.42-.36,2.79-.73,4.13-1.11,2.67-.77,5.19-1.56,7.56-2.4,9.48-3.33,16.63-7.23,22-11.8C673,546,676.87,534.17,678,518.21,682.42,460.21,684.05,392.52,680.25,354.86Z"/></g><g id="Forma_1_copiar_2" data-name="Forma 1 copiar 2"><path class="cls-3" d="M670.51,358.77a169.94,169.94,0,0,0-3.41-23.12q-.29-1.2-.57-2.37l-.15-.57-.15-.57c-.09-.38-.19-.75-.3-1.12-.4-1.47-.83-2.87-1.27-4.21l-.33-1c-.06-.16-.11-.32-.17-.49l-.09-.24c0-.08-.05-.16-.08-.24-.23-.63-.46-1.25-.7-1.86-.48-1.2-1-2.35-1.48-3.44-4.07-8.68-9.1-13.61-15.09-16.38-28.52-13-87.44-14.09-150.16-10.84s-129.09,11.78-166.3,19.12c-1.17.23-2.32.47-3.46.72l-1.68.37-1.65.39q-3.29.79-6.34,1.67c-4.08,1.17-7.87,2.46-11.39,3.84a96.69,96.69,0,0,0-18.14,9.3,67.56,67.56,0,0,0-21.18,21.66c-8.66,14.49-7.72,27.23-7.71,27.22s1.39,33.19,6.47,70.75c2.47,18.77,5.68,38.59,9,55.84,1.66,8.63,3.34,16.61,5,23.5.2.87.4,1.71.6,2.54l.3,1.22q.15.62.3,1.2c.39,1.58.78,3.09,1.17,4.51s.76,2.77,1.13,4,.73,2.42,1.09,3.49c11.38,34.2,13.67,46.78,52.53,47.44,58.89,1,205.76-13.44,261.68-22.45,7-1,13.37-2.24,19.07-3.55,1.43-.33,2.81-.67,4.16-1s2.66-.7,3.93-1.06q3.81-1.08,7.19-2.28c9-3.17,15.84-6.89,21-11.24,10.29-8.71,14-19.94,15.07-35.14C672.56,459.14,674.13,394.64,670.51,358.77Z"/></g><path class="cls-1" d="M409.62,458.89c-1.39-21.29-6.46-59.12-24.9-74.12a16.42,16.42,0,0,0-24.15,3.83c-10.21,15.66-17.08,47.84-16.76,71.82a25.89,25.89,0,0,0,12.67,22c8.88,5.22,22.3,9.23,38.45,1.72A25.91,25.91,0,0,0,409.62,458.89Z"/><path class="cls-1" d="M447.25,514.92h0a44.43,44.43,0,0,0,62.13-3.2l1.14-1.24c9.47-10.3-.88-26.47-14.2-22.18l-3.74,1.21a65.94,65.94,0,0,1-31.06,2.29l-3-.5C445,489.05,437,505.86,447.25,514.92Z"/><path class="cls-1" d="M532.13,449.07c-3-20.48-6.57-61,9.09-80.14a16.42,16.42,0,0,1,24.43-1.11c13.57,13.7,27.21,45.36,31.29,69.21a22.68,22.68,0,0,1-6.12,19.68c-7.81,8-22,17.2-43.16,10.64A22.58,22.58,0,0,1,532.13,449.07Z"/></svg>