<svg id="Layer_1" data-name="Layer 1" xmlns="http://www.w3.org/2000/svg" viewBox="0 0 1353 873.21"><defs><style>.cls-1{fill:#baa590;}.cls-2{fill:#ed8e2f;}.cls-3{fill:#b56e33;}.cls-4{fill:#fff;}.cls-5{fill:#bed4e4;}.cls-6{fill:#50b0d1;}.cls-7{fill:#4c7ba2;}</style></defs><ellipse class="cls-1" cx="322.73" cy="678.21" rx="99.12" ry="10.71"/><ellipse class="cls-1" cx="903.7" cy="681.55" rx="10.44" ry="96.57" transform="translate(180.32 1552.12) rotate(-87.3)"/><path class="cls-2" d="M1042.06,272.78c3-38.08-30.32-71.75-74.39-75.21s-82.23,24.61-85.21,62.69"/><path class="cls-3" d="M853.1,259.71s-24.46-15.33-28.9-43.14c-3.61-22.69,19.33-37.61,42.18-35.23,47.12,4.91,103.45,46.73,112,86.09"/><path class="cls-4" d="M1272.56,404.51c-51.4,70-151.22,134.09-218.74,172.22-33.9,19.15-59.66,26-67.08,29.53a4.23,4.23,0,0,0-2.37,3.44c-1.5,16.66-4.94,42.25-7.73,56.68-2.58,13.3-10.39,25.43-20.36,34.61-14.24,13.12-34.69,31.38-51,38.54a5.86,5.86,0,0,1-4.06.25c-5.86-1.84-21.86-9-24.23-32.82a3,3,0,0,1,2.77-3.28c3.12-.23,8,0,11.27,2.94a1.45,1.45,0,0,0,2.08-.08c3.23-3.64,16.17-13.73,22.84-19.51a.93.93,0,0,0-.49-1.66c-6.59-.43-26.55-1.32-32.65.61,0,0-34.29,33.22-54.76,43.48a7.79,7.79,0,0,1-7,0c-7.86-4-26.69-15.42-28.7-32.37a4.56,4.56,0,0,1,4.76-5c4,.18,9.71.87,14.05,3.06a3,3,0,0,0,3.16-.5c5.49-5.23,24.21-23.09,31.8-30.3a2.94,2.94,0,0,0,.93-2.1c.12-6.84-2-40.72,2.81-70.53,0,0,0,0,0-.17a1.37,1.37,0,0,0,0-.19v0A5,5,0,0,0,848,587c-4.91-4-17.64-16.4-36.25-32.77l-1.82-1.6c-7-6.16-14.54-13-22.41-20.26C739.6,487.79,679.67,424.13,659.29,368.27c0,0-45.9-84.56,2.82-117.57,20.1-9.35,34.24-2.83,42.55,4.28a21.62,21.62,0,0,1,7.06,20.57l-3.3,17s21.74,72.47,72.08,151.8c0,0,29,47.21,55.1,83.93,1.89,2.66,3.78,5.28,5.63,7.8,5.46,7.46,10.69,14.25,15.37,19.81l.48,0,98.18,3.19,38.65,11.28q8-6.37,15.66-12.53c149.52-120.7,185.68-184,185.68-184-2-22.45,3.44-28,8.23-28.68a10.72,10.72,0,0,1,6.39,1.3,38.47,38.47,0,0,1,8.72-16.65h0C1248.91,296.43,1332.38,331.16,1272.56,404.51Z"/><path class="cls-5" d="M1255.64,390.42s-42.92-9.64-52.16-45.19a10.72,10.72,0,0,1,6.39,1.3,38.47,38.47,0,0,1,8.72-16.65C1218.47,330.59,1213.63,362.75,1255.64,390.42Z"/><path class="cls-5" d="M1053.82,576.73c-33.9,19.15-59.66,26-67.08,29.53a4.23,4.23,0,0,0-2.37,3.44c-63.09-9.27-127.77-53.78-127.77-53.78l98.66,3.21,38.65,11.28q8-6.37,15.66-12.53Z"/><path class="cls-2" d="M729.88,330.38a31,31,0,0,1-14.69,4.69c-9.7.57-18.22,6.39-23.14,14.79a31.21,31.21,0,1,1-48.68-38.16c.52-.52,1.06-1,1.62-1.49a5.83,5.83,0,0,1,4.44-1.31c48.16,6.23,60.53-29,62.53-36.14a31.19,31.19,0,0,1,17.92,57.62Z"/><path class="cls-3" d="M727.77,294.61a3.57,3.57,0,0,1,.6,2.94,3.63,3.63,0,0,1-1.6,2.25l-3.83,2.39a3.45,3.45,0,0,0-1.09,4.75l2.29,3.66a3.74,3.74,0,0,1-1.18,5.21,3.56,3.56,0,0,1-2.58.37,3.63,3.63,0,0,1-2.25-1.6l-2.39-3.82a3.43,3.43,0,0,0-4.74-1.1L707.33,312a3.74,3.74,0,0,1-5.21-1.18,3.66,3.66,0,0,1-.37-2.58,3.58,3.58,0,0,1,1.6-2.24l3.83-2.4a3.44,3.44,0,0,0,1.09-4.74L706,295.1a3.7,3.7,0,0,1,.48-4.63,3.61,3.61,0,0,1,5.55.69l2.39,3.83a3.44,3.44,0,0,0,4.74,1.09l3.69-2.3A3.72,3.72,0,0,1,727.77,294.61Z"/><circle class="cls-3" cx="665.13" cy="334.05" r="15.19"/><path class="cls-3" d="M712,272.76s-3.18,37.33-46.83,41a67.71,67.71,0,0,1-21.76-2.09c.52-.52,1.06-1,1.62-1.49a5.83,5.83,0,0,1,4.44-1.31C697.59,315.13,710,279.89,712,272.76Z"/><path class="cls-5" d="M857.08,555.94c-.64,1.73-1.23,3.26-1.72,4.49-3,7.6-5.2,27.87-5.55,30.82A5,5,0,0,0,848,587c-4.91-4-17.64-16.4-36.25-32.77l-1.82-1.6c-7-6.16-14.54-13-22.41-20.26,10.24-3.55,19.81-6,19.81-6l28.26,1.92c1.89,2.66,3.78,5.28,5.63,7.8,5.46,7.46,10.69,14.25,15.37,19.81Z"/><path class="cls-4" d="M619.22,595,601.89,614l-.87,1-1.8,2-.13.14c-1.15.63-2.33,1.24-3.51,1.83-60.78,30-161.35-5.23-199.47-20.67-5.15-2.08-9.15-3.81-11.76-5a2,2,0,0,0-2.85,2.19,187.43,187.43,0,0,1,1.56,19.18c1.05,27.54-1,62.82-1,62.82,11.16,31.56-2.91,43.18-9.27,46.65a3.53,3.53,0,0,0-1.58,4.34c2.07,5.62,5.44,17-1.23,16.66-14.56-.64-22.15-14.71-24.73-20.7a4.61,4.61,0,0,1,.63-4.69c12.5-16,7.37-27.46,2.71-33.21a14.49,14.49,0,0,0-9.53-5.21c-11.71-1.45-34.42-1-43.8-.75a5.32,5.32,0,0,0-5.19,4.75c-1.35,14.83,12.91,31.75,17.62,36.9a3.19,3.19,0,0,1,.5,3.65c-6.77,12.82-23.25,20.45-31.54,23.6a4.35,4.35,0,0,1-5.9-4.27c.32-6.27,4.63-11.42,6.88-13.71a1.51,1.51,0,0,0-.19-2.31,56.93,56.93,0,0,1-24.63-48.08c-5.24-33.59-4.29-66.7-3.64-80.4.22-4.46-1.3-4.76-3.92-1.67-11.23,13.2-46.39,44.42-98.87,49-44.14,3.23-52.42-39.06-36.26-44.42,8.56-3.19,19.32-1.67,26.33-1.36,2.57.12-1-1.47-1.49-1.8-3.44-2.37-5.11-3.89-5.48-7.15a1.88,1.88,0,0,1,2.6-1.89c4.28,1.75,15.21,5.9,25.7,7.37,12.65,2.88,35-1,49-7.52,15.39-7.25,25.33-12.8,32-16.46,11-6.08,12.59-7.7,12.59-7.7s73.82-41.34,113.83-15.3c11.39,7.42,27.92,12.75,45.73,16.56,44.74,9.59,97.61,9.71,97.61,9.71q3.17.09,6.14,0l1.5-.1c32.37-2.35,45.73-25.75,52.66-18.17,4.09,4.48-1.74,11.47-6.2,15.74a1.85,1.85,0,0,0,0,2.71,1.81,1.81,0,0,0,1.44.49l1.71-.14,1-.09,1-.08,26.91-2.42Z"/><path class="cls-5" d="M410.88,568.45a274.93,274.93,0,0,1-14.77,29.84c-5.15-2.08-9.15-3.81-11.76-5a2,2,0,0,0-2.85,2.19,187.43,187.43,0,0,1,1.56,19.18H368.24a196.29,196.29,0,0,1-82-18l-47.52-21.86c11-6.08,12.59-7.7,12.59-7.7s73.82-41.34,113.83-15.3C376.54,559.31,393.07,564.64,410.88,568.45Z"/><path class="cls-6" d="M628.92,604.62A32.46,32.46,0,0,1,601.73,614a32,32,0,0,1-13.79-5.06A32.52,32.52,0,0,1,576,594.72a28.42,28.42,0,0,0-16-15.39,27.87,27.87,0,0,0-5.75-1.46,32.54,32.54,0,1,1,34.3-45.52,28.92,28.92,0,0,0,22.05,17.16,32.54,32.54,0,0,1,18.35,55.11Z"/><path class="cls-7" d="M620,592.73a3.79,3.79,0,0,1-5.44.91l-3.73-2.87a3.6,3.6,0,0,0-5,.67L603,595a3.89,3.89,0,0,1-5.52.74,3.63,3.63,0,0,1-1.3-2.37,3.76,3.76,0,0,1,.74-2.79l2.86-3.73a3.59,3.59,0,0,0-.66-5l-3.57-2.74a3.9,3.9,0,0,1-.75-5.53,3.75,3.75,0,0,1,2.38-1.29A3.7,3.7,0,0,1,600,573l3.74,2.87a3.59,3.59,0,0,0,5-.67l2.77-3.61a3.86,3.86,0,0,1,4.7-1.22,3.74,3.74,0,0,1,1.35,5.67l-2.86,3.73a3.61,3.61,0,0,0,.66,5l3.6,2.75A3.9,3.9,0,0,1,620,592.73Z"/><path class="cls-7" d="M571.63,555a15.84,15.84,0,1,1-2.93-22.21A15.86,15.86,0,0,1,571.63,555Z"/><path class="cls-4" d="M561.15,581.59l-.72.7L552.25,590s-27.18-5.79-36.12-12c32.37-2.35,45.73-25.75,52.66-18.17,4.09,4.48-2.35,10.92-6.2,15.74a15,15,0,0,0-2.62,3.75C559.79,579.78,560.57,581.64,561.15,581.59Z"/><path class="cls-5" d="M601.89,614l-.87,1-1.8,2a77.92,77.92,0,0,1-15.84-8.53c-4.39-3.05-8.45-9.32-12.3-15-3.6-5.29-8.22-11.22-14.07-8.57-.78.35-2.27,1.61-3.15,1.78a15.66,15.66,0,0,1,6.11-7.36,28.42,28.42,0,0,1,16,15.39,32.52,32.52,0,0,0,11.94,14.18A32,32,0,0,0,601.73,614Z"/><path class="cls-6" d="M277.53,276.93l28.1,7.41c-27.09,2.39-56.55,2.71-77.35-3.35,0,0-10.92-69.25,67.81-74,21.55-1.3,37.31,4.37,48.8,12.9C304.18,239.84,277.53,276.93,277.53,276.93Z"/><path class="cls-7" d="M378.05,279l-68.78,7.24-11.75-4.34-27.13-10s29.15-35.23,70.81-51.82c19.18-7.64,41-11.32,63.88-5.79,12.65,3.06,20.21,16.44,15.21,27.69C411.46,261.83,378.05,279,378.05,279Z"/><path class="cls-6" d="M318.24,571.11A45.9,45.9,0,1,0,364.11,617,45.9,45.9,0,0,0,318.24,571.11Zm9.2,57.63-2.17,1.59-16.56,12.08a2.1,2.1,0,0,1-3.28-2.22l4.31-16.61.57-2.2,1.77-.63,9.72-3.54.91-.33H300.43a2.1,2.1,0,0,1-1.55-3.53,1.89,1.89,0,0,1,.29-.27l5-3.67,2.52-1.86,9.81-7.24,11.79-8.67a2.34,2.34,0,0,1,3.64,2.54l-3.75,13.31-1.51,5.37-1.12,4h9.91a2.69,2.69,0,0,1,1.59,4.86L335.28,623Z"/><path class="cls-7" d="M331.92,594.18a2.34,2.34,0,0,0-3.64-2.54l-11.8,8.68-7.19,5.31a193.82,193.82,0,0,1-23-8.88l-7.35-3.38A45.87,45.87,0,0,1,364,614.65a194.58,194.58,0,0,1-36.69-4.27l.82-2.89Z"/><path class="cls-2" d="M956.43,606.77c0-.25,0-.51,0-.76,0-.87-.09-1.72-.2-2.57a1.1,1.1,0,0,0,0-.18c0-.33-.06-.66-.1-1s-.1-.74-.16-1.11-.12-.72-.19-1.1-.13-.74-.21-1.09a44.66,44.66,0,0,0-2.17-7.43c-.13-.35-.26-.68-.41-1s-.28-.67-.43-1c-.44-1-.92-2-1.43-3-.69-1.28-1.43-2.53-2.24-3.75a45,45,0,0,0-6.23-7.54l-.79-.75c-.54-.49-1.09-1-1.64-1.44l-.84-.7-.88-.67-.87-.66a44.92,44.92,0,0,0-4.68-2.94c-.31-.16-.64-.35-1-.52a43.46,43.46,0,0,0-11.75-4.06c-.55-.11-1.09-.21-1.64-.29a44.1,44.1,0,0,0-6.46-.54c-.52,0-1.06,0-1.58,0l-1.6.07c-.52,0-1.06.06-1.57.13s-.79.07-1.17.13-.54.05-.8.1c0,0,0,0,0,0-.45.07-.9.13-1.34.21a44.37,44.37,0,0,0-9,2.59c-.4.16-.79.33-1.17.5a.45.45,0,0,0-.2.09c-.34.14-.68.31-1,.47-.63.3-1.25.6-1.86.93l-.8.44-.56.31-.15.08c-.33.19-.63.39-1,.59s-.8.48-1.19.75l-.18.12a9.84,9.84,0,0,0-.82.56l-.66.46-1.08.81-.49.39a45.19,45.19,0,0,0-3.88,3.44c-.25.25-.5.5-.74.76l-.32.33c-.28.29-.53.58-.81.88L878,578a34.77,34.77,0,0,0-2.36,2.88,46.24,46.24,0,0,0-8.48,19.08c-4.85,24.87,11,48.89,35.42,53.66a45.07,45.07,0,0,0,47-21,46.54,46.54,0,0,0,6-15.45c.15-.77.28-1.54.39-2.32a43.48,43.48,0,0,0,.46-6c0-.33,0-.63,0-1S956.45,607.15,956.43,606.77Zm-27.82,10-1.94.93L918,621.79,915.62,623l-18.27,8.75a2.07,2.07,0,0,1-2.73-2.81l7.33-15.5,1-2,1.83-.3,10-1.63.94-.17-21.47-4.18a2.1,2.1,0,0,1-.82-3.75,2.7,2.7,0,0,1,.33-.22l5.51-2.67,2.79-1.34,2.88-1.39,7.95-3.88,5.06-2.45,2-1,5.94-2.86a2.31,2.31,0,0,1,3,3.18l-1.81,3.64-.38.76-4,8-1.35,2.68-1.15,2.3-1.84,3.74,9.55,1.86A2.7,2.7,0,0,1,928.61,616.73Z"/><g id="Forma_1" data-name="Forma 1"><path class="cls-4" d="M516.21,309c-.15-.72-.3-1.44-.46-2.14s-.32-1.39-.48-2.06c-.34-1.34-.69-2.61-1.07-3.82-3-9.7-7.3-15.5-13-18.95-19.62-12.08-57.39-17.58-100.78-19-15.72-.52-32.17-.51-48.78-.1-11.46.29-23,.78-34.4,1.43C270,267,224.74,272.42,194.63,277.8c-2.24.4-4.4.8-6.46,1.2q-3.43.67-6.66,1.45t-6.23,1.66A114.15,114.15,0,0,0,164,286a92,92,0,0,0-18,9.66,70.75,70.75,0,0,0-21.3,22.9c-8.77,15.29-8.08,28.83-8,29,0,0,.89,35.49,5.5,75.55,2.11,19,4.9,39,7.86,56.73.17,1,.33,2,.5,2.95,1.58,9.23,3.18,17.8,4.72,25.2.78,3.71,1.54,7.12,2.27,10.19.38,1.53.74,3,1.09,4.33s.71,2.61,1.06,3.77c9.45,31.79,12.48,46.45,37.19,51.24h0c1,.2,2,.37,3.06.53s2.18.31,3.33.43l1.74.19q2.69.25,5.61.42c10.78.6,24.52.63,40.1.26h0c28.13-.69,62.26-2.7,95.76-5.17,7.8-.58,15.57-1.17,23.22-1.79l3.94-.32,3.91-.32,1.07-.08,8.75-.73h0l11.64-1,2.51-.22,13.86-1.23,5.11-.48c2.71-.24,5.37-.5,8-.74l7-.67,9.85-1c7.18-.71,13.67-1.37,19.28-2,7-.73,13.27-1.63,19-2.71,1.43-.27,2.81-.55,4.17-.84s2.66-.59,3.94-.91c2.56-.63,5-1.3,7.25-2,9.12-2.89,16.07-6.55,21.35-11.08,10.55-9,14.37-21.55,15.35-38.34,3.54-61.1,4.36-126.43,3.59-164.47-.19-9.5-.71-17.66-1.55-24.64C517.3,315.18,516.79,312,516.21,309ZM496,353.86c2.55,31.26.11,87.33-4.47,135.32-1.19,13.2-4.62,22.9-13.72,30.31-4.56,3.71-10.55,6.82-18.45,9.43-2,.66-4.08,1.27-6.3,1.86-1.12.3-2.26.58-3.44.86l-1.79.41-1.85.4c-5,1-10.5,2-16.64,2.77-48.86,6.91-176.62,17-227.46,15.22-33.6-1.21-35.15-12.15-44-42.11q-.41-1.41-.84-3.06c-.28-1.1-.57-2.27-.86-3.52s-.59-2.57-.89-3.95c-.07-.34-.15-.69-.22-1.05s-.16-.71-.23-1.07c-.14-.73-.3-1.47-.45-2.23-1.21-6-2.46-13-3.68-20.6-2.45-15.14-4.78-32.58-6.58-49.14-3.7-33.12-4.73-62.62-4.71-62.62,0-.19-.68-11.45,6.77-23.9a55.75,55.75,0,0,1,18.31-18.45,79.74,79.74,0,0,1,15.7-7.6q4.58-1.65,9.86-3,2.65-.67,5.5-1.27l1.43-.28,1.47-.28c1-.19,2-.36,3-.52,32.26-5.26,90-10.94,144.52-12.71s105.68.21,130.26,12c5.17,2.51,9.46,6.89,12.86,14.51.42.95.83,2,1.23,3,.19.53.39,1.07.58,1.62a1.8,1.8,0,0,0,.06.22l.07.2c.05.14.09.29.14.43s.19.57.27.87c.36,1.17.72,2.39,1,3.68l.24,1c0,.17.09.33.12.5s.09.33.12.5c.08.34.16.67.23,1s.15.7.23,1.05A149.69,149.69,0,0,1,496,353.86Z"/><path class="cls-4" d="M496,353.86c2.55,31.26.11,87.33-4.47,135.32-1.19,13.2-4.62,22.9-13.72,30.31-4.56,3.71-10.55,6.82-18.45,9.43-2,.66-4.08,1.27-6.3,1.86-1.12.3-2.26.58-3.44.86l-1.79.41-1.85.4c-5,1-10.5,2-16.64,2.77-48.86,6.91-176.62,17-227.46,15.22-33.6-1.21-35.15-12.15-44-42.11q-.41-1.41-.84-3.06c-.28-1.1-.57-2.27-.86-3.52s-.59-2.57-.89-3.95c-.07-.34-.15-.69-.22-1.05s-.16-.71-.23-1.07c-.14-.73-.3-1.47-.45-2.23-1.21-6-2.46-13-3.68-20.6-2.45-15.14-4.78-32.58-6.58-49.14-3.7-33.12-4.73-62.62-4.71-62.62,0-.19-.68-11.45,6.77-23.9a55.75,55.75,0,0,1,18.31-18.45,79.74,79.74,0,0,1,15.7-7.6q4.58-1.65,9.86-3,2.65-.67,5.5-1.27l1.43-.28,1.47-.28c1-.19,2-.36,3-.52,32.26-5.26,90-10.94,144.52-12.71s105.68.21,130.26,12c5.17,2.51,9.46,6.89,12.86,14.51.42.95.83,2,1.23,3,.19.53.39,1.07.58,1.62a1.8,1.8,0,0,0,.06.22l.07.2c.05.14.09.29.14.43s.19.57.27.87c.36,1.17.72,2.39,1,3.68l.24,1c0,.17.09.33.12.5s.09.33.12.5c.08.34.16.67.23,1s.15.7.23,1.05A149.69,149.69,0,0,1,496,353.86Z"/></g><g id="Forma_1_copiar" data-name="Forma 1 copiar"><path class="cls-7" d="M496,353.86c2.55,31.26.11,87.33-4.47,135.32-1.19,13.2-4.62,22.9-13.72,30.31-4.56,3.71-10.55,6.82-18.45,9.43-2,.66-4.08,1.27-6.3,1.86-1.12.3-2.26.58-3.44.86l-1.79.41-1.85.4c-5,1-10.5,2-16.64,2.77-48.86,6.91-176.62,17-227.46,15.22-33.6-1.21-35.15-12.15-44-42.11q-.41-1.41-.84-3.06c-.28-1.1-.57-2.27-.86-3.52s-.59-2.57-.89-3.95c-.07-.34-.15-.69-.22-1.05s-.16-.71-.23-1.07c-.14-.73-.3-1.47-.45-2.23-1.21-6-2.46-13-3.68-20.6-2.45-15.14-4.78-32.58-6.58-49.14-3.7-33.12-4.73-62.62-4.71-62.62,0-.19-.68-11.45,6.77-23.9a55.75,55.75,0,0,1,18.31-18.45,79.74,79.74,0,0,1,15.7-7.6q4.58-1.65,9.86-3,2.65-.67,5.5-1.27l1.43-.28,1.47-.28c1-.19,2-.36,3-.52,32.26-5.26,90-10.94,144.52-12.71s105.68.21,130.26,12c5.17,2.51,9.46,6.89,12.86,14.51.42.95.83,2,1.23,3,.19.53.39,1.07.58,1.62a1.8,1.8,0,0,0,.06.22l.07.2c.05.14.09.29.14.43s.19.57.27.87c.36,1.17.72,2.39,1,3.68l.24,1c0,.17.09.33.12.5s.09.33.12.5c.08.34.16.67.23,1s.15.7.23,1.05A149.69,149.69,0,0,1,496,353.86Z"/></g><g id="Forma_1_copiar_2" data-name="Forma 1 copiar 2"><path class="cls-6" d="M487.88,356.94a140.52,140.52,0,0,0-2.46-19.2c-.14-.68-.28-1.33-.43-2,0-.16-.08-.32-.11-.48l-.12-.47c-.07-.31-.15-.62-.23-.93-.31-1.23-.64-2.4-1-3.51l-.27-.83c0-.13-.08-.27-.13-.4l-.07-.2-.06-.2c-.18-.53-.37-1.05-.55-1.55q-.57-1.51-1.17-2.88c-3.23-7.26-7.33-11.42-12.25-13.82-23.42-11.25-72.22-13.06-124.24-11.37s-107.16,7.71-138.11,13.2c-1,.17-1.93.35-2.87.54l-1.4.28-1.38.3q-2.73.6-5.28,1.28-5.1,1.36-9.5,3a80,80,0,0,0-15.17,7.42,56,56,0,0,0-17.9,17.61c-7.41,11.86-6.83,22.44-6.82,22.43s.62,27.52,4.24,58.72c1.74,15.6,4.08,32.08,6.57,46.42,1.24,7.18,2.5,13.82,3.74,19.55.15.72.3,1.42.45,2.11.08.35.16.69.23,1s.16.67.23,1c.3,1.32.6,2.57.9,3.76s.59,2.3.87,3.34.57,2,.85,2.91c8.88,28.52,10.59,39,42.77,40.14,48.78,1.75,170.71-7.86,217.19-14.43,5.85-.76,11.11-1.64,15.86-2.64,1.18-.25,2.34-.51,3.46-.77s2.21-.54,3.27-.82q3.18-.84,6-1.77c7.53-2.49,13.23-5.46,17.56-9,8.67-7.06,11.93-16.31,13.05-28.88C488,440.14,490.31,386.73,487.88,356.94Z"/></g><path class="cls-3" d="M929,588.72a2.31,2.31,0,0,0-3-3.18L920,588.4l-2,1c-12.85-5.64-24.48-11.62-34.09-16.94l.49-.39,1.08-.81.66-.46a9.84,9.84,0,0,1,.82-.56l.18-.12c.39-.27.79-.52,1.19-.75s.63-.4,1-.59l.15-.08.56-.31.8-.44c.61-.33,1.23-.63,1.86-.93.35-.16.69-.33,1-.47a.45.45,0,0,1,.2-.09c.38-.17.77-.34,1.17-.5a44.37,44.37,0,0,1,9-2.59c.44-.08.89-.14,1.34-.21,0,0,0,0,0,0,.26,0,.52-.07.8-.1s.77-.1,1.17-.13,1-.1,1.57-.13l1.6-.07c.52,0,1.06,0,1.58,0a44.1,44.1,0,0,1,6.46.54c.55.08,1.09.18,1.64.29a43.46,43.46,0,0,1,11.75,4.06c.34.17.67.36,1,.52A44.92,44.92,0,0,1,937.6,571l.87.66.88.67.84.7c.55.46,1.1,1,1.64,1.44l.79.75a45,45,0,0,1,6.23,7.54c.81,1.22,1.55,2.47,2.24,3.75.51,1,1,2,1.43,3,.15.35.3.68.43,1s.28.67.41,1a44.66,44.66,0,0,1,2.17,7.43c.08.35.15.72.21,1.09s.12.74.19,1.1.11.75.16,1.11.06.67.1,1a1.1,1.1,0,0,1,0,.18,297.57,297.57,0,0,1-29.44-10.32l.38-.76Z"/><g id="Forma_1-2" data-name="Forma 1"><path class="cls-4" d="M1156.37,336.25c0-.76,0-1.51-.06-2.24s-.08-1.45-.12-2.15c-.09-1.4-.21-2.74-.37-4-1.25-10.26-4.52-16.87-9.55-21.35-17.49-15.66-54.36-28-97.61-37.33-15.66-3.37-32.16-6.34-48.89-8.94-11.55-1.78-23.19-3.38-34.75-4.8-47.89-5.89-94.25-8.7-125.42-8.75q-3.48,0-6.69,0c-2.38,0-4.69.11-6.94.25s-4.43.31-6.55.53c-4.24.45-8.23,1.1-12,1.88a94.51,94.51,0,0,0-19.8,6.43,71.94,71.94,0,0,0-25.51,19.11c-11.56,13.73-13.32,27.44-13.33,27.61,0,0-5.53,35.74-8.16,76.74-1.32,19.41-2.15,40-2.39,58.31,0,1,0,2,0,3.05-.1,9.54,0,18.42.17,26.12.1,3.86.24,7.42.43,10.63.1,1.6.2,3.12.31,4.54s.24,2.74.37,4c3.72,33.6,4.11,48.85,28,58.12l0,0c1,.38,1.94.73,3,1.08s2.13.71,3.26,1l1.72.51q2.63.74,5.54,1.44c10.7,2.54,24.47,5.07,40.16,7.51h0c28.33,4.41,62.92,8.57,96.94,12.17,7.93.83,15.83,1.64,23.61,2.41l4,.39,4,.39,1.08.1,8.91.86h0L971.61,573l2.56.24,14.12,1.27,5.22.45,8.11.7,7.12.59,10.06.83c7.32.58,14,1.1,19.69,1.52,7.11.52,13.6.76,19.51.72,1.47,0,2.92-.05,4.32-.09s2.79-.12,4.13-.21c2.67-.16,5.22-.4,7.63-.72,9.67-1.25,17.3-3.65,23.41-7.24,12.21-7.15,18.32-19,22.34-35.66,14.61-60.62,27.27-126,33.39-164.25,1.54-9.56,2.49-17.83,2.92-25C1156.35,342.6,1156.42,339.3,1156.37,336.25ZM1128,377.52c-3.11,31.81-15.71,87.59-29,134.87-3.59,13-8.79,22.13-19.25,27.91-5.24,2.89-11.81,4.92-20.21,6.11q-3.15.45-6.65.73c-1.18.09-2.37.17-3.61.23-.61,0-1.24.07-1.87.09l-1.92.07c-5.19.15-10.89.08-17.19-.24-50.24-1.92-180.16-14.95-230.82-25.95-33.47-7.29-33-18.54-36.48-50.19-.1-1-.2-2.07-.29-3.21s-.16-2.39-.22-3.69-.13-2.68-.18-4.13c0-.35,0-.72,0-1.09s0-.74,0-1.11c0-.76,0-1.53,0-2.32-.11-6.27-.1-13.52,0-21.32.28-15.62,1.1-33.53,2.3-50.46,2.29-33.88,6.6-63.65,6.62-63.65,0-.19,1.39-11.59,11.12-22.72A56.77,56.77,0,0,1,802,282.26a80.94,80.94,0,0,1,17.12-4.78c3.25-.54,6.73-1,10.43-1.22,1.85-.14,3.77-.23,5.74-.28.5,0,1,0,1.49,0h1.52c1,0,2.05,0,3.09,0,33.3.57,92.24,5.33,147.2,13.44s105.93,19.36,128.44,35.66c4.72,3.45,8.23,8.62,10.26,16.87.25,1,.48,2.12.68,3.25.1.57.2,1.14.29,1.74a.89.89,0,0,0,0,.22,1.66,1.66,0,0,0,0,.22c0,.15,0,.31.06.45,0,.31.08.61.12.93.15,1.24.28,2.52.37,3.87,0,.34.05.68.06,1a4.53,4.53,0,0,1,0,.52,4.67,4.67,0,0,1,0,.52c0,.36,0,.71,0,1.07s0,.73,0,1.09A151.05,151.05,0,0,1,1128,377.52Z"/><path class="cls-4" d="M1128,377.52c-3.11,31.81-15.71,87.59-29,134.87-3.59,13-8.79,22.13-19.25,27.91-5.24,2.89-11.81,4.92-20.21,6.11q-3.15.45-6.65.73c-1.18.09-2.37.17-3.61.23-.61,0-1.24.07-1.87.09l-1.92.07c-5.19.15-10.89.08-17.19-.24-50.24-1.92-180.16-14.95-230.82-25.95-33.47-7.29-33-18.54-36.48-50.19-.1-1-.2-2.07-.29-3.21s-.16-2.39-.22-3.69-.13-2.68-.18-4.13c0-.35,0-.72,0-1.09s0-.74,0-1.11c0-.76,0-1.53,0-2.32-.11-6.27-.1-13.52,0-21.32.28-15.62,1.1-33.53,2.3-50.46,2.29-33.88,6.6-63.65,6.62-63.65,0-.19,1.39-11.59,11.12-22.72A56.77,56.77,0,0,1,802,282.26a80.94,80.94,0,0,1,17.12-4.78c3.25-.54,6.73-1,10.43-1.22,1.85-.14,3.77-.23,5.74-.28.5,0,1,0,1.49,0h1.52c1,0,2.05,0,3.09,0,33.3.57,92.24,5.33,147.2,13.44s105.93,19.36,128.44,35.66c4.72,3.45,8.23,8.62,10.26,16.87.25,1,.48,2.12.68,3.25.1.57.2,1.14.29,1.74a.89.89,0,0,0,0,.22,1.66,1.66,0,0,0,0,.22c0,.15,0,.31.06.45,0,.31.08.61.12.93.15,1.24.28,2.52.37,3.87,0,.34.05.68.06,1a4.53,4.53,0,0,1,0,.52,4.67,4.67,0,0,1,0,.52c0,.36,0,.71,0,1.07s0,.73,0,1.09A151.05,151.05,0,0,1,1128,377.52Z"/></g><g id="Forma_1_copiar-2" data-name="Forma 1 copiar"><path class="cls-3" d="M1128,377.52c-3.11,31.81-15.71,87.59-29,134.87-3.59,13-8.79,22.13-19.25,27.91-5.24,2.89-11.81,4.92-20.21,6.11q-3.15.45-6.65.73c-1.18.09-2.37.17-3.61.23-.61,0-1.24.07-1.87.09l-1.92.07c-5.19.15-10.89.08-17.19-.24-50.24-1.92-180.16-14.95-230.82-25.95-33.47-7.29-33-18.54-36.48-50.19-.1-1-.2-2.07-.29-3.21s-.16-2.39-.22-3.69-.13-2.68-.18-4.13c0-.35,0-.72,0-1.09s0-.74,0-1.11c0-.76,0-1.53,0-2.32-.11-6.27-.1-13.52,0-21.32.28-15.62,1.1-33.53,2.3-50.46,2.29-33.88,6.6-63.65,6.62-63.65,0-.19,1.39-11.59,11.12-22.72A56.77,56.77,0,0,1,802,282.26a80.94,80.94,0,0,1,17.12-4.78c3.25-.54,6.73-1,10.43-1.22,1.85-.14,3.77-.23,5.74-.28.5,0,1,0,1.49,0h1.52c1,0,2.05,0,3.09,0,33.3.57,92.24,5.33,147.2,13.44s105.93,19.36,128.44,35.66c4.72,3.45,8.23,8.62,10.26,16.87.25,1,.48,2.12.68,3.25.1.57.2,1.14.29,1.74a.89.89,0,0,0,0,.22,1.66,1.66,0,0,0,0,.22c0,.15,0,.31.06.45,0,.31.08.61.12.93.15,1.24.28,2.52.37,3.87,0,.34.05.68.06,1a4.53,4.53,0,0,1,0,.52,4.67,4.67,0,0,1,0,.52c0,.36,0,.71,0,1.07s0,.73,0,1.09A151.05,151.05,0,0,1,1128,377.52Z"/></g><g id="Forma_1_copiar_2-2" data-name="Forma 1 copiar 2"><path class="cls-2" d="M1119.29,379.14a144.25,144.25,0,0,0,1-19.7c0-.7,0-1.39-.08-2.06l0-.5c0-.16,0-.33,0-.49,0-.33,0-.66-.07-1-.09-1.28-.21-2.52-.35-3.7,0-.29-.07-.58-.11-.87l-.06-.43,0-.22,0-.21q-.13-.84-.27-1.65c-.2-1.08-.41-2.11-.65-3.1-1.93-7.86-5.28-12.78-9.78-16.07-21.44-15.52-70-26.18-122.52-33.91s-108.83-11.68-140.86-11.79l-3,0-1.46,0-1.43,0c-1.9.08-3.74.19-5.53.33-3.57.3-6.92.73-10.07,1.29a81.78,81.78,0,0,0-16.56,4.69,57,57,0,0,0-21.13,14.42c-9.58,10.55-10.91,21.25-10.9,21.25S771,353.25,769,385.18c-1.08,15.95-1.71,32.9-1.82,47.74-.06,7.41,0,14.3.2,20.28,0,.74.05,1.48.08,2.19,0,.36,0,.72,0,1.07s0,.7,0,1c.07,1.37.14,2.69.22,3.93s.17,2.41.27,3.51.21,2.13.33,3.07c3.74,30.2,3.55,41,35.61,48,48.59,10.59,172.58,23,220.37,24.87,6,.3,11.44.37,16.38.23,1.24,0,2.44-.09,3.61-.15s2.32-.14,3.43-.23q3.35-.27,6.34-.69c8-1.13,14.25-3.08,19.24-5.82,10-5.51,14.9-14.19,18.31-26.59C1104.32,462.58,1116.34,409.45,1119.29,379.14Z"/></g><path class="cls-4" d="M882,386.18a7.46,7.46,0,0,1-2.55,8.09c-4.68,3.71-11.41,1.17-18.52-4.47a30.12,30.12,0,0,0-9.73-5.14,21.62,21.62,0,0,0-14.86.78,82,82,0,0,0-7.81,3.92,19.41,19.41,0,0,1-10.76,2.69c-7.23-.39-11.76-7-8.83-12.61,6.43-12.21,21.37-20.11,38.07-18.8C864.11,362,877.9,372.62,882,386.18Z"/><path class="cls-4" d="M971.72,398.87a8.47,8.47,0,0,0,.69,9c3.65,4.86,10.6,3.62,18.57-.78a28.06,28.06,0,0,1,10.36-3.33,19.43,19.43,0,0,1,14,3.94,77.57,77.57,0,0,1,6.58,5.72,20,20,0,0,0,5.33,3.74c8.35,3.9,17.51-3.3,15-11.68-4-13.31-16.2-23.87-31.71-25.91C993.89,377.35,978.49,385.57,971.72,398.87Z"/><path class="cls-4" d="M917.27,469.82c-14.47-1.81-21.38-13.34-25.4-26.35-1.17-3.77-1-8.38-1-12.35,0-.29.06-.61.08-.95l0-.13c.13-.42.93-1.74,1.8-2a9.53,9.53,0,0,0,1-.37s-1.3.53.41-.18a54.5,54.5,0,0,1,10.6-2.31c5-.58,12.31-1.37,18.1-.74s12.36,3,17.52,5.23c3.95,1.7,6.79,2.72,10.07,5.15,0,0-.09-.06,0,0s.55.4.77.52a3.54,3.54,0,0,1,1.25,2.27v.13c-.06.34-.09.66-.16.94-1,3.86-2,8.38-4,11.75C941.29,462.16,931.74,471.62,917.27,469.82Z"/><path class="cls-4" d="M374,430.15c-2.18-18.1-3.85-50.66,9.28-66.14a14,14,0,0,1,20.88-.56c11,11.54,21.84,37.49,25.33,57.67a22.12,22.12,0,0,1-7.19,20.46c-6.64,5.78-17.28,11.25-32,7.48A22.11,22.11,0,0,1,374,430.15Z"/><path class="cls-4" d="M352.18,477.12h0a38,38,0,0,1-52.67,7.05l-1.16-.86c-9.56-7.16-3.4-22.36,8.45-20.85l3.33.43a56.36,56.36,0,0,0,26.44-2.95l2.46-.89C350,455.05,359.36,467.91,352.18,477.12Z"/><path class="cls-4" d="M269.58,441.1c-.65-17.67-4-52.22-20.19-65.86a14,14,0,0,0-20.68,2.9c-9.25,13.63-15.74,42.35-15.43,63a19.38,19.38,0,0,0,8.22,15.57c7.82,5.52,21.21,11,37.91,2.17A19.27,19.27,0,0,0,269.58,441.1Z"/></svg>