<svg id="Layer_1" data-name="Layer 1" xmlns="http://www.w3.org/2000/svg" viewBox="0 0 1000 1000"><defs><style>.cls-1{fill:#fff;}.cls-2{fill:#bed4e4;}.cls-3{fill:#50b0d1;}.cls-4{fill:#4c7ba2;}</style></defs><path class="cls-1" d="M858.35,624.26a5.24,5.24,0,0,1-1.25,3.07,5.17,5.17,0,0,1-2.84,1.71c-11,2.45-27.77,8.52-30.36,9.46-2.19.79-3.69,20.63-19.42,30.17h0c-5.13,3.11-11.77,5.12-20.44,5-26-.29-97.57-5.69-133.5-8.52l-16.59-1.33a4.17,4.17,0,0,0-4.49,4.21q.1,8.21,0,15.54c-.39,50.18-6.17,70.53-9,77.46a12.48,12.48,0,0,0-.35,6.51c2.62,17.66,2.6,45.59,1.47,57.12a8.21,8.21,0,0,0,3.62,7.6c7.74,5.26,11.76,8.37,13.83,12a4.48,4.48,0,0,1-3.08,6.59c-19,3.59-40.32,1.38-48.81-.65a9.92,9.92,0,0,1-6.42-4.86C572.47,830.19,568,792.7,566.47,778a6,6,0,0,0-6.6-5.38c-20.27,2.06-35.32.24-43.31-1.27a7.08,7.08,0,0,0-8.08,5c-6.12,21-23.17,53.12-29.75,65.14a13.46,13.46,0,0,1-8.13,6.47c-23.75,6.75-42.17,3-50.71.25a4.78,4.78,0,0,1-2.49-7.24,30.15,30.15,0,0,1,18.09-12.28,9.24,9.24,0,0,0,6.89-7.61c1.77-12.2,6.47-38.7,15.72-56.7,1.78-3.45,3.15-7.08,2.72-10.94-1.28-11.37-3.25-38.4.33-79a4,4,0,0,0-4.6-4.32c-25.6,3.91-142.94,15-243.32-89.57a118.45,118.45,0,0,1-20.8-29.63,113.45,113.45,0,0,1-6.9-84.17c7.59-24.25,21.22-40.69,44.14-42.95a39.47,39.47,0,0,1,12.46.6c32.38,7.25,34.21,53.42,34,72.71a3.07,3.07,0,0,0,5.2,2.26l12.06-11.46a7,7,0,0,1,10.08.41,6.8,6.8,0,0,1,1.68,5.71c-2.13,14-6.11,32.5-13.29,45.13,0,0,54.38,88.07,147.61,87.7a152.44,152.44,0,0,0,20.65-1.51c105.81-15,147.61.51,147.61.51,30.22,2.84,71.62,1.63,112.11-.56h0c59.28-3.22,116.6-8.57,134-6.51a5.13,5.13,0,0,1,3.42,1.9h0A5.24,5.24,0,0,1,858.35,624.26Z"/><path class="cls-2" d="M456.55,670.06c-25.6,3.91-142.94,15-243.32-89.57-6-10.71-15.5-18.89-20.8-29.63C299,664.3,456.55,670.06,456.55,670.06Z"/><path class="cls-2" d="M719.81,625.24c-8.17,14.92-69.28,39.94-69.28,39.94L634,663.85a4.18,4.18,0,0,0-4.5,4.23c.07,5.47.08,10.63,0,15.52,0,0-7.86,5.17-73.92-5.15S439.44,626.8,439.44,626.8a152.44,152.44,0,0,0,20.65-1.51c105.81-15,147.61.51,147.61.51C637.92,628.64,679.32,627.43,719.81,625.24Z"/><path class="cls-2" d="M858.35,624.26a5.24,5.24,0,0,1-1.25,3.07,5.17,5.17,0,0,1-2.84,1.71c-11,2.45-27.77,8.52-30.36,9.46-2.19.79-3.69,20.63-19.42,30.17,11.46-18,14.84-39.25,14.84-39.25s26.71-2.11,37.87-8.8h0A5.24,5.24,0,0,1,858.35,624.26Z"/><path class="cls-3" d="M477.49,275.54l31.95,6.12c-30.07,4.74-62.95,7.35-86.65,2.17,0,0-17.48-76.51,70.09-87.83,24-3.1,42,2,55.49,10.68C504.43,232.08,477.49,275.54,477.49,275.54Z"/><path class="cls-4" d="M589.92,270.21l-76.26,13.33L500.2,279.6l-31.06-9.13s29.86-41.58,75.13-63.29c20.84-10,44.94-15.77,70.9-11.34,14.37,2.45,23.83,16.82,19.1,29.77C625.93,248.45,589.92,270.21,589.92,270.21Z"/><g id="Forma_1" data-name="Forma 1"><path class="cls-1" d="M768,322.68c-.59-4.21-1.27-8.06-2-11.59-.2-.88-.39-1.74-.6-2.58s-.42-1.66-.63-2.47c-.44-1.6-.89-3.13-1.37-4.58-3.84-11.63-9.18-18.53-16.07-22.57C714.65,259.66,641.66,256,566.4,259.29s-152.95,13.78-196.89,23.16q-4.14.89-8,1.9c-2.59.68-5.08,1.39-7.49,2.15a141.68,141.68,0,0,0-13.46,5,111.82,111.82,0,0,0-21.5,12.08,85.23,85.23,0,0,0-25.17,28.12c-10.29,18.76-9.07,35.18-9,35.17s1.9,42.79,8.39,91c3.16,24.11,7.25,49.59,11.47,71.8,2.11,11.11,4.24,21.4,6.28,30.3,1,4.45,2,8.55,3,12.24q.72,2.76,1.41,5.19c.46,1.63.92,3.13,1.36,4.52,14.1,44.31,17.22,60.91,62.73,62.55,69.16,2.5,239-16.11,306.05-24.48,8.39-1.05,16-2.28,22.82-3.72q2.56-.53,5-1.11c1.62-.38,3.2-.78,4.73-1.19q4.6-1.23,8.7-2.61c10.94-3.71,19.24-8.28,25.5-13.86,12.51-11.16,16.84-26.34,17.63-46.62,2.85-73.79,2.33-152.62.52-198.5C770,340.91,769.16,331.08,768,322.68Z"/></g><g id="Forma_1_copiar" data-name="Forma 1 copiar"><path class="cls-4" d="M742.63,365.62A179,179,0,0,0,739,341.36c-.09-.42-.19-.84-.29-1.25l-.3-1.23-.15-.61c-.06-.2-.11-.4-.16-.59-.1-.4-.21-.79-.32-1.18-.42-1.54-.87-3-1.33-4.42-.12-.35-.23-.7-.35-1l-.18-.51-.09-.25-.09-.25c-.24-.67-.48-1.32-.73-1.95-.5-1.27-1-2.47-1.55-3.62-4.27-9.11-9.56-14.29-15.85-17.2-29.93-13.68-91.7-14.74-157.43-11.5-65.71,3.4-135.26,11.6-174,18.68-1.23.23-2.43.46-3.61.7l-1.75.37-1.72.38q-3.42.78-6.6,1.66c-4.24,1.16-8.18,2.46-11.83,3.86a95.62,95.62,0,0,0-18.76,9.52,67.34,67.34,0,0,0-21.67,22.7c-8.77,15.32-7.63,29-7.61,29s1.9,35.57,7.13,75.45c2.55,19.93,5.78,40.92,9.08,59.12,1.65,9.11,3.32,17.52,4.92,24.78.2.91.4,1.8.59,2.67l.3,1.29c.1.42.2.85.29,1.26.4,1.66.78,3.25,1.16,4.75s.76,2.91,1.13,4.22.73,2.55,1.09,3.67c11.36,36,13.48,49.11,54,49.78,61.39,1,215.28-14.16,274.06-23.62,7.39-1.1,14-2.35,20-3.73l2.21-.52,2.16-.54c1.41-.37,2.79-.74,4.12-1.12,2.68-.76,5.19-1.56,7.56-2.39,9.48-3.33,16.63-7.23,22-11.8,10.81-9.15,14.72-20.94,15.85-36.89C744.79,471,746.43,403.28,742.63,365.62Z"/></g><g id="Forma_1_copiar_2" data-name="Forma 1 copiar 2"><path class="cls-3" d="M732.88,369.53a169.77,169.77,0,0,0-3.41-23.11q-.27-1.21-.57-2.37c0-.19-.09-.38-.14-.58l-.15-.56-.3-1.12c-.41-1.47-.83-2.88-1.27-4.21-.11-.34-.22-.67-.34-1-.05-.17-.11-.33-.17-.49l-.08-.24-.09-.24c-.23-.64-.46-1.26-.7-1.86-.47-1.21-1-2.35-1.47-3.44-4.07-8.69-9.11-13.62-15.1-16.39-28.51-13-87.43-14.08-150.15-10.83s-129.09,11.78-166.31,19.12c-1.17.23-2.32.47-3.45.71l-1.69.38-1.65.39q-3.29.78-6.34,1.67c-4.08,1.17-7.86,2.46-11.39,3.84a96.9,96.9,0,0,0-18.13,9.3,67.51,67.51,0,0,0-21.19,21.66c-8.66,14.48-7.72,27.22-7.7,27.22s1.39,33.19,6.47,70.74c2.46,18.77,5.67,38.6,9,55.85,1.66,8.63,3.34,16.61,5,23.5.2.86.41,1.71.61,2.53q.15.63.3,1.23c.09.4.19.8.29,1.2.4,1.58.79,3.08,1.17,4.51s.76,2.76,1.13,4,.74,2.41,1.09,3.48c11.38,34.2,13.68,46.78,52.53,47.44,58.89,1,205.76-13.44,261.69-22.44,7-1.06,13.36-2.24,19.06-3.56,1.43-.33,2.82-.67,4.16-1s2.66-.7,3.93-1.06c2.55-.73,4.94-1.49,7.2-2.28,9-3.18,15.83-6.89,21-11.24,10.29-8.72,14-19.94,15.07-35.14C734.93,469.9,736.51,405.41,732.88,369.53Z"/></g><path class="cls-1" d="M479.94,479.22c-1-21.76-6.21-69.7-33.7-79.79a12.37,12.37,0,0,0-10.7.88c-15.18,9.41-26.5,51.13-25.67,79.21a20.52,20.52,0,0,0,9.62,16.63c9.95,6.4,27.68,13.08,49.76,1.09C476.18,493.48,480.27,486.52,479.94,479.22Z"/><path class="cls-1" d="M602.53,466.6c-.91-21.24.22-68.3,26.74-80.44a12.65,12.65,0,0,1,10.74-.05C655.94,394,670.8,433.58,672.37,461a19.87,19.87,0,0,1-8.15,17c-9.36,7.06-26.47,15.06-49.49,5.27C607.5,480.14,602.84,473.72,602.53,466.6Z"/><path class="cls-2" d="M305.12,494c-2.13,14-6.11,32.5-13.29,45.13l-6.4-9a14.22,14.22,0,0,1,.64-17.38c6-7.2,14.12-17.55,17.37-24.49A6.8,6.8,0,0,1,305.12,494Z"/><path class="cls-2" d="M215.84,500a13.32,13.32,0,0,1,1.51-4.9,18,18,0,0,1,12.41-9.39,18.2,18.2,0,0,1,10.64,1,17.77,17.77,0,0,1,7.95,6.29c-3.43-.32-6.42-.8-9.26-.94-.7-.07-1.4,0-2.08-.08s-1.35,0-2,.06a23,23,0,0,0-3.84.5,28.52,28.52,0,0,0-7.45,2.66A79.3,79.3,0,0,0,215.84,500Z"/><path class="cls-1" d="M520.7,530.24c.79,6.5,6.23,11.85,13.55,13.2a49.49,49.49,0,0,0,22.84-1.23c8.89-2.64,14.32-10.55,13-18.58a70.62,70.62,0,0,0-7.36-21c-3-6.46-11.46-12.28-20-11.6-7.89.62-14.34,5.31-16.83,11.48A49.1,49.1,0,0,0,520.7,530.24Z"/><path class="cls-3" d="M600.34,688.67c-.07-1.32-.19-2.62-.35-3.91l-.09-.7a54.89,54.89,0,0,0-100.57-22.18,54,54,0,0,0-4.22,7.91,57.35,57.35,0,0,0-2.33,6.48,52.39,52.39,0,0,0-1.43,6.42,54.09,54.09,0,0,0-.65,11.72,54.89,54.89,0,0,0,109.71-2.87C600.41,690.58,600.39,689.64,600.34,688.67ZM568.29,696l-2,1.65-9,7.34-2.5,2-19,15.48a2.51,2.51,0,0,1-4.05-2.47l4.11-20.09.54-2.66,2.06-.87,11.41-4.84,1.07-.45-26.62,1.39a2.52,2.52,0,0,1-2.09-4.11,3.69,3.69,0,0,1,.34-.35l1.28-1,4.46-3.68,2.72-2.21.17-.14,7.25-6,4-3.31,13.53-11.09a2.81,2.81,0,0,1,4.52,2.8L557,678.67l-.2.88-.84,3.69-.64,2.84-.84,3.76q4.65.33,9.37.59l2.23-.11a3.29,3.29,0,0,1,1.63.33A3.22,3.22,0,0,1,568.29,696Z"/><path class="cls-4" d="M560.45,663.41a2.81,2.81,0,0,0-4.52-2.8L542.4,671.7l-4,3.31a245.51,245.51,0,0,1-39.05-13.13A54.89,54.89,0,0,1,599.9,684.06c-10.36-.87-24.27-2.5-42.9-5.39Z"/></svg>