<svg id="Layer_1" data-name="Layer 1" xmlns="http://www.w3.org/2000/svg" viewBox="0 0 2000 1000"><defs><style>.cls-1{fill:#fff;}.cls-2{fill:#bed4e4;}.cls-3{fill:#cc69cc;}.cls-4{fill:#9b5d95;}.cls-5{fill:#50b0d1;}.cls-6{fill:#4c7ba2;}.cls-7{fill:#ed8e2f;}.cls-8{fill:#b56e33;}</style></defs><path class="cls-1" d="M1339.3,424.59q-6.13,11.63-13.2,22.37c-73.32,112.16-213.93,154.73-247.22,163.46a8.93,8.93,0,0,0-6.63,9.22c3.76,57.82-8.8,96.78-19.07,118.27-.73,1.53-1.45,3-2.16,4.33h0a119.76,119.76,0,0,1-6.51,11.15,16.35,16.35,0,0,0-2.7,10,42.77,42.77,0,0,1-2.76,17.7,3.63,3.63,0,0,1-3.9,2.3c-7.53-1.11-17.14-7.84-20-16.72-1.87-5.87-.33-16.57,1.28-24.44,1.13-5.58,2.29-9.73,2.29-9.73a64.68,64.68,0,0,0,1.15-26.68,5.74,5.74,0,0,0-6.09-4.79,308.41,308.41,0,0,1-38.3-.06,5.71,5.71,0,0,0-6,5c-.93,7.75-2.53,21.47-2.53,24.69,0,2.83,3.12,10.37,5.49,15.71,1.46,3.27,2.63,5.71,2.63,5.71,1.38,7.74-6.82,35.09-15.94,35.09-14.12-2.73-13.22-32.35-13.22-32.35l-.64-.46a45,45,0,0,1-4.34-3.45c-.77-.67-1.51-1.38-2.23-2.1a55.93,55.93,0,0,1-6.93-8.48c-12-18.07-12.29-39.75-12.29-39.75s-2-44.19-.38-80.84a10.33,10.33,0,0,0-6.71-10.11c-33.47-12.51-176.32-70.81-235.19-175.43a206.48,206.48,0,0,1-15.65-34.84c-13.21-39.1-10.34-59.05-3.82-69.37a24.47,24.47,0,0,1,15.21-10.84c8.54-2.13,35.1-.27,50.4,34.48a1.21,1.21,0,0,0,2.32-.53c-.28-6.8,1.2-13.29,4.51-14.35,5.47-1.75,17.06,41.92,40.37,78.08,7.32,11.36,23.35,30.39,43.79,51.4,29.84,30.7,69.07,65.62,104.24,87l158.14,4.56c34.22-7,81.51-48.7,117-84.59,28.78-29.1,49.79-54.41,49.79-54.41,17.78-21.41,19.53-66.07,26.82-66.07,4.26,0,6.68,9.35,8,17.12a2.28,2.28,0,0,0,4.4.42c8.12-22,18.14-41.54,34.88-51.11,6.09-3.48,17.73-2.64,27.13,4.85h0C1359.88,338.12,1369.16,367.68,1339.3,424.59Z"/><path class="cls-2" d="M677.21,434.21s0,0,0,0a206.48,206.48,0,0,1-15.65-34.84c-13.21-39.1-10.34-59.05-3.82-69.37a53.3,53.3,0,0,1,32.53,41.11C695.71,403,677.21,434.21,677.21,434.21Z"/><path class="cls-1" d="M590.49,396.89c2,2.34,6.09,0,6.83-3.06,2.53-10.37,4.29-19.34,5.46-25.87,2.72-15.39,14.42-27.89,29.76-30.86,39.11-7.55,82.68,47.78,21.71,143.39-60.09,94.22-160.39,152.37-201.58,173.4-5.62,2.86-10.13,5-13.29,6.51a8.91,8.91,0,0,0-5.15,8.13c0,3.74,0,7.43,0,11.11-.71,87.63-21.14,157.4-25.34,170.83a2.16,2.16,0,0,0,1.53,2.75,14.13,14.13,0,0,1,10,8.55,2.45,2.45,0,0,1-2.25,3.38l-39.8.39a5.19,5.19,0,0,1-5.16-4.34c-4.93-30-.8-66.86,1.21-81.38a4.15,4.15,0,0,0-5-4.61c-10.43,2.34-25.68,3.52-33.21,4a4.13,4.13,0,0,0-3.86,4.69c3.86,28.05,1.5,71.52.84,82.06a3.51,3.51,0,0,1-2.53,3.14c-12.86,3.68-40.42,3.89-50.9,3.83a2.54,2.54,0,0,1-2.15-3.85c2.46-4.1,7.26-10.56,14.79-14.51a3.36,3.36,0,0,0,1.48-4.3C288.14,837,270,750,268.6,705.3c-.15-4.89.38-9.87.73-14.92a1.32,1.32,0,0,0-2.32-1c-2.5,2.91-6.74,7.94-12.28,15.11A672.14,672.14,0,0,0,207,776a3,3,0,0,1-2.78,1.52c-1.82-.14-4.47-1.42-6.27-7a2.46,2.46,0,0,0-3.44-1.42c-6,3-21.55,9.37-38.27,5.75a4.18,4.18,0,0,1-2.53-6.53c8.57-11.84,31.73-43.46,54.1-70.42h0c16.6-20,32.76-37.44,42.22-42.35C275.55,642.27,437.33,589,437.33,589s11.06.42,32.91-12c10.12-5.74,22.55-14.23,37.26-26.78,28-23.88,49.39-61.64,62-87.9a94.22,94.22,0,0,0,9.22-42.86,212.82,212.82,0,0,0-1.81-24.32A4.26,4.26,0,0,1,583.5,391,39.09,39.09,0,0,1,590.49,396.89Z"/><path class="cls-2" d="M470.6,611.28c-1.3,13.24-9.6,29.34-17.93,42.61-5.62,2.86-10.13,5-13.29,6.51a8.91,8.91,0,0,0-5.15,8.13c0,3.74,0,7.43,0,11.11h0A442.92,442.92,0,0,1,268.6,705.3q.21-7.34.73-14.92a1.32,1.32,0,0,0-2.32-1c-2.5,2.91-6.74,7.94-12.28,15.11-28.94-2.1-46.38-6.55-46.93-6.69,16.6-20,32.76-37.44,42.22-42.35C275.55,642.27,437.33,589,437.33,589s11.06.42,32.91-12A167.47,167.47,0,0,1,470.6,611.28Z"/><path class="cls-2" d="M1339.3,424.59q-6.13,11.63-13.2,22.37s-28.38-48.95-18.35-84c8.1-26.5,36.92-36.92,36.92-36.92h0C1359.88,338.12,1369.16,367.68,1339.3,424.59Z"/><path class="cls-2" d="M1193.69,475.2a208,208,0,0,1-379.37-6.95c29.84,30.7,69.07,65.62,104.24,87l158.14,4.56C1110.92,552.74,1158.21,511.09,1193.69,475.2Z"/><path class="cls-3" d="M253.13,223a74.26,74.26,0,0,0-56,84.8c.39,2.2.85,4.35,1.41,6.48l-36.68-19.05a62.66,62.66,0,0,1-15-87.3c.56-.78,1.13-1.54,1.72-2.29,25.18-32.39,75.38-28.84,97.27,5.85Z"/><path class="cls-3" d="M372.6,259.06,344.37,289.2c-.17-2.17-.45-4.37-.83-6.56a74.24,74.24,0,0,0-81-61.29l3-13.25c9.08-40,55.23-60.11,89.77-37.95.79.51,1.6,1,2.37,1.59A62.65,62.65,0,0,1,372.6,259.06Z"/><path class="cls-4" d="M343.54,282.64c.38,2.19.66,4.39.83,6.56a74.83,74.83,0,0,1-.14,13.73l-70.34,22.29-70.64,1.92a75.15,75.15,0,0,1-4.71-12.9c-.56-2.13-1-4.28-1.41-6.48a74.26,74.26,0,0,1,56-84.8c1.52-.37,3.09-.7,4.66-1s3.14-.48,4.72-.65A74.24,74.24,0,0,1,343.54,282.64Z"/><g id="Forma_1" data-name="Forma 1"><path class="cls-1" d="M540.68,307c-.28-.87-.56-1.73-.84-2.57s-.58-1.66-.87-2.45c-.58-1.59-1.18-3.11-1.8-4.54-4.95-11.47-11-18-18.35-21.49-25.6-12.19-72.55-14-125.85-10-19.31,1.43-39.45,3.62-59.71,6.31-14,1.86-28,4-41.92,6.28-57.52,9.49-112.21,22-148.36,32.6q-4,1.17-7.74,2.32c-2.75.85-5.4,1.73-8,2.65s-5,1.87-7.41,2.85a146,146,0,0,0-13.24,6.26,113.89,113.89,0,0,0-20.76,14.2A86.89,86.89,0,0,0,62.8,370.27c-8.72,19.86-6.09,36.35-6,36.55,0,0,5.76,43.31,16.69,91.74C78.54,521.5,84.59,545.61,90.55,567l1,3.55c3.14,11.09,6.23,21.37,9.1,30.23,1.44,4.43,2.81,8.51,4.12,12.17.66,1.82,1.29,3.55,1.91,5.16s1.21,3.09,1.78,4.46c15.77,37.67,21.41,55.21,52.28,57.82h0c1.24.11,2.51.18,3.82.24s2.71.09,4.13.09c.71,0,1.43,0,2.16,0,2.21,0,4.51-.1,6.92-.22,13.27-.69,30.09-2.46,49.11-5h0c34.34-4.55,75.84-11.51,116.51-18.94,9.47-1.73,18.91-3.49,28.19-5.25l4.78-.92,4.74-.9,1.3-.24,10.61-2h0l14.11-2.75,3-.61,16.79-3.33,6.2-1.26c3.28-.65,6.5-1.31,9.65-2l8.46-1.74,11.93-2.47c8.69-1.82,16.55-3.48,23.34-5,8.43-1.82,16-3.75,22.86-5.82,1.71-.52,3.37-1,5-1.57s3.18-1.09,4.71-1.65q4.56-1.65,8.6-3.43c10.78-4.75,18.81-10.14,24.67-16.37,11.71-12.46,14.75-28.28,13.73-48.95-3.71-75.25-11.31-155.31-17.27-201.77-1.48-11.61-3.19-21.52-5.14-30C542.82,314.38,541.78,310.54,540.68,307Zm-18.81,57.51c7.24,37.92,11.65,106.87,12.36,166.21.29,16.31-2.63,28.64-12.79,38.91-5.1,5.13-12,9.73-21.35,14-2.33,1.07-4.82,2.1-7.46,3.12-1.33.5-2.69,1-4.1,1.5l-2.13.74-2.21.73c-6,1.94-12.6,3.8-20,5.59-58.89,14.89-213.92,44.06-276.39,48.58-41.28,3-44.61-10.23-59.39-45.74-.46-1.12-.93-2.33-1.43-3.63s-1-2.71-1.52-4.2-1.06-3.06-1.61-4.72c-.13-.41-.27-.82-.41-1.25s-.28-.85-.42-1.28c-.27-.88-.56-1.76-.85-2.67-2.27-7.23-4.72-15.63-7.21-24.73-5-18.2-10.15-39.24-14.53-59.28-8.89-40-14-76-14-76-.05-.22-2.34-13.91,5.14-30.13a68.71,68.71,0,0,1,20-25,97.25,97.25,0,0,1,18.21-11.36c3.59-1.75,7.47-3.42,11.67-5q3.15-1.19,6.56-2.28l1.71-.54,1.76-.53c1.18-.36,2.38-.7,3.59-1,38.8-10.68,108.73-25.25,175.21-34.6,66.5-9.19,129.38-13.66,161-2.43,6.65,2.39,12.48,7.18,17.64,16.06.64,1.11,1.28,2.29,1.91,3.53.3.62.61,1.26.92,1.92a1.74,1.74,0,0,0,.11.25c0,.08.08.16.11.24s.15.34.23.5c.15.34.3.68.45,1,.59,1.38,1.18,2.83,1.75,4.36l.42,1.17c.08.2.15.39.22.59l.21.6c.14.41.28.8.41,1.23s.27.82.42,1.24A184.34,184.34,0,0,1,521.87,364.53Z"/><path class="cls-1" d="M521.87,364.53c7.24,37.92,11.65,106.87,12.36,166.21.29,16.31-2.63,28.64-12.79,38.91-5.1,5.13-12,9.73-21.35,14-2.33,1.07-4.82,2.1-7.46,3.12-1.33.5-2.69,1-4.1,1.5l-2.13.74-2.21.73c-6,1.94-12.6,3.8-20,5.59-58.89,14.89-213.92,44.06-276.39,48.58-41.28,3-44.61-10.23-59.39-45.74-.46-1.12-.93-2.33-1.43-3.63s-1-2.71-1.52-4.2-1.06-3.06-1.61-4.72c-.13-.41-.27-.82-.41-1.25s-.28-.85-.42-1.28c-.27-.88-.56-1.76-.85-2.67-2.27-7.23-4.72-15.63-7.21-24.73-5-18.2-10.15-39.24-14.53-59.28-8.89-40-14-76-14-76-.05-.22-2.34-13.91,5.14-30.13a68.71,68.71,0,0,1,20-25,97.25,97.25,0,0,1,18.21-11.36c3.59-1.75,7.47-3.42,11.67-5q3.15-1.19,6.56-2.28l1.71-.54,1.76-.53c1.18-.36,2.38-.7,3.59-1,38.8-10.68,108.73-25.25,175.21-34.6,66.5-9.19,129.38-13.66,161-2.43,6.65,2.39,12.48,7.18,17.64,16.06.64,1.11,1.28,2.29,1.91,3.53.3.62.61,1.26.92,1.92a1.74,1.74,0,0,0,.11.25c0,.08.08.16.11.24s.15.34.23.5c.15.34.3.68.45,1,.59,1.38,1.18,2.83,1.75,4.36l.42,1.17c.08.2.15.39.22.59l.21.6c.14.41.28.8.41,1.23s.27.82.42,1.24A184.34,184.34,0,0,1,521.87,364.53Z"/></g><g id="Forma_1_copiar" data-name="Forma 1 copiar"><path class="cls-4" d="M521.87,364.53c7.24,37.92,11.65,106.87,12.36,166.21.29,16.31-2.63,28.64-12.79,38.91-5.1,5.13-12,9.73-21.35,14-2.33,1.07-4.82,2.1-7.46,3.12-1.33.5-2.69,1-4.1,1.5l-2.13.74-2.21.73c-6,1.94-12.6,3.8-20,5.59-58.89,14.89-213.92,44.06-276.39,48.58-41.28,3-44.61-10.23-59.39-45.74-.46-1.12-.93-2.33-1.43-3.63s-1-2.71-1.52-4.2-1.06-3.06-1.61-4.72c-.13-.41-.27-.82-.41-1.25s-.28-.85-.42-1.28c-.27-.88-.56-1.76-.85-2.67-2.27-7.23-4.72-15.63-7.21-24.73-5-18.2-10.15-39.24-14.53-59.28-8.89-40-14-76-14-76-.05-.22-2.34-13.91,5.14-30.13a68.71,68.71,0,0,1,20-25,97.25,97.25,0,0,1,18.21-11.36c3.59-1.75,7.47-3.42,11.67-5q3.15-1.19,6.56-2.28l1.71-.54,1.76-.53c1.18-.36,2.38-.7,3.59-1,38.8-10.68,108.73-25.25,175.21-34.6,66.5-9.19,129.38-13.66,161-2.43,6.65,2.39,12.48,7.18,17.64,16.06.64,1.11,1.28,2.29,1.91,3.53.3.62.61,1.26.92,1.92a1.74,1.74,0,0,0,.11.25c0,.08.08.16.11.24s.15.34.23.5c.15.34.3.68.45,1,.59,1.38,1.18,2.83,1.75,4.36l.42,1.17c.08.2.15.39.22.59l.21.6c.14.41.28.8.41,1.23s.27.82.42,1.24A184.34,184.34,0,0,1,521.87,364.53Z"/></g><g id="Forma_1_copiar_2" data-name="Forma 1 copiar 2"><path class="cls-3" d="M512.32,369.37a172.08,172.08,0,0,0-5.54-23.18c-.26-.8-.52-1.59-.79-2.36l-.2-.57c-.07-.19-.13-.38-.2-.56-.13-.38-.27-.75-.41-1.11-.54-1.46-1.1-2.85-1.67-4.17l-.42-1c-.08-.16-.15-.32-.22-.48l-.11-.24a2.56,2.56,0,0,0-.11-.24c-.29-.62-.58-1.23-.88-1.82-.59-1.19-1.19-2.31-1.8-3.37-4.92-8.46-10.48-13-16.81-15.3C453,304.32,393,308.53,329.59,317.46S199.46,341,162.3,351.8c-1.17.34-2.31.69-3.44,1l-1.68.53-1.65.55q-3.25,1.09-6.29,2.26c-4,1.56-7.77,3.21-11.23,4.93a98.47,98.47,0,0,0-17.59,11.07,68.87,68.87,0,0,0-19.59,23.92c-7.5,15.49-5.4,28.36-5.39,28.35s4.39,33.6,12.92,71.31c4.19,18.85,9.23,38.72,14.16,56,2.46,8.61,4.89,16.58,7.15,23.43.28.86.56,1.7.84,2.53.14.41.28.81.41,1.21s.28.8.41,1.2q.82,2.35,1.6,4.47c.51,1.42,1,2.75,1.51,4s1,2.39,1.42,3.44c14.63,33.74,18.09,46.31,57.63,43.5,59.94-4.29,207.9-32.11,263.92-46.28,7.06-1.7,13.39-3.47,19.06-5.32,1.42-.46,2.8-.93,4.14-1.4s2.63-1,3.89-1.44q3.78-1.44,7.11-3c8.89-4,15.47-8.42,20.32-13.3,9.67-9.78,12.44-21.52,12.16-37.06C523.41,471.19,519.22,405.51,512.32,369.37Z"/></g><path class="cls-1" d="M1803.47,797.54c-15,3.7-17.37-8.42-17.11-9.83s1-6.44-2.43-6.53c-6.23.09-7.94-9.1-5.21-12.18a16.65,16.65,0,0,0,3.09-4.24c.66-1.66-.33-3.2-1.5-4.55C1771,749.36,1765.15,737,1758,726.58c-8.25-11.93-14.36-22.05-14.36-22.05-5.54-7.17-9.77-12.2-12.28-15.11a1.32,1.32,0,0,0-2.32,1c.35,5,1.26,10.06.73,14.92-7,63.88-19.54,131.66-25.22,145a3.36,3.36,0,0,0,1.49,4.3c7.52,4,12.32,10.41,14.78,14.51a2.54,2.54,0,0,1-2.15,3.85c-10.48.06-38-.15-50.9-3.83a3.51,3.51,0,0,1-2.53-3.14c-.66-10.54-3-54,.84-82.06a4.13,4.13,0,0,0-3.86-4.69c-7.54-.47-44-1.65-54.4-4-2.84-.64-4.57,1.73-5,4.6-2.47,15.09-6.07,53.92-14.09,84.92a5.42,5.42,0,0,1-5.16,4.33l-48-.39a2.45,2.45,0,0,1-2.25-3.38c1.25-3,6.35-7.09,12.31-8.55,1.21-.3,1.61-1.5,1.53-2.75-1.4-22.51,6.45-117.09,17-174.36.66-3.62,0-7.37,0-11.11a8.9,8.9,0,0,0-5.14-8.13c-3.17-1.48-7.68-3.65-13.3-6.51-41.19-21-141.49-79.18-201.58-173.4-61-95.61-17.4-150.94,21.71-143.39,15.34,3,27,15.47,29.76,30.86,1.17,6.53,2.93,15.5,5.46,25.87.75,3,4.81,5.41,6.83,3.06a38.94,38.94,0,0,1,7-5.87,4.27,4.27,0,0,1,6.63,4.12,213.16,213.16,0,0,0-1.81,24.32,94.1,94.1,0,0,0,9.23,42.86c12.57,26.26,34,64,62,87.9,14.71,12.55,27.15,21,37.26,26.78C1550,589.37,1561,589,1561,589s161.78,53.32,187.31,66.54c9.46,4.91,25.63,22.34,42.22,42.35h0a279.65,279.65,0,0,1,29,48.64C1833.66,781.73,1822.36,792.89,1803.47,797.54Z"/><path class="cls-2" d="M1527.76,611.28c1.3,13.24,9.6,29.34,17.93,42.61,5.62,2.86,10.13,5,13.29,6.51a8.91,8.91,0,0,1,5.15,8.13c-.05,3.74-.05,7.43,0,11.11h0a442.92,442.92,0,0,0,165.64,25.65q-.21-7.34-.73-14.92a1.32,1.32,0,0,1,2.32-1c2.5,2.91,6.74,7.94,12.28,15.11,28.94-2.1,46.38-6.55,46.93-6.69-16.6-20-32.76-37.44-42.23-42.35C1722.81,642.27,1561,589,1561,589s-11.06.42-32.91-12A167.47,167.47,0,0,0,1527.76,611.28Z"/><path class="cls-5" d="M1095.7,197.09c1.42-39.48-34.47-72.82-80.16-74.46s-83.88,29-85.31,68.5"/><path class="cls-6" d="M899.88,191.85s-26-14.77-31.75-43.32c-4.73-23.28,18.32-39.7,42-38.24,48.9,3,108.93,43.76,119.54,84.05"/><path class="cls-7" d="M1633.39,272c7.86-38.72,50.55-62.73,95.36-53.64s74.76,47.85,66.91,86.57"/><path class="cls-8" d="M1826.65,310s28.69-8.29,41-34.69c10-21.53-8.53-42.89-31.93-47-48.25-8.51-116.15,17.06-135.89,53.75"/><g id="Forma_1-2" data-name="Forma 1"><path class="cls-1" d="M1245.77,265.15c-.09-.88-.19-1.75-.29-2.6s-.24-1.69-.35-2.5c-.25-1.63-.53-3.18-.84-4.66-2.47-11.86-6.94-19.24-13.25-24-22-16.55-66.22-27.33-117.61-33.93-18.62-2.39-38.17-4.22-57.94-5.6-13.66-.94-27.41-1.66-41-2.17-56.48-2.15-110.86-.84-147.25,2.18-2.7.22-5.31.45-7.8.7q-4.17.41-8.08,1t-7.59,1.27a141.54,141.54,0,0,0-13.8,3.38,110.59,110.59,0,0,0-22.47,9.46,84.26,84.26,0,0,0-27.89,24.82c-12.14,17.17-12.84,33.34-12.83,33.55,0,0-2.92,42.26-1.94,90.37.37,22.78,1.44,46.86,3,68.29.09,1.2.17,2.39.25,3.56.84,11.15,1.78,21.51,2.78,30.48.51,4.49,1,8.63,1.56,12.36.27,1.86.53,3.63.8,5.27s.56,3.18.83,4.59c7.67,38.84,9.62,56.6,38.44,65.06l0,0c1.15.34,2.34.66,3.58,1s2.56.61,3.91.89l2,.42c2.1.41,4.3.78,6.62,1.13,12.73,1.92,29.06,3.5,47.6,4.81h0c33.49,2.35,74.27,3.79,114.34,4.62,9.34.19,18.64.35,27.79.48l4.73.06,4.68.07h1.27l10.48.13h0l13.94.13,3,0,16.61.09h24c4.09,0,8,0,11.82,0,8.61,0,16.39-.1,23.13-.17,8.36-.09,15.95-.45,22.84-1.09,1.73-.16,3.41-.34,5-.53s3.23-.41,4.79-.65q4.65-.67,8.84-1.59c11.16-2.41,19.83-6,26.61-10.76,13.54-9.57,19.5-24,22.54-43.84,11.07-72.19,19.39-149.71,22.75-195,.85-11.32,1.14-21.06.93-29.46C1246.38,272.56,1246.13,268.7,1245.77,265.15Zm-29,51c-.49,37.43-9.68,103.77-20.52,160.27-2.89,15.56-8.06,26.7-19.7,34.48-5.83,3.89-13.3,6.91-23,9.13-2.43.55-5,1-7.7,1.5-1.36.23-2.74.44-4.18.64l-2.17.28c-.74.1-1.49.18-2.24.27-6,.69-12.71,1.17-20.09,1.42-58.83,2.72-211.75.35-272-7.48-39.79-5.21-40.4-18.38-47.54-55q-.33-1.71-.66-3.72c-.21-1.34-.43-2.76-.63-4.28s-.41-3.11-.61-4.79c0-.42-.1-.84-.15-1.28s-.1-.86-.14-1.3c-.1-.88-.2-1.78-.29-2.69-.76-7.31-1.45-15.77-2.06-24.89-1.2-18.26-2-39.24-2.29-59.13-.68-39.76,1.41-74.93,1.43-74.93,0-.22.48-13.67,10.73-27.63a66.65,66.65,0,0,1,23.84-19.87,94.36,94.36,0,0,1,19.5-7.26c3.75-1,7.76-1.8,12-2.47,2.15-.34,4.38-.63,6.68-.89l1.73-.18,1.77-.16c1.19-.11,2.4-.2,3.61-.28,38.93-2.62,108.18-2.89,173.14,1.14s125.54,12.12,153.42,28.93c5.86,3.56,10.47,9.24,13.64,18.68.4,1.18.78,2.42,1.13,3.72.17.65.34,1.32.5,2a2.44,2.44,0,0,0,.06.26c0,.08,0,.17,0,.25s.09.35.13.52c.08.36.15.71.22,1.07.3,1.43.58,2.92.82,4.49l.18,1.19c0,.2.06.4.08.61s.07.4.09.6c0,.42.11.82.15,1.25s.1.84.16,1.26A178.57,178.57,0,0,1,1216.75,316.13Z"/><path class="cls-1" d="M1216.75,316.13c-.49,37.43-9.68,103.77-20.52,160.27-2.89,15.56-8.06,26.7-19.7,34.48-5.83,3.89-13.3,6.91-23,9.13-2.43.55-5,1-7.7,1.5-1.36.23-2.74.44-4.18.64l-2.17.28c-.74.1-1.49.18-2.24.27-6,.69-12.71,1.17-20.09,1.42-58.83,2.72-211.75.35-272-7.48-39.79-5.21-40.4-18.38-47.54-55q-.33-1.71-.66-3.72c-.21-1.34-.43-2.76-.63-4.28s-.41-3.11-.61-4.79c0-.42-.1-.84-.15-1.28s-.1-.86-.14-1.3c-.1-.88-.2-1.78-.29-2.69-.76-7.31-1.45-15.77-2.06-24.89-1.2-18.26-2-39.24-2.29-59.13-.68-39.76,1.41-74.93,1.43-74.93,0-.22.48-13.67,10.73-27.63a66.65,66.65,0,0,1,23.84-19.87,94.36,94.36,0,0,1,19.5-7.26c3.75-1,7.76-1.8,12-2.47,2.15-.34,4.38-.63,6.68-.89l1.73-.18,1.77-.16c1.19-.11,2.4-.2,3.61-.28,38.93-2.62,108.18-2.89,173.14,1.14s125.54,12.12,153.42,28.93c5.86,3.56,10.47,9.24,13.64,18.68.4,1.18.78,2.42,1.13,3.72.17.65.34,1.32.5,2a2.44,2.44,0,0,0,.06.26c0,.08,0,.17,0,.25s.09.35.13.52c.08.36.15.71.22,1.07.3,1.43.58,2.92.82,4.49l.18,1.19c0,.2.06.4.08.61s.07.4.09.6c0,.42.11.82.15,1.25s.1.84.16,1.26A178.57,178.57,0,0,1,1216.75,316.13Z"/></g><g id="Forma_1_copiar-2" data-name="Forma 1 copiar"><path class="cls-6" d="M1216.75,316.13c-.49,37.43-9.68,103.77-20.52,160.27-2.89,15.56-8.06,26.7-19.7,34.48-5.83,3.89-13.3,6.91-23,9.13-2.43.55-5,1-7.7,1.5-1.36.23-2.74.44-4.18.64l-2.17.28c-.74.1-1.49.18-2.24.27-6,.69-12.71,1.17-20.09,1.42-58.83,2.72-211.75.35-272-7.48-39.79-5.21-40.4-18.38-47.54-55q-.33-1.71-.66-3.72c-.21-1.34-.43-2.76-.63-4.28s-.41-3.11-.61-4.79c0-.42-.1-.84-.15-1.28s-.1-.86-.14-1.3c-.1-.88-.2-1.78-.29-2.69-.76-7.31-1.45-15.77-2.06-24.89-1.2-18.26-2-39.24-2.29-59.13-.68-39.76,1.41-74.93,1.43-74.93,0-.22.48-13.67,10.73-27.63a66.65,66.65,0,0,1,23.84-19.87,94.36,94.36,0,0,1,19.5-7.26c3.75-1,7.76-1.8,12-2.47,2.15-.34,4.38-.63,6.68-.89l1.73-.18,1.77-.16c1.19-.11,2.4-.2,3.61-.28,38.93-2.62,108.18-2.89,173.14,1.14s125.54,12.12,153.42,28.93c5.86,3.56,10.47,9.24,13.64,18.68.4,1.18.78,2.42,1.13,3.72.17.65.34,1.32.5,2a2.44,2.44,0,0,0,.06.26c0,.08,0,.17,0,.25s.09.35.13.52c.08.36.15.71.22,1.07.3,1.43.58,2.92.82,4.49l.18,1.19c0,.2.06.4.08.61s.07.4.09.6c0,.42.11.82.15,1.25s.1.84.16,1.26A178.57,178.57,0,0,1,1216.75,316.13Z"/></g><g id="Forma_1_copiar_2-2" data-name="Forma 1 copiar 2"><path class="cls-5" d="M1206.74,318.87a170.1,170.1,0,0,0-.77-23.09c-.09-.81-.19-1.61-.29-2.39,0-.2,0-.39-.08-.58s-.06-.39-.08-.58c-.06-.38-.12-.76-.17-1.13-.24-1.49-.5-2.92-.78-4.28-.07-.34-.14-.68-.22-1,0-.17-.07-.34-.11-.5l-.06-.25-.06-.24c-.15-.65-.31-1.29-.48-1.91-.33-1.24-.68-2.42-1.06-3.54-3-9-7.42-14.4-13-17.8-26.56-16-84.34-23.63-146.34-27.46s-128.18-2.89-165.57.16c-1.18.09-2.34.2-3.48.31l-1.69.18-1.67.2q-3.32.4-6.42.93-6.2,1.05-11.62,2.5a95.61,95.61,0,0,0-18.86,7.11,66.81,66.81,0,0,0-23.25,18.91c-10.13,13.26-10.63,25.89-10.62,25.89s-2.35,32.77-1.56,70.24c.32,18.72,1.25,38.57,2.59,55.89.66,8.66,1.42,16.7,2.24,23.65.1.87.21,1.72.31,2.56.05.42.11.83.16,1.24s.1.81.16,1.21c.21,1.6.42,3.12.64,4.56s.44,2.8.66,4.08.45,2.45.68,3.54c7.35,34.89,8.2,47.5,46.31,52.51C910,517.33,1056,519.62,1111.92,517c7-.25,13.39-.7,19.14-1.36,1.43-.16,2.83-.34,4.2-.53s2.69-.39,4-.6q3.87-.64,7.32-1.43c9.23-2.11,16.33-5,21.88-8.7,11.09-7.41,16-18,18.75-32.84C1197.51,417.74,1206.28,354.54,1206.74,318.87Z"/></g><path class="cls-1" d="M927.16,367.88a10.74,10.74,0,0,1-1.81,10.68c-4.65,5.37-12.31,3-20.75-3.3a30.83,30.83,0,0,0-11.25-5.32,20.68,20.68,0,0,0-16.13,2.94,87.63,87.63,0,0,0-8.06,6,19.34,19.34,0,0,1-11.43,4.86,11.33,11.33,0,0,1-11.16-15,42.68,42.68,0,0,1,80.59-.89Z"/><path class="cls-1" d="M1065.63,372.37a10.48,10.48,0,0,0,1.77,10.4c4.54,5.22,12,2.89,20.2-3.25a30.13,30.13,0,0,1,10.94-5.19,20.15,20.15,0,0,1,15.72,2.84,85.88,85.88,0,0,1,7.84,5.87,21.2,21.2,0,0,0,6.25,3.69c9.56,3.51,18.76-6.06,15-15.53a41.54,41.54,0,0,0-77.74,1.17Z"/><path class="cls-1" d="M1042.83,414.33c1.91,25.43-23.74,45.37-44.65,44.62-21.61-.78-46.35-17.8-43.34-47.42.75-7.39,17.73-12,44.45-11.08S1042.41,408.69,1042.83,414.33Z"/><path class="cls-2" d="M959.12,787.19c-14.12-2.73-13.22-32.35-13.22-32.35l-.64-.46c-1-.72-2.51-2-4.34-3.45-.77-.67-1.51-1.38-2.23-2.1a55.93,55.93,0,0,1-6.93-8.48c9.15,3.26,26.76,8.46,40.67,6,1.46,3.27,2.63,5.71,2.63,5.71C976.44,759.84,968.24,787.19,959.12,787.19Z"/><path class="cls-2" d="M1053.18,737.91c-.73,1.53-1.45,3-2.16,4.33h0a119.76,119.76,0,0,1-6.51,11.15,16.35,16.35,0,0,0-2.7,10,42.77,42.77,0,0,1-2.76,17.7,3.63,3.63,0,0,1-3.9,2.3c-7.53-1.11-17.14-7.84-20-16.72-1.87-5.87-.33-16.57,1.28-24.44C1016.45,742.24,1035.22,746,1053.18,737.91Z"/><path class="cls-1" d="M329.83,548.88c10.35-1.25,18.21-11,20.59-23.84a46.55,46.55,0,0,0,.62-11.9c0-.3,0-.6-.07-.91v0a3.27,3.27,0,0,0-1.53-2.08c-.23-.11-.49-.22-.74-.32h0a35.58,35.58,0,0,0-8.89-2.19,64.45,64.45,0,0,0-29.43,3.53,34.67,34.67,0,0,0-8.11,4.24h0c-.22.16-.45.32-.65.48a3.29,3.29,0,0,0-1,2.38v0l.15.91a46.67,46.67,0,0,0,3.42,11.41C309.54,542.52,319.48,550.12,329.83,548.88Z"/><path class="cls-1" d="M174.7,510.83a14.47,14.47,0,0,0,10.41-13.42c.65-21.08,4.92-72.49,31.12-67.48,25.57,4.89,36.26,40.23,40.61,64.5a31.24,31.24,0,0,1-20.45,35c-18.63,6.48-45.58,9.17-70-13.48a1.92,1.92,0,0,1,.92-3.3C169.33,512.23,172,511.62,174.7,510.83Z"/><path class="cls-1" d="M459.76,457.71a11.87,11.87,0,0,1-11.63-7.46c-7.87-19.84-29-65.71-51.69-52.32-21.25,12.55-20.59,46.42-17,70.55a34.19,34.19,0,0,0,37.3,29c18.47-2,40.59-11.16,54.4-37.75.72-1.38-1.47-3.06-3-2.84C465.9,457.21,462.86,457.56,459.76,457.71Z"/><path class="cls-7" d="M1690.16,705a49.22,49.22,0,0,0-93.07-16.85c-.27.55-.53,1.1-.77,1.66A49.21,49.21,0,1,0,1690.41,710,48.33,48.33,0,0,0,1690.16,705Zm-28.78,10.07-1.89,1.38-8.42,6.14-2.31,1.69-17.78,13a2.25,2.25,0,0,1-3.51-2.39l4.62-17.81.61-2.35,1.9-.69,10.43-3.79,1-.36h-23.9a2.25,2.25,0,0,1-1.67-3.78,2.16,2.16,0,0,1,.31-.29l5.36-3.95,2.7-2,2.62-1.93,7.9-5.83,12.64-9.3a2.51,2.51,0,0,1,3.91,2.72l-4,14.28-.41,1.44-1.22,4.33-1.2,4.3h10.64A2.88,2.88,0,0,1,1661.38,715.07Z"/><path class="cls-3" d="M400,701.77a49.06,49.06,0,0,0-.88-4.92,50.41,50.41,0,0,0-1.72-5.8,49.22,49.22,0,0,0-92.73.85c-.2.58-.39,1.16-.56,1.74A48.15,48.15,0,0,0,302,705.28,49.21,49.21,0,1,0,400,701.77Zm-28.16,8.71-1.7,1.61-7.57,7.15-2.08,2-16,15.11a2.24,2.24,0,0,1-3.78-1.92L343,716.14l.31-2.4,1.79-.93,9.87-5.08.93-.48-23.71,3a2.25,2.25,0,0,1-2.13-3.54,1.91,1.91,0,0,1,.27-.32l3.71-3.55,1.1-1.05,2.43-2.31,2.36-2.25,7.1-6.78,11.36-10.82a2.51,2.51,0,0,1,4.22,2.2l-2.18,14.67-.23,1.48-.17,1.15-.49,3.3-.65,4.42,10.56-1.34A2.88,2.88,0,0,1,371.83,710.48Z"/><path class="cls-5" d="M1047.72,612.1A49.22,49.22,0,0,0,958.33,589a49.61,49.61,0,0,0-3.68,6.22c-.27.55-.53,1.1-.77,1.66A49.21,49.21,0,1,0,1048,617.09,48.33,48.33,0,0,0,1047.72,612.1Zm-28.78,10.07-1.89,1.38-8.42,6.14-2.31,1.69-17.78,13A2.25,2.25,0,0,1,985,642l4.62-17.81.61-2.35,1.9-.69,10.43-3.79,1-.36h-23.9a2.25,2.25,0,0,1-1.67-3.78,2.16,2.16,0,0,1,.31-.29l5.36-3.95,2.7-2L989,605l7.9-5.83,6.51-4.79,6.13-4.51a2.51,2.51,0,0,1,3.91,2.72l-.47,1.68-3.55,12.6-.41,1.44-1.22,4.33-1.2,4.3h10.64A2.88,2.88,0,0,1,1018.94,622.17Z"/><path class="cls-8" d="M1655.88,685.51a2.51,2.51,0,0,0-3.91-2.72l-12.64,9.3-7.9,5.83c-11.35-2.14-23.08-4.81-35.11-8.11.24-.56.5-1.11.77-1.66A49.22,49.22,0,0,1,1690.16,705c-12.13-.64-25.08-1.84-38.71-3.77l.41-1.44Z"/><g id="Forma_1-3" data-name="Forma 1"><path class="cls-1" d="M1937.29,367.72a85.63,85.63,0,0,0-22.74-30.4,111.64,111.64,0,0,0-20.46-14,139.29,139.29,0,0,0-13-6.18q-3.52-1.45-7.3-2.82c-2.53-.91-5.15-1.76-7.87-2.61-2.42-.76-5-1.51-7.62-2.29-35.64-10.4-89.56-22.78-146.27-32.14-13.68-2.26-27.52-4.34-41.32-6.19-20-2.65-39.83-4.8-58.87-6.21-52.55-3.89-98.84-2.16-124.08,9.86-7.25,3.44-13.2,9.88-18.08,21.19q-.92,2.13-1.78,4.48c-.28.77-.57,1.59-.86,2.41s-.55,1.67-.82,2.53c-1.08,3.47-2.11,7.26-3.07,11.43-1.92,8.33-3.6,18.1-5.06,29.54-5.88,45.81-13.37,124.73-17,198.91-1,20.39,2,36,13.54,48.26,5.78,6.15,13.69,11.46,24.31,16.14,2.65,1.17,5.49,2.3,8.49,3.39,1.51.55,3.05,1.09,4.64,1.62s3.24,1,4.92,1.55c6.73,2,14.22,3.94,22.53,5.74,6.7,1.45,14.45,3.08,23,4.87l11.76,2.44,8.34,1.72c3.1.62,6.28,1.28,9.51,1.92l6.11,1.24q8.07,1.62,16.56,3.29l3,.59,13.9,2.72h0l10.47,2,1.27.25,4.68.88,4.71.91,5.86,1.1c7.24,1.37,14.58,2.73,21.93,4.08L1672,652c36.38,6.54,72.83,12.55,103.47,16.61h0c18.74,2.47,35.33,4.21,48.4,4.9,2.38.11,4.65.2,6.83.22h2.13c1.4,0,2.76,0,4.07-.1s2.55-.12,3.76-.23h0c30.43-2.57,36-19.86,51.54-57,.57-1.34,1.14-2.81,1.75-4.4s1.24-3.28,1.89-5.08c1.28-3.61,2.63-7.62,4.06-12,2.82-8.74,5.87-18.86,9-29.8.33-1.15.65-2.32,1-3.49,5.88-21,11.84-44.81,16.86-67.44,10.74-47.64,16.45-90.25,16.45-90.43S1945.89,387.3,1937.29,367.72ZM1914,417.09c0,.09-5.06,35.52-13.82,75-4.32,19.75-9.4,40.5-14.32,58.44-2.45,9-4.88,17.26-7.11,24.39-.29.88-.57,1.77-.84,2.61-.13.44-.28.85-.41,1.28s-.27.83-.4,1.23c-.54,1.64-1.07,3.18-1.59,4.65s-1,2.85-1.5,4.15-1,2.47-1.41,3.56c-14.57,35-17.86,48-58.56,45.1-61.58-4.45-214.41-33.22-272.47-47.9-7.3-1.75-13.85-3.59-19.72-5.51-.73-.23-1.46-.47-2.18-.72s-1.41-.48-2.11-.73c-1.39-.48-2.73-1-4-1.47-2.6-1-5.06-2-7.35-3.07-9.2-4.18-16-8.71-21-13.77-10-10.12-12.89-22.28-12.61-38.36.7-58.5,5-126.47,12.18-163.86a180.39,180.39,0,0,1,5.74-24c.14-.42.27-.83.41-1.23s.27-.8.4-1.21l.21-.58.21-.59c.14-.4.28-.77.41-1.15.57-1.51,1.15-2.94,1.73-4.31.16-.34.3-.68.45-1,.07-.17.15-.33.23-.5l.1-.24a1.36,1.36,0,0,0,.11-.25c.3-.65.61-1.27.92-1.88.61-1.23,1.23-2.39,1.87-3.49,5.08-8.75,10.84-13.47,17.39-15.82,31.19-11.08,93.19-6.68,158.75,2.39,65.53,9.22,134.48,23.58,172.73,34.1,1.19.33,2.37.67,3.53,1l1.74.53,1.68.53c2.24.73,4.4,1.47,6.47,2.24q6.21,2.33,11.51,4.91a95.15,95.15,0,0,1,18,11.21A67.65,67.65,0,0,1,1909,387.39C1916.33,403.38,1914.08,416.87,1914,417.09Z"/><path class="cls-1" d="M1484.71,362.06c-7.13,37.39-11.48,105.36-12.18,163.86-.29,16.09,2.6,28.24,12.61,38.36,5,5.06,11.85,9.59,21,13.77,2.3,1.05,4.76,2.07,7.36,3.07,1.31.5,2.65,1,4,1.48.69.25,1.4.49,2.11.73l2.17.72c5.88,1.91,12.43,3.75,19.73,5.51,58.05,14.68,210.89,43.44,272.48,47.9,40.7,2.9,44-10.09,58.55-45.1.45-1.1.92-2.29,1.41-3.58s1-2.67,1.5-4.14,1-3,1.59-4.65c.13-.4.27-.81.4-1.24s.28-.84.41-1.26c.27-.86.56-1.73.84-2.62,2.24-7.14,4.65-15.42,7.11-24.39,4.92-17.94,10-38.68,14.32-58.44,8.77-39.47,13.84-74.94,13.82-75,.06-.21,2.31-13.71-5.06-29.7a67.73,67.73,0,0,0-19.71-24.65,96,96,0,0,0-18-11.21c-3.54-1.72-7.37-3.37-11.51-4.91-2.07-.77-4.23-1.52-6.46-2.24l-1.69-.54-1.74-.52q-1.74-.52-3.54-1c-38.24-10.52-107.19-24.89-172.72-34.1s-127.55-13.47-158.75-2.4c-6.55,2.36-12.3,7.08-17.39,15.83-.63,1.1-1.26,2.26-1.88,3.48-.3.62-.61,1.24-.91,1.89a1.12,1.12,0,0,1-.11.25l-.1.24c-.08.16-.16.33-.23.5-.15.33-.3.67-.44,1-.59,1.37-1.17,2.8-1.74,4.31-.13.38-.27.76-.41,1.15l-.21.59-.21.58c-.14.4-.27.8-.4,1.21s-.27.82-.42,1.23A182.1,182.1,0,0,0,1484.71,362.06Z"/></g><g id="Forma_1_copiar-3" data-name="Forma 1 copiar"><path class="cls-8" d="M1484.71,362.06c-7.13,37.39-11.48,105.36-12.18,163.86-.29,16.09,2.6,28.24,12.61,38.36,5,5.06,11.85,9.59,21,13.77,2.3,1.05,4.76,2.07,7.36,3.07,1.31.5,2.65,1,4,1.48.69.25,1.4.49,2.11.73l2.17.72c5.88,1.91,12.43,3.75,19.73,5.51,58.05,14.68,210.89,43.44,272.48,47.9,40.7,2.9,44-10.09,58.55-45.1.45-1.1.92-2.29,1.41-3.58s1-2.67,1.5-4.14,1-3,1.59-4.65c.13-.4.27-.81.4-1.24s.28-.84.41-1.26c.27-.86.56-1.73.84-2.62,2.24-7.14,4.65-15.42,7.11-24.39,4.92-17.94,10-38.68,14.32-58.44,8.77-39.47,13.84-74.94,13.82-75,.06-.21,2.31-13.71-5.06-29.7a67.73,67.73,0,0,0-19.71-24.65,96,96,0,0,0-18-11.21c-3.54-1.72-7.37-3.37-11.51-4.91-2.07-.77-4.23-1.52-6.46-2.24l-1.69-.54-1.74-.52q-1.74-.52-3.54-1c-38.24-10.52-107.19-24.89-172.72-34.1s-127.55-13.47-158.75-2.4c-6.55,2.36-12.3,7.08-17.39,15.83-.63,1.1-1.26,2.26-1.88,3.48-.3.62-.61,1.24-.91,1.89a1.12,1.12,0,0,1-.11.25l-.1.24c-.08.16-.16.33-.23.5-.15.33-.3.67-.44,1-.59,1.37-1.17,2.8-1.74,4.31-.13.38-.27.76-.41,1.15l-.21.59-.21.58c-.14.4-.27.8-.4,1.21s-.27.82-.42,1.23A182.1,182.1,0,0,0,1484.71,362.06Z"/></g><g id="Forma_1_copiar_2-3" data-name="Forma 1 copiar 2"><path class="cls-7" d="M1494.13,366.84a170.37,170.37,0,0,1,5.46-22.86c.26-.79.52-1.56.78-2.32.06-.19.13-.38.2-.56s.13-.38.19-.56c.14-.37.27-.73.4-1.09q.81-2.16,1.65-4.11.21-.49.42-1c.07-.16.14-.32.22-.48l.1-.23.11-.23c.29-.62.57-1.22.87-1.8.58-1.17,1.17-2.27,1.78-3.32,4.84-8.34,10.32-12.83,16.57-15.08,29.72-10.53,88.84-6.38,151.39,2.42s128.29,23.21,164.93,33.86q1.72.5,3.39,1l1.66.53,1.62.53c2.14.72,4.21,1.47,6.2,2.23,4,1.54,7.66,3.16,11.07,4.86a96.51,96.51,0,0,1,17.35,10.92,67.83,67.83,0,0,1,19.31,23.58c7.4,15.27,5.33,27.95,5.31,27.95s-4.32,33.12-12.74,70.3c-4.12,18.59-9.09,38.17-13.95,55.15-2.43,8.5-4.82,16.35-7.05,23.11-.28.85-.56,1.67-.83,2.48-.14.41-.27.81-.41,1.21l-.4,1.17c-.54,1.55-1.06,3-1.57,4.42s-1,2.7-1.49,3.92-1,2.36-1.4,3.4c-14.42,33.26-17.84,45.65-56.82,42.88-59.09-4.23-205-31.66-260.19-45.62-7-1.68-13.19-3.43-18.79-5.25-1.4-.45-2.76-.92-4.08-1.38s-2.59-.94-3.84-1.41c-2.48-.95-4.82-1.93-7-2.92-8.76-4-15.25-8.3-20-13.12-9.54-9.64-12.27-21.22-12-36.54C1483.2,467.21,1487.32,402.46,1494.13,366.84Z"/></g><path class="cls-1" d="M1605.57,460.92c3.57-22.2,7.23-62.25-8.2-82a17.31,17.31,0,0,0-25.71-1.72c-14.16,13.7-28.76,45.15-34.06,69.86a27.27,27.27,0,0,0,7.86,25.57c7.9,7.45,20.75,14.72,39.1,10.8A27.31,27.31,0,0,0,1605.57,460.92Z"/><path class="cls-1" d="M1734.06,492c3.91-21.46,14.13-63.06,36.26-76.87a17.29,17.29,0,0,1,24.74,7.18c8.9,18.28,11.76,54.49,7.74,79.67A23.92,23.92,0,0,1,1790,519.53c-10.52,5.36-27.83,9.69-46.68-4A23.8,23.8,0,0,1,1734.06,492Z"/><path class="cls-1" d="M1687.12,502a9.56,9.56,0,0,1,7,15.25,33.48,33.48,0,0,1-59.3-12.28,8.68,8.68,0,0,1,10.78-10.45l10.87,3.11a102.86,102.86,0,0,0,21,3.69Z"/><path class="cls-6" d="M1013.44,592.61a2.51,2.51,0,0,0-3.91-2.72l-6.13,4.51A207.79,207.79,0,0,1,958.33,589a49.23,49.23,0,0,1,82.44,2.41,206.78,206.78,0,0,1-27.8,2.85Z"/><path class="cls-4" d="M362.64,681.85a2.51,2.51,0,0,0-4.22-2.2l-11.36,10.82-7.1,6.78-2.36,2.25-2.43,2.31-1.1,1.05c-11.23,1.26-21.94,2-32,2.42a48.15,48.15,0,0,1,2.06-11.64c.17-.58.36-1.16.56-1.74a49.22,49.22,0,0,1,92.73-.85c-12.84,3.37-25.31,6-37.33,8.1l.17-1.15.23-1.48Z"/></svg>