<svg id="Layer_1" data-name="Layer 1" xmlns="http://www.w3.org/2000/svg" viewBox="0 0 1353 1000"><defs><style>.cls-1{fill:#fff;}.cls-2{fill:#bed4e4;}.cls-3{fill:#50b0d1;}.cls-4{fill:#4c7ba2;}.cls-5{fill:#cc69cc;}.cls-6{fill:#9b5d95;}</style></defs><path class="cls-1" d="M677.87,632.61s-60,61.35-197.79,28.25q-9.75-2.34-20-5.34a4.52,4.52,0,0,0-5.77,4.47c.15,4.34.31,10.7.43,18.14.32,22.6.09,55.37-3.37,73.56a7.29,7.29,0,0,0,0,2.83,221.11,221.11,0,0,1,.29,74.46,4.84,4.84,0,0,0,2.07,4.86c4.44,2.95,13.43,9.25,18.6,15.1a3,3,0,0,1-1.69,5c-9.86,2-33.5,5.86-47.69.22a5.16,5.16,0,0,1-3.12-4c-2.05-12.38-10.28-63.88-9.78-89.43a3.72,3.72,0,0,0-4.3-3.77c-9.17,1.45-30.18,4.51-42.21,4.12a5.09,5.09,0,0,0-5.29,5.23c.44,14.77.6,55.32-3.84,78.7a7,7,0,0,1-5.46,5.57c-8.28,1.78-26.84,5.08-45.4,3.68a3.61,3.61,0,0,1-2.56-5.84c3.73-4.73,9.53-11.45,14.41-14.42a3.88,3.88,0,0,0,1.67-4.29c-2.79-10.83-11.86-47.49-11.95-64.83a10.12,10.12,0,0,0-.53-3.23c-1.52-4.5-4.11-21.87-4.55-43.29,0-.92.08-1.86.13-2.8a5.32,5.32,0,0,0-.68-2.88,5.16,5.16,0,0,0-3.34-2.56c-8.9-2.13-29.11-9-36.88-29A29.45,29.45,0,0,1,258,664.55c1.79-8.88,6.63-22.16,19.71-25.21,4.35-1,9.6-3.6,15.19-7,.77-.47,1.55-1,2.32-1.47l2.36-1.54c19.17-12.81,40.28-32.81,41.73-32.81,2,0,73.63,8.7,73.63,8.7l39.5,2.67s20.79,3,47.41,5.44c33,3,75,5.11,97.46-.56a19.82,19.82,0,0,0,14.37-14.22c2.73-10.48,8.56-27.11,18.49-30.15,8.47-2.29,5.68,14.8,5.54,15.69.79-1.48,24.65-46.15,47.69-36.45C706.78,557.49,713.68,602.48,677.87,632.61Z"/><path class="cls-2" d="M499.8,613.31c-1.47,18.83-19.72,47.55-19.72,47.55q-9.75-2.34-20-5.34a4.52,4.52,0,0,0-5.77,4.47c.15,4.34.31,10.7.43,18.14v0c-81.37-12.74-157.62-41.52-157.62-41.52v0c-.87,15.88-2.31,53.91,2.38,76.08a5.16,5.16,0,0,0-3.34-2.56c-8.9-2.13-29.11-9-36.88-29A29.45,29.45,0,0,1,258,664.55c1.79-8.88,6.63-22.16,19.71-25.21,4.35-1,9.6-3.6,15.19-7,.77-.47,1.55-1,2.32-1.47s1.57-1,2.36-1.54c19.17-12.81,40.28-32.81,41.73-32.81,2,0,73.63,8.7,73.63,8.7l39.5,2.67S473.18,610.88,499.8,613.31Z"/><path class="cls-3" d="M428.74,661.26c.3,1.15.57,2.31.81,3.49C429.31,663.57,429.05,662.4,428.74,661.26Zm-.41-1.47a53.73,53.73,0,0,0-2-5.51A54.6,54.6,0,0,1,428.33,659.79Z"/><path class="cls-3" d="M430.52,673.89q0-1.33-.12-2.7c-.06-.9-.15-1.81-.27-2.71l-.15-1.19s0,0,0,0c-.11-.83-.26-1.65-.41-2.47v0c-.24-1.18-.51-2.34-.81-3.49-.13-.5-.27-1-.41-1.47a54.6,54.6,0,0,0-2-5.51,53.33,53.33,0,0,0-3.88-7.47c-.21-.34-.43-.68-.65-1-.43-.66-.88-1.31-1.35-2-.23-.33-.47-.64-.7-1a53.08,53.08,0,0,0-10.91-10.78l-.84-.61c-.36-.26-.73-.5-1.09-.75l-.52-.35c-.56-.36-1.13-.73-1.71-1.08-1.41-.85-2.88-1.64-4.37-2.36l-1.07-.49c-.4-.19-.8-.36-1.21-.54s-.69-.29-1.06-.43c-1.53-.61-3.08-1.16-4.68-1.62-.39-.12-.79-.24-1.19-.34-.81-.22-1.62-.42-2.44-.6l-1.23-.26-1.23-.22c-.42-.07-.83-.14-1.25-.19s-.84-.12-1.26-.17a54.79,54.79,0,0,0-10.27-.25c-1.21.09-2.4.21-3.58.38l-.87.13-1.17.19-1.67.33c-.4.09-.8.17-1.19.27l-.52.13c-.36.08-.71.17-1.06.27-1.12.3-2.22.64-3.3,1-.51.17-1,.35-1.52.55s-.87.32-1.29.5-.57.22-.86.35-.86.38-1.28.57-1.12.52-1.66.79-1.11.56-1.65.86-1.07.6-1.6.91-1.05.63-1.57,1-1,.66-1.51,1-1,.7-1.5,1.06-1,.73-1.45,1.12-.95.75-1.4,1.15l-1.23,1.08a2.53,2.53,0,0,0-.26.23l-1.21,1.14c-.36.35-.72.72-1.07,1.09a2.46,2.46,0,0,0-.28.28c-.4.41-.79.84-1.16,1.25l-.95,1.09-.43.51c-1.07,1.3-2.09,2.65-3,4.05a.18.18,0,0,0-.07.1c-.67,1-1.31,2-1.9,3a.1.1,0,0,0,0,0c-.3.52-.6,1.05-.89,1.59-.19.34-.36.68-.53,1-.66,1.28-1.27,2.6-1.81,3.94a53.29,53.29,0,1,0,102.58,19Zm-31.08,5.05-1.93,1.63-8.61,7.29-2.38,2-18.18,15.37a2.43,2.43,0,0,1-4-2.29L368,683.33l.48-2.58,2-.88,11-4.9,1-.47-25.81,1.86a2.44,2.44,0,0,1-2.09-4,3.4,3.4,0,0,1,.32-.34l5.48-4.68L363.1,665l2.84-2.43h0l3.57-3.06,4.33-3.69,12.95-11a2.67,2.67,0,0,1,3.64.1,2.5,2.5,0,0,1,.61.86h0a2.65,2.65,0,0,1,.17,1.67l-2.7,13-.55,2.7-.24,1.14-.46,2.27-.6,2.93-1,4.75,11.48-.83A3.12,3.12,0,0,1,399.44,678.94Z"/><path class="cls-4" d="M329.74,650.91c.18-.35.35-.69.54-1-.19.34-.36.68-.53,1Z"/><path class="cls-4" d="M391.05,645.76a2.6,2.6,0,0,0-.61-.86A2.5,2.5,0,0,1,391.05,645.76Z"/><path class="cls-4" d="M391.06,645.77a2.65,2.65,0,0,1,.17,1.67l-2.7,13,2.69-13A2.74,2.74,0,0,0,391.06,645.77Z"/><path class="cls-4" d="M391.23,647.44a2.65,2.65,0,0,0-.17-1.67h0a2.5,2.5,0,0,0-.61-.86,2.67,2.67,0,0,0-3.64-.1l-12.95,11-4.33,3.69c-14.45-3.94-27.45-7.86-38.31-11.29.59-1,1.23-2,1.9-3a.18.18,0,0,1,.07-.1c.94-1.4,2-2.75,3-4.05l.43-.51.95-1.09c.37-.41.76-.84,1.16-1.25a2.46,2.46,0,0,1,.28-.28c.35-.37.71-.74,1.07-1.09l1.21-1.14a2.53,2.53,0,0,1,.26-.23l1.23-1.08c.45-.4.93-.78,1.4-1.15s1-.75,1.45-1.12,1-.71,1.5-1.06,1-.69,1.51-1,1-.65,1.57-1,1-.61,1.6-.91,1.09-.58,1.65-.86,1.1-.54,1.66-.79.85-.39,1.28-.57.57-.24.86-.35.87-.35,1.29-.5,1-.38,1.52-.55c1.08-.36,2.18-.7,3.3-1,.35-.1.7-.19,1.06-.27l.52-.13c.39-.1.79-.18,1.19-.27l1.67-.33,1.17-.19.87-.13c1.18-.17,2.37-.29,3.58-.38a54.79,54.79,0,0,1,10.27.25c.42,0,.83.1,1.26.17s.83.12,1.25.19l1.23.22,1.23.26c.82.18,1.63.38,2.44.6.4.1.8.22,1.19.34,1.6.46,3.15,1,4.68,1.62.37.14.72.28,1.06.43s.81.35,1.21.54l1.07.49c1.49.72,3,1.51,4.37,2.36.58.35,1.15.72,1.71,1.08l.52.35c.36.25.73.49,1.09.75l.84.61a53.08,53.08,0,0,1,10.91,10.78c.23.31.47.62.7,1,.47.65.92,1.3,1.35,2,.22.33.44.67.65,1a53.33,53.33,0,0,1,3.88,7.47,54.6,54.6,0,0,1,2,5.51c.14.48.28,1,.41,1.47.3,1.15.57,2.31.81,3.49v0c.15.82.3,1.64.41,2.47,0,0,0,0,0,0l.15,1.19c.12.9.21,1.81.27,2.71s.11,1.81.12,2.7c-14.84-2.89-29.25-6.17-42.78-9.57l.24-1.14.55-2.7Z"/><path class="cls-3" d="M287.07,273.77l38.46,6.35c-35.88,6.61-75.19,10.74-103.73,5.27,0,0-23.3-91.11,81.25-107.37,28.63-4.45,50.38,1.14,66.8,11.08C318,220.88,287.07,273.77,287.07,273.77Z"/><path class="cls-4" d="M421.58,263.92l-90.94,18.32-16.24-4.31-37.49-10s34.48-50.72,88-78.13c24.66-12.61,53.35-20.27,84.58-15.76,17.29,2.49,29.07,19.41,23.8,35.06C464,236.74,421.58,263.92,421.58,263.92Z"/><g id="Forma_1" data-name="Forma 1"><path class="cls-1" d="M583.55,286.79c-.24-.88-.5-1.74-.75-2.59s-.53-1.67-.8-2.47q-.79-2.42-1.66-4.59c-4.6-11.6-10.43-18.31-17.68-22-25.2-12.95-72-16.12-125.38-13.79-19.33.85-39.5,2.42-59.82,4.5-14,1.44-28.12,3.13-42.06,5-57.73,7.75-112.72,18.63-149.13,28.09-2.71.7-5.32,1.4-7.81,2.09-2.77.76-5.44,1.56-8,2.4s-5.08,1.72-7.49,2.62c-4.81,1.83-9.27,3.8-13.41,5.86a113.81,113.81,0,0,0-21.16,13.56,86.83,86.83,0,0,0-24,30.1c-9.32,19.57-7.18,36.12-7.13,36.32,0,0,4.45,43.43,13.91,92.12,4.38,23.06,9.69,47.32,15,68.82.3,1.2.59,2.39.89,3.57,2.8,11.17,5.58,21.53,8.17,30.46,1.31,4.47,2.56,8.58,3.76,12.28q.9,2.76,1.74,5.21c.57,1.62,1.12,3.13,1.65,4.51C157,627,162.13,644.64,192.89,648.18h0c1.23.14,2.49.25,3.81.35s2.7.17,4.12.22c.7,0,1.43,0,2.16.06,2.2,0,4.5,0,6.91,0,13.27-.29,30.13-1.55,49.19-3.49h0c34.42-3.5,76.08-9.2,116.92-15.4,9.51-1.45,19-2.92,28.31-4.4l4.8-.77L414,624l1.3-.2,10.67-1.72h0l14.17-2.32,3.06-.51q8.64-1.44,16.87-2.83l6.23-1.07c3.3-.55,6.53-1.11,9.69-1.66l8.5-1.48,12-2.1c8.73-1.56,16.62-3,23.45-4.25,8.48-1.56,16.12-3.26,23-5.12,1.72-.46,3.39-.94,5-1.42s3.21-1,4.75-1.5c3.07-1,6-2.06,8.7-3.17,10.9-4.41,19.08-9.56,25.12-15.61,12.08-12.09,15.59-27.79,15.19-48.47-1.45-75.25-6.63-155.44-11.17-202-1.13-11.64-2.54-21.59-4.24-30.08C585.47,294.21,584.54,290.34,583.55,286.79ZM563,343.66c6.09,38.09,8.42,107.08,7.34,166.36-.2,16.3-3.49,28.52-14,38.47-5.24,5-12.29,9.35-21.73,13.3-2.36,1-4.88,2-7.55,2.89-1.35.46-2.71.92-4.14,1.37l-2.15.68c-.74.23-1.48.44-2.23.66-6,1.76-12.7,3.42-20.15,5-59.26,13.1-215,37.57-277.48,40.2-41.31,1.7-44.24-11.56-57.93-47.47-.43-1.13-.87-2.35-1.32-3.67s-.92-2.73-1.39-4.24-1-3.08-1.47-4.75c-.12-.42-.25-.84-.37-1.27s-.26-.86-.38-1.29l-.77-2.69c-2.05-7.29-4.24-15.76-6.46-24.92-4.43-18.33-8.95-39.49-12.72-59.63-7.68-40.26-11.73-76.34-11.71-76.34,0-.23-1.92-14,6-29.94A68.48,68.48,0,0,1,153.23,332a97.14,97.14,0,0,1,18.53-10.8q5.44-2.46,11.8-4.63c2.13-.72,4.33-1.41,6.62-2.07l1.73-.49,1.77-.48c1.19-.32,2.4-.62,3.62-.92,39.06-9.5,109.34-21.94,176-29.27,66.69-7.18,129.62-9.75,160.88,2.42,6.57,2.58,12.25,7.54,17.13,16.56.61,1.13,1.21,2.32,1.8,3.59.29.63.58,1.27.86,1.94a1.12,1.12,0,0,0,.11.25l.1.25.21.51c.15.34.28.69.42,1,.55,1.4,1.1,2.87,1.62,4.41l.39,1.18c.06.2.13.4.19.6s.14.4.19.6c.13.42.26.82.38,1.24s.25.84.38,1.26A183.17,183.17,0,0,1,563,343.66Z"/><path class="cls-1" d="M563,343.66c6.09,38.09,8.42,107.08,7.34,166.36-.2,16.3-3.49,28.52-14,38.47-5.24,5-12.29,9.35-21.73,13.3-2.36,1-4.88,2-7.55,2.89-1.35.46-2.71.92-4.14,1.37l-2.15.68c-.74.23-1.48.44-2.23.66-6,1.76-12.7,3.42-20.15,5-59.26,13.1-215,37.57-277.48,40.2-41.31,1.7-44.24-11.56-57.93-47.47-.43-1.13-.87-2.35-1.32-3.67s-.92-2.73-1.39-4.24-1-3.08-1.47-4.75c-.12-.42-.25-.84-.37-1.27s-.26-.86-.38-1.29l-.77-2.69c-2.05-7.29-4.24-15.76-6.46-24.92-4.43-18.33-8.95-39.49-12.72-59.63-7.68-40.26-11.73-76.34-11.71-76.34,0-.23-1.92-14,6-29.94A68.48,68.48,0,0,1,153.23,332a97.14,97.14,0,0,1,18.53-10.8q5.44-2.46,11.8-4.63c2.13-.72,4.33-1.41,6.62-2.07l1.73-.49,1.77-.48c1.19-.32,2.4-.62,3.62-.92,39.06-9.5,109.34-21.94,176-29.27,66.69-7.18,129.62-9.75,160.88,2.42,6.57,2.58,12.25,7.54,17.13,16.56.61,1.13,1.21,2.32,1.8,3.59.29.63.58,1.27.86,1.94a1.12,1.12,0,0,0,.11.25l.1.25.21.51c.15.34.28.69.42,1,.55,1.4,1.1,2.87,1.62,4.41l.39,1.18c.06.2.13.4.19.6s.14.4.19.6c.13.42.26.82.38,1.24s.25.84.38,1.26A183.17,183.17,0,0,1,563,343.66Z"/></g><g id="Forma_1_copiar" data-name="Forma 1 copiar"><path class="cls-4" d="M563,343.66c6.09,38.09,8.42,107.08,7.34,166.36-.2,16.3-3.49,28.52-14,38.47-5.24,5-12.29,9.35-21.73,13.3-2.36,1-4.88,2-7.55,2.89-1.35.46-2.71.92-4.14,1.37l-2.15.68c-.74.23-1.48.44-2.23.66-6,1.76-12.7,3.42-20.15,5-59.26,13.1-215,37.57-277.48,40.2-41.31,1.7-44.24-11.56-57.93-47.47-.43-1.13-.87-2.35-1.32-3.67s-.92-2.73-1.39-4.24-1-3.08-1.47-4.75c-.12-.42-.25-.84-.37-1.27s-.26-.86-.38-1.29l-.77-2.69c-2.05-7.29-4.24-15.76-6.46-24.92-4.43-18.33-8.95-39.49-12.72-59.63-7.68-40.26-11.73-76.34-11.71-76.34,0-.23-1.92-14,6-29.94A68.48,68.48,0,0,1,153.23,332a97.14,97.14,0,0,1,18.53-10.8q5.44-2.46,11.8-4.63c2.13-.72,4.33-1.41,6.62-2.07l1.73-.49,1.77-.48c1.19-.32,2.4-.62,3.62-.92,39.06-9.5,109.34-21.94,176-29.27,66.69-7.18,129.62-9.75,160.88,2.42,6.57,2.58,12.25,7.54,17.13,16.56.61,1.13,1.21,2.32,1.8,3.59.29.63.58,1.27.86,1.94a1.12,1.12,0,0,0,.11.25l.1.25.21.51c.15.34.28.69.42,1,.55,1.4,1.1,2.87,1.62,4.41l.39,1.18c.06.2.13.4.19.6s.14.4.19.6c.13.42.26.82.38,1.24s.25.84.38,1.26A183.17,183.17,0,0,1,563,343.66Z"/></g><g id="Forma_1_copiar_2" data-name="Forma 1 copiar 2"><path class="cls-3" d="M553.36,348.21a173.12,173.12,0,0,0-4.84-23.32c-.23-.81-.47-1.6-.71-2.38-.07-.19-.13-.38-.19-.57l-.18-.57c-.12-.38-.25-.75-.37-1.12-.5-1.48-1-2.88-1.55-4.21q-.19-.51-.39-1c-.07-.17-.14-.33-.2-.49l-.11-.24a2.44,2.44,0,0,0-.1-.24c-.27-.63-.54-1.25-.82-1.85-.55-1.2-1.12-2.33-1.7-3.41-4.66-8.6-10.07-13.32-16.33-15.79-29.78-11.57-89.8-9.17-153.43-2.17s-130.67,19.6-168.1,29.27c-1.18.3-2.34.61-3.47.93l-1.69.48-1.67.49q-3.28,1-6.35,2.08c-4.08,1.43-7.85,3-11.36,4.58a98.66,98.66,0,0,0-17.91,10.53,68.78,68.78,0,0,0-20.27,23.29c-8,15.25-6.26,28.16-6.24,28.15s3.37,33.69,10.76,71.61c3.61,19,8.05,38.94,12.45,56.29,2.2,8.68,4.38,16.71,6.43,23.63l.77,2.54c.12.41.25.82.38,1.23s.24.8.37,1.2c.49,1.59,1,3.09,1.45,4.52s.94,2.77,1.39,4,.89,2.42,1.32,3.48c13.59,34.14,16.67,46.8,56.25,45.18,60-2.48,208.58-25.81,265-38.27,7.09-1.49,13.47-3.07,19.19-4.74,1.43-.42,2.82-.85,4.17-1.28s2.66-.87,3.94-1.31q3.81-1.34,7.18-2.74c9-3.77,15.71-7.95,20.69-12.68,10-9.48,13.08-21.12,13.27-36.65C561.36,450.22,559.16,384.5,553.36,348.21Z"/></g><path class="cls-1" d="M383.87,465.64a10.63,10.63,0,0,1,13.24,13.13,37.2,37.2,0,0,1-66.47,10.38,9.64,9.64,0,0,1,7.13-15.08l12.52-1a113.94,113.94,0,0,0,23.24-4.34Z"/><path class="cls-1" d="M288.62,451.51a10.14,10.14,0,0,1,.24,10.21c-3.35,5.81-10.87,5-19.82.67a28.86,28.86,0,0,0-11.37-2.91,19.51,19.51,0,0,0-14.41,5.61,83,83,0,0,0-6.38,7,18.26,18.26,0,0,1-9.71,6.55,10.7,10.7,0,0,1-13-11.9,40.26,40.26,0,0,1,74.48-15.27Z"/><path class="cls-1" d="M421.8,431.64a9.52,9.52,0,0,0,3.38,8.95c4.94,3.87,11.17.51,17.42-6.37a27.33,27.33,0,0,1,8.85-6.51,18.26,18.26,0,0,1,14.48-.17,75.9,75.9,0,0,1,8,3.86,19.26,19.26,0,0,0,6.2,2.22,10.76,10.76,0,0,0,10.7-16.42,37.68,37.68,0,0,0-69,14.44Z"/><path class="cls-5" d="M1173.38,717.71l-.62,1.3-16.3,34.14a7,7,0,0,1-9.26,3.28L1089.71,729a7,7,0,0,1-3.28-9.27l14.91-31.22,2-4.21a7,7,0,0,1,9.26-3.29l57.49,27.44a6.83,6.83,0,0,1,3,2.68A7,7,0,0,1,1173.38,717.71Z"/><path class="cls-6" d="M1173.38,717.71l-.62,1.3-48.25,11.32-23.17-41.82-2.27-4.08.85-1.77a10.74,10.74,0,0,1,14.32-5.07L1112.6,681l-1.62,3.43a3.17,3.17,0,0,0-2.42-.12,4.42,4.42,0,0,0-.69.34l20.5,37,44.68-10.49A7,7,0,0,1,1173.38,717.71Z"/><path class="cls-1" d="M1139.62,639.54c-.11,3.3-.37,6.54-.76,9.69-4,33.78-21.66,59.46-27.86,67.59a9,9,0,0,0-1.78,6.19c1.09,13.2-1.73,29-1.73,29-.27,33.63-12.32,67-16.4,77.39a3.41,3.41,0,0,0,1.85,4.39c12.19,5.19,17.9,18.3,17.9,18.3l-52.27.31a4.48,4.48,0,0,1-4.24-2.87c-8.16-21.22-7.16-79.5-6.82-92.57a2.18,2.18,0,0,0-2.49-2.21c-8.25,1.06-19.77.9-25.45.74a5.27,5.27,0,0,0-5.13,2.81c-11,26-49.87,72.12-53.34,76.55-3.69,4.68-23.77,17.65-32.47,18.67-5.54.63-14.68.87-19.65.94a2.52,2.52,0,0,1-2.09-4c4.79-6.39,12.62-13.67,16.74-17.33a17.69,17.69,0,0,0,4.28-5.81c5.31-11.68,19.78-47.49,22.6-65.25,2.65-16.72,1.11-43.12.34-53.34,0-.32-.06-.63-.12-.94v0a9.15,9.15,0,0,0-3.38-5.56c-7.24-5.63-24.59-21.41-27-44.9-3.24-32.15,19.08-45.19,19.08-45.19l11.39-2.58L1063.64,584a162.65,162.65,0,0,1,34.61,8.86C1118.71,600.67,1140.52,614.83,1139.62,639.54Z"/><path class="cls-5" d="M1079.94,658.73c0-.91,0-1.79-.12-2.7s-.16-1.82-.27-2.72c0-.39-.11-.8-.16-1.18a.13.13,0,0,1,0-.06c-.12-.83-.26-1.66-.42-2.46v0c-.23-1.18-.5-2.33-.8-3.49-.13-.49-.27-1-.42-1.46,0-.13-.07-.25-.11-.38a53.09,53.09,0,0,0-1.86-5.13,54,54,0,0,0-3.87-7.48c-.21-.35-.43-.68-.65-1-.43-.66-.89-1.31-1.35-2l-.7-.95A53.49,53.49,0,0,0,1058.29,617c-.27-.21-.56-.42-.84-.62l-1.09-.74a5.91,5.91,0,0,0-.52-.35q-.84-.56-1.71-1.08-2.13-1.29-4.38-2.37c-.35-.16-.7-.34-1.06-.48s-.8-.37-1.22-.55l-1-.43q-2.3-.92-4.68-1.62c-.39-.13-.79-.23-1.19-.33-.81-.22-1.63-.43-2.44-.6-.42-.09-.82-.2-1.24-.26l-1.23-.23-1.24-.19-1.26-.18a54.82,54.82,0,0,0-10.27-.23c-1.21.09-2.4.21-3.58.38-.3,0-.59.09-.87.13s-.78.13-1.17.19c-.56.1-1.11.19-1.67.32-.4.1-.81.17-1.2.28a3.8,3.8,0,0,0-.51.13,7.62,7.62,0,0,0-1.07.27c-1.11.3-2.22.63-3.29,1-.51.15-1,.35-1.52.54s-.87.33-1.3.51a7.62,7.62,0,0,0-.85.35c-.43.18-.86.36-1.29.57s-1.11.52-1.66.78-1.1.57-1.65.87-1.06.59-1.59.9l-1.57,1c-.51.33-1,.67-1.52,1s-1,.7-1.49,1.06-1,.71-1.45,1.11-1,.76-1.4,1.16-.83.7-1.23,1.08a2.53,2.53,0,0,0-.26.23c-.41.36-.81.75-1.21,1.14s-.73.71-1.08,1.09a2.29,2.29,0,0,0-.27.27c-.4.42-.79.85-1.17,1.26s-.63.73-.94,1.09l-.43.51a50.15,50.15,0,0,0-3,4s0,0,0,0,0,0-.05.09c-.68,1-1.31,2-1.91,3,0,0,0,0,0,0-.3.52-.59,1-.88,1.6-.19.34-.36.67-.53,1-.66,1.29-1.27,2.61-1.82,3.93a53.3,53.3,0,1,0,100.37,35.52A52.6,52.6,0,0,0,1079.94,658.73Zm-31.08,5-1.93,1.64-8.62,7.29-2.37,2-18.18,15.39a2.44,2.44,0,0,1-4-2.3l3.62-19.61.48-2.58,2-.9,11-4.9,1-.45L1006,661.19a2.44,2.44,0,0,1-2.08-4c.09-.1.2-.22.32-.33l5.47-4.67,2.77-2.36,2.84-2.43h0l3.57-3.06,4.33-3.71,4.19-3.57,8.75-7.47a2.69,2.69,0,0,1,3.65.12,2.33,2.33,0,0,1,.61.84h0a2.71,2.71,0,0,1,.17,1.68l-1.36,6.6-1.34,6.45-.56,2.69-.23,1.15-.47,2.26-.59,2.94-1,4.74,11.48-.83A3.12,3.12,0,0,1,1048.86,663.77Z"/><path class="cls-2" d="M1139.63,639.54c-.12,3.3-.38,6.54-.77,9.69-32.23,2.67-190.81-25.11-190.81-25.11l2.8-14.6L1063.65,584S1141.3,593.36,1139.63,639.54Z"/><path class="cls-6" d="M1040.65,632.27a2.71,2.71,0,0,0-.17-1.68h0a2.33,2.33,0,0,0-.61-.84,2.69,2.69,0,0,0-3.65-.12l-8.75,7.47c-16.31-2.49-31.9-5-44.88-7.14,0,0,0,0,0,0a50.15,50.15,0,0,1,3-4l.43-.51c.31-.36.62-.73.94-1.09s.77-.84,1.17-1.26a2.29,2.29,0,0,1,.27-.27c.35-.38.72-.74,1.08-1.09s.8-.78,1.21-1.14a2.53,2.53,0,0,1,.26-.23q.6-.57,1.23-1.08c.45-.4.93-.78,1.4-1.16s1-.76,1.45-1.11,1-.71,1.49-1.06,1-.69,1.52-1l1.57-1c.53-.31,1.05-.61,1.59-.9s1.09-.59,1.65-.87,1.1-.53,1.66-.78.86-.39,1.29-.57a7.62,7.62,0,0,1,.85-.35c.43-.18.87-.35,1.3-.51s1-.39,1.52-.54c1.07-.37,2.18-.7,3.29-1a7.62,7.62,0,0,1,1.07-.27,3.8,3.8,0,0,1,.51-.13c.39-.11.8-.18,1.2-.28.56-.13,1.11-.22,1.67-.32.39-.06.78-.14,1.17-.19s.57-.1.87-.13c1.18-.17,2.37-.29,3.58-.38a54.82,54.82,0,0,1,10.27.23l1.26.18,1.24.19,1.23.23c.42.06.82.17,1.24.26.81.17,1.63.38,2.44.6.4.1.8.2,1.19.33q2.38.7,4.68,1.62l1,.43c.42.18.82.35,1.22.55s.71.32,1.06.48q2.25,1.08,4.38,2.37.87.52,1.71,1.08a5.91,5.91,0,0,1,.52.35l1.09.74c.28.2.57.41.84.62a53.49,53.49,0,0,1,10.91,10.76l.7.95c.46.65.92,1.3,1.35,2,.22.34.44.67.65,1a54,54,0,0,1,3.87,7.48,53.09,53.09,0,0,1,1.86,5.13c-12.35-1.61-25.42-3.46-38.34-5.38Z"/><path class="cls-2" d="M1139.63,639.54c-.12,3.3-.38,6.54-.77,9.69-4,33.78-21.66,59.46-27.86,67.59,0,0-.44-72.5-12.75-124C1118.72,600.67,1140.52,614.84,1139.63,639.54Z"/><path class="cls-5" d="M950.94,179.72a73,73,0,0,0-58.83,80.76c.28,2.19.63,4.32,1.09,6.43L858,246.55a61.6,61.6,0,0,1-10.77-86.42c.58-.74,1.17-1.46,1.79-2.17,26.19-30.68,75.34-24.93,95.28,10.12Z"/><path class="cls-5" d="M1066.65,220.56l-29.09,28.34c-.07-2.14-.24-4.31-.52-6.48a73,73,0,0,0-76.82-63.85l3.53-12.89c10.72-38.9,57-56.54,89.88-33.22.75.53,1.52,1.09,2.25,1.66A61.59,61.59,0,0,1,1066.65,220.56Z"/><path class="cls-6" d="M1037,242.42c.28,2.17.45,4.34.52,6.48a74.2,74.2,0,0,1-.75,13.47L966.72,281.1l-69.47-1.31a74,74,0,0,1-4-12.88c-.46-2.11-.81-4.24-1.09-6.43a73,73,0,0,1,58.83-80.76c1.51-.29,3.06-.55,4.61-.73s3.11-.33,4.67-.42A73,73,0,0,1,1037,242.42Z"/><g id="Forma_1-2" data-name="Forma 1"><path class="cls-1" d="M1248.72,281.88c-.2-.9-.42-1.79-.63-2.66s-.45-1.73-.68-2.55q-.69-2.49-1.45-4.73c-4.06-12-9.63-19.11-16.78-23.23-24.88-14.41-72.19-20-126.38-20.41-19.64-.13-40.16.43-60.87,1.49-14.3.74-28.66,1.73-42.88,2.91-58.91,4.89-115.21,13.1-152.6,20.82q-4.19.84-8,1.7c-2.84.64-5.6,1.31-8.27,2s-5.23,1.48-7.72,2.27q-7.46,2.42-13.89,5.25a115.21,115.21,0,0,0-22.14,12.66,88,88,0,0,0-25.83,29.28c-10.45,19.36-9.13,36.23-9.09,36.44,0,0,2.28,44.25,9.36,94.08,3.26,23.61,7.4,48.47,11.68,70.53.25,1.23.48,2.45.72,3.66,2.27,11.47,4.55,22.11,6.72,31.3,1.09,4.6,2.15,8.83,3.17,12.63.52,1.9,1,3.7,1.5,5.38s1,3.22,1.44,4.65c12.85,39.37,17.12,57.56,48.11,62.72h0c1.24.21,2.52.39,3.84.55s2.73.32,4.17.44l2.18.17c2.24.16,4.57.27,7,.35,13.47.38,30.62,0,50-1h0c35.08-1.78,77.6-5.42,119.3-9.61,9.72-1,19.4-2,28.92-3l4.91-.53,4.87-.53,1.32-.14,10.9-1.19h0l14.49-1.62,3.12-.36q8.84-1,17.25-2l6.37-.76,9.91-1.19,8.69-1.06,12.27-1.52c8.93-1.13,17-2.17,24-3.1,8.67-1.15,16.5-2.48,23.58-4,1.76-.38,3.49-.78,5.17-1.18s3.3-.84,4.89-1.27c3.16-.87,6.16-1.79,9-2.77,11.28-3.92,19.83-8.71,26.27-14.53,12.86-11.64,17.22-27.37,17.88-48.35,2.4-76.35,1.27-157.89-.94-205.33-.55-11.85-1.47-22-2.75-30.7C1250.29,289.5,1249.55,285.53,1248.72,281.88ZM1225,338.46c4.21,38.93,3,109-1.11,169-1,16.51-5,28.73-16.11,38.27-5.57,4.77-12.94,8.85-22.71,12.37-2.45.89-5,1.73-7.8,2.54-1.39.4-2.8.8-4.27,1.18l-2.22.58-2.29.55c-6.18,1.48-13,2.82-20.68,4-60.73,10.23-219.8,27-283.31,26.49-42-.39-44.25-14-56.28-51.09-.37-1.16-.75-2.43-1.15-3.78s-.79-2.82-1.19-4.37-.82-3.18-1.24-4.9c-.1-.42-.21-.86-.31-1.3s-.22-.89-.32-1.33c-.21-.9-.43-1.83-.64-2.76-1.7-7.5-3.49-16.19-5.27-25.59-3.55-18.81-7-40.49-9.83-61.1-5.71-41.19-8-78-7.95-78,0-.23-1.22-14.25,7.66-30a69.77,69.77,0,0,1,22.24-23.64,99,99,0,0,1,19.34-10,128.31,128.31,0,0,1,12.21-4.08c2.19-.63,4.46-1.21,6.81-1.77l1.78-.4,1.82-.4c1.21-.26,2.46-.51,3.71-.74,40.08-7.62,112-16.63,179.91-20.63,68-3.85,131.87-3.22,162.93,10.72,6.53,2.95,12,8.27,16.52,17.67.56,1.17,1.11,2.41,1.63,3.72.26.66.53,1.32.78,2a2.14,2.14,0,0,0,.09.27l.09.25.19.53c.13.35.25.71.37,1.08.49,1.45,1,3,1.42,4.55.1.41.22.81.33,1.22a6.25,6.25,0,0,1,.16.62c.06.2.12.41.17.62.11.42.22.83.32,1.27s.21.86.32,1.29A186.17,186.17,0,0,1,1225,338.46Z"/><path class="cls-1" d="M1225,338.46c4.21,38.93,3,109-1.11,169-1,16.51-5,28.73-16.11,38.27-5.57,4.77-12.94,8.85-22.71,12.37-2.45.89-5,1.73-7.8,2.54-1.39.4-2.8.8-4.27,1.18l-2.22.58-2.29.55c-6.18,1.48-13,2.82-20.68,4-60.73,10.23-219.8,27-283.31,26.49-42-.39-44.25-14-56.28-51.09-.37-1.16-.75-2.43-1.15-3.78s-.79-2.82-1.19-4.37-.82-3.18-1.24-4.9c-.1-.42-.21-.86-.31-1.3s-.22-.89-.32-1.33c-.21-.9-.43-1.83-.64-2.76-1.7-7.5-3.49-16.19-5.27-25.59-3.55-18.81-7-40.49-9.83-61.1-5.71-41.19-8-78-7.95-78,0-.23-1.22-14.25,7.66-30a69.77,69.77,0,0,1,22.24-23.64,99,99,0,0,1,19.34-10,128.31,128.31,0,0,1,12.21-4.08c2.19-.63,4.46-1.21,6.81-1.77l1.78-.4,1.82-.4c1.21-.26,2.46-.51,3.71-.74,40.08-7.62,112-16.63,179.91-20.63,68-3.85,131.87-3.22,162.93,10.72,6.53,2.95,12,8.27,16.52,17.67.56,1.17,1.11,2.41,1.63,3.72.26.66.53,1.32.78,2a2.14,2.14,0,0,0,.09.27l.09.25.19.53c.13.35.25.71.37,1.08.49,1.45,1,3,1.42,4.55.1.41.22.81.33,1.22a6.25,6.25,0,0,1,.16.62c.06.2.12.41.17.62.11.42.22.83.32,1.27s.21.86.32,1.29A186.17,186.17,0,0,1,1225,338.46Z"/></g><g id="Forma_1_copiar-2" data-name="Forma 1 copiar"><path class="cls-6" d="M1225,338.46c4.21,38.93,3,109-1.11,169-1,16.51-5,28.73-16.11,38.27-5.57,4.77-12.94,8.85-22.71,12.37-2.45.89-5,1.73-7.8,2.54-1.39.4-2.8.8-4.27,1.18l-2.22.58-2.29.55c-6.18,1.48-13,2.82-20.68,4-60.73,10.23-219.8,27-283.31,26.49-42-.39-44.25-14-56.28-51.09-.37-1.16-.75-2.43-1.15-3.78s-.79-2.82-1.19-4.37-.82-3.18-1.24-4.9c-.1-.42-.21-.86-.31-1.3s-.22-.89-.32-1.33c-.21-.9-.43-1.83-.64-2.76-1.7-7.5-3.49-16.19-5.27-25.59-3.55-18.81-7-40.49-9.83-61.1-5.71-41.19-8-78-7.95-78,0-.23-1.22-14.25,7.66-30a69.77,69.77,0,0,1,22.24-23.64,99,99,0,0,1,19.34-10,128.31,128.31,0,0,1,12.21-4.08c2.19-.63,4.46-1.21,6.81-1.77l1.78-.4,1.82-.4c1.21-.26,2.46-.51,3.71-.74,40.08-7.62,112-16.63,179.91-20.63,68-3.85,131.87-3.22,162.93,10.72,6.53,2.95,12,8.27,16.52,17.67.56,1.17,1.11,2.41,1.63,3.72.26.66.53,1.32.78,2a2.14,2.14,0,0,0,.09.27l.09.25.19.53c.13.35.25.71.37,1.08.49,1.45,1,3,1.42,4.55.1.41.22.81.33,1.22a6.25,6.25,0,0,1,.16.62c.06.2.12.41.17.62.11.42.22.83.32,1.27s.21.86.32,1.29A186.17,186.17,0,0,1,1225,338.46Z"/></g><g id="Forma_1_copiar_2-2" data-name="Forma 1 copiar 2"><path class="cls-5" d="M1215,342.58a176.23,176.23,0,0,0-3.7-23.88c-.2-.84-.4-1.65-.61-2.45l-.15-.59c0-.2-.11-.4-.16-.59-.1-.39-.21-.77-.32-1.15-.43-1.52-.88-3-1.34-4.35q-.18-.52-.36-1l-.18-.51-.09-.24-.09-.25c-.24-.66-.49-1.3-.74-1.92-.5-1.25-1-2.43-1.55-3.55-4.27-8.95-9.52-14-15.73-16.83-29.6-13.27-90.55-13.92-155.41-10.09s-133.44,13.15-171.88,21c-1.21.25-2.4.51-3.57.77l-1.74.4-1.7.42q-3.39.84-6.55,1.77-6.32,1.86-11.75,4.06a100.41,100.41,0,0,0-18.69,9.75,70,70,0,0,0-21.75,22.57c-8.85,15.05-7.79,28.22-7.77,28.21s1.69,34.32,7.23,73.13c2.68,19.4,6.15,39.89,9.73,57.71,1.78,8.91,3.58,17.15,5.3,24.27.22.89.43,1.76.65,2.61.1.43.21.85.32,1.27s.21.83.31,1.24c.42,1.63.84,3.18,1.25,4.65s.8,2.86,1.2,4.15.77,2.5,1.15,3.6c12,35.29,14.5,48.28,54.69,48.68,60.93.57,212.74-15.45,270.52-25.18,7.27-1.14,13.81-2.41,19.7-3.82q2.21-.53,4.29-1.08c1.39-.37,2.75-.74,4.06-1.13q3.93-1.15,7.43-2.41c9.31-3.35,16.32-7.24,21.62-11.78,10.57-9.1,14.34-20.74,15.32-36.47C1217.83,446.39,1219,379.67,1215,342.58Z"/></g><path class="cls-1" d="M1014.27,498.55A24.73,24.73,0,0,0,1036,482.23a25.16,25.16,0,0,0,1.49-8.41c0-.22,0-.43,0-.65v0a2.32,2.32,0,0,0-1.32-1.52l-.7-.24h0a42.93,42.93,0,0,0-8.45-1.81,85.78,85.78,0,0,0-28.81,1.66,43.36,43.36,0,0,0-8.19,2.77h0l-.66.33a2.26,2.26,0,0,0-1.14,1.66h0c0,.22,0,.43.08.64a25,25,0,0,0,2.45,8.2A24.71,24.71,0,0,0,1014.27,498.55Z"/><path class="cls-1" d="M866.68,458.4A14.08,14.08,0,0,0,877.6,446c1.91-20.44,9.15-70.14,34.31-63.69,24.55,6.29,32.8,41.27,35.57,65.11,1.72,14.85-7.25,24.45-21.63,28.48-18.5,5.18-46.52,6-67.56-13a1.86,1.86,0,0,1,1.09-3.16C861.38,459.44,864,459,866.68,458.4Z"/><path class="cls-1" d="M1145.57,423.69a11.57,11.57,0,0,1-10.86-7.94c-6.44-19.75-22.91-65.54-45.77-53.89-21.4,10.91-22.81,43.86-20.73,67.52,1.54,17.7,19.85,25.83,37.59,25,18.07-.84,38.76-13,52.09-29.28,1-1.18-1.25-3.06-2.76-2.94C1152.92,422.34,1148.59,423.74,1145.57,423.69Z"/></svg>