<svg width="407" height="338" viewBox="0 0 407 338" fill="none" xmlns="http://www.w3.org/2000/svg">
<path d="M192.327 338C272.614 338 337.7 333.236 337.7 327.359C337.7 321.482 272.614 316.718 192.327 316.718C112.04 316.718 46.9546 321.482 46.9546 327.359C46.9546 333.236 112.04 338 192.327 338Z" fill="#15272A"/>
<path d="M227.387 320.953C227.387 321.514 224.513 324.101 221.893 327.079C220.613 328.47 219.494 330 218.556 331.641C218.191 332.308 217.932 333.026 217.787 333.772C217.745 334.092 217.745 334.417 217.787 334.737C217.807 334.887 217.839 335.035 217.885 335.18C217.926 335.327 217.983 335.469 218.054 335.604C218.615 336.692 220.609 336.835 223.32 336.34C224.843 336.046 226.345 335.652 227.817 335.16L229.036 334.743L230.287 334.287C231.121 333.968 231.968 333.635 232.815 333.264C239.587 330.364 246.267 326.225 247.355 323.775L227.387 320.953Z" fill="white"/>
<path d="M247.173 323.201C246.925 322.608 246.521 321.826 246.013 320.861C245.752 320.373 245.459 319.845 245.133 319.271L244.631 318.372L244.083 317.407C242.585 314.748 240.682 311.366 238.779 307.234C234.718 298.932 231.923 287.794 227.185 273.841L205.111 277.745C205.529 281.756 206.156 285.744 206.988 289.69C208.429 296.659 210.808 303.4 214.059 309.73C220.426 322.113 229.088 331.927 229.635 332.925H229.72H229.902C230.052 332.892 230.261 332.827 230.521 332.742C230.782 332.657 231.088 332.547 231.44 332.416L232.6 331.973C234.288 331.321 236.465 330.357 238.655 329.282C240.75 328.278 242.777 327.137 244.722 325.867C245.415 325.42 246.059 324.902 246.645 324.322L246.801 324.153C246.847 324.101 246.886 324.042 246.925 323.99C246.996 323.896 247.057 323.796 247.107 323.69C247.192 323.542 247.216 323.366 247.173 323.201Z" fill="white"/>
<path d="M154.174 315.465C153.816 315.895 149.931 315.901 145.995 316.384C144.114 316.572 142.261 316.969 140.469 317.57C139.764 317.826 139.105 318.191 138.513 318.652C138.264 318.851 138.044 319.086 137.862 319.349C137.772 319.473 137.696 319.607 137.634 319.747C137.568 319.885 137.516 320.029 137.477 320.177C137.171 321.363 138.566 322.784 140.918 324.23C142.251 325.025 143.636 325.728 145.063 326.335C145.448 326.505 145.845 326.674 146.249 326.837C146.653 327 147.07 327.17 147.487 327.326C148.328 327.645 149.188 327.978 150.094 328.245C157.074 330.584 164.816 331.94 167.254 330.852L154.174 315.465Z" fill="white"/>
<path d="M166.283 268.419C163.94 271.698 161.765 275.093 159.766 278.592C156.195 284.752 153.472 291.366 151.671 298.254C148.204 311.725 148.133 324.824 147.878 325.939V325.978L148.035 326.075C148.172 326.147 148.367 326.245 148.615 326.356L149.521 326.721C149.866 326.858 150.257 327.001 150.687 327.157C152.388 327.809 154.643 328.519 156.996 329.178C159.226 329.824 161.497 330.32 163.793 330.664C164.61 330.79 165.437 330.833 166.263 330.794H166.485L166.687 330.755C166.803 330.731 166.916 330.696 167.026 330.65C167.107 330.619 167.181 330.572 167.244 330.511C167.306 330.451 167.356 330.379 167.391 330.299C167.599 329.693 167.827 328.845 168.081 327.776C168.212 327.242 168.342 326.649 168.485 326.004L168.707 325C168.779 324.655 168.857 324.29 168.942 323.918C169.593 320.934 170.421 317.147 171.744 312.794C174.233 303.891 179.564 293.712 185.306 280.143L166.283 268.419Z" fill="white"/>
<path d="M59.6373 200.629C42.2693 189.296 26.6935 177.135 21.8708 182.303C17.0482 187.471 41.95 202.753 41.95 202.753C41.95 202.753 76.9988 211.962 59.6373 200.629Z" fill="white"/>
<mask id="mask0_309_12162" style="mask-type:luminance" maskUnits="userSpaceOnUse" x="21" y="181" width="44" height="26">
<path d="M59.6373 200.629C42.2693 189.296 26.6935 177.135 21.8708 182.303C17.0482 187.471 41.95 202.753 41.95 202.753C41.95 202.753 76.9988 211.962 59.6373 200.629Z" fill="white"/>
</mask>
<g mask="url(#mask0_309_12162)">
<path d="M34.2142 167.659C34.2142 167.659 12.2777 169.367 23.7869 180.485C35.296 191.603 43.6965 199.984 51.5366 201.906C58.8342 203.64 66.2938 204.601 73.7924 204.774L34.2142 167.659Z" fill="#BED4E4"/>
</g>
<path d="M151.613 191.798C79.8795 201.496 45.7691 194.581 24.9666 190.71C4.16408 186.839 2.1112 196.282 0.853405 203.849C-0.404391 211.415 1.27051 225.049 12.8839 230.477C110.138 275.895 225.445 204.266 225.445 204.266C225.445 204.266 223.359 182.14 151.613 191.798Z" fill="white"/>
<mask id="mask1_309_12162" style="mask-type:luminance" maskUnits="userSpaceOnUse" x="26" y="86" width="177" height="160">
<path d="M155.901 185.535C97.0389 143.415 76.9077 115.033 64.4144 97.9585C51.9212 80.8838 43.9443 86.3581 37.8313 90.9983C31.7183 95.6385 23.611 106.724 28.3489 118.631C68.0575 218.342 201.123 245.205 201.123 245.205C201.123 245.205 214.763 227.655 155.901 185.535Z" fill="white"/>
</mask>
<g mask="url(#mask1_309_12162)">
<path d="M213.421 220.91L103.282 187.445C103.282 187.445 113.123 212.543 152.506 249.123C191.888 285.703 205.333 287.463 211.876 269.391C218.419 251.319 213.421 220.91 213.421 220.91Z" fill="#BED4E4"/>
</g>
<path d="M383.086 207.067C378.315 201.854 362.609 213.845 345.124 224.996C327.639 236.146 362.785 227.309 362.785 227.309C362.785 227.309 387.856 212.287 383.086 207.067Z" fill="white"/>
<mask id="mask2_309_12162" style="mask-type:luminance" maskUnits="userSpaceOnUse" x="340" y="205" width="44" height="26">
<path d="M383.086 207.067C378.315 201.854 362.609 213.845 345.124 224.996C327.639 236.146 362.785 227.309 362.785 227.309C362.785 227.309 387.856 212.287 383.086 207.067Z" fill="white"/>
</mask>
<g mask="url(#mask2_309_12162)">
<path d="M382.571 206.481C371.166 217.704 362.59 225.922 360.478 233.716C358.57 240.962 357.427 248.389 357.07 255.874L395.149 217.208C395.149 217.208 393.97 195.259 382.571 206.481Z" fill="#BED4E4"/>
</g>
<path d="M406.183 226.26C404.99 218.68 403.035 209.218 382.193 212.867C361.352 216.517 327.17 223.04 255.547 212.626C183.924 202.212 181.591 224.305 181.591 224.305C181.591 224.305 296.142 297.166 393.872 252.771C405.544 247.466 407.375 233.852 406.183 226.26Z" fill="white"/>
<path d="M235.637 210.228C234.81 208.52 233.982 208.038 233.363 207.979H233.135C233.068 207.972 233 207.972 232.933 207.979C232.821 208.005 232.712 208.042 232.607 208.09C232.506 208.138 232.411 208.199 232.327 208.272L157.335 215.083C157.335 215.083 157.107 216.999 156.853 220.244C156.729 221.867 156.592 223.829 156.475 226.045C156.416 227.152 156.357 228.332 156.312 229.564C156.312 230.176 156.266 230.808 156.246 231.454C156.227 232.099 156.207 232.757 156.194 233.409C155.953 244.071 156.351 257.972 158.958 269.989C160.535 277.542 176.13 282.587 194.86 283.382C204.212 283.805 211.909 284.731 217.976 285.246L219.097 285.337L220.172 285.415C220.883 285.467 221.567 285.506 222.225 285.539C223.529 285.604 224.754 285.63 225.875 285.604C227.759 285.63 229.634 285.337 231.421 284.737C232.992 284.138 234.484 283.434 235.892 277.757C236.834 273.571 237.474 269.321 237.808 265.043C237.947 263.583 238.073 262.01 238.186 260.324C238.303 258.636 238.414 256.831 238.505 254.896C238.687 251.024 238.818 246.652 238.876 241.699C239.059 221.945 237.267 213.669 235.637 210.228Z" fill="white"/>
<path d="M221.408 246.483C221.816 233.071 211.075 221.862 197.419 221.447C183.762 221.033 172.361 231.569 171.954 244.981C171.546 258.393 182.287 269.601 195.943 270.016C209.6 270.431 221.001 259.895 221.408 246.483Z" fill="#29A5D6"/>
<mask id="mask3_309_12162" style="mask-type:luminance" maskUnits="userSpaceOnUse" x="156" y="207" width="83" height="79">
<path d="M235.637 210.228C234.81 208.52 233.982 208.038 233.363 207.979H233.135C233.068 207.972 233 207.972 232.933 207.979C232.821 208.005 232.712 208.042 232.607 208.09C232.506 208.138 232.411 208.199 232.327 208.272L157.335 215.083C157.335 215.083 157.107 216.999 156.853 220.244C156.729 221.867 156.592 223.829 156.475 226.045C156.416 227.152 156.357 228.332 156.312 229.564C156.312 230.176 156.266 230.808 156.246 231.454C156.227 232.099 156.207 232.757 156.194 233.409C155.953 244.071 156.351 257.972 158.958 269.989C160.535 277.542 176.13 282.587 194.86 283.382C204.212 283.805 211.909 284.731 217.976 285.246L219.097 285.337L220.172 285.415C220.883 285.467 221.567 285.506 222.225 285.539C223.529 285.604 224.754 285.63 225.875 285.604C227.759 285.63 229.634 285.337 231.421 284.737C232.992 284.138 234.484 283.434 235.892 277.757C236.834 273.571 237.474 269.321 237.808 265.043C237.947 263.583 238.073 262.01 238.186 260.324C238.303 258.636 238.414 256.831 238.505 254.896C238.687 251.024 238.818 246.652 238.876 241.699C239.059 221.945 237.267 213.669 235.637 210.228Z" fill="white"/>
</mask>
<g mask="url(#mask3_309_12162)">
<g style="mix-blend-mode:multiply">
<path d="M260.278 209.549C250.659 192.911 224.161 177.166 224.161 177.166L127.669 239.945C127.669 239.945 153.216 248.554 206.558 241.952C259.9 235.35 269.904 226.181 260.278 209.549Z" fill="#BED4E4"/>
</g>
</g>
<path d="M207.347 246.593C205.324 246.362 203.289 246.249 201.253 246.254C201.253 246.254 200.601 246.039 200.966 245.302C201.331 244.566 205.111 232.125 205.111 232.125C205.111 232.125 204.746 229.707 202.504 231.414C200.262 233.122 185.091 243.249 185.091 243.249C185.091 243.249 183.852 244.963 185.964 245.309C188.076 245.654 195.16 246.684 195.16 246.684C195.16 246.684 195.609 246.86 195.296 247.336L191.386 248.313L188.167 259.001C188.167 259.001 187.782 262.201 191.582 259.888C195.381 257.574 208.526 248.809 208.526 248.809C208.526 248.809 210.377 246.964 207.347 246.593Z" fill="white"/>
<path d="M283.921 56.7387C285.583 28.3315 266.652 4.11575 241.637 2.65147C216.622 1.18719 194.995 23.0288 193.332 51.4361C191.669 79.8434 210.6 104.059 235.615 105.523C260.631 106.988 282.258 85.146 283.921 56.7387Z" fill="#29A5D6"/>
<path d="M274.916 91.6623C274.623 86.1162 271.84 79.521 266.972 72.7628C257.326 58.9987 239.6 44.6416 219.234 30.493C198.868 16.3444 179.532 5.66294 166.009 4.16402C165.149 4.04019 164.315 3.94895 163.5 3.8903C163.096 3.8903 162.692 3.83816 162.294 3.82513C161.897 3.81209 161.506 3.82513 161.121 3.82513C159.647 3.82715 158.175 3.9536 156.722 4.20312C154.145 4.62827 151.664 5.51112 149.397 6.80995C145.2 9.29296 142.293 12.9947 141.401 17.6022C140.972 20.0553 141.094 22.5731 141.759 24.973C141.841 25.2902 141.933 25.6161 142.033 25.9506C142.133 26.2851 142.243 26.6175 142.365 26.9477C142.6 27.5994 142.873 28.2902 143.18 28.9745C143.832 30.434 144.572 31.853 145.395 33.2237C148.856 39.0304 154.363 45.5279 160.782 52.436C173.738 66.187 189.132 81.9388 201.586 94.0671C207.933 100.089 213.004 104.312 217.735 106.775C222.466 109.239 226.859 110.034 232.353 110.242C233.005 110.242 233.656 110.282 234.38 110.295H236.498C237.94 110.295 239.43 110.255 240.968 110.177C244.044 110.047 247.303 109.845 250.575 109.526C257.092 108.874 263.661 107.61 268.34 104.651C270.546 103.326 272.348 101.424 273.554 99.1504C273.828 98.5997 274.065 98.0315 274.264 97.4494C274.362 97.1627 274.447 96.8629 274.531 96.5566C274.616 96.2503 274.675 95.9505 274.733 95.6377C274.959 94.3253 275.02 92.9899 274.916 91.6623Z" fill="#1A6989"/>
<path d="M342.556 96.1728C342.159 90.0533 340.438 86.0388 337.603 83.2169C324.204 69.7982 289.286 58.8365 252.386 51.0095C215.486 43.1825 176.514 38.4902 154.037 37.5191C152.623 37.4605 151.248 37.4279 149.912 37.4344C148.576 37.4409 147.305 37.4735 146.001 37.5387C143.601 37.6534 141.208 37.8927 138.833 38.2556C134.753 38.8676 130.754 39.9276 126.906 41.4163C120.945 43.6829 115.568 47.2598 111.174 51.8828C103.829 59.7033 102.357 67.7975 102.37 67.7975C102.383 67.7975 97.9249 88.7824 95.0183 112.974C93.5194 125.056 92.3007 137.921 91.5643 149.222C91.1863 154.866 90.9126 160.125 90.8018 164.693C90.7366 166.981 90.704 169.092 90.7105 171.002C90.7105 171.953 90.7105 172.853 90.7431 173.7C90.7757 174.547 90.7953 175.329 90.8344 176.053C92.1052 199.306 91.5382 207.745 113.39 214.256C146.627 224.149 231.264 236.446 264.821 240.8C269.018 241.347 272.85 241.699 276.349 241.869C277.229 241.908 278.083 241.94 278.917 241.96C279.751 241.979 280.566 241.96 281.361 241.96C282.951 241.96 284.472 241.901 285.923 241.784C291.684 241.36 296.285 240.187 300.019 238.271C307.488 234.433 311.489 227.616 314.416 217.879C325.065 182.472 334.703 144.191 339.591 121.726C340.81 116.115 341.651 111.247 342.133 107.024C342.374 104.912 342.53 102.964 342.596 101.158C342.596 100.709 342.596 100.266 342.635 99.8549C342.674 99.4444 342.635 98.9947 342.635 98.5515C342.622 97.7304 342.622 96.9353 342.556 96.1728Z" fill="white"/>
<path d="M325.801 110.562C325.801 110.36 325.801 110.158 325.801 109.956C325.801 109.155 325.756 108.386 325.71 107.643L325.671 107.095C325.671 107.004 325.671 106.919 325.671 106.828C325.671 106.739 325.671 106.65 325.671 106.561C325.671 106.209 325.606 105.863 325.56 105.525C325.482 104.873 325.378 104.221 325.267 103.569C324.341 98.6165 322.425 95.4426 319.74 93.2464C306.895 82.8842 277.086 74.588 244.813 67.895C212.541 61.2019 177.792 56.5552 158.097 55.115L156.259 55.0042L155.367 54.9651H154.48C153.314 54.9325 152.18 54.9195 151.078 54.9651C148.876 54.9998 146.801 55.128 144.855 55.3496C141.354 55.7253 137.906 56.4836 134.571 57.611C129.528 59.2843 124.951 62.1221 121.211 65.8942C115.039 72.2223 113.879 78.987 113.885 78.987C113.892 78.987 110.347 96.4658 107.877 116.454C106.606 126.438 105.537 137.015 104.853 146.256C104.514 150.87 104.26 155.159 104.123 158.88L104.084 160.248V160.9V161.552C104.084 162.412 104.084 163.227 104.051 164.002C104.019 164.778 104.051 165.508 104.051 166.192C104.051 166.876 104.09 167.495 104.123 168.102C105.113 186.955 104.494 193.603 124.072 199.019C153.705 207.197 230.202 219.182 259.881 221.972C263.602 222.363 266.984 222.623 270.061 222.676H271.195H272.309C273.039 222.676 273.756 222.676 274.447 222.676C275.841 222.643 277.158 222.571 278.415 222.46C283.427 222.037 287.383 221.046 290.576 219.508C296.97 216.432 300.352 211.212 302.887 203.62C312.317 176.059 321.604 143.447 324.491 124.711C325.204 120.677 325.64 116.598 325.795 112.504C325.795 112.283 325.795 112.068 325.795 111.853C325.795 111.638 325.795 111.429 325.795 111.201C325.795 110.973 325.795 110.992 325.795 110.888L325.801 110.562Z" fill="#1A6989"/>
<path d="M320.522 111.905C320.522 111.709 320.522 111.514 320.522 111.325C320.522 110.556 320.483 109.826 320.437 109.122L320.398 108.601V108.34C320.395 108.299 320.395 108.258 320.398 108.216C320.398 108.171 320.398 108.132 320.398 108.086C320.366 107.754 320.333 107.434 320.294 107.102C320.216 106.45 320.118 105.838 320.007 105.245C319.128 100.526 317.303 97.5023 314.748 95.4103C302.561 85.5108 274.134 77.6056 243.321 71.2971C212.508 64.9886 179.265 60.8046 160.306 59.6902C159.707 59.6902 159.12 59.625 158.54 59.6055H157.68H156.826C155.699 59.6055 154.61 59.6055 153.568 59.6055C151.443 59.6576 149.442 59.8075 147.566 60.0356C144.175 60.4256 140.835 61.1727 137.601 62.2644C132.735 63.8548 128.294 66.5288 124.612 70.0849C118.597 76.0155 117.444 82.311 117.444 82.311C117.444 82.311 113.872 98.5711 111.65 117.425C110.483 126.836 109.551 136.852 109.004 145.631C108.724 150.017 108.535 154.103 108.457 157.642C108.457 158.085 108.457 158.522 108.457 158.945C108.457 159.16 108.457 159.369 108.457 159.597C108.457 159.825 108.457 160.014 108.457 160.216C108.457 161.037 108.457 161.813 108.457 162.549C108.457 163.286 108.457 163.989 108.502 164.641C108.548 165.293 108.554 165.905 108.593 166.466C109.812 184.473 109.349 190.859 128.099 196.06C156.52 203.926 229.531 215.37 257.789 218.029C261.328 218.401 264.547 218.622 267.48 218.681C268.21 218.681 268.92 218.681 269.617 218.681C270.315 218.681 270.992 218.681 271.657 218.681C272.961 218.646 274.218 218.579 275.431 218.479C280.208 218.075 283.968 217.13 287.011 215.663C293.098 212.731 296.305 207.758 298.742 200.524C307.716 174.267 316.573 143.174 319.323 125.35C320.003 121.507 320.419 117.623 320.568 113.723C320.568 113.306 320.568 112.902 320.568 112.498V111.912L320.522 111.905Z" fill="#29A5D6"/>
<path d="M170.063 93.9636C167.905 93.7094 164.745 93.8398 161.089 97.0722C152.258 104.893 145.76 124.965 148.322 138.606C149.886 146.941 155.341 148.922 160.769 149.228C172.735 149.88 177.857 146.693 178.861 134.239C181.898 96.7594 172.22 94.2047 170.063 93.9636Z" fill="white"/>
<path d="M265.114 113.515C262.39 109.461 259.366 108.542 257.216 108.249C255.065 107.956 245.055 107.995 238.583 145.064C236.433 157.375 240.577 161.78 252.328 164.126C257.652 165.182 263.407 164.635 267.037 156.957C272.941 144.366 271.697 123.29 265.114 113.515Z" fill="white"/>
<path d="M215.024 160.314C207.118 161.682 199.904 160.75 193.27 157.27C193.128 157.17 192.963 157.11 192.79 157.095C192.617 157.081 192.444 157.112 192.288 157.186C192.131 157.26 191.997 157.375 191.9 157.518C191.802 157.661 191.744 157.827 191.732 158V158.15C191.682 158.573 191.768 159.002 191.976 159.374C192.185 159.746 192.505 160.043 192.892 160.222C199.735 163.173 207.253 164.207 214.639 163.214C215.053 163.152 215.441 162.976 215.76 162.706C216.079 162.435 216.316 162.08 216.444 161.682V161.552C216.462 161.369 216.435 161.184 216.367 161.013C216.298 160.842 216.19 160.689 216.052 160.568C215.913 160.447 215.747 160.361 215.568 160.317C215.39 160.272 215.203 160.271 215.024 160.314Z" fill="white"/>
</svg>