<svg width="121" height="123" viewBox="0 0 121 123" fill="none" xmlns="http://www.w3.org/2000/svg">
<path d="M81.0321 92.6832C81.0696 92.6297 81.107 92.5762 81.1427 92.5209H81.157L81.0321 92.6832ZM91.104 78.5219L89.4357 77.5924C85.4355 77.3658 80.6592 77.0571 75.6456 76.7003C74.0398 76.5843 72.4161 76.4612 70.7836 76.3327C63.7752 75.7778 56.6491 75.1087 50.8004 74.3558C47.5657 73.9383 44.7234 73.494 42.5128 73.0284C42.1113 72.9427 41.7295 72.8499 41.3655 72.7625L41.0087 72.6679C40.775 72.6055 40.5502 72.5395 40.3343 72.4717C40.1184 72.4039 39.915 72.3379 39.7169 72.2665C34.7568 70.4823 34.5962 67.3599 33.6506 60.48C33.6167 60.2302 33.5846 59.959 33.5525 59.6682C33.5204 59.3774 33.4936 59.0651 33.4651 58.7368C33.4098 58.0785 33.3616 57.3487 33.3188 56.5565C33.2349 54.9757 33.176 53.1523 33.1403 51.1914C33.1403 50.9844 33.1403 50.7757 33.1314 50.5652C30.9047 46.6827 29.1419 42.7057 28.4157 39.2265C28.3515 38.9256 28.2962 38.6282 28.2498 38.3344C28.1959 37.9799 28.1917 37.6196 28.2373 37.2639C27.9909 39.0008 27.3831 40.6668 26.4531 42.1544C26.3907 42.2543 26.3264 42.3542 26.2622 42.4524C26.198 42.5505 26.1159 42.67 26.0392 42.7771C25.9946 42.8413 25.95 42.9038 25.9018 42.9662C25.8536 43.0287 25.809 43.0929 25.7608 43.1553C25.743 43.1803 25.7234 43.2053 25.702 43.2303C25.6324 43.3213 25.561 43.4087 25.4861 43.4997C25.4111 43.5907 25.3291 43.6906 25.2452 43.7852C25.1614 43.8797 25.106 43.944 25.0347 44.0207C25.0061 44.0546 24.974 44.0885 24.9419 44.1206C24.9098 44.1527 24.8562 44.2134 24.8099 44.258C24.7635 44.3026 24.676 44.3989 24.6065 44.4667C24.5886 44.4864 24.569 44.5042 24.5494 44.522C24.4602 44.6095 24.3709 44.7005 24.2799 44.779L24.246 44.8093C24.1675 44.8824 24.0873 44.9556 24.0052 45.0252C23.9231 45.0948 23.8946 45.1215 23.8392 45.1661C23.7839 45.2107 23.7108 45.275 23.6466 45.3249C23.6144 45.3517 23.5805 45.3802 23.5466 45.4052C23.4646 45.4712 23.3825 45.5355 23.2986 45.5961L23.2094 45.6639C23.1184 45.7317 23.031 45.7977 22.9347 45.8602L22.8562 45.9155C22.7669 45.9779 22.6777 46.0386 22.5849 46.0939C22.1478 46.3792 21.6931 46.6366 21.2236 46.8647L21.0595 46.9432C20.8935 47.0217 20.724 47.0966 20.5527 47.168L20.3743 47.2412L20.2369 47.2947L20.0799 47.3554L19.8301 47.4428L19.6517 47.5034C19.3983 47.5873 19.1396 47.6622 18.8791 47.73L18.674 47.7818C18.5223 47.8193 18.3706 47.8532 18.2154 47.8835C18.1423 47.8995 18.0673 47.9138 17.9924 47.9263L17.8318 47.9549L17.7034 47.9763L17.5392 48.0012L17.3858 48.0227C17.2858 48.0369 17.1841 48.0494 17.0824 48.0601L16.8523 48.0833C16.4669 48.119 16.0767 48.1368 15.6818 48.1368H15.4017H15.1234L14.8932 48.1244H14.8022L14.6042 48.1083C14.2259 48.0786 13.853 48.0304 13.4855 47.9638C13.3998 47.9495 13.3071 47.9334 13.2268 47.9156C13.1465 47.8978 13.0787 47.8871 13.0055 47.871C12.8949 47.8478 12.7861 47.821 12.6754 47.7961C12.5095 47.755 12.3454 47.7122 12.183 47.664L11.9296 47.5641L11.6781 47.4838C11.5942 47.4571 11.5104 47.4285 11.4265 47.3964C11.3426 47.3643 11.2195 47.3215 11.1178 47.2822L11.0054 47.2394L10.9697 47.2251L10.6896 47.1091C11.4033 45.3713 10.6218 43.7191 10.2917 43.1428C10.281 43.125 10.2721 43.1072 10.2614 43.0911L10.2364 43.0483C10.2161 43.0204 10.1976 42.9912 10.1811 42.9609L10.1633 42.9323C9.87959 42.4738 9.62802 42.017 9.40321 41.5638C7.20506 37.1568 7.44058 33.0835 7.528 31.3742C7.528 31.3171 7.528 31.2636 7.53692 31.2136C7.53692 31.128 7.53692 31.0352 7.54763 30.9442C7.57974 29.6953 7.42809 27.7844 6.87141 26.7941C6.82058 26.6961 6.76086 26.6029 6.69299 26.5158C6.60526 26.4038 6.49608 26.3104 6.37184 26.241C5.4494 25.7486 0.501784 26.9315 0.5 38.5342C0.5 45.1644 6.16665 49.6998 10.2757 51.3805C13.0822 52.5278 15.6426 54.3084 17.4125 56.7689C33.1261 78.5915 49.7924 79.7852 54.9809 82.1831C55.4108 82.3812 55.7249 82.7059 55.7374 83.1823C55.8284 86.3296 56.8436 96.2552 57.0238 98.1928C57.0572 98.5564 56.9761 98.9214 56.7918 99.2366C53.5802 104.752 50.258 115.084 49.5765 117.314C49.4837 117.614 49.1536 117.889 48.952 118.126L47.373 119.593C47.3124 119.663 47.272 119.748 47.2564 119.84C47.2407 119.931 47.2502 120.025 47.284 120.112C47.3178 120.198 47.3745 120.274 47.448 120.33C47.5215 120.387 47.6091 120.422 47.7013 120.433C49.3695 120.628 52.9112 120.717 55.7427 120.269C56.4261 120.16 56.5831 119.862 57.1255 119.163C58.9186 116.843 63.6753 108.482 65.1312 104.475C65.2246 104.22 65.3976 104.002 65.6244 103.854C65.8513 103.705 66.12 103.633 66.3909 103.649C68.3035 103.752 72.5553 103.933 74.8784 103.635C75.1429 103.603 75.4097 103.671 75.6268 103.825C75.8439 103.98 75.9957 104.209 76.0524 104.47C76.6911 107.415 79.0213 115.912 80.3345 120.79C80.6128 121.823 80.8501 122.162 82.058 122.217C84.9566 122.355 87.8617 122.232 90.7382 121.85C91.2271 121.778 91.7552 120.99 91.2467 120.363C90.8991 119.962 90.447 119.664 89.9407 119.503C89.7553 119.439 89.5927 119.321 89.4727 119.166C89.3527 119.01 89.2803 118.823 89.2644 118.627C88.7732 113.153 87.7307 107.742 86.1528 102.477C86.0507 102.14 86.0709 101.779 86.2099 101.456C86.5239 100.725 87.1163 99.1492 87.6515 96.6674C87.7621 96.1553 87.871 95.5968 87.9727 95.0134C88.1511 94.0017 88.3081 92.8723 88.4366 91.6234C88.6007 90.0301 88.7131 88.2441 88.7435 86.2601C88.7446 86.1811 88.7694 86.1043 88.8148 86.0396C88.8601 85.9749 88.9238 85.9253 88.9976 85.8972C89.0714 85.8692 89.152 85.8639 89.2288 85.8821C89.3057 85.9004 89.3753 85.9413 89.4286 85.9996C90.7107 87.4205 92.0813 88.7589 93.5323 90.0069C93.7785 90.2186 94.0324 90.4327 94.2941 90.6492L94.4725 90.7884C96.0783 88.4386 97.5414 85.4268 98.7154 82.49C94.8026 80.5417 91.104 78.5219 91.104 78.5219Z" fill="white"/>
<path d="M81.157 92.5261L81.0321 92.6831C81.0696 92.6296 81.107 92.5761 81.1427 92.5208L81.157 92.5261Z" fill="white"/>
<path d="M120.383 93.0257C119.607 98.1606 114.174 97.7681 114.174 97.7681C112.39 97.9608 111.753 98.4818 110.07 98.2534C103.79 97.3809 98.3068 93.9267 94.4761 90.7936C96.0819 88.4438 97.5449 85.4321 98.7189 82.4953L99.5058 82.8842C100.319 83.2857 101.133 83.6782 101.914 84.044C102.733 84.4258 103.52 84.7791 104.234 85.0806C109.139 87.1538 111.21 81.282 112.315 78.6574C113.419 76.0329 115.63 76.379 115.769 78.5896C115.874 80.2882 114.877 83.3785 114.411 84.7131C114.385 84.7833 114.375 84.8587 114.384 84.9332C114.393 85.0077 114.419 85.0791 114.46 85.1416C114.501 85.2041 114.557 85.2559 114.622 85.2928C114.688 85.3296 114.761 85.3504 114.836 85.3536C117.717 85.3143 121.184 87.7337 120.383 93.0257Z" fill="white"/>
<path d="M98.7154 82.4953C97.5414 85.4321 96.0712 88.4438 94.4726 90.7936L94.2941 90.6545C94.0325 90.4392 93.7785 90.2251 93.5323 90.0122C92.0813 88.7642 90.7107 87.4257 89.4286 86.0048C89.3753 85.9465 89.3057 85.9056 89.2288 85.8874C89.152 85.8691 89.0714 85.8744 88.9976 85.9025C88.9238 85.9305 88.8601 85.9801 88.8148 86.0448C88.7694 86.1095 88.7446 86.1863 88.7435 86.2653C88.7131 88.2494 88.6007 90.0353 88.4366 91.6286C88.3081 92.8776 88.1475 94.0016 87.9727 95.0186C85.7103 94.346 83.3855 93.5592 81.0392 92.6992C81.0785 92.6456 81.1142 92.5921 81.1516 92.5368L81.0268 92.6938C78.7465 91.8535 76.4431 90.9346 74.1522 89.9675L70.3643 88.3225C67.5685 87.0736 64.8226 85.7782 62.1926 84.4882C49.8156 78.4112 40.0256 72.4627 39.7223 72.2771C39.9203 72.3485 40.1255 72.4163 40.3396 72.4823C40.5537 72.5483 40.7803 72.6161 41.0141 72.6785L41.3709 72.7731C41.7277 72.8659 42.1167 72.9515 42.5181 73.039C44.7288 73.5046 47.571 73.9489 50.8058 74.3664C56.6473 75.1194 63.7734 75.7938 70.789 76.3433C72.4215 76.4718 74.0487 76.5949 75.6509 76.7109C80.6646 77.0677 85.4409 77.3782 89.4411 77.603L91.1093 78.5325C91.1093 78.5325 94.8026 80.5416 98.7154 82.4953Z" fill="#BED4E4"/>
<path d="M24.9848 35.4689C24.9755 36.7017 24.7225 37.9205 24.2403 39.0551C23.7581 40.1897 23.0563 41.2177 22.1753 42.08C21.2942 42.9424 20.2513 43.6219 19.1066 44.0796C17.9619 44.5373 16.7379 44.764 15.5052 44.7468C14.1317 44.723 12.7809 44.3926 11.5514 43.7798C11.0633 43.5394 10.5981 43.2552 10.1615 42.9305C9.87785 42.4719 9.62628 42.0152 9.40147 41.562C7.20332 37.155 7.43884 33.0816 7.52626 31.3724C7.52626 31.3153 7.52626 31.2617 7.53518 31.2118C7.53518 31.1261 7.53518 31.0334 7.54589 30.9424C7.84129 30.4089 8.18915 29.9063 8.5843 29.4419C9.81581 27.9853 11.4654 26.9427 13.3095 26.4554C15.1535 25.9681 17.1029 26.0595 18.8932 26.7175C20.6835 27.3754 22.2282 28.5679 23.3178 30.1334C24.4075 31.6989 24.9895 33.5615 24.9848 35.4689Z" fill="#34383F"/>
<path d="M78.7287 11.928C68.8602 10.9752 59.3236 10.6487 52.9218 10.8057C52.1297 9.66026 49.8726 5.72786 51.5426 2.76429C53.4054 -0.545421 58.8579 -2.21723 70.5124 5.61902C73.367 7.56662 76.1101 9.67292 78.7287 11.928Z" fill="#4C7BA2"/>
<path d="M95.982 14.2991C92.7455 13.6907 89.3412 13.1697 85.8923 12.7272C83.5104 12.4221 81.1106 12.1563 78.7287 11.9279C76.1128 9.67676 73.3727 7.57404 70.5214 5.62964C72.7802 1.75433 77.6707 -0.4795 83.0911 0.473268C88.4223 1.40641 94.4851 6.83041 95.982 14.2991Z" fill="#50B0D1"/>
<path d="M20.0995 23.5539C22.5268 24.4556 24.62 26.0785 26.0979 28.2045C27.5759 30.3306 28.3679 32.8581 28.3675 35.4474C28.3681 36.024 28.3288 36.5998 28.2498 37.171C28.3301 36.8141 28.2855 36.418 28.355 36.0451C28.2159 34.7498 28.3229 33.4812 28.4246 32.1787C28.7083 28.5568 28.6744 22.1497 25.354 19.2628C20.5884 15.1199 18.1012 18.8489 20.6562 20.576L20.7044 21.9106L20.8828 23.2916L20.0942 23.5539H20.0995Z" fill="white"/>
<path d="M28.2498 37.1709C28.0746 38.4673 27.6984 39.7284 27.1346 40.9088C27.6011 39.6931 27.9739 38.4435 28.2498 37.1709Z" stroke="#50B0D1" stroke-width="0.178421" stroke-miterlimit="10"/>
<path d="M28.2373 36.5947C28.2259 36.4865 28.2301 36.3771 28.2498 36.27C28.2623 36.3824 28.2676 36.4895 28.2694 36.5876C28.2712 36.6857 28.2694 36.7553 28.2694 36.832C28.2587 36.7535 28.2444 36.6768 28.2373 36.5947Z" fill="white"/>
<path d="M28.2677 36.8354C28.2816 36.9474 28.2755 37.061 28.2498 37.1709C28.2498 37.1941 28.2498 37.2155 28.2391 37.2387C28.2498 37.1084 28.2623 36.9835 28.2677 36.8354Z" fill="white"/>
<path d="M114.252 97.7591C112.878 98.446 111.754 98.4888 110.067 98.2533C108.495 96.6903 109.199 93.6465 109.199 93.6465C109.705 94.6487 110.417 95.533 111.287 96.2416C112.158 96.9502 113.168 97.4673 114.252 97.7591Z" fill="#BED4E4"/>
<path d="M12.4275 16.2869C12.1369 15.58 11.6523 14.9698 11.0297 14.5266C10.4071 14.0834 9.6718 13.8253 8.90877 13.7821C8.14573 13.7389 7.38605 13.9124 6.71741 14.2826C6.04878 14.6527 5.49846 15.2044 5.12998 15.874C4.76151 16.5436 4.58991 17.3037 4.63499 18.0666C4.68007 18.8295 4.93999 19.5641 5.38476 20.1856C5.82952 20.8071 6.44099 21.2902 7.14856 21.579C7.85614 21.8678 8.63097 21.9507 9.38361 21.8179L10.4773 24.4604L12.0956 23.7913L11.0037 21.1506C11.7583 20.6223 12.3105 19.8528 12.5693 18.9687C12.8281 18.0846 12.7781 17.1387 12.4275 16.2869ZM6.93389 18.56C6.79141 18.2149 6.75444 17.8353 6.82767 17.4693C6.90089 17.1032 7.08102 16.767 7.34528 16.5033C7.60953 16.2396 7.94604 16.0602 8.31227 15.9877C8.6785 15.9153 9.05799 15.953 9.40276 16.0962C9.74753 16.2394 10.0421 16.4816 10.2492 16.7922C10.4563 17.1028 10.5667 17.4679 10.5664 17.8412C10.5661 18.2145 10.455 18.5794 10.2474 18.8896C10.0397 19.1998 9.74469 19.4415 9.39967 19.5841C8.93684 19.7749 8.41722 19.7742 7.95491 19.5821C7.4926 19.3901 7.12538 19.0225 6.93389 18.56Z" fill="#4C7BA2"/>
<path d="M15.4659 36.6965C16.0571 36.6965 16.5364 36.2172 16.5364 35.6259C16.5364 35.0347 16.0571 34.5554 15.4659 34.5554C14.8747 34.5554 14.3954 35.0347 14.3954 35.6259C14.3954 36.2172 14.8747 36.6965 15.4659 36.6965Z" fill="white"/>
<path d="M17.7194 33.6114V32.9156C17.7192 32.7481 17.765 32.5838 17.8518 32.4406C17.9387 32.2975 18.0632 32.1809 18.2118 32.1037L20.8132 30.7495C20.8469 30.7311 20.8857 30.7242 20.9237 30.7296C20.9617 30.735 20.997 30.7525 21.0242 30.7796C21.0515 30.8066 21.0693 30.8418 21.075 30.8797C21.0807 30.9177 21.074 30.9565 21.0558 30.9904L19.7016 33.5935C19.6244 33.7422 19.5079 33.8667 19.3647 33.9535C19.2215 34.0404 19.0573 34.0862 18.8898 34.086H18.194C18.0681 34.086 17.9474 34.036 17.8584 33.947C17.7694 33.858 17.7194 33.7373 17.7194 33.6114Z" fill="white"/>
<path d="M12.8395 36.2147L12.3043 36.5929C12.1908 36.6732 12.0625 36.7303 11.9269 36.7609C11.7912 36.7916 11.6509 36.7951 11.5139 36.7713L7.98292 36.1522C7.94656 36.1409 7.91476 36.1183 7.89218 36.0876C7.8696 36.057 7.85742 36.0199 7.85742 35.9818C7.85742 35.9438 7.8696 35.9067 7.89218 35.876C7.91476 35.8454 7.94656 35.8227 7.98292 35.8114L11.5139 35.1995C11.6509 35.1756 11.7912 35.1791 11.9269 35.2097C12.0626 35.2403 12.1908 35.2975 12.3043 35.3779L12.8395 35.7579C12.875 35.7845 12.9038 35.819 12.9236 35.8586C12.9434 35.8983 12.9537 35.942 12.9537 35.9863C12.9537 36.0306 12.9434 36.0743 12.9236 36.114C12.9038 36.1536 12.875 36.1881 12.8395 36.2147Z" fill="white"/>
<path d="M21.7178 24.2889C21.7178 24.2889 22.3851 23.7983 22.8454 24.0285C23.3057 24.2586 24.3816 23.875 24.6831 23.3522C24.9847 22.8295 21.6018 22.4387 21.6018 22.4387V23.3647L21.7178 24.2889Z" fill="#BED4E4"/>
<path d="M24.7278 23.2701L24.6832 23.3522C24.6099 23.491 24.4847 23.5951 24.335 23.6419C24.1852 23.6887 24.0231 23.6743 23.8838 23.602L23.0292 23.1613C22.9536 23.1218 22.8709 23.0976 22.7859 23.0903C22.701 23.0829 22.6153 23.0924 22.5341 23.1183C22.4528 23.1441 22.3774 23.1859 22.3124 23.241C22.2473 23.2962 22.1938 23.3637 22.1549 23.4396L21.2628 25.1561L19.5286 24.2639L20.4207 22.5458C20.4991 22.3925 20.5139 22.2145 20.4618 22.0505C20.4096 21.8864 20.2948 21.7496 20.1424 21.6697L19.2877 21.229C19.1481 21.1567 19.0428 21.0319 18.9949 20.8821C18.9471 20.7322 18.9606 20.5696 19.0326 20.4297L19.0754 20.3458C19.1484 20.2068 19.2732 20.1022 19.4228 20.0544C19.5723 20.0067 19.7347 20.0197 19.8747 20.0907L24.4744 22.469C24.6139 22.542 24.7188 22.6672 24.7663 22.8173C24.8138 22.9674 24.7999 23.1302 24.7278 23.2701Z" fill="#4C7BA2"/>
<path d="M28.3676 35.4475C28.3682 36.024 28.3288 36.5999 28.2498 37.171C27.9739 38.4436 27.6011 39.6932 27.1347 40.9089C26.9314 41.3341 26.7045 41.7475 26.4549 42.1472C26.3925 42.2489 26.3282 42.347 26.264 42.4451C26.1998 42.5433 26.1177 42.6628 26.041 42.7699C25.9964 42.8341 25.9518 42.8965 25.9036 42.959C25.8554 43.0214 25.8108 43.0857 25.7626 43.1481C25.7448 43.1731 25.7252 43.1981 25.7038 43.2231C25.6342 43.314 25.5628 43.4015 25.4879 43.4925C25.4129 43.5835 25.3309 43.6834 25.247 43.7779C25.1631 43.8725 25.1078 43.9367 25.0365 44.0135C25.0079 44.0474 24.9758 44.0813 24.9437 44.1134C24.9116 44.1455 24.858 44.2062 24.8117 44.2508C24.7653 44.2954 24.6778 44.3899 24.6083 44.4595C24.5904 44.4791 24.5708 44.497 24.5512 44.5148C24.4619 44.6022 24.3727 44.6932 24.2817 44.7717L24.2478 44.8021C24.1693 44.8752 24.0891 44.9484 24.007 45.018C23.9249 45.0876 23.8964 45.1143 23.841 45.1589C23.7857 45.2035 23.7144 45.266 23.6483 45.3177C23.6162 45.3445 23.5823 45.373 23.5484 45.398C23.4664 45.464 23.3843 45.5283 23.3004 45.5889L23.2112 45.6567C23.1202 45.7245 23.0328 45.7887 22.9365 45.853L22.8579 45.9083C22.7687 45.9689 22.6795 46.0296 22.5867 46.0867C22.1496 46.372 21.6949 46.6294 21.2254 46.8575L21.0612 46.936C20.8953 47.0145 20.7258 47.0894 20.5545 47.1608L20.3761 47.234L20.2387 47.2875L20.0817 47.3481L19.8319 47.4356L19.6535 47.4962C19.4001 47.5801 19.1414 47.655 18.8809 47.7228L18.6758 47.7746C18.5241 47.812 18.3724 47.8459 18.2172 47.8763C18.1441 47.8923 18.0691 47.9066 17.9942 47.9191L17.8336 47.9476L17.7051 47.9691L17.541 47.994C17.491 47.994 17.4393 48.0101 17.3876 48.0154C17.2876 48.0297 17.1859 48.0422 17.0842 48.0529L16.8541 48.0761C16.4687 48.1118 16.0785 48.1296 15.6836 48.1296H15.4035C15.3107 48.1296 15.2251 48.1296 15.1252 48.1296L14.895 48.1171H14.804C14.7362 48.1171 14.6702 48.1118 14.606 48.1011C14.2277 48.0713 13.8548 48.0232 13.4873 47.9566C13.3998 47.9423 13.3089 47.9262 13.2286 47.9084L13.0073 47.8638C12.8967 47.8406 12.7879 47.8138 12.6772 47.7888C12.5131 47.7478 12.3489 47.7032 12.1848 47.6568L11.9297 47.564L11.6781 47.4837L11.4265 47.3963C12.5809 45.853 11.5514 43.7815 11.5514 43.7815C12.7788 44.3927 14.1271 44.7225 15.4981 44.7468C17.1451 44.7783 18.7709 44.3718 20.2093 43.5689C21.6477 42.766 22.8471 41.5955 23.6847 40.1771C24.5224 38.7586 24.9683 37.1432 24.9769 35.4959C24.9855 33.8486 24.5565 32.2286 23.7336 30.8015C22.9108 29.3744 21.7237 28.1914 20.2938 27.3736C18.8638 26.5557 17.2423 26.1323 15.5951 26.1466C13.9478 26.161 12.3339 26.6125 10.9184 27.4551C9.50293 28.2977 8.3366 29.5012 7.53872 30.9423C7.57083 29.6934 7.41918 27.7825 6.8625 26.7923C6.81168 26.6942 6.75195 26.601 6.68408 26.5139C8.45344 24.7293 10.7132 23.5106 13.1765 23.0127C15.6397 22.5147 18.1954 22.7599 20.519 23.7172C22.8427 24.6744 24.8295 26.3005 26.2272 28.3891C27.6249 30.4776 28.3705 32.9344 28.3694 35.4475H28.3676Z" fill="#50B0D1"/>
<path d="M28.4158 39.2192C28.4158 39.2192 25.1328 53.054 10.1455 48.9075C10.0768 48.888 10.0139 48.8519 9.96256 48.8023C9.91118 48.7527 9.87285 48.6912 9.85096 48.6233C9.82907 48.5553 9.8243 48.483 9.83708 48.4127C9.84987 48.3425 9.8798 48.2765 9.92423 48.2206C10.2109 47.8735 10.4658 47.5015 10.6861 47.109C13.6272 48.3669 16.9349 48.4678 19.9473 47.3917C22.9597 46.3155 25.4547 44.1417 26.9331 41.305C27.0009 41.1741 27.0669 41.0421 27.1312 40.9089C27.6826 39.7547 28.0545 38.5231 28.2338 37.2566C28.1882 37.6123 28.1924 37.9726 28.2463 38.3271C28.2951 38.6209 28.3515 38.9183 28.4158 39.2192Z" fill="#BED4E4"/>
<path d="M10.2614 43.0909C10.2329 43.0481 10.2061 43.0035 10.1812 42.9607C10.199 42.9875 10.2275 43.0303 10.2614 43.0909Z" fill="#50B0D1"/>
<path d="M110.311 92.0623H110.172C110.028 92.0518 109.885 92.0298 109.745 91.9963H109.719C110.595 91.916 111.385 91.4414 111.656 90.8062C111.753 90.5817 111.778 90.3325 111.727 90.0934C111.675 89.8542 111.551 89.6369 111.371 89.4717C111.105 89.1959 110.785 88.979 110.43 88.8352C110.075 88.6913 109.694 88.6237 109.312 88.6366C108.099 88.6366 106.814 89.2254 105.909 89.7607C106.023 89.6447 106.142 89.5345 106.266 89.4306C106.738 89.0281 107.278 88.7132 107.861 88.501C108.308 88.3436 108.778 88.2628 109.251 88.262C110.007 88.2656 110.747 88.4753 111.392 88.8686C111.646 89.0238 111.865 89.2297 112.036 89.4734C112.183 89.6917 112.264 89.9474 112.27 90.2103C112.299 90.8598 112.108 91.3397 111.704 91.6377C111.301 91.932 110.81 92.0816 110.311 92.0623Z" fill="#BED4E4"/>
<g style="mix-blend-mode:multiply" opacity="0.2">
<path d="M11.5514 43.7798C11.0633 43.5395 10.5981 43.2552 10.1615 42.9305C9.87785 42.472 9.62628 42.0152 9.40147 41.562C7.20332 37.155 7.43884 33.0817 7.52626 31.3724C7.52626 31.3153 7.52626 31.2618 7.53518 31.2118C7.53518 31.1262 7.53518 31.0334 7.54589 30.9424C7.84129 30.409 8.18915 29.9063 8.5843 29.4419C8.55754 29.6257 7.57622 36.6894 11.5514 43.7798Z" fill="#34383F"/>
</g>
<path d="M118.47 29.5399C118.422 31.0119 118.27 32.7158 118.006 34.6892C116.955 42.5843 114.7 56.0747 112.024 68.6034C111.289 72.0469 110.099 74.5127 107.629 76.0489C106.393 76.8179 104.839 77.3532 102.86 77.6547C102.366 77.7332 101.843 77.7957 101.295 77.8438C101.021 77.8688 100.739 77.8902 100.45 77.9081C100.161 77.9241 99.8645 77.9384 99.5576 77.9491C98.3443 77.9901 97.0115 77.9759 95.5467 77.9063C93.8463 77.826 91.7695 77.7279 89.425 77.5851C85.4249 77.3585 80.6485 77.0499 75.6349 76.693C74.0291 76.577 72.4055 76.4539 70.7729 76.3255C63.7645 75.7706 56.6384 75.1015 50.7898 74.3486C47.555 73.9311 44.7127 73.4868 42.5021 73.0211C42.1007 72.9355 41.7188 72.8427 41.3549 72.7553L40.998 72.6607C40.7643 72.5983 40.5395 72.5322 40.3236 72.4644C40.1077 72.3966 39.9043 72.3306 39.7062 72.2593C34.7461 70.475 34.5856 67.3527 33.6399 60.4728C33.606 60.223 33.5739 59.9518 33.5418 59.6609C33.5097 59.3701 33.4829 59.0579 33.4544 58.7296C33.3991 58.0712 33.3509 57.3415 33.3081 56.5493C33.2242 54.9685 33.1653 53.145 33.1297 51.1842C33.1297 50.9772 33.1297 50.7684 33.1207 50.5579C33.0726 46.7897 33.1314 42.5629 33.2992 38.5698C33.6185 30.1341 34.557 22.7635 34.5624 22.7635C34.5624 22.7278 34.8496 19.9088 37.1513 17.0201C38.5382 15.2993 40.2936 13.9116 42.288 12.9593C43.5752 12.3359 44.9276 11.8572 46.3203 11.5319C47.1288 11.3403 47.9464 11.1897 48.77 11.0805C49.2042 11.0234 49.6514 10.9752 50.1118 10.936C50.5721 10.8967 51.0479 10.8676 51.5391 10.8485C51.978 10.8307 52.436 10.8164 52.913 10.8057C59.3147 10.6487 68.8513 10.9752 78.7198 11.928C81.1017 12.1564 83.5015 12.4222 85.8834 12.7273C89.3323 13.1698 92.7365 13.6908 95.9731 14.2992C104.905 15.9799 112.545 18.319 116.22 21.436C117.278 22.3281 117.985 23.6681 118.297 25.7699C118.336 26.0322 118.368 26.3051 118.395 26.5942C118.408 26.7369 118.42 26.885 118.431 27.0349C118.442 27.1848 118.449 27.3382 118.456 27.4934C118.492 28.125 118.495 28.803 118.47 29.5399Z" fill="white"/>
<path d="M112.864 36.1291C112.997 34.7153 113.032 33.2942 112.971 31.8756C112.971 31.8006 112.971 31.7257 112.957 31.6525C112.943 31.5794 112.948 31.5044 112.943 31.4331C112.943 31.3974 112.943 31.3599 112.943 31.3242C112.943 31.2886 112.943 31.2529 112.934 31.219C112.934 31.1476 112.921 31.078 112.916 31.0084C112.887 30.7319 112.855 30.4732 112.818 30.2127C112.818 30.1502 112.798 30.0878 112.789 30.0253L112.773 29.9326C112.773 29.9165 112.773 29.9022 112.773 29.8862C112.773 29.8701 112.773 29.8558 112.764 29.8416C112.745 29.7202 112.722 29.6007 112.697 29.4847C112.65 29.2546 112.597 29.0333 112.54 28.8228C112.079 27.1367 111.33 26.0965 110.341 25.4131C105.631 22.1855 95.1024 20.1729 83.7709 18.7777C72.4376 17.411 60.3068 16.749 53.4643 16.815C53.2484 16.815 53.0379 16.815 52.8292 16.8293C52.7239 16.8293 52.6204 16.8293 52.5169 16.84L52.2118 16.8543C51.8068 16.8739 51.4143 16.9043 51.0342 16.9399C50.2765 17.0149 49.5629 17.1184 48.8932 17.2504C47.6939 17.4771 46.5234 17.8361 45.4033 18.3209C43.7048 19.0366 42.2 20.1445 41.0123 21.5539C39.0622 23.9126 38.8516 26.2785 38.8552 26.2785C38.8588 26.2785 38.1255 32.4144 37.8382 39.3871C37.683 42.8699 37.6116 46.5525 37.6366 49.7623C37.6491 51.368 37.683 52.8561 37.7419 54.1443C37.7419 54.3049 37.7579 54.4636 37.7651 54.6171C37.7651 54.6956 37.774 54.7705 37.7776 54.8473C37.7811 54.924 37.7865 54.9971 37.79 55.0721C37.8079 55.3682 37.8275 55.6502 37.8489 55.9178C37.8685 56.1854 37.8917 56.437 37.9149 56.6725C37.9381 56.908 37.9649 57.1293 37.9917 57.3327C38.8677 63.8147 38.8409 66.127 45.7548 67.4438C56.2191 69.4314 82.9734 71.4065 93.3022 71.5332C94.5975 71.5635 95.7697 71.5475 96.8349 71.4886L97.2292 71.4654L97.6128 71.4368C97.8662 71.4154 98.1106 71.394 98.3515 71.3673C98.8296 71.3173 99.2846 71.2549 99.7146 71.1888C101.433 70.8998 102.771 70.4448 103.833 69.8239C105.95 68.575 106.969 66.6819 107.633 63.9895C110.109 54.2014 112.397 42.6789 112.864 36.1291Z" fill="#4C7BA2"/>
<path d="M111.082 36.5073C111.209 35.1606 111.243 33.8068 111.184 32.4554C111.184 32.3126 111.167 32.1717 111.157 32.0343C111.157 32.0004 111.157 31.9647 111.157 31.9308C111.157 31.8969 111.157 31.863 111.148 31.8291C111.148 31.7631 111.137 31.6953 111.13 31.6293C111.105 31.3652 111.073 31.1137 111.037 30.8728L111.01 30.6944C111.01 30.6658 111 30.6355 110.996 30.6069L110.987 30.5623C110.988 30.5481 110.988 30.5338 110.987 30.5195C110.968 30.4035 110.946 30.2911 110.923 30.1805C110.877 29.9593 110.827 29.7505 110.773 29.5489C110.334 27.9431 109.621 26.9511 108.678 26.2999C104.191 23.2274 94.1497 21.3041 83.332 19.9962C72.5143 18.6884 60.917 18.1817 54.3368 18.3334C54.1298 18.3334 53.9264 18.3441 53.7266 18.353L53.4268 18.3673L53.1324 18.3851C52.7435 18.4101 52.3658 18.4422 51.9995 18.4814C51.2679 18.5617 50.5828 18.6599 49.9387 18.8008C48.7728 19.031 47.6346 19.3845 46.5434 19.8553C44.9078 20.5443 43.4502 21.5961 42.2809 22.9313C40.37 25.149 40.1523 27.3561 40.1559 27.3561C40.1595 27.3561 39.4083 33.0656 39.1639 39.6404C39.0283 42.9216 38.9854 46.4061 39.0479 49.4536C39.0764 50.9773 39.1264 52.3921 39.1996 53.6179C39.2085 53.7713 39.2174 53.9212 39.2263 54.0693L39.2424 54.287C39.2424 54.3583 39.2513 54.4297 39.2566 54.5011C39.2781 54.783 39.2995 55.0524 39.3227 55.3058C39.3459 55.5591 39.3708 55.8018 39.3976 56.0194C39.4244 56.2371 39.4511 56.4548 39.4797 56.6475C40.411 62.8316 40.4307 65.0493 47.0536 66.3143C57.0898 68.227 82.6237 70.1183 92.4493 70.2396C93.684 70.2699 94.8009 70.2539 95.8143 70.1986C96.0677 70.1843 96.3157 70.1682 96.5566 70.1486C96.7974 70.129 97.0312 70.1076 97.2595 70.0826C97.7145 70.0344 98.1516 69.9755 98.5567 69.9042C100.193 69.6294 101.467 69.1905 102.482 68.6053C104.5 67.4188 105.467 65.6114 106.1 63.0439C108.455 53.7249 110.638 42.7485 111.082 36.5073Z" fill="#50B0D1"/>
<path d="M64.9832 46.1045C65.3811 42.463 65.6487 35.9113 62.9742 32.8247C62.7145 32.5252 62.3947 32.2839 62.0355 32.1163C61.6764 31.9488 61.2859 31.8588 60.8897 31.8522C60.4934 31.8456 60.1002 31.9226 59.7357 32.0782C59.3712 32.2338 59.0435 32.4644 58.7741 32.7551C56.5813 35.1013 54.4617 40.3415 53.8033 44.4077C53.6779 45.162 53.7489 45.9358 54.0096 46.6546C54.2702 47.3734 54.7117 48.0129 55.2914 48.5114C56.6402 49.6587 58.792 50.7363 61.7466 49.9477C62.6098 49.7064 63.3802 49.2107 63.9575 48.5252C64.5348 47.8397 64.8922 46.9961 64.9832 46.1045Z" fill="white"/>
<path d="M68.9333 55.7803C70.1783 57.3435 71.9867 58.3559 73.9701 58.6002C75.9535 58.8444 77.9535 58.3008 79.5405 57.0863L79.7724 56.9079C81.6797 55.4466 80.4094 52.4028 78.0292 52.7328L77.3601 52.8256C75.5682 53.0752 73.7425 52.8917 72.0361 52.2904L71.54 52.1119C69.3258 51.3376 67.4703 53.9443 68.9333 55.7803Z" fill="white"/>
<path d="M81.157 92.5261L81.0321 92.6831C81.0696 92.6296 81.107 92.5761 81.1427 92.5208L81.157 92.5261Z" fill="#BED4E4"/>
<path d="M81.3354 92.758C80.8047 94.146 79.998 95.412 78.964 96.4793C77.9301 97.5466 76.6904 98.3931 75.32 98.9677C73.9495 99.5422 72.4768 99.8329 70.9908 99.822C69.5049 99.8111 68.0366 99.499 66.6747 98.9045C65.3128 98.3099 64.0856 97.4453 63.0674 96.363C62.0492 95.2807 61.2611 94.0031 60.7507 92.6075C60.2403 91.2118 60.0183 89.7272 60.0981 88.2433C60.1779 86.7595 60.5578 85.3072 61.2149 83.9744C63.3256 85.0021 65.497 86.0244 67.6951 87.0307L66.4979 87.9121C66.4725 87.9317 66.4487 87.9531 66.4266 87.9763C66.3603 88.0488 66.3166 88.1389 66.3008 88.2357C66.285 88.3326 66.2978 88.432 66.3375 88.5217C66.3773 88.6114 66.4423 88.6876 66.5246 88.7409C66.607 88.7943 66.7031 88.8225 66.8013 88.8221H72.1289L71.9094 88.9006L69.5793 89.7481L69.1582 89.9015L69.0208 90.4261L67.9878 94.4031C67.9606 94.5039 67.9655 94.6107 68.0018 94.7086C68.0381 94.8065 68.1039 94.8907 68.1902 94.9495C68.2764 95.0083 68.3789 95.0389 68.4833 95.0369C68.5877 95.0349 68.6889 95.0004 68.7728 94.9383L72.7427 92.0426L73.2583 91.6661L75.1371 90.2958C77.2014 91.154 79.2693 91.9819 81.3354 92.758Z" fill="#50B0D1"/>
<path d="M82.0491 88.8488C82.0511 90.1845 81.8093 91.5093 81.3354 92.758C79.2782 91.9819 77.2103 91.1522 75.146 90.294L75.5688 89.9836C75.6787 89.9036 75.7603 89.7908 75.802 89.6615C75.8437 89.5321 75.8433 89.3929 75.8009 89.2638C75.7584 89.1347 75.6762 89.0224 75.5659 88.943C75.4555 88.8636 75.3229 88.8213 75.187 88.8221H72.8033L73.0727 87.8604L73.4296 86.5722L74.3217 83.3838C74.3545 83.2708 74.351 83.1504 74.3118 83.0395C74.2726 82.9286 74.1995 82.8329 74.103 82.7657C74.0064 82.6985 73.8913 82.6633 73.7736 82.665C73.656 82.6667 73.5419 82.7054 73.4474 82.7754L70.6301 84.854L68.2892 86.5847L67.6862 87.0289C65.4845 86.0226 63.3167 85.0003 61.2059 83.9726C62.3041 81.7473 64.1232 79.9593 66.367 78.8995C68.6107 77.8397 71.1472 77.5706 73.5634 78.1359C75.9796 78.7011 78.1334 80.0676 79.6742 82.0128C81.215 83.9579 82.052 86.3673 82.0491 88.8488Z" fill="#4C7BA2"/>
<path d="M72.3037 89.0059L72.1235 89.0719L71.9683 89.0059H72.3037Z" fill="#BED4E4"/>
<path d="M11.4265 47.3962C11.3231 47.3605 11.2196 47.3213 11.1179 47.282L11.0055 47.2392L10.9698 47.2249L10.6897 47.109C11.4034 45.3711 10.6219 43.719 10.2918 43.1427C10.2811 43.1248 10.2722 43.107 10.2615 43.0909L10.2365 43.0481L10.1812 42.9607L10.1633 42.9321C10.5997 43.2556 11.0643 43.5392 11.5514 43.7796C11.5514 43.7796 12.5809 45.8529 11.4265 47.3962Z" fill="#4C7BA2"/>
<path d="M85.6567 47.4177C85.6121 43.8617 85.9511 36.8908 89.061 33.9879C89.3509 33.7175 89.6946 33.5113 90.0697 33.3828C90.4447 33.2542 90.8427 33.2062 91.2375 33.2419C91.6324 33.2776 92.0152 33.3962 92.3612 33.5899C92.7071 33.7836 93.0082 34.0481 93.245 34.3662C95.2379 37.0121 96.8241 42.718 96.9668 46.8717C96.9884 47.4873 96.8638 48.0993 96.6033 48.6575C96.3428 49.2158 95.9538 49.7043 95.4681 50.0833C93.9515 51.2698 91.318 52.5009 87.8745 50.8933C87.2151 50.5815 86.6571 50.0899 86.2648 49.4751C85.8724 48.8602 85.6616 48.147 85.6567 47.4177Z" fill="white"/>
</svg>