<svg width="222" height="121" viewBox="0 0 222 121" fill="none" xmlns="http://www.w3.org/2000/svg">
<path d="M179.394 7.64597C176.946 7.6018 174.572 8.49186 172.757 10.1351C170.941 11.7784 169.82 14.0516 169.62 16.4922C169.597 16.7805 169.588 17.0663 169.588 17.3522L165.595 13.7751C164.202 12.1321 163.518 10.0038 163.692 7.85705C163.866 5.71029 164.885 3.72025 166.524 2.32334C166.622 2.24199 166.717 2.16528 166.815 2.09091C171.024 -1.16311 177.216 0.898544 178.848 5.96318L179.394 7.64597Z" fill="#CC69CC"/>
<path d="M193.237 16.0345L188.719 18.912C188.768 18.6331 188.803 18.3495 188.826 18.0613C189.026 15.6214 188.289 13.1969 186.766 11.2807C185.242 9.36461 183.046 8.10073 180.624 7.74611L181.425 6.17721C183.859 1.44029 190.304 0.405976 193.93 4.30614C194.011 4.39447 194.095 4.48744 194.177 4.58041C195.569 6.22478 196.252 8.35429 196.076 10.5017C195.9 12.649 194.879 14.6389 193.237 16.0345Z" fill="#CC69CC"/>
<path d="M188.826 18.061C188.803 18.3492 188.768 18.6328 188.719 18.9117C188.617 19.498 188.461 20.0737 188.254 20.6317L178.697 21.164L169.76 19.1232C169.648 18.5394 169.591 17.9465 169.588 17.3521C169.588 17.0662 169.588 16.7803 169.62 16.4921C169.82 14.0514 170.941 11.7783 172.757 10.135C174.572 8.49174 176.946 7.60168 179.394 7.64586C179.596 7.64586 179.803 7.64585 180.01 7.67375C180.217 7.70164 180.419 7.71559 180.624 7.74581C183.046 8.10042 185.242 9.36431 186.766 11.2804C188.289 13.1966 189.026 15.6211 188.826 18.061Z" fill="#9B5D95"/>
<path d="M44.2551 8.09724C37.4635 11.2234 29.3401 16.4996 26.2929 20.9948C22.8715 21.4341 19.6617 21.9129 16.7912 22.3893C15.9568 12.7156 22.6019 4.23659 31.6667 3.44401C36.4478 3.03028 40.9499 4.85485 44.2551 8.09724Z" fill="#50B0D1"/>
<path d="M65.5223 8.28767C65.6037 12.9711 58.2682 18.8795 58.2682 18.8795C55.4349 18.8516 52.4993 18.9074 49.5265 19.0236C48.7641 19.0515 47.9994 19.084 47.2324 19.1212C44.6385 19.2491 42.0353 19.4234 39.4577 19.6302C34.9067 19.9975 30.4417 20.474 26.2928 21.0062C29.34 16.511 37.4634 11.2442 44.255 8.1087C47.4044 6.65834 50.4469 5.53571 52.906 4.91977C60.9086 2.89996 65.441 3.59492 65.5223 8.28767Z" fill="#4C7BA2"/>
<path d="M108.719 85.0958C108.364 86.1395 107.585 87.2551 106.123 88.3499C104.652 89.4452 102.958 90.2038 101.161 90.5719C96.598 91.5365 84.7696 93.5191 73.7617 90.974C71.3096 90.4069 69.2224 89.8978 67.449 89.4469C64.6226 88.7241 62.5889 88.143 61.1408 87.6898C59.7672 87.2621 58.9165 86.9483 58.4005 86.7391C58.3175 86.7054 58.2277 86.6915 58.1384 86.6986C58.049 86.7058 57.9626 86.7338 57.8861 86.7803C57.8095 86.8268 57.7448 86.8907 57.6973 86.9666C57.6498 87.0426 57.6208 87.1287 57.6125 87.2179C57.4576 88.8713 57.3026 90.3983 57.1477 91.7991C56.3016 99.4577 55.5207 103.421 55.344 104.26C55.3204 104.372 55.3095 104.487 55.3115 104.601C55.3673 108.422 57.2685 113.936 57.9681 115.844C58.0398 116.04 58.1502 116.22 58.2928 116.373C58.4353 116.526 58.6071 116.649 58.7979 116.734C59.7879 117.218 60.6556 117.92 61.3361 118.787C61.4244 118.896 61.4815 119.027 61.5014 119.166C61.5212 119.305 61.5029 119.447 61.4486 119.577C61.3943 119.707 61.3059 119.819 61.1927 119.903C61.0796 119.986 60.946 120.037 60.8061 120.051C58.4586 120.283 53.552 120.46 51.2486 118.024C48.6919 115.33 47.2973 108.548 46.8743 106.259C46.8367 106.04 46.7223 105.843 46.5519 105.701C46.3814 105.56 46.1661 105.484 45.9446 105.487H37.9467C37.7025 105.487 37.4681 105.583 37.2941 105.754C37.1202 105.926 37.0206 106.159 37.0169 106.403C36.9263 112.548 35.9152 116.834 35.3597 118.747C35.2642 119.074 35.0653 119.361 34.7929 119.565C34.5205 119.769 34.1893 119.879 33.8489 119.879H27.155C27.0238 119.879 26.8952 119.842 26.7834 119.774C26.6715 119.705 26.5807 119.607 26.5209 119.491C26.4611 119.374 26.4346 119.243 26.4443 119.112C26.4541 118.981 26.4997 118.856 26.5762 118.749C27.0627 118.023 27.7081 117.416 28.4635 116.976C28.6583 116.872 28.8155 116.71 28.9127 116.511C29.0099 116.313 29.0423 116.089 29.0051 115.872C28.5891 113.334 27.6454 104.822 30.0789 88.5311C30.0941 88.4287 30.0817 88.3241 30.0431 88.228C30.0045 88.1319 29.941 88.0478 29.8591 87.9844C29.7772 87.921 29.6799 87.8805 29.5772 87.8671C29.4745 87.8537 29.3701 87.8679 29.2747 87.9082C27.4548 88.6822 23.464 90.9298 21.1397 96.2757C21.04 96.4992 21.0088 96.7473 21.0502 96.9885C21.0916 97.2297 21.2036 97.4533 21.3721 97.6308C21.6152 97.8671 21.7908 98.1641 21.8807 98.4909C21.9706 98.8178 21.9715 99.1628 21.8835 99.4902C21.5069 101.101 20.2704 100.42 20.368 102.449C20.4912 104.985 12.9651 106.951 11.4636 101.808C9.96214 96.6639 15.3708 89.7096 22.2135 85.0308C22.2135 85.0308 31.3759 78.9155 43.3832 78.4716C55.3905 78.0277 58.5725 79.3548 58.5725 79.3548C58.5725 79.3548 63.4302 80.1893 69.4967 80.7657C74.4404 81.2305 80.1884 81.528 84.7626 81.0562C86.8332 80.8446 88.8143 80.1033 90.5153 78.9039C92.2538 77.6767 94.6618 76.1775 95.8263 76.3472C97.7694 76.6401 92.8047 79.9382 94.6502 80.173C96.4957 80.4077 103.066 75.8173 107.394 79.8197C107.401 79.8267 109.709 82.1835 108.719 85.0958Z" fill="white"/>
<path d="M201.138 106.838C198.4 107.233 196.415 101.45 195.776 103.788C195.229 105.778 194.088 105.715 194.03 103.614C193.981 101.966 190.936 94.7072 188.868 90.5979C188.026 88.9197 187.345 87.7622 187.097 87.7088C187.097 87.7088 187.187 90.1958 187.122 93.408C187.046 97.3453 186.739 102.373 185.753 105.241C185.702 105.39 185.677 105.548 185.681 105.706C185.716 106.898 185.3 112.17 184.024 117.955C183.984 118.134 184.011 118.323 184.1 118.483C184.19 118.644 184.336 118.766 184.51 118.826C185.008 118.982 185.463 119.252 185.839 119.614C185.932 119.71 185.997 119.829 186.026 119.959C186.055 120.089 186.047 120.225 186.003 120.351C185.96 120.477 185.882 120.588 185.779 120.672C185.675 120.756 185.551 120.81 185.419 120.828C183.246 121.076 181.052 121.056 178.885 120.77C178.641 120.739 178.411 120.635 178.227 120.472C178.043 120.308 177.912 120.093 177.853 119.854C177.388 117.994 176.479 113.09 177.537 106.336C177.561 106.188 177.555 106.036 177.52 105.89C177.485 105.744 177.422 105.606 177.333 105.485C177.244 105.364 177.132 105.262 177.004 105.184C176.875 105.107 176.732 105.056 176.584 105.034C174.705 104.754 172.801 104.692 170.908 104.85C170.755 104.865 170.607 104.91 170.472 104.983C170.338 105.056 170.22 105.156 170.125 105.277C170.03 105.397 169.961 105.536 169.921 105.684C169.881 105.832 169.872 105.986 169.895 106.138C170.28 108.774 171.057 115.356 169.971 119.194C169.905 119.426 169.776 119.636 169.598 119.8C169.42 119.964 169.2 120.076 168.963 120.123C166.375 120.615 163.732 120.748 161.109 120.516C161.002 120.506 160.899 120.471 160.809 120.413C160.719 120.355 160.645 120.276 160.591 120.183C160.538 120.09 160.508 119.985 160.504 119.878C160.5 119.771 160.522 119.665 160.567 119.568C160.927 118.801 161.608 117.732 162.731 117.304C162.82 117.268 162.901 117.214 162.969 117.146C163.037 117.078 163.091 116.997 163.127 116.908C163.163 116.819 163.181 116.724 163.179 116.628C163.177 116.531 163.156 116.437 163.117 116.349C161.987 113.732 158.854 101.899 158.933 87.567C158.935 87.4403 158.911 87.3146 158.863 87.1973C158.815 87.0799 158.744 86.9734 158.655 86.8839C158.565 86.7944 158.458 86.7238 158.341 86.6763C158.223 86.6287 158.098 86.6052 157.971 86.6071C156.969 86.621 155.226 86.6071 152.885 86.4049C137.615 83.7854 118.502 70.1348 115.506 67.943C115.473 67.9191 115.448 67.8861 115.433 67.8479C115.419 67.8097 115.416 67.7681 115.425 67.7284C115.434 67.6886 115.455 67.6525 115.485 67.6245C115.515 67.5965 115.552 67.5779 115.592 67.5711C118.476 67.0667 121.844 65.7605 124.287 62.6343C129.473 67.1969 142.882 77.5772 158.896 79.0438C159.496 79.0973 160.081 79.1507 160.655 79.1972C163.805 79.4668 166.606 79.6621 169.088 79.7806C181.779 80.4221 186.183 79.4529 186.183 79.4529C187.439 80.379 188.645 81.3697 189.798 82.421C192.512 84.8662 196.233 88.6966 199.081 93.4103C200.731 96.1413 202.086 99.1745 202.783 102.415C202.772 102.405 203.92 106.438 201.138 106.838Z" fill="white"/>
<path d="M123.213 37.5735C121.557 36.7343 119.689 36.405 117.846 36.6274C116.002 36.8497 114.266 37.6136 112.857 38.8225C111.448 40.0315 110.429 41.6311 109.929 43.4192C109.429 45.2072 109.47 47.1034 110.048 48.868C110.625 50.6325 111.713 52.1862 113.174 53.3325C114.634 54.4789 116.402 55.1664 118.253 55.3081C120.105 55.4498 121.956 55.0394 123.574 54.1288C125.192 53.2182 126.504 51.8482 127.343 50.1921C128.468 47.9709 128.665 45.3941 127.89 43.0279C127.116 40.6618 125.433 38.6999 123.213 37.5735ZM118.969 50.8941C117.991 50.8941 117.034 50.604 116.221 50.0605C115.408 49.517 114.774 48.7445 114.399 47.8407C114.025 46.937 113.927 45.9425 114.118 44.983C114.309 44.0236 114.78 43.1423 115.472 42.4505C116.163 41.7588 117.045 41.2877 118.004 41.0969C118.963 40.906 119.958 41.004 120.862 41.3783C121.766 41.7527 122.538 42.3867 123.081 43.2C123.625 44.0134 123.915 44.9697 123.915 45.948C123.916 46.5981 123.789 47.242 123.541 47.8429C123.292 48.4438 122.928 48.9899 122.469 49.4499C122.009 49.9099 121.464 50.2749 120.863 50.5239C120.263 50.7729 119.619 50.901 118.969 50.901V50.8941Z" fill="#50B0D1"/>
<path d="M116.78 53.7021L106.367 74.2558C105.925 75.1286 105.155 75.7902 104.226 76.0954C103.297 76.4005 102.284 76.324 101.411 75.8828L96.621 73.4562C96.4059 73.344 96.2431 73.1521 96.1676 72.9215C96.092 72.6909 96.1096 72.4399 96.2166 72.222L96.8325 71.0088C96.887 70.9014 96.962 70.8059 97.0534 70.7276C97.1448 70.6492 97.2507 70.5897 97.3651 70.5524C97.4795 70.515 97.6002 70.5006 97.7202 70.5099C97.8402 70.5192 97.9571 70.5521 98.0644 70.6067L102.855 73.0332C102.913 73.0624 102.976 73.08 103.04 73.0848C103.105 73.0896 103.17 73.0816 103.231 73.0614C103.293 73.0411 103.35 73.0088 103.399 72.9665C103.448 72.9242 103.488 72.8726 103.517 72.8147L104.326 71.2203C104.431 71.0124 104.449 70.7716 104.377 70.5503C104.304 70.3291 104.147 70.1454 103.94 70.0395L100.493 68.294C100.278 68.1817 100.115 67.9898 100.04 67.7592C99.9643 67.5286 99.9819 67.2776 100.089 67.0598L100.705 65.8488C100.759 65.7411 100.834 65.6451 100.925 65.5663C101.016 65.4876 101.122 65.4277 101.237 65.3902C101.351 65.3526 101.472 65.338 101.592 65.3473C101.712 65.3566 101.829 65.3896 101.937 65.4444L105.384 67.1899C105.591 67.2947 105.832 67.3129 106.054 67.2406C106.275 67.1683 106.458 67.0114 106.564 66.8041L113.932 52.261L116.78 53.7021Z" fill="#50B0D1"/>
<path d="M121.972 60.4867C121.972 60.4867 119.236 67.2434 109.718 67.6687H109.667C109.667 67.6687 106.367 66.2626 104.614 63.4664C103.138 61.0956 102.79 57.7254 106.55 53.365C108.066 51.6055 109.765 50.5991 111.469 50.1668C113.768 49.6196 116.191 50.0031 118.209 51.2336C121.651 53.2558 123.727 57.2164 121.972 60.4867Z" fill="white"/>
<path d="M115.494 67.9363C115.461 67.912 115.436 67.8785 115.422 67.8401C115.408 67.8016 115.406 67.7599 115.415 67.7201C115.425 67.6802 115.445 67.6441 115.475 67.616C115.505 67.5879 115.542 67.5692 115.583 67.5621C118.467 67.0577 121.833 65.7561 124.276 62.6276C122.786 61.3213 121.972 60.4893 121.972 60.4893C121.972 60.4893 119.227 67.2715 109.667 67.6737L108.97 69.0845C126.881 82.405 144.079 85.6544 152.871 86.3982C137.601 83.7764 118.495 70.1351 115.494 67.9363Z" fill="#BED4E4"/>
<path d="M69.4943 80.766C66.2566 80.5336 61.1408 87.6994 61.1408 87.6994C59.7672 87.2717 58.9165 86.958 58.4005 86.7488C58.3173 86.7151 58.2274 86.7012 58.138 86.7084C58.0485 86.7156 57.962 86.7435 57.8853 86.79C57.8085 86.8365 57.7437 86.9003 57.6959 86.9762C57.6482 87.0522 57.6188 87.1383 57.6102 87.2276C57.4553 88.8809 57.3003 90.408 57.1453 91.8088C44.4152 90.2236 22.2158 85.0311 22.2158 85.0311C22.2158 85.0311 31.3712 78.9159 43.3785 78.4812C55.3859 78.0466 58.5655 79.3645 58.5655 79.3645C58.5655 79.3645 63.4256 80.1896 69.4943 80.766Z" fill="#BED4E4"/>
<path d="M82.1501 34.4522C82.4267 42.1666 82.4662 55.4174 81.9409 67.8221C81.7968 71.2319 81.06 73.7793 78.9495 75.648C77.8943 76.5778 76.4951 77.3448 74.6565 77.9723C74.1917 78.1281 73.7059 78.2698 73.1922 78.4047C72.9342 78.4744 72.6669 78.5395 72.395 78.6046L71.5513 78.7882C70.4007 79.0206 69.1247 79.2251 67.7139 79.3971C66.0752 79.5947 64.074 79.8294 61.8125 80.0944C57.9541 80.5291 53.3404 81.0125 48.4943 81.4774L47.5157 81.5703C46.2839 81.6866 45.038 81.8028 43.7969 81.9143C41.9746 82.077 40.1407 82.2328 38.3255 82.3792C33.3817 82.7767 28.5634 83.0974 24.3936 83.2624C21.2349 83.3879 18.4481 83.4251 16.2586 83.3391C15.8588 83.3205 15.4823 83.2996 15.1197 83.2694L14.7641 83.2369C14.5285 83.2152 14.3031 83.1896 14.0877 83.1602C13.8715 83.13 13.6647 83.0997 13.4648 83.0626C8.41874 82.1491 7.75864 79.1786 5.73883 72.7659C5.66445 72.5335 5.59007 72.2778 5.5064 72.0059L5.27397 71.1319C5.11592 70.5113 4.95089 69.821 4.78354 69.0726C4.44652 67.5758 4.08625 65.8418 3.74458 63.9731C3.70972 63.7779 3.67485 63.578 3.63534 63.3781C2.97989 59.7847 2.34768 55.7358 1.8619 51.8961C0.7997 43.7843 0.499865 36.5906 0.504514 36.5906C0.509163 36.5906 0.313922 33.813 2.04785 30.6845C3.09252 28.8151 4.54373 27.2043 6.29434 25.9709C7.42422 25.1664 8.63944 24.489 9.91791 23.951C10.6152 23.6559 11.3729 23.3746 12.1841 23.1236C12.5885 23.0004 13.0092 22.8795 13.4415 22.768C13.8739 22.6564 14.3248 22.5518 14.7896 22.4658C15.208 22.3775 15.6403 22.2892 16.0959 22.2032C17.4533 21.9382 18.9618 21.6709 20.5934 21.4059C23.1687 20.9945 26.0509 20.5901 29.1213 20.2229C32.8401 19.7743 36.8519 19.3815 40.931 19.0886C43.2553 18.9213 45.5796 18.7865 47.9039 18.6912C48.5896 18.6633 49.2775 18.6377 49.9632 18.6191C52.6269 18.5378 55.258 18.5122 57.7984 18.5564C66.6029 18.7121 74.2823 19.7069 78.301 22.0963C79.4632 22.7796 80.3464 23.9417 80.9856 25.8988C81.0669 26.1312 81.1413 26.4009 81.218 26.6705C81.2529 26.8053 81.2901 26.9447 81.325 27.0888C81.3598 27.233 81.39 27.3747 81.4226 27.5188C81.5504 28.1139 81.655 28.7623 81.7573 29.4689C81.9717 31.1224 82.1028 32.7856 82.1501 34.4522Z" fill="white"/>
<path d="M77.4691 36.6626C77.3679 35.2903 77.1722 33.9266 76.8834 32.5812L76.8346 32.3696C76.8183 32.2999 76.7997 32.2325 76.7834 32.1628C76.7834 32.1302 76.7672 32.0954 76.7579 32.0605C76.7486 32.0257 76.7416 31.9954 76.7323 31.9606L76.6812 31.763C76.6091 31.5027 76.5347 31.2563 76.4487 31.0192C76.4302 30.9611 76.4116 30.903 76.3906 30.8449C76.3697 30.7868 76.372 30.7868 76.3604 30.7589L76.3465 30.7171L76.3325 30.6752C76.2907 30.5614 76.2512 30.4428 76.2093 30.3452C76.1257 30.1314 76.0397 29.9291 75.9513 29.7386C75.2378 28.2022 74.3522 27.3283 73.297 26.8355C68.2742 24.5112 57.8892 24.302 46.8372 24.8064C35.7852 25.3108 24.0916 26.6658 17.565 27.8419L16.9584 27.9581L16.6632 28.0186L16.375 28.0813C15.9915 28.1673 15.6219 28.258 15.264 28.3556C14.5504 28.5485 13.888 28.7647 13.272 28.9971C12.1641 29.4097 11.1048 29.9428 10.1133 30.5869C8.616 31.5505 7.36666 32.8532 6.46651 34.3895C4.98361 36.9601 5.1649 39.2589 5.16955 39.2565C5.1742 39.2542 5.46706 45.237 6.3317 51.9449C6.74775 55.2965 7.27769 58.8271 7.82157 61.8905C8.09351 63.4222 8.36778 64.8354 8.63275 66.058C8.66529 66.2114 8.70015 66.3602 8.73269 66.5066L8.78151 66.7251L8.83032 66.9366C8.8954 67.2155 8.95815 67.4828 9.02091 67.7338C9.08366 67.9848 9.14642 68.2242 9.20918 68.4451C9.27193 68.6659 9.33004 68.875 9.38815 69.0633C11.2778 75.1065 11.6264 77.3285 18.4529 77.4656C28.7728 77.6679 54.6538 75.2157 64.5414 73.6608C65.7849 73.4795 66.9029 73.2749 67.9093 73.0448L68.2812 72.9588L68.6438 72.8682C68.8762 72.8078 69.1086 72.7473 69.341 72.6846C69.792 72.5575 70.2158 72.425 70.6124 72.2871C72.2092 71.7316 73.4132 71.0808 74.3313 70.3161C76.1536 68.7844 76.8183 66.8041 77.0159 64.1242C77.7782 54.3761 78.0851 42.9963 77.4691 36.6626Z" fill="#4C7BA2"/>
<path d="M75.83 37.3133C75.7324 36.0059 75.5452 34.7066 75.2698 33.4248C75.2396 33.29 75.207 33.1575 75.1745 33.0273C75.1745 32.9948 75.1582 32.9623 75.1513 32.9297L75.1257 32.8344L75.0769 32.6462C75.0095 32.3998 74.9398 32.1627 74.8654 31.9372L74.8096 31.7699L74.7817 31.6885L74.7678 31.649L74.7538 31.6095C74.7143 31.5003 74.6771 31.398 74.6376 31.2957C74.5586 31.0912 74.4749 30.8983 74.3912 30.717C73.7125 29.2527 72.8688 28.4206 71.8624 27.9511C67.0767 25.7453 57.1728 25.5315 46.6252 26.0405C36.0775 26.5495 24.9162 27.9418 18.6569 29.1527C18.4594 29.1899 18.2664 29.2294 18.0758 29.2713L17.7923 29.334L17.5134 29.3968C17.1461 29.4851 16.7905 29.5781 16.4465 29.6757C15.7608 29.8686 15.124 30.0825 14.529 30.3126C13.4595 30.722 12.4359 31.2424 11.4748 31.8652C10.0235 32.7888 8.80105 34.0302 7.90008 35.4957C6.43577 37.9246 6.58685 40.0676 6.58917 40.0653C6.5915 40.063 6.80301 45.6436 7.63511 51.9634C8.03721 55.1198 8.56483 58.4551 9.11336 61.3582C9.38763 62.8086 9.66654 64.1473 9.93384 65.3095C9.96638 65.4536 10.0012 65.5954 10.0338 65.7348L10.0826 65.9417L10.1314 66.1439C10.1988 66.4089 10.2616 66.6622 10.3266 66.9016C10.3917 67.141 10.4522 67.3665 10.5149 67.578C10.5777 67.7895 10.6358 67.9848 10.6939 68.1637C12.5859 73.921 12.9647 76.0384 19.4983 76.1709C29.3975 76.3708 54.0978 74.0372 63.5042 72.5566C64.6873 72.3847 65.7518 72.1894 66.7117 71.9709C66.9442 71.9175 67.1766 71.8617 67.409 71.8036C67.6415 71.7455 67.8553 71.6874 68.0691 71.6269C68.4991 71.5061 68.9012 71.3806 69.2824 71.2481C70.8002 70.7205 71.9461 70.0999 72.8153 69.3724C74.5516 67.9127 75.1838 66.0277 75.3721 63.4733C76.1135 54.1877 76.4157 43.3472 75.83 37.3133Z" fill="url(#paint0_linear_450_3857)"/>
<path d="M49.6979 58.5716C49.9948 58.5224 50.2993 58.5507 50.5821 58.6536C50.8648 58.7566 51.1162 58.9309 51.3118 59.1595C51.5075 59.3881 51.6408 59.6634 51.6989 59.9586C51.757 60.2539 51.7378 60.5591 51.6433 60.8448C51.3258 61.749 50.7719 62.5515 50.039 63.1689C49.3062 63.7864 48.4213 64.1961 47.4764 64.3556C46.5314 64.5151 45.5611 64.4184 44.6662 64.0757C43.7713 63.7329 42.9846 63.1566 42.388 62.4067C42.1954 62.1674 42.0689 61.8817 42.0212 61.5782C41.9735 61.2747 42.0062 60.964 42.116 60.6771C42.2258 60.3901 42.409 60.137 42.6472 59.943C42.8853 59.7489 43.1702 59.6207 43.4734 59.5711C45.4747 59.0807 47.5118 58.7504 49.5654 58.5833L49.6979 58.5716Z" fill="white"/>
<path d="M66.41 52.2634C65.8708 49.0094 64.5111 43.2521 61.4407 41.2207C61.1429 41.0258 60.8076 40.8955 60.4563 40.8384C60.1051 40.7813 59.7457 40.7985 59.4016 40.889C59.0574 40.9795 58.736 41.1412 58.4583 41.3637C58.1805 41.5862 57.9526 41.8645 57.7892 42.1806C56.455 44.7513 55.8879 49.8159 56.304 53.5069C56.3789 54.1914 56.6286 54.8451 57.0291 55.4052C57.4297 55.9653 57.9676 56.413 58.5911 56.7051C59.5279 57.1564 60.5636 57.3633 61.6019 57.3069C62.6402 57.2504 63.6473 56.9322 64.5297 56.3821C65.2215 55.9649 65.7713 55.3485 66.1068 54.6135C66.4424 53.8786 66.548 53.0594 66.41 52.2634Z" fill="white"/>
<path d="M23.8802 57.4395C23.9197 54.1669 24.3846 47.7588 27.3108 45.1602C27.5834 44.9179 27.9041 44.7359 28.2518 44.6259C28.5995 44.5159 28.9665 44.4805 29.3289 44.5219C29.6912 44.5634 30.0407 44.6808 30.3546 44.8665C30.6685 45.0521 30.9397 45.3019 31.1506 45.5995C32.9263 48.0795 34.2605 53.365 34.2977 57.1885C34.3058 57.7568 34.1788 58.3189 33.927 58.8285C33.6753 59.3381 33.306 59.7806 32.8496 60.1194C31.4272 61.1769 28.9774 62.2508 25.8442 60.6958C25.2431 60.3935 24.7397 59.9273 24.3922 59.3511C24.0447 58.7749 23.8672 58.1122 23.8802 57.4395Z" fill="white"/>
<path d="M96.9998 82.9115C96.9892 82.8976 96.9837 82.8804 96.9842 82.8628C96.9847 82.8453 96.9912 82.8284 97.0026 82.8151C97.014 82.8018 97.0297 82.7928 97.0469 82.7896C97.0642 82.7864 97.082 82.7893 97.0974 82.7976C97.7413 83.1835 98.9778 84.0667 99.1033 85.2172C99.2288 86.3677 97.8412 87.1138 97.1393 87.3997C97.1228 87.4068 97.1044 87.4079 97.0872 87.4028C97.07 87.3977 97.0552 87.3867 97.0452 87.3718C97.0353 87.3569 97.0309 87.339 97.0328 87.3211C97.0347 87.3033 97.0428 87.2867 97.0556 87.2742C97.6623 86.6746 98.7988 85.0987 96.9998 82.9115Z" fill="#BED4E4"/>
<path d="M48.1992 90.4216C48.2211 90.4358 48.2421 90.4513 48.262 90.4681C48.3242 90.518 48.3769 90.5786 48.4177 90.6471C48.458 90.7143 48.4856 90.7884 48.4991 90.8656C48.5087 90.909 48.5126 90.9536 48.5107 90.998C48.5107 91.0236 48.5107 91.0422 48.5107 91.0701C48.4978 91.1674 48.4646 91.2608 48.4131 91.3444L48.3759 91.3932C48.3487 91.427 48.3183 91.4581 48.2852 91.4861L47.8738 91.8418L47.7669 91.9347L47.4253 92.2276L47.2091 92.4135L46.0469 93.413L45.5472 93.8407L41.7121 97.1551C41.6313 97.2267 41.5301 97.2712 41.4226 97.2825C41.3152 97.2937 41.207 97.2712 41.113 97.2179C41.0191 97.1647 40.9441 97.0834 40.8986 96.9854C40.853 96.8875 40.8393 96.7778 40.8591 96.6716L41.582 92.4879L41.6819 91.9394L42.098 91.7441L42.1445 91.7279L42.4675 91.5791L44.327 90.7284L44.4106 90.6889H44.4339L44.6524 90.589L39.1601 91.0329C39.0522 91.0439 38.9436 91.0203 38.8501 90.9656C38.7565 90.9109 38.6827 90.8278 38.6394 90.7284C38.6012 90.6425 38.587 90.5478 38.5985 90.4544C38.6099 90.3611 38.6466 90.2726 38.7045 90.1985C38.7277 90.1729 38.7487 90.1473 38.7742 90.1241L38.923 89.9986L39.1298 89.8126L39.2554 89.7057L39.9317 89.12L40.1502 88.9271L40.1735 88.9062C38.0119 88.4762 35.906 88.0392 33.9374 87.6255C33.8368 87.9353 33.753 88.2503 33.6863 88.5692C33.6631 88.6691 33.6399 88.7714 33.6213 88.8783C33.5957 89.027 33.5725 89.1758 33.5515 89.3269C33.5167 89.5942 33.4888 89.8638 33.4725 90.1334C33.4467 90.5981 33.4522 91.064 33.4888 91.528C33.6824 93.8689 34.6866 96.069 36.3282 97.749C37.9697 99.4291 40.146 100.484 42.4818 100.732C44.8176 100.98 47.1667 100.405 49.1243 99.1066C51.0818 97.8084 52.5253 95.868 53.2058 93.6198C53.2592 93.4525 53.3011 93.2851 53.3476 93.1155C53.401 92.883 53.4522 92.6669 53.4917 92.4414C53.5552 92.0683 53.5986 91.692 53.6218 91.3141C51.8949 91.0561 50.0703 90.7517 48.1992 90.4216ZM45.4705 89.9242V89.9382L45.359 90.5216L47.6995 90.3333C46.9511 90.1985 46.2096 90.0637 45.4705 89.9242Z" fill="#50B0D1"/>
<path d="M53.6286 91.1789V91.2393C53.6286 91.2649 53.6286 91.2928 53.6286 91.3184C51.9016 91.0557 50.077 90.7512 48.206 90.4212C48.0824 90.3471 47.9375 90.3168 47.7946 90.3352H47.6946C46.9555 90.2004 46.2141 90.0656 45.468 89.9261L45.547 89.5147L45.8096 88.1596L46.4674 84.8034C46.488 84.6995 46.4798 84.592 46.4438 84.4925C46.4077 84.3929 46.3452 84.3051 46.2629 84.2386C46.1589 84.1497 46.0266 84.1008 45.8898 84.1008C45.753 84.1008 45.6207 84.1497 45.5168 84.2386L42.788 86.6186L40.5172 88.5966L40.1779 88.8941C38.0163 88.4641 35.9105 88.0272 33.9418 87.6134C33.9604 87.5437 33.9836 87.4763 34.0069 87.4089C34.1428 87.0118 34.3035 86.6237 34.488 86.2467L34.5461 86.1514C34.5717 86.0957 34.5995 86.0422 34.6298 85.9887C35.3734 84.5746 36.4405 83.3561 37.7443 82.4326C39.7293 82.2699 41.7351 82.0979 43.7294 81.9189C45.0984 81.7957 46.4604 81.6679 47.8062 81.54C50.2104 82.661 52.0778 84.682 53.0057 87.1672C53.3294 88.0362 53.5312 88.9459 53.6053 89.8703C53.6399 90.3056 53.6477 90.7426 53.6286 91.1789Z" fill="#4C7BA2"/>
<path d="M46.2583 84.236C46.3407 84.3026 46.4032 84.3904 46.4393 84.4899C46.4753 84.5895 46.4835 84.697 46.4629 84.8008L45.8051 88.1571L45.5425 89.5122L45.4634 89.9236C43.697 89.5958 41.9189 89.2518 40.1733 88.9032L40.5127 88.6057L42.7835 86.6277L45.5122 84.2476C45.6148 84.1571 45.7464 84.1062 45.8832 84.1041C46.0199 84.1019 46.153 84.1487 46.2583 84.236Z" fill="#BED4E4"/>
<path d="M48.1993 90.4213L47.6903 90.333H47.7903C47.9326 90.3158 48.0767 90.3469 48.1993 90.4213Z" fill="#BED4E4"/>
<path d="M175.85 90.3167V90.3353L175.68 90.749L175.447 91.3254L177.983 91.6229C178.073 91.6306 178.161 91.6564 178.241 91.6987C178.321 91.7411 178.391 91.7991 178.448 91.8693C178.501 91.9329 178.542 92.0064 178.567 92.0855C178.594 92.16 178.608 92.2386 178.608 92.3179C178.608 92.3642 178.602 92.4103 178.59 92.455C178.59 92.4783 178.59 92.5015 178.571 92.5271C178.54 92.6248 178.487 92.7139 178.416 92.7874C178.401 92.8038 178.385 92.8179 178.367 92.8292C178.332 92.8587 178.295 92.8852 178.255 92.9083L177.762 93.1872L177.635 93.2592L177.221 93.4917L176.965 93.6381L175.582 94.4214L174.983 94.7584L170.376 97.357C170.278 97.4122 170.166 97.4358 170.054 97.4246C169.942 97.4133 169.837 97.3678 169.752 97.2942C169.667 97.2206 169.607 97.1225 169.58 97.0135C169.553 96.9045 169.561 96.7898 169.602 96.6853L171.203 92.562L171.417 92.0157L171.882 91.9065H171.928L172.291 91.8228L174.364 91.3324L174.453 91.3092H174.483L174.715 91.2487L169.002 90.5677C168.889 90.5567 168.783 90.5096 168.699 90.4334C168.616 90.3572 168.559 90.2559 168.537 90.1447C168.516 90.0496 168.521 89.9504 168.552 89.8579C168.582 89.7653 168.638 89.6829 168.712 89.6194C168.739 89.5961 168.768 89.5758 168.8 89.559L168.977 89.4567L169.228 89.3126L169.376 89.2289L170.188 88.7641L170.452 88.6153L170.722 88.4596C168.588 87.6554 166.459 86.8047 164.393 85.9517C164.216 86.264 164.054 86.5852 163.91 86.9139C163.868 87.0139 163.826 87.1138 163.784 87.2184C163.726 87.3648 163.673 87.5113 163.619 87.6623C163.528 87.925 163.445 88.1969 163.387 88.4735C163.262 88.9437 163.171 89.4222 163.115 89.9053C162.838 92.3345 163.415 94.7844 164.746 96.8349C166.078 98.8853 168.082 100.408 170.414 101.143C172.746 101.878 175.261 101.778 177.527 100.861C179.794 99.9444 181.671 98.2675 182.836 96.1181C182.922 95.9578 183.004 95.7951 183.083 95.63C183.187 95.4139 183.283 95.1907 183.369 94.9676C183.523 94.575 183.652 94.1728 183.754 93.7636C183.754 93.7427 183.754 93.7241 183.771 93.7032C183.85 93.3848 183.917 93.0617 183.966 92.7316C181.442 92.1203 178.69 91.2836 175.85 90.3167Z" fill="#CC69CC"/>
<path d="M177.756 85.7003L176.48 88.7847C175.366 88.2408 174.23 87.6736 173.098 87.1042L173.616 86.809L176.896 84.9496C177.005 84.8871 177.132 84.8605 177.258 84.8736C177.384 84.8867 177.502 84.9387 177.597 85.0224C177.692 85.1062 177.758 85.2174 177.786 85.3406C177.815 85.4638 177.804 85.5928 177.756 85.7096V85.7003Z" fill="#BED4E4"/>
<path d="M199.069 93.4005C195.453 94.2861 188.88 90.5904 188.88 90.5904C188.036 88.9123 187.357 87.7548 187.109 87.7013C187.109 87.7013 187.197 90.1884 187.134 93.4005C172.491 90.8438 145.529 77.4349 145.529 77.4349L149.683 75.0293L159.212 79.8429L160.649 79.1875L162.422 78.3833L169.079 79.7778L175.131 81.0376L189.774 82.4159C192.501 84.8564 196.222 88.6799 199.069 93.4005Z" fill="#BED4E4"/>
<path d="M136.936 30.8774C136.299 38.9032 135.658 52.7141 135.641 65.6628C135.641 69.2236 136.29 71.9128 138.405 73.9559C139.462 74.9763 140.885 75.8362 142.775 76.5614C143.239 76.745 143.751 76.9147 144.281 77.0797C144.546 77.1634 144.822 77.2448 145.103 77.3122C145.385 77.3796 145.675 77.4679 145.973 77.5446C147.163 77.8444 148.483 78.1117 149.945 78.3535C151.642 78.637 153.72 78.9717 156.062 79.3366C160.065 79.9642 164.851 80.6777 169.883 81.382L170.896 81.5238C172.175 81.7004 173.469 81.8771 174.766 82.0491C176.658 82.3024 178.562 82.5488 180.447 82.7836C185.581 83.4227 190.59 83.9759 194.927 84.3385C198.214 84.6151 201.117 84.7801 203.399 84.7871C203.815 84.7871 204.21 84.7871 204.589 84.7662L204.961 84.7499C205.207 84.7499 205.442 84.722 205.658 84.6988C205.874 84.6755 206.102 84.6569 206.311 84.6267C211.59 83.9294 212.413 80.866 214.807 74.2673C214.895 74.0349 214.983 73.7653 215.076 73.4864C215.169 73.2075 215.262 72.9007 215.362 72.5846C215.555 71.9454 215.76 71.2318 215.969 70.4601C216.387 68.9145 216.831 67.1248 217.282 65.1933C217.329 64.9911 217.373 64.7842 217.422 64.5774C218.27 60.8585 219.111 56.6747 219.792 52.6932C221.266 44.2862 221.903 36.802 221.901 36.802C221.898 36.802 222.224 33.9152 220.559 30.5775C219.556 28.5785 218.116 26.8308 216.345 25.4641C215.205 24.5745 213.969 23.8137 212.661 23.1956C211.904 22.8344 211.128 22.5125 210.337 22.231C209.921 22.0822 209.489 21.9381 209.043 21.8033C208.596 21.6685 208.131 21.536 207.648 21.4128C207.216 21.3036 206.769 21.192 206.298 21.0805C204.903 20.7434 203.336 20.3971 201.649 20.0485C198.983 19.4999 195.999 18.9491 192.817 18.4215C188.956 17.7846 184.798 17.1942 180.558 16.7038C178.155 16.4226 175.728 16.1762 173.309 15.974C172.595 15.9112 171.879 15.8555 171.166 15.8043C168.395 15.5975 165.653 15.4533 163.003 15.3836C153.82 15.1512 145.771 15.8369 141.475 18.1449C140.241 18.8027 139.26 19.9741 138.505 21.9869C138.409 22.2356 138.319 22.5006 138.233 22.7795C138.191 22.9167 138.147 23.0608 138.103 23.2095C138.058 23.3583 138.021 23.5047 137.982 23.6535C137.821 24.2694 137.675 24.9388 137.543 25.671C137.305 27.1562 137.094 28.8715 136.936 30.8774Z" fill="white"/>
<path d="M141.204 34.2057C141.372 32.7806 141.639 31.3688 142.001 29.9801C142.022 29.9058 142.04 29.8337 142.061 29.7617C142.082 29.6896 142.101 29.6176 142.122 29.5478C142.143 29.4781 142.143 29.4781 142.154 29.4432C142.166 29.4084 142.175 29.3735 142.184 29.341C142.205 29.2712 142.226 29.2038 142.25 29.1364C142.333 28.8691 142.422 28.6135 142.512 28.3717L142.582 28.1904L142.617 28.1044C142.617 28.0882 142.617 28.0742 142.635 28.0603L142.652 28.0161C142.698 27.9022 142.747 27.7837 142.793 27.6791C142.891 27.4606 142.989 27.2538 143.091 27.0585C143.902 25.4896 144.864 24.6203 145.987 24.1531C151.333 21.966 162.16 22.21 173.646 23.2397C185.133 24.2694 197.266 26.2148 204.015 27.7279C204.227 27.7767 204.436 27.8255 204.641 27.8767L204.947 27.9534L205.245 28.0324C205.642 28.1393 206.024 28.2509 206.391 28.3671C207.125 28.6011 207.807 28.8544 208.436 29.1271C209.573 29.6062 210.653 30.2096 211.658 30.9261C213.179 31.9971 214.425 33.4123 215.295 35.0564C216.725 37.8014 216.429 40.1885 216.427 40.1861C216.425 40.1838 215.846 46.4036 214.649 53.3556C214.063 56.842 213.352 60.4865 212.646 63.6546C212.292 65.2374 211.948 66.6994 211.611 67.9615C211.569 68.1195 211.53 68.2729 211.488 68.4263C211.467 68.503 211.446 68.5774 211.428 68.6588C211.409 68.7401 211.386 68.8052 211.367 68.8772C211.287 69.1655 211.209 69.4397 211.135 69.7C211.058 69.9604 210.981 70.2044 210.902 70.4322C210.823 70.66 210.758 70.8738 210.688 71.0691C208.446 77.2889 207.981 79.5806 200.868 79.4133C190.105 79.1576 163.245 75.4294 153.011 73.3701C151.723 73.1237 150.568 72.8588 149.525 72.5752L149.139 72.4683L148.767 72.359C148.521 72.2847 148.281 72.2103 148.051 72.1266C147.586 71.9717 147.15 71.8167 146.742 71.6617C145.115 71.0109 143.879 70.2672 142.963 69.4397C141.132 67.7616 140.53 65.6697 140.444 62.8643C140.088 52.6513 140.274 40.7788 141.204 34.2057Z" fill="#9B5D95"/>
<path d="M142.884 34.9584C143.043 33.6005 143.297 32.2553 143.644 30.9327C143.681 30.7909 143.72 30.6561 143.76 30.5213L143.788 30.4214C143.788 30.3888 143.809 30.3563 143.818 30.3238C143.839 30.2564 143.858 30.1936 143.879 30.1285C143.96 29.8728 144.044 29.6311 144.132 29.3987C144.153 29.3429 144.174 29.2848 144.197 29.229L144.23 29.1453L144.246 29.1035L144.262 29.0617C144.309 28.9524 144.353 28.8455 144.399 28.7409C144.49 28.5317 144.585 28.3342 144.68 28.1482C145.454 26.6537 146.373 25.8239 147.442 25.3823C152.527 23.2904 162.861 23.5229 173.829 24.5316C184.798 25.5404 196.375 27.4974 202.837 29.0454C203.041 29.0942 203.241 29.143 203.436 29.1942L203.729 29.2732L204.017 29.3522C204.396 29.4591 204.763 29.5707 205.114 29.6892C205.812 29.9216 206.477 30.175 207.085 30.4423C208.182 30.9161 209.225 31.5043 210.198 32.1971C211.669 33.2275 212.886 34.5786 213.759 36.1484C215.174 38.747 214.921 40.9737 214.921 40.9714C214.921 40.969 214.456 46.7821 213.294 53.3227C212.731 56.5953 212.032 60.0469 211.327 63.0475C210.976 64.5467 210.63 65.9343 210.293 67.129C210.251 67.2801 210.212 67.4265 210.17 67.5706C210.149 67.6427 210.13 67.7124 210.109 67.7821C210.088 67.8518 210.068 67.9216 210.049 67.9913C209.968 68.2656 209.891 68.5259 209.817 68.7723C209.74 69.0186 209.663 69.2511 209.584 69.4696C209.505 69.688 209.438 69.8879 209.368 70.0715C207.134 75.9846 206.644 78.174 199.838 78.0183C189.511 77.7859 163.877 74.2251 154.14 72.2564C152.915 72.0239 151.816 71.7706 150.824 71.501C150.577 71.4336 150.335 71.3639 150.103 71.2941C149.871 71.2244 149.638 71.1523 149.422 71.0803C148.98 70.9362 148.567 70.7851 148.176 70.6317C146.617 70.0111 145.45 69.3138 144.578 68.5143C142.835 66.9152 142.254 64.9209 142.182 62.2387C141.824 52.5324 141.998 41.2201 142.884 34.9584Z" fill="#CC69CC"/>
<path d="M175.424 64.6656C177.749 64.8655 179.896 63.1014 181.003 60.4052C181.336 59.5853 181.562 58.726 181.677 57.8485C181.677 57.781 181.695 57.7136 181.705 57.6462C181.703 57.5479 181.681 57.451 181.641 57.3612C181.601 57.2714 181.544 57.1904 181.472 57.1233C181.426 57.0907 181.375 57.0535 181.323 57.021C180.752 56.6469 180.134 56.3492 179.485 56.1354C177.366 55.4385 175.114 55.2435 172.907 55.566C172.232 55.6653 171.572 55.852 170.945 56.1215L170.78 56.1959C170.697 56.2494 170.626 56.3193 170.57 56.4011C170.515 56.483 170.476 56.5753 170.457 56.6724C170.457 56.7398 170.457 56.8072 170.457 56.8746C170.421 57.7626 170.499 58.6516 170.69 59.5196C171.289 62.3553 173.112 64.4657 175.424 64.6656Z" fill="white"/>
<path d="M152.227 48.0797C152.227 48.0797 150.54 47.8286 149.768 46.72C149.736 46.6734 149.689 46.6388 149.635 46.6217C149.582 46.6045 149.523 46.6057 149.47 46.6251C149.417 46.6445 149.372 46.681 149.342 46.7289C149.311 46.7768 149.298 46.8333 149.303 46.8896C149.361 47.5176 149.577 48.1206 149.931 48.6421C150.942 50.1646 152.069 50.5016 152.069 50.5016" fill="#34383F"/>
<path d="M200.647 53.207C200.647 53.207 202.344 53.3837 203.367 52.5098C203.41 52.4735 203.463 52.4524 203.519 52.4495C203.575 52.4467 203.63 52.4623 203.677 52.494C203.723 52.5257 203.757 52.5717 203.775 52.625C203.792 52.6782 203.792 52.7357 203.774 52.7887C203.562 53.3824 203.202 53.912 202.728 54.3273C201.37 55.5523 200.194 55.5871 200.194 55.5871" fill="#34383F"/>
<path d="M165.009 49.6764C165.095 49.9863 165.097 50.3136 165.016 50.6247C164.934 50.9359 164.771 51.2198 164.544 51.4475C163.677 52.2819 162.424 51.7636 161.099 50.5735C160.575 50.0988 159.958 49.7358 159.289 49.5067C158.836 49.3581 158.357 49.3034 157.883 49.3462C157.408 49.389 156.947 49.5282 156.528 49.7554C156.028 50.0243 155.544 50.3223 155.079 50.6479C154.503 51.0737 153.802 51.2982 153.085 51.2871C152.774 51.2711 152.472 51.1794 152.204 51.02C151.936 50.8607 151.712 50.6384 151.549 50.3726C151.387 50.1068 151.292 49.8053 151.272 49.4945C151.253 49.1836 151.31 48.8727 151.437 48.5886C152.038 47.2149 153.052 46.0627 154.338 45.2925C155.624 44.5223 157.118 44.1724 158.613 44.2916C160.107 44.4108 161.527 44.9932 162.675 45.9575C163.822 46.9219 164.641 48.2202 165.016 49.6717L165.009 49.6764Z" fill="white"/>
<path d="M188.478 52.7699C188.348 53.0413 188.292 53.3422 188.315 53.6422C188.339 53.9422 188.441 54.2306 188.612 54.4783C189.27 55.3894 190.511 55.1221 191.929 54.2458C192.496 53.8952 193.129 53.6635 193.789 53.5648C194.231 53.5044 194.681 53.5351 195.111 53.655C195.541 53.775 195.942 53.9815 196.289 54.2621C196.704 54.5937 197.099 54.9491 197.473 55.3266C197.75 55.6115 198.074 55.8473 198.43 56.0239C198.766 56.18 199.141 56.2358 199.508 56.1845C199.875 56.1333 200.219 55.9772 200.5 55.7351C200.781 55.4929 200.986 55.1749 201.09 54.8193C201.195 54.4636 201.194 54.0853 201.089 53.7299C200.708 52.4082 199.933 51.2346 198.866 50.3667C197.799 49.4987 196.492 48.9779 195.12 48.8742C193.749 48.7705 192.379 49.0888 191.193 49.7864C190.008 50.484 189.064 51.5275 188.489 52.7769L188.478 52.7699Z" fill="white"/>
<path d="M184.027 92.2712C184.027 92.3037 184.027 92.3339 184.027 92.3641C184.013 92.4873 183.994 92.6105 183.976 92.7314C181.456 92.1201 178.699 91.2833 175.859 90.3164L176.401 89.0009L176.489 88.7847L177.765 85.7004C177.813 85.5836 177.824 85.4546 177.796 85.3314C177.767 85.2082 177.701 85.0969 177.606 85.0132C177.512 84.9295 177.393 84.8774 177.267 84.8644C177.142 84.8513 177.015 84.8778 176.905 84.9403L173.625 86.7998L173.107 87.0949L170.897 88.357L170.727 88.4546C168.593 87.6504 166.464 86.7998 164.398 85.9467C164.421 85.8979 164.451 85.8491 164.479 85.8026C164.699 85.4267 164.942 85.0649 165.207 84.7195C165.237 84.6847 165.263 84.6451 165.295 84.6079L165.414 84.4592C165.672 84.145 165.948 83.8462 166.241 83.5643C167.138 82.701 168.181 82.0031 169.321 81.5027C171.387 81.7351 173.477 81.9815 175.552 82.2C176.975 82.3557 178.395 82.5045 179.799 82.6509C181.287 83.7416 182.461 85.2051 183.203 86.894C183.945 88.5829 184.229 90.4375 184.027 92.2712Z" fill="#9B5D95"/>
<path d="M108.717 85.0962C108.361 86.1398 107.582 87.2555 106.12 88.3502C104.649 89.4456 102.955 90.2041 101.158 90.5722C96.5955 91.5368 84.7672 93.5194 73.7593 90.9743C71.3072 90.4072 69.22 89.8982 67.4465 89.4473C67.4465 89.4473 99.9727 93.2405 108.717 85.0962Z" fill="#BED4E4"/>
<defs>
<linearGradient id="paint0_linear_450_3857" x1="-22.1414" y1="46.234" x2="192.97" y2="62.9248" gradientUnits="userSpaceOnUse">
<stop stop-color="#50B0D1"/>
<stop offset="1" stop-color="#50C3D1"/>
</linearGradient>
</defs>
</svg>