<svg width="149" height="117" viewBox="0 0 149 117" fill="none" xmlns="http://www.w3.org/2000/svg">
<path d="M8.73803 0H79.1618C79.5989 0 80.0318 0.0861027 80.4357 0.253393C80.8395 0.420683 81.2065 0.665886 81.5156 0.974998C81.8247 1.28411 82.0699 1.65108 82.2372 2.05495C82.4045 2.45883 82.4906 2.8917 82.4906 3.32885V49.0075C82.4906 50.7857 81.7842 52.491 80.5269 53.7484C79.2695 55.0057 77.5642 55.7121 75.786 55.7121H5.40918V3.32885C5.40918 2.8917 5.49528 2.45883 5.66257 2.05495C5.82986 1.65108 6.07507 1.28411 6.38418 0.974998C6.69329 0.665886 7.06026 0.420683 7.46413 0.253393C7.86801 0.0861027 8.30088 0 8.73803 0Z" fill="#50B0D1"/>
<path d="M43.9575 55.7104V104.825" stroke="white" stroke-width="2.179" stroke-miterlimit="10" stroke-linecap="round"/>
<path d="M70.7926 54.7048H2.27637" stroke="white" stroke-width="4.52563" stroke-miterlimit="10" stroke-linecap="round"/>
<path d="M64.0462 19.2842L65.4223 13.3674C65.4477 13.2581 65.4449 13.1441 65.414 13.0362C65.3832 12.9284 65.3254 12.8301 65.246 12.7508C65.1667 12.6715 65.0685 12.6137 64.9606 12.5828C64.8527 12.552 64.7388 12.5491 64.6295 12.5745L58.7126 13.9507C58.6431 13.9664 58.5791 14.0006 58.5273 14.0496C58.4755 14.0986 58.4378 14.1607 58.4183 14.2292C58.3987 14.2978 58.398 14.3704 58.4162 14.4393C58.4344 14.5083 58.4708 14.5711 58.5216 14.6211L63.3824 19.482C63.4331 19.531 63.4959 19.5657 63.5644 19.5824C63.6329 19.5992 63.7046 19.5974 63.7722 19.5773C63.8397 19.5571 63.9007 19.5194 63.9489 19.4679C63.997 19.4164 64.0306 19.353 64.0462 19.2842Z" fill="white"/>
<path d="M41.5754 60.1658L28.8366 36.5957C28.6913 36.3205 28.659 35.9995 28.7466 35.7008C28.8343 35.4022 29.0349 35.1496 29.306 34.9966C29.4445 34.919 29.5971 34.8697 29.7549 34.8517C29.9127 34.8337 30.0726 34.8473 30.225 34.8918C30.3775 34.9363 30.5196 35.0107 30.6429 35.1107C30.7663 35.2107 30.8685 35.3343 30.9436 35.4743L43.9556 59.207" fill="#4C7BA2"/>
<path d="M107.056 16.0025C102.844 12.9233 99.1163 10.0253 95.8159 8.1815C98.0452 3.5067 103.459 0.471177 109.79 1.04945C116.309 1.64616 124.373 8.14798 126.419 17.2378" fill="#50B0D1"/>
<path d="M132.978 101.04C129.916 102.247 129.773 99.8453 129.889 98.5865C129.904 98.4223 129.854 98.2589 129.75 98.1309C129.646 98.0029 129.496 97.9204 129.333 97.901C128.091 97.7334 128.121 96.3321 128.223 95.5996C128.266 95.2807 128.207 94.9565 128.055 94.6727C126.104 90.9768 122.925 88.01 120.848 86.3322C120.394 85.9634 119.991 85.6617 119.675 85.4186C119.598 85.3596 119.506 85.3238 119.41 85.3155C119.314 85.3071 119.218 85.3267 119.132 85.3718C119.047 85.4168 118.976 85.4855 118.929 85.5696C118.881 85.6537 118.859 85.7497 118.865 85.8461C118.922 87.7921 118.892 89.5554 118.806 91.1226C118.603 94.9325 118.087 97.5993 117.752 99.0006C117.602 99.7195 117.605 100.462 117.762 101.18C118.567 105.583 118.288 111.255 118.042 113.022C118.023 113.168 118.053 113.318 118.126 113.446C118.199 113.575 118.312 113.677 118.448 113.736C118.942 113.968 119.395 114.279 119.789 114.658C119.887 114.751 119.958 114.87 119.992 115.002C120.027 115.133 120.025 115.272 119.986 115.402C119.947 115.532 119.873 115.649 119.771 115.739C119.67 115.83 119.545 115.891 119.411 115.915C116.631 116.418 113.297 116.233 111.614 116.082C111.296 116.056 110.996 115.926 110.761 115.71C110.526 115.495 110.369 115.208 110.315 114.894C109.604 110.757 109.502 104.024 109.49 101.297C109.489 101.16 109.459 101.025 109.401 100.901C109.344 100.777 109.261 100.667 109.157 100.578C109.053 100.489 108.932 100.423 108.8 100.385C108.669 100.347 108.531 100.337 108.396 100.357C106.552 100.615 103.885 100.603 102.719 100.583C102.547 100.58 102.378 100.629 102.234 100.723C102.09 100.817 101.978 100.952 101.912 101.111L96.4497 114.368C96.3112 114.702 96.0833 114.992 95.791 115.206L95.3921 115.499C94.8739 115.881 94.2473 116.087 93.6036 116.087H86.1481C86.0088 116.088 85.872 116.05 85.7525 115.979C85.633 115.907 85.5352 115.804 85.4697 115.682C85.4042 115.559 85.3734 115.42 85.3807 115.281C85.388 115.142 85.4331 115.008 85.5111 114.892C86.0224 114.145 86.8001 113.528 87.4856 113.082C88.4083 112.484 89.0563 111.545 89.2875 110.471C90.0358 106.969 91.0862 103.538 92.427 100.217C91.7146 95.1052 91.557 88.0804 91.7112 85.4069C91.7264 85.1375 91.6342 84.873 91.4548 84.6713C91.2754 84.4697 91.0235 84.3472 90.7541 84.3308C73.9205 83.2983 51.4985 75.7975 49.0178 74.6544C48.8502 74.5789 48.6826 74.5018 48.4982 74.4197C48.0926 74.2404 47.6417 74.0409 47.1573 73.8096C44.4956 72.529 41.0376 70.2897 40.3169 64.9863C39.6213 59.8673 42.9418 59.2019 44.5341 59.1717C44.8052 59.1638 45.0764 59.1772 45.3454 59.2119C46.2539 56.3625 49.9632 59.2119 53.5954 62.4117C57.2276 65.6115 71.071 71.4093 71.071 71.4093L72.717 71.8368L90.9335 76.5518L95.7357 77.0278L117.623 77.5893L122.288 79.9594C122.764 80.2004 123.214 80.4915 123.629 80.8277C124.411 81.4663 125.841 82.653 127.512 84.128C129.5 85.8846 131.828 88.0485 133.806 90.1773C138.298 95.0214 137.05 99.4347 132.978 101.04Z" fill="white"/>
<path d="M127.505 84.128C125.179 84.4658 122.929 85.2096 120.86 86.3255C120.405 85.9567 120.003 85.655 119.686 85.412C119.61 85.3529 119.518 85.3171 119.422 85.3088C119.326 85.3005 119.229 85.32 119.144 85.3651C119.058 85.4102 118.988 85.4788 118.94 85.563C118.893 85.6471 118.871 85.743 118.877 85.8394C118.934 87.7854 118.903 89.5487 118.818 91.1159C91.2871 88.2514 72.7236 71.8301 72.7236 71.8301L90.9334 76.5518L95.7356 77.0278L117.623 77.5894L122.288 79.9594C122.764 80.2005 123.214 80.4915 123.629 80.8277C124.405 81.4663 125.834 82.653 127.505 84.128Z" fill="#BED4E4"/>
<path d="M49.1282 73.984L52.8308 80.5596C52.9093 80.6988 53.0146 80.821 53.1407 80.9193C53.2668 81.0175 53.411 81.0897 53.5652 81.1318C53.7194 81.1739 53.8804 81.185 54.0389 81.1645C54.1973 81.1439 54.3502 81.0921 54.4885 81.0121C54.7612 80.8546 54.9614 80.5968 55.0466 80.2936C55.1318 79.9905 55.0951 79.6661 54.9444 79.3896L51.0306 72.1821" fill="#4C7BA2"/>
<path d="M49.6514 74.9126C49.2458 74.7332 47.64 74.0359 47.1657 73.8046C54.4285 66.8301 44.5425 59.1668 44.5425 59.1668C44.8135 59.1588 45.0848 59.1723 45.3537 59.207C45.3537 59.207 50.1224 61.2184 52.1656 66.1161C54.2089 71.0138 49.6514 74.9126 49.6514 74.9126Z" fill="#BED4E4"/>
<path d="M116.351 17.6785L114.639 17.5109C114.639 17.5109 110.387 17.0181 103.136 16.594C98.4542 16.3225 92.7603 17.0181 85.9115 16.9544C84.6326 16.9426 83.3973 17.2896 82.2726 17.4153C81.5669 16.6074 77.6547 10.8314 79.7935 6.58735C81.3272 3.54177 90.4019 0.730854 104.207 9.12505C107.78 11.2906 111.811 14.1016 116.351 17.6785Z" fill="#4C7BA2"/>
<path d="M148.659 34.9177C148.307 42.6968 147.262 56.0272 145.72 68.4576C145.296 71.8753 144.346 74.3761 142.078 76.0825C140.94 76.9356 139.472 77.591 137.571 78.0587C137.095 78.1777 136.592 78.2816 136.062 78.3754C135.798 78.4241 135.524 78.4676 135.244 78.5112C134.965 78.5548 134.676 78.59 134.383 78.6252C133.21 78.7693 131.906 78.8682 130.472 78.9235C128.81 78.9906 126.776 79.0627 124.484 79.1314C120.566 79.2521 115.888 79.3627 110.975 79.4331L109.985 79.4465C108.736 79.4633 107.471 79.4767 106.208 79.4867C104.365 79.5018 102.504 79.5085 100.667 79.5085C95.6636 79.5085 90.7894 79.4331 86.5873 79.2588C83.4026 79.128 80.595 78.937 78.4026 78.6704C78.0037 78.6202 77.6248 78.5682 77.2628 78.5028L76.9091 78.4408C76.6745 78.4006 76.4499 78.357 76.2387 78.3084C76.0275 78.2598 75.8179 78.2145 75.6202 78.1609C70.6386 76.8518 70.2162 73.8163 68.711 67.1955C68.6557 66.9558 68.6021 66.6926 68.5434 66.4144C68.4848 66.1361 68.4345 65.8311 68.3758 65.5143C68.2669 64.8773 68.1579 64.1734 68.0406 63.404C67.8244 61.8703 67.6132 60.0986 67.4137 58.1912C67.3936 57.9917 67.3751 57.7872 67.3534 57.5827C66.9863 53.917 66.6829 49.7936 66.5153 45.8915C66.1096 37.6465 66.3979 30.3887 66.4013 30.3887C66.4013 30.3552 66.4382 27.5795 68.4361 24.5758C69.6411 22.7818 71.2328 21.2806 73.0942 20.1826C74.2876 19.4686 75.5556 18.8874 76.8756 18.4495C77.6464 18.1945 78.4296 17.9785 79.2222 17.8025C79.6396 17.7103 80.072 17.6248 80.5162 17.5477C80.9604 17.4706 81.423 17.4019 81.8974 17.3415C82.3248 17.2879 82.7673 17.2343 83.2383 17.184C84.6245 17.0281 86.1632 16.8839 87.8243 16.7515C90.4491 16.547 93.379 16.3761 96.4967 16.2587C100.278 16.1129 104.339 16.0459 108.468 16.0911C110.814 16.1112 113.161 16.1665 115.508 16.2587C116.199 16.2855 116.891 16.3174 117.583 16.3543C120.265 16.49 122.918 16.6794 125.461 16.9325C134.302 17.8092 141.944 19.4384 145.789 22.1689C146.895 22.95 147.697 24.192 148.179 26.2134C148.24 26.4648 148.295 26.7297 148.347 27.0079C148.372 27.1454 148.397 27.2878 148.421 27.4353C148.444 27.5828 148.464 27.7287 148.484 27.8779C148.563 28.4863 148.624 29.1467 148.662 29.8658C148.745 31.5488 148.744 33.2348 148.659 34.9177Z" fill="white"/>
<path d="M143.771 36.7582C143.782 35.37 143.696 33.9827 143.515 32.6064C143.504 32.5326 143.494 32.4605 143.483 32.3885C143.471 32.3164 143.461 32.246 143.449 32.1773C143.449 32.1421 143.437 32.1069 143.432 32.0733C143.427 32.0398 143.421 32.0029 143.414 31.9694L143.379 31.7666C143.328 31.5001 143.275 31.2436 143.211 31.0006C143.196 30.9386 143.181 30.8782 143.168 30.8196C143.168 30.7894 143.151 30.7609 143.144 30.7307C143.137 30.7006 143.144 30.7022 143.132 30.6872C143.121 30.6721 143.124 30.657 143.121 30.6436C143.09 30.5263 143.057 30.4139 143.025 30.3084C142.958 30.0854 142.889 29.8759 142.816 29.6748C142.224 28.0724 141.404 27.122 140.383 26.5403C135.523 23.7982 125.097 22.7304 113.94 22.3365C102.784 21.9427 90.915 22.3533 84.2557 22.9936C84.0467 23.0137 83.8405 23.0355 83.6372 23.059L83.3354 23.0975L83.0388 23.1361C82.6449 23.1914 82.2661 23.2534 81.899 23.3221C81.1648 23.4579 80.4826 23.6205 79.844 23.8049C78.6954 24.1281 77.5863 24.5778 76.537 25.1458C74.9492 25.9895 73.5826 27.1954 72.5477 28.6657C70.8464 31.1297 70.843 33.4562 70.8464 33.4545C70.8498 33.4528 70.657 39.4887 70.9688 46.3073C71.1129 49.7132 71.3576 53.3069 71.6543 56.4313C71.8018 57.9934 71.9627 59.4383 72.1287 60.6887C72.1488 60.8446 72.1706 60.9988 72.1907 61.148C72.2024 61.2234 72.2125 61.2971 72.2225 61.3709C72.2326 61.4446 72.2443 61.5167 72.2544 61.5888C72.2963 61.8754 72.3399 62.1486 72.3818 62.4068C72.4237 62.6649 72.4689 62.9096 72.5125 63.1376C72.5561 63.3655 72.5997 63.5784 72.6432 63.7728C74.0479 70.0115 74.2171 72.2659 81.0626 72.9632C91.4229 74.0091 117.651 73.6605 127.72 72.9062C128.986 72.8258 130.127 72.7101 131.158 72.571L131.54 72.514C131.666 72.4956 131.79 72.4754 131.91 72.4537C132.155 72.4134 132.393 72.3698 132.625 72.3246C133.087 72.2341 133.525 72.1369 133.937 72.0296C135.586 71.6022 136.852 71.0457 137.831 70.3534C139.79 68.9605 140.62 67.0263 141.039 64.3461C142.624 54.5942 143.873 43.1762 143.771 36.7582Z" fill="#4C7BA2"/>
<path d="M142.078 37.2776C142.086 35.955 142.004 34.6333 141.832 33.3219C141.813 33.1828 141.791 33.047 141.77 32.9146L141.743 32.8207C141.743 32.7889 141.731 32.7554 141.726 32.7235C141.714 32.6581 141.702 32.5928 141.691 32.5307C141.642 32.276 141.592 32.0279 141.537 31.7999C141.521 31.7413 141.508 31.6843 141.493 31.6323L141.473 31.5485L141.461 31.5066C141.458 31.4924 141.454 31.4784 141.449 31.4647C141.421 31.3541 141.391 31.2451 141.359 31.1395C141.295 30.9283 141.228 30.7289 141.159 30.5378C140.596 29.0108 139.818 28.1057 138.843 27.5509C134.21 24.9394 124.26 23.9153 113.62 23.5633C102.98 23.2113 91.634 23.7007 85.2378 24.4014C85.0366 24.4232 84.8388 24.4483 84.6444 24.4735L84.3544 24.512L84.0695 24.5539C83.6929 24.6131 83.3275 24.6768 82.9733 24.745C82.2676 24.8841 81.6089 25.0484 80.9937 25.2311C79.8846 25.5543 78.8126 25.9937 77.7956 26.5418C76.2614 27.3504 74.9306 28.4966 73.9036 29.8941C72.2274 32.2173 72.2073 34.3846 72.2107 34.3846C72.214 34.3846 71.9676 40.0131 72.2878 46.4328C72.4353 49.641 72.6934 53.0385 73.0085 56.002C73.1644 57.4837 73.3337 58.8514 73.5114 60.0449C73.5332 60.194 73.5566 60.3382 73.5784 60.4807C73.5885 60.5527 73.6002 60.6231 73.6103 60.6935C73.6203 60.7639 73.6321 60.8327 73.6438 60.8997C73.6874 61.1729 73.7326 61.4327 73.7762 61.6791C73.8198 61.9255 73.8651 62.1568 73.9103 62.3747C73.9556 62.5926 73.9991 62.7938 74.0444 62.9781C75.4758 68.9235 75.6837 71.0824 82.2408 71.7511C92.1804 72.7568 117.21 72.435 126.791 71.7159C127.995 71.6388 129.083 71.5299 130.065 71.3891C130.311 71.3539 130.549 71.317 130.782 71.2768C131.015 71.2366 131.242 71.1963 131.453 71.1544C131.894 71.0673 132.31 70.9734 132.702 70.8728C134.274 70.4655 135.477 69.9359 136.411 69.2738C138.275 67.9479 139.064 66.1042 139.461 63.5514C140.973 54.2755 142.165 43.3939 142.078 37.2776Z" fill="#50B0D1"/>
<path d="M108.604 89.3895L107.47 90.2276L106.979 90.5846L103.203 93.3302C103.123 93.3881 103.028 93.4202 102.93 93.422C102.831 93.4239 102.735 93.3954 102.653 93.3405C102.571 93.2856 102.509 93.2069 102.473 93.1151C102.438 93.0233 102.432 92.9228 102.455 92.8273L103.436 89.0409L103.565 88.538L103.967 88.3939L104.007 88.3805L104.318 88.2682L106.086 87.6312L106.186 87.5944L106.394 87.5173H101.314C101.213 87.5195 101.115 87.4894 101.033 87.4315C100.951 87.3735 100.89 87.2908 100.858 87.1954C99.2768 86.6658 97.7526 86.1071 96.2854 85.5193C96.2318 85.7607 96.1865 86.007 96.153 86.2551C96.0923 86.6809 96.062 87.1106 96.0625 87.5407C96.063 89.7493 96.8487 91.8857 98.2791 93.5683C99.7096 95.251 101.692 96.3703 103.871 96.7263C106.051 97.0823 108.286 96.6518 110.178 95.5117C112.069 94.3715 113.494 92.5961 114.197 90.5025C112.282 90.1896 110.417 89.8186 108.604 89.3895Z" fill="#50B0D1"/>
<path d="M114.681 87.5389C114.681 87.9403 114.655 88.3412 114.602 88.739C114.602 88.7575 114.602 88.7759 114.594 88.7944C114.547 89.1641 114.475 89.5303 114.379 89.8906C114.326 90.0967 114.265 90.2996 114.197 90.5007C112.281 90.1889 110.417 89.8185 108.603 89.3894L108.815 89.2352L109.259 88.9117L109.663 88.6184C109.786 88.5298 109.871 88.3981 109.901 88.2496C109.914 88.1885 109.917 88.1257 109.911 88.0636C109.896 87.9117 109.825 87.7707 109.712 87.6684C109.599 87.5661 109.452 87.5097 109.299 87.5104H107.046L107.301 86.5986L107.636 85.37L108.493 82.3345C108.525 82.2261 108.522 82.1104 108.484 82.0039C108.447 81.8973 108.377 81.8053 108.284 81.741C108.191 81.6768 108.08 81.6434 107.967 81.6459C107.854 81.6483 107.745 81.6863 107.655 81.7545L104.973 83.734L102.737 85.3834L102.162 85.8091L101.491 86.2969L101.18 86.5383L101.034 86.6455C101.009 86.6635 100.986 86.6843 100.965 86.7075C100.906 86.7708 100.865 86.8491 100.847 86.934C100.83 87.0188 100.836 87.1069 100.865 87.1886C99.2834 86.6589 97.7592 86.1002 96.292 85.5124C96.3222 85.375 96.354 85.2392 96.3909 85.1051C96.416 85.0096 96.4428 84.9174 96.4713 84.8252C97.1514 82.5886 98.647 80.6891 100.662 79.5034C102.505 79.5034 104.349 79.5034 106.203 79.4816C107.469 79.4716 108.731 79.4582 109.979 79.4414C111.409 80.2552 112.597 81.4333 113.423 82.8558C114.249 84.2782 114.683 85.8941 114.681 87.5389Z" fill="#4C7BA2"/>
<path d="M96.448 50.3132C96.396 46.8704 95.8848 40.7306 93.0337 38.1644C92.7568 37.9157 92.4306 37.7281 92.0764 37.6138C91.7222 37.4996 91.348 37.4612 90.9779 37.5012C90.6079 37.5412 90.2505 37.6587 89.9289 37.846C89.6073 38.0334 89.3288 38.2863 89.1115 38.5885C87.3398 41.029 85.972 46.1597 85.8295 50.0283C85.8007 50.7453 85.9571 51.4578 86.2835 52.0969C86.61 52.736 87.0956 53.2803 87.6934 53.6773C89.083 54.5908 91.2134 55.345 93.8785 54.2673C94.6541 53.9422 95.3139 53.3912 95.7722 52.686C96.2305 51.9808 96.466 51.154 96.448 50.3132Z" fill="white"/>
<path d="M101.86 59.7634C102.999 60.9141 104.544 61.5721 106.163 61.5963C107.782 61.6204 109.346 61.0087 110.519 59.8925L110.687 59.7249C112.098 58.384 110.809 56.0373 108.92 56.515L108.389 56.6475C106.968 57.0045 105.576 56.9039 104.054 56.6793L103.64 56.5804C101.79 56.1496 100.521 58.4108 101.86 59.7634Z" fill="white"/>
<path d="M116.04 50.7794C116.059 47.4388 116.496 40.89 119.468 38.2233C119.745 37.9742 120.071 37.7862 120.425 37.6718C120.78 37.5574 121.154 37.519 121.525 37.5592C121.895 37.5993 122.252 37.7172 122.574 37.905C122.895 38.0928 123.174 38.3463 123.39 38.649C125.217 41.1632 126.61 46.5554 126.674 50.4592C126.683 51.0373 126.556 51.6094 126.302 52.1288C126.048 52.6482 125.674 53.1001 125.212 53.4478C123.768 54.5356 121.272 55.6469 118.065 54.0797C117.452 53.7754 116.936 53.3045 116.578 52.7207C116.22 52.137 116.034 51.4642 116.04 50.7794Z" fill="white"/>
<path d="M53.9642 107.281L43.9508 93.8767L33.9358 107.281" stroke="white" stroke-width="2.179" stroke-miterlimit="10" stroke-linecap="round"/>
<path d="M6.19849 55.7106L17.7422 39.5893C17.8455 39.4453 17.9818 39.3283 18.1396 39.2479C18.2975 39.1675 18.4724 39.1262 18.6495 39.1273C18.8267 39.1285 19.0009 39.1721 19.1578 39.2545C19.3146 39.3369 19.4493 39.4558 19.5508 39.601L20.9219 41.5705C21.0203 41.7119 21.1505 41.8284 21.3019 41.9106C21.4534 41.9929 21.622 42.0386 21.7942 42.0441C21.9665 42.0497 22.1377 42.0149 22.2941 41.9425C22.4505 41.8702 22.5879 41.7623 22.6952 41.6275L34.5725 26.6963C34.6731 26.5696 34.8003 26.4665 34.945 26.3942C35.0898 26.322 35.2487 26.2824 35.4104 26.2783C35.5722 26.2741 35.7329 26.3055 35.8812 26.3702C36.0295 26.4349 36.1618 26.5313 36.2687 26.6527L44.6277 36.1364C44.7357 36.2591 44.8694 36.3563 45.0194 36.4211C45.1694 36.486 45.3319 36.5168 45.4952 36.5113C45.6585 36.5059 45.8186 36.4643 45.9639 36.3896C46.1092 36.3149 46.2362 36.209 46.3357 36.0794L61.6743 16.0745" stroke="white" stroke-width="2.179" stroke-miterlimit="10"/>
</svg>