<svg width="121" height="123" viewBox="0 0 121 123" fill="none" xmlns="http://www.w3.org/2000/svg">
<path d="M21.7369 114.165C18.7399 116.458 10.3904 113.952 10.3904 113.952C10.3904 113.952 4.67166 112.374 2.06201 110.884C-0.547629 109.395 0.749306 106.002 1.42932 102.936C1.81665 101.194 2.56151 99.2156 3.13286 97.831C3.36499 97.2542 3.758 96.7562 4.26509 96.3964C4.77219 96.0366 5.37201 95.8301 5.99313 95.8015C7.24603 95.7548 8.50066 95.7987 9.74723 95.9329C13.3191 96.3172 16.8281 97.1511 20.1911 98.4146C21.9174 99.0841 23.2757 99.7957 23.9925 100.448C24.2184 100.636 24.3948 100.877 24.506 101.149C25.1948 103.187 24.003 112.422 21.7369 114.165Z" fill="#50B0D1"/>
<path d="M24.2852 95.789C24.5727 97.3401 24.471 98.9383 23.989 100.44C23.2722 99.7885 21.9139 99.0769 20.1876 98.4074C20.416 97.0609 20.1236 95.6778 19.3697 94.5389C18.6158 93.4001 17.4569 92.5906 16.1281 92.2749C14.7993 91.9591 13.4001 92.1607 12.2145 92.8387C11.0288 93.5167 10.1455 94.6203 9.74375 95.9257C8.49719 95.7915 7.24255 95.7476 5.98965 95.7943C5.81285 95.803 5.63702 95.8258 5.46387 95.8626C5.85282 93.6542 7.00541 91.6526 8.72025 90.2077C10.4351 88.7628 12.6031 87.9664 14.8455 87.9576C17.0879 87.9488 19.2621 88.7283 20.9882 90.1597C22.7143 91.5912 23.8825 93.5837 24.2887 95.789H24.2852Z" fill="#4C7BA2"/>
<path d="M112.697 74.863C101.193 84.5917 86.7851 85.7467 79.3487 85.5907C77.4387 85.5456 75.5342 85.3664 73.6492 85.0544C73.7579 86.7229 73.8245 88.2617 73.8403 89.6708C73.9056 92.6129 73.8015 95.5563 73.5283 98.4865C73.3934 99.8167 73.7036 101.918 74.2294 103.154C75.8295 107.009 78.6915 113.494 79.4574 116.326C79.6835 117.161 79.8237 117.884 80.5405 118.366L83.5322 120.645C83.6984 120.757 83.8241 120.92 83.8908 121.109C83.9575 121.299 83.9618 121.504 83.9029 121.696C83.8441 121.888 83.7253 122.056 83.5639 122.175C83.4025 122.294 83.2071 122.359 83.0065 122.359L73.9279 121.986C73.2374 121.986 72.5258 121.698 72.1753 121.109C66.6563 112.187 65.9412 106.64 64.9738 104.109C64.896 103.906 64.7521 103.736 64.5654 103.625C64.3787 103.514 64.1601 103.47 63.945 103.499C60.5765 103.937 56.3877 103.39 55.3923 103.22C55.2796 103.201 55.1639 103.225 55.0687 103.288C54.9735 103.352 54.9061 103.449 54.8805 103.56C53.4451 109.74 51.9273 115.925 50.0818 118.873C49.8353 119.268 49.4922 119.593 49.085 119.818C48.6777 120.044 48.2198 120.162 47.7544 120.161L41.2697 119.811C40.7264 119.811 40.4705 119.332 40.8683 118.966L42.8733 116.994C43.5744 113.175 44.7293 106.303 45.5023 103.138C45.6687 102.456 45.5653 101.787 45.4795 101.091C44.8275 95.7787 44.491 89.1924 44.6487 86.0271C44.682 85.3489 44.349 84.7092 43.7146 84.4673C32.0755 79.9946 23.5595 84.9843 21.7456 87.3766C21.6151 87.5986 21.5472 87.8518 21.5493 88.1092C21.5493 88.2389 21.5493 88.3581 21.5493 88.479C21.5405 88.6964 21.5405 88.9137 21.5493 89.1293C21.5493 89.1976 21.558 89.2642 21.5633 89.3308C21.5948 90.6365 21.4827 91.6408 21.2005 92.4207C21.143 92.5832 21.075 92.7418 20.9972 92.8956C20.7978 93.2851 20.5218 93.6302 20.1857 93.9104C19.8323 94.1976 19.4345 94.4255 19.008 94.5852L18.8976 94.629C16.3195 95.6017 14.1655 94.7166 12.8598 94.0103C10.5709 92.7659 9.20384 89.1748 11.5734 84.3464C16.6227 74.3968 28.1461 73.6081 28.1461 73.6081C28.1461 73.6081 28.8331 73.2576 30.5227 72.9071C33.6774 72.2656 40.3268 71.6802 52.5478 73.6081L80.8945 73.5871H87.0077H87.0813L92.7177 69.8014L99.6318 65.171C99.6318 65.171 95.5885 62.5421 97.7529 59.4312C98.0318 59.0067 98.4215 58.6667 98.8799 58.448C101.037 57.4876 103.787 60.332 103.787 60.332C103.004 42.9146 117.193 45.3893 119.454 51.9581C119.931 53.3414 120.247 54.7752 120.395 56.2309C121.11 63.3185 118.131 70.2641 112.697 74.863Z" fill="white"/>
<path d="M82.7174 73.5958C81.4906 78.0299 78.5795 82.8741 76.8707 85.482C76.7223 85.4727 76.5786 85.4621 76.4395 85.4505C75.5038 85.367 74.5731 85.2348 73.6511 85.0544C73.7598 86.7229 73.8264 88.2617 73.8422 89.6708C43.3747 87.9339 33.4567 76.265 33.4567 76.265L30.5 72.914C33.6547 72.2725 40.3041 71.6872 52.5251 73.6151L81.8271 73.594L82.7174 73.5958Z" fill="#BED4E4"/>
<path d="M64.0818 88.698C64.0506 88.8534 63.9617 88.9912 63.8329 89.0836L63.4105 89.3903L62.9461 89.7303L61.544 90.7573L61.0305 91.1306L57.0783 94.0102C56.9952 94.0707 56.8954 94.1043 56.7926 94.1062C56.6897 94.1081 56.5888 94.0784 56.5034 94.021C56.418 93.9635 56.3524 93.8813 56.3154 93.7853C56.2785 93.6893 56.2719 93.5842 56.2967 93.4844L57.3149 89.5235L57.4516 88.9977L57.8705 88.8452L57.9126 88.833L60.0858 88.0408L60.1927 88.0022L60.4083 87.9233H55.1031C55.0058 87.9232 54.9105 87.8948 54.829 87.8416C54.7474 87.7884 54.6831 87.7126 54.6437 87.6236C54.6044 87.5345 54.5917 87.4359 54.6073 87.3398C54.6229 87.2437 54.6661 87.1542 54.7316 87.0821C54.753 87.0578 54.7771 87.0361 54.8034 87.0172L54.9559 86.9051C53.1437 86.4424 51.477 85.9481 49.9539 85.4224C49.848 85.8158 49.7672 86.2157 49.7121 86.6194C49.6485 87.0641 49.6169 87.5127 49.6174 87.9619C49.6185 90.3285 50.4818 92.6137 52.0457 94.39C53.6096 96.1662 55.7671 97.3119 58.1145 97.6126C60.462 97.9134 62.8386 97.3486 64.7998 96.0239C66.761 94.6993 68.1724 92.7055 68.77 90.4156C68.87 90.0389 68.9449 89.656 68.9944 89.2694C67.2838 89.1105 65.6463 88.92 64.0818 88.698Z" fill="#50B0D1"/>
<path d="M13.4136 109.593C13.4045 109.682 13.3763 109.768 13.3309 109.846C13.2855 109.923 13.2239 109.99 13.1504 110.041C13.0768 110.093 12.9931 110.127 12.9048 110.144C12.8166 110.16 12.7259 110.157 12.639 110.134L9.83477 109.412C9.74778 109.39 9.66664 109.349 9.5969 109.292C9.52716 109.236 9.47047 109.165 9.4307 109.084C9.39093 109.004 9.36902 108.916 9.36646 108.826C9.36391 108.736 9.38077 108.647 9.41589 108.564L10.5498 105.884C10.6051 105.757 10.6322 105.62 10.6292 105.481C10.6261 105.342 10.5931 105.206 10.5323 105.082C10.2656 104.547 10.2033 103.933 10.3571 103.355C10.5197 102.724 10.9264 102.184 11.4876 101.853C12.0489 101.521 12.7186 101.427 13.3496 101.59C13.9806 101.752 14.5212 102.159 14.8523 102.72C15.1834 103.281 15.2781 103.951 15.1154 104.582C14.9677 105.159 14.6143 105.662 14.1217 105.996C14.0075 106.077 13.9122 106.181 13.8426 106.302C13.7729 106.424 13.7306 106.558 13.7186 106.698L13.4136 109.593Z" fill="white"/>
<path d="M102.266 33.2455C101.94 40.8676 100.945 53.9263 99.4618 66.1105C99.0552 69.458 98.1316 71.9099 95.9058 73.5871C94.7929 74.4266 93.3557 75.0699 91.4945 75.5343C91.0283 75.6517 90.5358 75.7551 90.0187 75.848C89.7594 75.8971 89.493 75.9392 89.2161 75.983C88.9391 76.0268 88.6605 76.0601 88.373 76.0951C87.2181 76.2388 85.9474 76.3405 84.5418 76.3983C82.9136 76.4667 80.9227 76.542 78.6741 76.6139C74.8394 76.7418 70.2615 76.861 65.4418 76.9416C63.903 76.9662 62.3415 76.9872 60.7729 77.0047C54.0393 77.0731 47.1831 77.045 41.5467 76.8295C38.4253 76.7085 35.6754 76.528 33.5267 76.2721C33.1359 76.2248 32.7643 76.174 32.4103 76.1162L32.0598 76.0566C31.8302 76.0163 31.6111 75.9742 31.399 75.9269C31.187 75.8796 30.9872 75.8357 30.7944 75.7832H30.7856C25.9011 74.5125 25.4822 71.5383 23.9925 65.0554C23.9382 64.8206 23.8838 64.5664 23.8295 64.2913C23.7752 64.0161 23.7208 63.7217 23.6648 63.415C23.5579 62.791 23.4492 62.1005 23.3388 61.3486C23.125 59.8466 22.9129 58.1116 22.7148 56.2433C22.6938 56.047 22.6745 55.8489 22.6535 55.6474C22.2855 52.0563 21.9787 48.0182 21.7982 44.1958C21.3829 36.1197 21.6493 29.0076 21.6528 29.0076C21.6528 28.9743 21.6826 26.256 23.6332 23.3081C24.8107 21.5479 26.3678 20.074 28.19 18.9949C29.3657 18.291 30.6152 17.7186 31.9161 17.2879C32.6311 17.0495 33.3953 16.834 34.2137 16.6482C34.6221 16.5571 35.0462 16.4729 35.4826 16.3976C35.919 16.3222 36.3695 16.2521 36.8339 16.1925C37.2528 16.1382 37.6857 16.0839 38.1414 16.033C39.4996 15.8788 41.0069 15.7333 42.6351 15.6001C45.2044 15.3933 48.0682 15.2198 51.13 15.0971C54.8333 14.9464 58.8117 14.871 62.8567 14.8991C65.1491 14.9149 67.4608 14.9622 69.7603 15.0498C70.4391 15.0767 71.1168 15.1065 71.7933 15.1392C74.4222 15.2671 77.0196 15.4459 79.5188 15.6878C88.182 16.5273 95.6727 18.1064 99.4461 20.7703C100.531 21.5327 101.32 22.749 101.798 24.7277C101.858 24.9749 101.912 25.2343 101.959 25.5059C101.984 25.6409 102.01 25.7793 102.033 25.923C102.056 26.0667 102.075 26.2105 102.096 26.3577C102.175 26.9536 102.236 27.6003 102.271 28.3048C102.352 29.9508 102.35 31.5997 102.266 33.2455Z" fill="white"/>
<path d="M97.483 35.0576C97.4891 33.6978 97.4018 32.3393 97.2219 30.9915L97.1904 30.7794C97.1798 30.7093 97.1676 30.6392 97.1571 30.5709C97.1571 30.5376 97.1448 30.5025 97.1395 30.4692C97.1343 30.4359 97.129 30.4009 97.122 30.3676L97.0852 30.1695C97.0361 29.9084 96.9835 29.6577 96.9257 29.4194C96.9117 29.3598 96.8959 29.3002 96.8819 29.2441C96.8819 29.2143 96.8661 29.1863 96.8591 29.1565L96.8486 29.1144C96.8486 29.0987 96.8398 29.0846 96.8363 29.0706C96.8048 28.9567 96.7732 28.8463 96.7417 28.7376C96.6768 28.5203 96.6067 28.3152 96.5349 28.119C95.9513 26.5504 95.1468 25.6215 94.1461 25.0536C89.3754 22.3774 79.1612 21.3556 68.2301 20.9928C57.3026 20.6581 45.6722 21.0629 39.1508 21.7044L38.5444 21.771L38.2482 21.8078L37.9572 21.8481C37.5728 21.903 37.2013 21.9644 36.8426 22.0321C36.1193 22.1665 35.4487 22.3236 34.8306 22.5036C33.7062 22.8236 32.6206 23.2668 31.5935 23.825C30.04 24.6577 28.7047 25.8448 27.6957 27.29C26.0342 29.7086 26.0359 31.987 26.0394 31.9852C26.043 31.9835 25.8642 37.9003 26.1884 44.576C26.3374 47.906 26.5845 51.4322 26.8895 54.4923C27.0384 56.0223 27.1979 57.4384 27.3644 58.6635C27.3855 58.816 27.4047 58.9667 27.4258 59.1122L27.4573 59.3313L27.4889 59.5433C27.5309 59.8255 27.5747 60.0919 27.6168 60.346C27.6589 60.6002 27.7027 60.8385 27.7447 61.0611C27.7868 61.2837 27.8306 61.4922 27.8744 61.6833C29.2643 67.7929 29.436 70.0012 36.1433 70.6672C46.2962 71.6697 71.9895 71.2683 81.8532 70.5059C83.0923 70.4253 84.2105 70.3096 85.22 70.1554L85.5933 70.0993L85.9578 70.0397C86.1979 69.9977 86.4293 69.9556 86.6589 69.91C87.1111 69.8207 87.5352 69.7243 87.9436 69.6174C89.5577 69.195 90.7951 68.6482 91.7555 67.9646C93.6693 66.5976 94.479 64.6995 94.8839 62.0724C96.3982 52.5346 97.597 41.3459 97.483 35.0576Z" fill="#4C7BA2"/>
<path d="M95.8164 35.5711C95.8215 34.2759 95.7383 32.9818 95.5675 31.6979C95.5465 31.5611 95.5272 31.428 95.5044 31.2965L95.4886 31.2001L95.4729 31.1037C95.4606 31.0406 95.4501 30.9775 95.4378 30.9144C95.3911 30.6656 95.3402 30.4272 95.2853 30.1994L95.2433 30.0241L95.2222 29.9417L95.21 29.8997L95.1994 29.8594C95.1714 29.7507 95.1399 29.6455 95.1101 29.5421C95.047 29.3353 94.9821 29.139 94.912 28.9515C94.3565 27.4583 93.5906 26.5732 92.6336 26.0317C88.0891 23.4833 78.3463 22.5019 67.9218 22.1759C57.4972 21.8499 46.3821 22.3599 40.1183 23.0662L39.5364 23.1381L39.2525 23.1784L38.9738 23.2187C38.6046 23.2771 38.2471 23.3408 37.9012 23.4097C37.2084 23.5464 36.5622 23.7065 35.9628 23.89C34.876 24.2083 33.8261 24.6413 32.8309 25.1816C31.3295 25.9784 30.0285 27.1056 29.026 28.4783C27.3943 30.7567 27.375 32.8809 27.3785 32.8809C27.382 32.8809 27.1542 38.3963 27.4819 44.6847C27.6327 47.8272 27.892 51.1554 28.2075 54.0577C28.3652 55.5089 28.5335 56.8531 28.707 58.0169C28.7298 58.1623 28.7508 58.3043 28.7736 58.4445L28.8051 58.6513C28.8174 58.7197 28.8279 58.788 28.8384 58.8546C28.8823 59.121 28.9261 59.3804 28.9699 59.617C29.0137 59.8536 29.0593 60.085 29.1031 60.2988C29.1469 60.5126 29.1925 60.7089 29.2363 60.8912C30.6524 66.7098 30.861 68.8252 37.2861 69.4667C47.0253 70.4341 71.5462 70.0556 80.9262 69.33C82.1057 69.2529 83.1713 69.1425 84.1334 69.0023C84.3736 68.9672 84.6084 68.9304 84.8345 68.8918C85.0606 68.8533 85.2832 68.8112 85.4987 68.7692C85.9299 68.6827 86.3388 68.5898 86.7256 68.4905C88.2644 68.0891 89.4421 67.5669 90.3552 66.9131C92.1779 65.6092 92.9473 63.8022 93.3347 61.3048C94.7806 52.2227 95.925 41.5633 95.8164 35.5711Z" fill="#50B0D1"/>
<path d="M52.6758 48.6666C52.7442 45.1613 52.4392 38.8835 49.6245 36.1669C49.3514 35.9032 49.0258 35.7001 48.6689 35.5708C48.312 35.4415 47.9318 35.389 47.5532 35.4166C47.1746 35.4442 46.8061 35.5514 46.4717 35.7311C46.1374 35.9108 45.8447 36.1591 45.6128 36.4596C43.72 38.8852 42.1461 44.066 41.8657 48.0023C41.8115 48.7328 41.9467 49.4649 42.2583 50.1278C42.57 50.7907 43.0475 51.362 43.6446 51.7862C45.0274 52.7659 47.1726 53.6089 49.9242 52.6047C50.7253 52.3006 51.4163 51.7622 51.9071 51.0598C52.3979 50.3574 52.6658 49.5234 52.6758 48.6666Z" fill="white"/>
<path d="M71.8617 47.4415C71.9721 44.0362 72.5943 37.378 75.6929 34.7368C75.9819 34.4905 76.3195 34.3079 76.6838 34.201C77.0481 34.094 77.4309 34.065 77.8071 34.116C78.1833 34.1669 78.5446 34.2966 78.8674 34.4966C79.1901 34.6966 79.467 34.9624 79.6801 35.2766C81.4748 37.895 82.749 43.421 82.7086 47.4012C82.7018 47.9914 82.5553 48.5716 82.2812 49.0944C82.007 49.6171 81.613 50.0675 81.1313 50.4087C79.6293 51.4778 77.0565 52.5434 73.8299 50.8591C73.214 50.5317 72.7027 50.0376 72.3547 49.4331C72.0066 48.8287 71.8357 48.1385 71.8617 47.4415Z" fill="white"/>
<path d="M68.0971 5.08433C61.8613 7.31892 54.2812 11.3482 51.2457 15.0742C48.1891 15.1969 45.3201 15.3704 42.749 15.5772C42.7595 6.9719 49.2828 0 57.3325 0C61.5966 0.00876307 65.4296 1.96643 68.0971 5.08433Z" fill="#50B0D1"/>
<path d="M86.8552 6.88425C86.566 11.0239 79.6345 15.6684 79.6345 15.6684C77.1352 15.4265 74.5396 15.2477 71.9072 15.1198C71.2318 15.0871 70.5542 15.0573 69.8741 15.0304C67.5747 14.9428 65.2648 14.8955 62.9724 14.8797C58.9273 14.8516 54.9489 14.927 51.2456 15.0777C54.2811 11.3429 61.8612 7.31364 68.097 5.08782C70.9888 4.05028 73.7614 3.2949 75.9838 2.94087C83.1993 1.78239 87.1444 2.74633 86.8552 6.88425Z" fill="#4C7BA2"/>
<path d="M21.5284 89.1345C21.5284 89.2029 21.5371 89.2695 21.5424 89.3361C21.5739 90.6418 21.4618 91.646 21.1796 92.4259C20.9419 92.984 20.5971 93.4901 20.1648 93.9157C19.8114 94.2029 19.4136 94.4307 18.9871 94.5904C20.6853 92.7624 21.3023 90.5471 21.5284 89.1345Z" fill="#BED4E4"/>
<path d="M107.049 62.5946C107.021 62.6004 106.992 62.5961 106.967 62.5823C106.942 62.5686 106.923 62.5463 106.913 62.5196C106.903 62.4929 106.903 62.4634 106.913 62.4367C106.923 62.4099 106.942 62.3876 106.967 62.3737C107.99 61.7831 110.158 60.7561 111.842 61.4641C113.558 62.1862 113.485 64.6591 113.341 65.8457C113.337 65.8727 113.324 65.8976 113.304 65.9163C113.284 65.935 113.258 65.9464 113.231 65.9487C113.204 65.9509 113.177 65.9438 113.154 65.9286C113.131 65.9134 113.114 65.891 113.106 65.8649C112.743 64.5662 111.443 61.7919 107.049 62.5946Z" fill="#BED4E4"/>
<path d="M102.466 65.4427C101.369 67.793 97.5779 73.9394 87.3198 75.8515C87.3198 75.8515 96.9119 71.172 99.6302 65.1605C99.6302 65.1605 95.5869 62.5316 97.7514 59.4207C98.0302 58.9962 98.42 58.6562 98.8783 58.4375C98.8783 58.4375 98.6768 61.0612 102.126 63.9582C102.338 64.1336 102.487 64.3742 102.548 64.6427C102.61 64.9111 102.581 65.1924 102.466 65.4427Z" fill="#BED4E4"/>
<path d="M67.9113 59.1331V59.1629C67.9008 59.8418 67.6429 60.4935 67.186 60.9956C66.729 61.4977 66.1045 61.8158 65.4296 61.89C65.1895 61.9163 64.9476 61.9408 64.7075 61.9794C64.0995 62.0852 63.4843 62.1438 62.8673 62.1546C62.2402 62.147 61.6148 62.0884 60.9972 61.9794C60.7676 61.9391 60.5363 61.9163 60.3049 61.89C59.6301 61.8158 59.0055 61.4977 58.5486 60.9956C58.0916 60.4935 57.8337 59.8418 57.8232 59.1629V59.1331C57.8232 57.7954 58.3547 56.5124 59.3006 55.5665C60.2465 54.6205 61.5295 54.0891 62.8673 54.0891C64.205 54.0891 65.488 54.6205 66.4339 55.5665C67.3799 56.5124 67.9113 57.7954 67.9113 59.1331Z" fill="white"/>
<path d="M69.0801 87.9551C69.0803 88.3747 69.0528 88.7939 68.9978 89.2099C68.9978 89.2292 68.9978 89.2485 68.9978 89.2678C67.286 89.11 65.6503 88.9202 64.0904 88.6982C64.1045 88.6343 64.108 88.5686 64.101 88.5036C64.0856 88.345 64.0115 88.1978 63.8931 88.0911C63.7747 87.9844 63.6206 87.9258 63.4613 87.927H61.09L61.3564 86.9736L61.7157 85.6889L62.6112 82.5132C62.6448 82.3999 62.6417 82.2789 62.6025 82.1675C62.5632 82.0561 62.4898 81.9599 62.3926 81.8927C62.2955 81.8255 62.1796 81.7907 62.0615 81.7932C61.9434 81.7957 61.8291 81.8355 61.7349 81.9068L58.9307 83.9766L56.5928 85.7029L55.9934 86.1464L55.2923 86.6564L54.9506 86.9087C53.1436 86.4425 51.4769 85.9483 49.9539 85.4225C49.9801 85.3244 50.0082 85.2262 50.038 85.1298C50.7166 82.8968 52.175 80.982 54.1473 79.7343C56.1196 78.4865 58.4746 77.9889 60.783 78.3322C63.0915 78.6755 65.1998 79.8367 66.7237 81.6043C68.2477 83.3719 69.0858 85.6282 69.0854 87.9621L69.0801 87.9551Z" fill="#4C7BA2"/>
</svg>