<svg width="234" height="57" viewBox="0 0 234 57" fill="none" xmlns="http://www.w3.org/2000/svg">
<g filter="url(#filter0_i_309_12449)">
<path fill-rule="evenodd" clip-rule="evenodd" d="M32.5 53.9999C46.3071 53.9999 57.5 42.8071 57.5 29C57.5 15.1929 46.3071 4 32.5 4C18.6929 4 7.5 15.1929 7.5 29C7.5 42.8071 18.6929 53.9999 32.5 53.9999ZM40.2991 15.646C40.6788 14.2976 39.3701 13.5002 38.175 14.3516L21.4914 26.237C20.1953 27.1603 20.3991 29 21.7976 29H26.1909V28.966H34.7531L27.7765 31.4276L24.7009 42.3539C24.3213 43.7024 25.6298 44.4998 26.825 43.6483L43.5086 31.7631C44.8048 30.8397 44.6008 29 43.2024 29H36.5401L40.2991 15.646Z" fill="#CAFFE5" fill-opacity="0.76"/>
</g>
<mask id="path-3-outside-1_309_12449" maskUnits="userSpaceOnUse" x="67.9639" y="15.5" width="166" height="26" fill="black">
<rect fill="white" x="67.9639" y="15.5" width="166" height="26"/>
<path d="M78.0439 31.308H73.6279V39.5H69.7879V17.42H77.9479C81.7559 17.42 84.5719 18.828 84.5719 22.764V25.804C84.5719 30.284 81.3719 31.308 78.0439 31.308ZM73.6279 20.972V27.756H77.8199C80.3799 27.756 80.7319 27.308 80.7319 25.068V23.5C80.7319 21.292 79.8679 20.972 77.7559 20.972H73.6279ZM92.7154 23.052H95.1794C99.8834 23.052 102.187 25.356 102.187 30.956V31.852C102.187 37.452 99.8834 39.788 95.1794 39.788H92.7154C87.9794 39.788 85.7074 37.452 85.7074 31.852V30.956C85.7074 25.356 87.9794 23.052 92.7154 23.052ZM94.9554 26.348H92.9714C90.0914 26.348 89.2914 27.276 89.2914 30.988V31.82C89.2914 35.532 90.0914 36.492 92.9714 36.492H94.9554C97.8034 36.492 98.6034 35.532 98.6034 31.82V30.988C98.6034 27.276 97.8034 26.348 94.9554 26.348ZM120.461 34.188L123.533 23.34H127.309L122.189 39.5H118.797L115.501 29.132L112.173 39.5H108.781L103.661 23.34H107.437L110.541 34.156L114.061 23.34H116.909L120.461 34.188ZM145.218 32.716H132.354C132.418 36.108 133.122 36.748 135.906 36.748H138.242C140.386 36.748 141.154 36.62 141.57 34.572H145.122C144.674 38.06 142.306 39.788 138.37 39.788H135.778C131.01 39.788 128.802 37.452 128.802 31.852V30.956C128.802 25.356 131.01 23.052 135.778 23.052H138.37C142.594 23.052 145.218 25.356 145.218 29.58V32.716ZM138.242 26.06H135.906C133.346 26.06 132.386 26.892 132.386 29.58V29.932H141.666V29.58C141.666 26.892 140.642 26.06 138.242 26.06ZM151.652 39.5H148.1V23.34H151.652V24.94C152.644 23.724 153.828 23.052 154.948 23.052H156.676V26.348H154.5C152.164 26.348 151.652 26.86 151.652 29.964V39.5ZM162.59 39.5H159.038V23.34H162.59V24.908C163.55 23.724 164.734 23.052 165.79 23.052H167.55C169.63 23.052 171.166 23.884 171.998 25.804C173.086 24.108 174.59 23.052 175.902 23.052H177.63C180.862 23.052 182.814 25.1 182.814 29.836V39.5H179.23V29.868C179.23 26.796 178.75 26.22 176.478 26.22H175.454C173.214 26.22 172.702 26.86 172.702 29.964V39.5H169.118V29.868C169.118 26.796 168.67 26.22 166.366 26.22H165.374C163.102 26.22 162.59 26.86 162.59 29.964V39.5ZM201.876 23.34V39.5H198.324V37.9C197.364 39.148 196.084 39.788 194.612 39.788H192.34C187.604 39.788 185.332 37.452 185.332 31.852V30.956C185.332 25.356 187.604 23.052 192.34 23.052H194.612C196.084 23.052 197.364 23.724 198.324 24.94V23.34H201.876ZM194.516 26.348H192.756C189.844 26.348 188.916 27.18 188.916 30.7V32.108C188.916 35.628 189.844 36.492 192.756 36.492H194.516C197.396 36.492 198.324 35.628 198.324 32.108V30.7C198.324 27.18 197.396 26.348 194.516 26.348ZM206.609 26.572H203.633V23.34H206.609V19.148H210.161V23.34H213.841V26.572H210.161V33.036C210.161 35.948 210.289 36.172 213.905 36.204V39.5C209.713 39.724 206.609 39.148 206.609 34.22V26.572ZM232.343 32.716H219.479C219.543 36.108 220.247 36.748 223.031 36.748H225.367C227.511 36.748 228.279 36.62 228.695 34.572H232.247C231.799 38.06 229.431 39.788 225.495 39.788H222.903C218.135 39.788 215.927 37.452 215.927 31.852V30.956C215.927 25.356 218.135 23.052 222.903 23.052H225.495C229.719 23.052 232.343 25.356 232.343 29.58V32.716ZM225.367 26.06H223.031C220.471 26.06 219.511 26.892 219.511 29.58V29.932H228.791V29.58C228.791 26.892 227.767 26.06 225.367 26.06Z"/>
</mask>
<g filter="url(#filter1_ii_309_12449)">
<path d="M78.0439 31.308H73.6279V39.5H69.7879V17.42H77.9479C81.7559 17.42 84.5719 18.828 84.5719 22.764V25.804C84.5719 30.284 81.3719 31.308 78.0439 31.308ZM73.6279 20.972V27.756H77.8199C80.3799 27.756 80.7319 27.308 80.7319 25.068V23.5C80.7319 21.292 79.8679 20.972 77.7559 20.972H73.6279ZM92.7154 23.052H95.1794C99.8834 23.052 102.187 25.356 102.187 30.956V31.852C102.187 37.452 99.8834 39.788 95.1794 39.788H92.7154C87.9794 39.788 85.7074 37.452 85.7074 31.852V30.956C85.7074 25.356 87.9794 23.052 92.7154 23.052ZM94.9554 26.348H92.9714C90.0914 26.348 89.2914 27.276 89.2914 30.988V31.82C89.2914 35.532 90.0914 36.492 92.9714 36.492H94.9554C97.8034 36.492 98.6034 35.532 98.6034 31.82V30.988C98.6034 27.276 97.8034 26.348 94.9554 26.348ZM120.461 34.188L123.533 23.34H127.309L122.189 39.5H118.797L115.501 29.132L112.173 39.5H108.781L103.661 23.34H107.437L110.541 34.156L114.061 23.34H116.909L120.461 34.188ZM145.218 32.716H132.354C132.418 36.108 133.122 36.748 135.906 36.748H138.242C140.386 36.748 141.154 36.62 141.57 34.572H145.122C144.674 38.06 142.306 39.788 138.37 39.788H135.778C131.01 39.788 128.802 37.452 128.802 31.852V30.956C128.802 25.356 131.01 23.052 135.778 23.052H138.37C142.594 23.052 145.218 25.356 145.218 29.58V32.716ZM138.242 26.06H135.906C133.346 26.06 132.386 26.892 132.386 29.58V29.932H141.666V29.58C141.666 26.892 140.642 26.06 138.242 26.06ZM151.652 39.5H148.1V23.34H151.652V24.94C152.644 23.724 153.828 23.052 154.948 23.052H156.676V26.348H154.5C152.164 26.348 151.652 26.86 151.652 29.964V39.5ZM162.59 39.5H159.038V23.34H162.59V24.908C163.55 23.724 164.734 23.052 165.79 23.052H167.55C169.63 23.052 171.166 23.884 171.998 25.804C173.086 24.108 174.59 23.052 175.902 23.052H177.63C180.862 23.052 182.814 25.1 182.814 29.836V39.5H179.23V29.868C179.23 26.796 178.75 26.22 176.478 26.22H175.454C173.214 26.22 172.702 26.86 172.702 29.964V39.5H169.118V29.868C169.118 26.796 168.67 26.22 166.366 26.22H165.374C163.102 26.22 162.59 26.86 162.59 29.964V39.5ZM201.876 23.34V39.5H198.324V37.9C197.364 39.148 196.084 39.788 194.612 39.788H192.34C187.604 39.788 185.332 37.452 185.332 31.852V30.956C185.332 25.356 187.604 23.052 192.34 23.052H194.612C196.084 23.052 197.364 23.724 198.324 24.94V23.34H201.876ZM194.516 26.348H192.756C189.844 26.348 188.916 27.18 188.916 30.7V32.108C188.916 35.628 189.844 36.492 192.756 36.492H194.516C197.396 36.492 198.324 35.628 198.324 32.108V30.7C198.324 27.18 197.396 26.348 194.516 26.348ZM206.609 26.572H203.633V23.34H206.609V19.148H210.161V23.34H213.841V26.572H210.161V33.036C210.161 35.948 210.289 36.172 213.905 36.204V39.5C209.713 39.724 206.609 39.148 206.609 34.22V26.572ZM232.343 32.716H219.479C219.543 36.108 220.247 36.748 223.031 36.748H225.367C227.511 36.748 228.279 36.62 228.695 34.572H232.247C231.799 38.06 229.431 39.788 225.495 39.788H222.903C218.135 39.788 215.927 37.452 215.927 31.852V30.956C215.927 25.356 218.135 23.052 222.903 23.052H225.495C229.719 23.052 232.343 25.356 232.343 29.58V32.716ZM225.367 26.06H223.031C220.471 26.06 219.511 26.892 219.511 29.58V29.932H228.791V29.58C228.791 26.892 227.767 26.06 225.367 26.06Z" fill="#CAFFE5" fill-opacity="0.24"/>
</g>
<path d="M73.6279 31.308V30.308H72.6279V31.308H73.6279ZM73.6279 39.5V40.5H74.6279V39.5H73.6279ZM69.7879 39.5H68.7879V40.5H69.7879V39.5ZM69.7879 17.42V16.42H68.7879V17.42H69.7879ZM73.6279 20.972V19.972H72.6279V20.972H73.6279ZM73.6279 27.756H72.6279V28.756H73.6279V27.756ZM78.0439 30.308H73.6279V32.308H78.0439V30.308ZM72.6279 31.308V39.5H74.6279V31.308H72.6279ZM73.6279 38.5H69.7879V40.5H73.6279V38.5ZM70.7879 39.5V17.42H68.7879V39.5H70.7879ZM69.7879 18.42H77.9479V16.42H69.7879V18.42ZM77.9479 18.42C79.757 18.42 81.1694 18.7594 82.1061 19.4294C82.9835 20.0569 83.5719 21.066 83.5719 22.764H85.5719C85.5719 20.526 84.7522 18.8631 83.2696 17.8026C81.8463 16.7846 79.9468 16.42 77.9479 16.42V18.42ZM83.5719 22.764V25.804H85.5719V22.764H83.5719ZM83.5719 25.804C83.5719 27.7709 82.8914 28.8065 81.9986 29.4056C81.03 30.0556 79.6401 30.308 78.0439 30.308V32.308C79.7756 32.308 81.6497 32.0484 83.1131 31.0664C84.6523 30.0335 85.5719 28.3171 85.5719 25.804H83.5719ZM72.6279 20.972V27.756H74.6279V20.972H72.6279ZM73.6279 28.756H77.8199V26.756H73.6279V28.756ZM77.8199 28.756C78.4753 28.756 79.0561 28.7286 79.5471 28.6323C80.0448 28.5348 80.5355 28.3509 80.9287 27.9731C81.3276 27.5898 81.519 27.1105 81.6166 26.6333C81.7111 26.1712 81.7319 25.6377 81.7319 25.068H79.7319C79.7319 25.6183 79.7086 25.9808 79.6571 26.2327C79.6087 26.4695 79.5521 26.5222 79.543 26.5309C79.5282 26.5451 79.4509 26.6132 79.1626 26.6697C78.8677 26.7274 78.4444 26.756 77.8199 26.756V28.756ZM81.7319 25.068V23.5H79.7319V25.068H81.7319ZM81.7319 23.5C81.7319 22.3228 81.5127 21.2583 80.6316 20.6048C80.2202 20.2997 79.7459 20.1502 79.2801 20.0707C78.8168 19.9917 78.2989 19.972 77.7559 19.972V21.972C78.2689 21.972 78.6509 21.9923 78.9437 22.0423C79.2339 22.0918 79.3715 22.1603 79.4402 22.2112C79.5191 22.2697 79.7319 22.4692 79.7319 23.5H81.7319ZM77.7559 19.972H73.6279V21.972H77.7559V19.972ZM92.7154 24.052H95.1794V22.052H92.7154V24.052ZM95.1794 24.052C97.3818 24.052 98.8075 24.5902 99.7086 25.5779C100.629 26.5867 101.187 28.2638 101.187 30.956H103.187C103.187 28.0482 102.594 25.7733 101.186 24.2301C99.7592 22.6658 97.6809 22.052 95.1794 22.052V24.052ZM101.187 30.956V31.852H103.187V30.956H101.187ZM101.187 31.852C101.187 34.5439 100.629 36.2309 99.7065 37.2484C98.8042 38.2437 97.3782 38.788 95.1794 38.788V40.788C97.6846 40.788 99.7626 40.1643 101.188 38.5916C102.594 37.0411 103.187 34.7601 103.187 31.852H101.187ZM95.1794 38.788H92.7154V40.788H95.1794V38.788ZM92.7154 38.788C90.4987 38.788 89.0747 38.2428 88.1774 37.2496C87.2591 36.2332 86.7074 34.547 86.7074 31.852H84.7074C84.7074 34.757 85.2916 37.0388 86.6933 38.5904C88.1161 40.1652 90.196 40.788 92.7154 40.788V38.788ZM86.7074 31.852V30.956H84.7074V31.852H86.7074ZM86.7074 30.956C86.7074 28.2607 87.2593 26.5843 88.1753 25.5767C89.0713 24.5911 90.4951 24.052 92.7154 24.052V22.052C90.1996 22.052 88.1194 22.6649 86.6954 24.2313C85.2915 25.7757 84.7074 28.0513 84.7074 30.956H86.7074ZM94.9554 25.348H92.9714V27.348H94.9554V25.348ZM92.9714 25.348C91.4904 25.348 90.1409 25.5696 89.2722 26.6491C88.468 27.6486 88.2914 29.1488 88.2914 30.988H90.2914C90.2914 29.1152 90.5147 28.2954 90.8305 27.9029C91.0819 27.5904 91.5723 27.348 92.9714 27.348V25.348ZM88.2914 30.988V31.82H90.2914V30.988H88.2914ZM88.2914 31.82C88.2914 33.6608 88.4687 35.1648 89.2688 36.1705C90.135 37.2594 91.4829 37.492 92.9714 37.492V35.492C91.5798 35.492 91.0878 35.2446 90.834 34.9255C90.514 34.5232 90.2914 33.6912 90.2914 31.82H88.2914ZM92.9714 37.492H94.9554V35.492H92.9714V37.492ZM94.9554 37.492C96.4307 37.492 97.7709 37.2583 98.6321 36.1678C99.4257 35.163 99.6034 33.6614 99.6034 31.82H97.6034C97.6034 33.6906 97.3811 34.525 97.0626 34.9282C96.8118 35.2457 96.328 35.492 94.9554 35.492V37.492ZM99.6034 31.82V30.988H97.6034V31.82H99.6034ZM99.6034 30.988C99.6034 29.1482 99.4264 27.6504 98.6287 26.6519C97.765 25.5707 96.4231 25.348 94.9554 25.348V27.348C96.3356 27.348 96.8178 27.5893 97.0661 27.9001C97.3804 28.2936 97.6034 29.1158 97.6034 30.988H99.6034ZM120.461 34.188L119.511 34.4992L120.53 37.6133L121.423 34.4605L120.461 34.188ZM123.533 23.34V22.34H122.777L122.571 23.0675L123.533 23.34ZM127.309 23.34L128.262 23.642L128.675 22.34H127.309V23.34ZM122.189 39.5V40.5H122.921L123.142 39.802L122.189 39.5ZM118.797 39.5L117.844 39.803L118.066 40.5H118.797V39.5ZM115.501 29.132L116.454 28.829L115.506 25.8457L114.549 28.8264L115.501 29.132ZM112.173 39.5V40.5H112.902L113.125 39.8056L112.173 39.5ZM108.781 39.5L107.828 39.802L108.049 40.5H108.781V39.5ZM103.661 23.34V22.34H102.295L102.708 23.642L103.661 23.34ZM107.437 23.34L108.398 23.0642L108.191 22.34H107.437V23.34ZM110.541 34.156L109.58 34.4318L110.481 37.5719L111.492 34.4655L110.541 34.156ZM114.061 23.34V22.34H113.335L113.11 23.0305L114.061 23.34ZM116.909 23.34L117.859 23.0288L117.634 22.34H116.909V23.34ZM121.423 34.4605L124.495 23.6125L122.571 23.0675L119.499 33.9155L121.423 34.4605ZM123.533 24.34H127.309V22.34H123.533V24.34ZM126.356 23.038L121.236 39.198L123.142 39.802L128.262 23.642L126.356 23.038ZM122.189 38.5H118.797V40.5H122.189V38.5ZM119.75 39.197L116.454 28.829L114.548 29.435L117.844 39.803L119.75 39.197ZM114.549 28.8264L111.221 39.1944L113.125 39.8056L116.453 29.4376L114.549 28.8264ZM112.173 38.5H108.781V40.5H112.173V38.5ZM109.734 39.198L104.614 23.038L102.708 23.642L107.828 39.802L109.734 39.198ZM103.661 24.34H107.437V22.34H103.661V24.34ZM106.476 23.6158L109.58 34.4318L111.502 33.8802L108.398 23.0642L106.476 23.6158ZM111.492 34.4655L115.012 23.6495L113.11 23.0305L109.59 33.8465L111.492 34.4655ZM114.061 24.34H116.909V22.34H114.061V24.34ZM115.959 23.6512L119.511 34.4992L121.411 33.8768L117.859 23.0288L115.959 23.6512ZM145.218 32.716V33.716H146.218V32.716H145.218ZM132.354 32.716V31.716H131.335L131.354 32.7349L132.354 32.716ZM141.57 34.572V33.572H140.753L140.59 34.3729L141.57 34.572ZM145.122 34.572L146.114 34.6994L146.259 33.572H145.122V34.572ZM132.386 29.932H131.386V30.932H132.386V29.932ZM141.666 29.932V30.932H142.666V29.932H141.666ZM145.218 31.716H132.354V33.716H145.218V31.716ZM131.354 32.7349C131.37 33.6059 131.428 34.3592 131.568 34.9925C131.709 35.6308 131.947 36.2121 132.371 36.6774C133.229 37.6194 134.535 37.748 135.906 37.748V35.748C134.492 35.748 134.055 35.5566 133.849 35.3306C133.741 35.2119 133.617 34.9972 133.521 34.5615C133.424 34.1208 133.369 33.5221 133.354 32.6971L131.354 32.7349ZM135.906 37.748H138.242V35.748H135.906V37.748ZM138.242 37.748C138.776 37.748 139.279 37.7408 139.723 37.6894C140.17 37.6376 140.626 37.5346 141.044 37.2996C141.951 36.7897 142.327 35.8686 142.55 34.7711L140.59 34.3729C140.397 35.3234 140.181 35.4903 140.064 35.5564C139.969 35.6094 139.806 35.6664 139.493 35.7026C139.177 35.7392 138.779 35.748 138.242 35.748V37.748ZM141.57 35.572H145.122V33.572H141.57V35.572ZM144.13 34.4446C143.933 35.9766 143.336 37.0164 142.448 37.6924C141.539 38.3844 140.203 38.788 138.37 38.788V40.788C140.472 40.788 142.289 40.3276 143.66 39.2836C145.052 38.2236 145.862 36.6554 146.114 34.6994L144.13 34.4446ZM138.37 38.788H135.778V40.788H138.37V38.788ZM135.778 38.788C133.543 38.788 132.131 38.242 131.247 37.2535C130.34 36.2388 129.802 34.5531 129.802 31.852H127.802C127.802 34.7509 128.368 37.0332 129.756 38.5865C131.169 40.166 133.244 40.788 135.778 40.788V38.788ZM129.802 31.852V30.956H127.802V31.852H129.802ZM129.802 30.956C129.802 28.2546 130.34 26.5787 131.245 25.5728C132.128 24.5919 133.54 24.052 135.778 24.052V22.052C133.248 22.052 131.172 22.6641 129.758 24.2352C128.367 25.7813 127.802 28.0574 127.802 30.956H129.802ZM135.778 24.052H138.37V22.052H135.778V24.052ZM138.37 24.052C140.307 24.052 141.747 24.5789 142.696 25.4634C143.634 26.3382 144.218 27.6805 144.218 29.58H146.218C146.218 27.2555 145.49 25.3338 144.06 24.0006C142.64 22.6771 140.657 22.052 138.37 22.052V24.052ZM144.218 29.58V32.716H146.218V29.58H144.218ZM138.242 25.06H135.906V27.06H138.242V25.06ZM135.906 25.06C134.572 25.06 133.344 25.2638 132.489 26.0947C131.627 26.9322 131.386 28.1678 131.386 29.58H133.386C133.386 28.3042 133.625 27.7798 133.883 27.5293C134.147 27.2722 134.679 27.06 135.906 27.06V25.06ZM131.386 29.58V29.932H133.386V29.58H131.386ZM132.386 30.932H141.666V28.932H132.386V30.932ZM142.666 29.932V29.58H140.666V29.932H142.666ZM142.666 29.58C142.666 28.1527 142.403 26.9283 141.553 26.0972C140.707 25.2696 139.511 25.06 138.242 25.06V27.06C139.373 27.06 139.888 27.2664 140.155 27.5268C140.417 27.7837 140.666 28.3193 140.666 29.58H142.666ZM151.652 39.5V40.5H152.652V39.5H151.652ZM148.1 39.5H147.1V40.5H148.1V39.5ZM148.1 23.34V22.34H147.1V23.34H148.1ZM151.652 23.34H152.652V22.34H151.652V23.34ZM151.652 24.94H150.652V27.7478L152.427 25.5721L151.652 24.94ZM156.676 23.052H157.676V22.052H156.676V23.052ZM156.676 26.348V27.348H157.676V26.348H156.676ZM151.652 38.5H148.1V40.5H151.652V38.5ZM149.1 39.5V23.34H147.1V39.5H149.1ZM148.1 24.34H151.652V22.34H148.1V24.34ZM150.652 23.34V24.94H152.652V23.34H150.652ZM152.427 25.5721C153.306 24.4953 154.232 24.052 154.948 24.052V22.052C153.425 22.052 151.983 22.9527 150.878 24.3079L152.427 25.5721ZM154.948 24.052H156.676V22.052H154.948V24.052ZM155.676 23.052V26.348H157.676V23.052H155.676ZM156.676 25.348H154.5V27.348H156.676V25.348ZM154.5 25.348C153.372 25.348 152.177 25.4366 151.425 26.3607C151.064 26.8039 150.883 27.3469 150.784 27.9177C150.684 28.4887 150.652 29.1717 150.652 29.964H152.652C152.652 29.2043 152.685 28.6593 152.754 28.2613C152.823 27.8631 152.917 27.6961 152.976 27.6233C153.064 27.5154 153.293 27.348 154.5 27.348V25.348ZM150.652 29.964V39.5H152.652V29.964H150.652ZM162.59 39.5V40.5H163.59V39.5H162.59ZM159.038 39.5H158.038V40.5H159.038V39.5ZM159.038 23.34V22.34H158.038V23.34H159.038ZM162.59 23.34H163.59V22.34H162.59V23.34ZM162.59 24.908H161.59V27.7291L163.367 25.5378L162.59 24.908ZM171.998 25.804L171.08 26.2016L171.826 27.9233L172.84 26.344L171.998 25.804ZM182.814 39.5V40.5H183.814V39.5H182.814ZM179.23 39.5H178.23V40.5H179.23V39.5ZM172.702 39.5V40.5H173.702V39.5H172.702ZM169.118 39.5H168.118V40.5H169.118V39.5ZM162.59 38.5H159.038V40.5H162.59V38.5ZM160.038 39.5V23.34H158.038V39.5H160.038ZM159.038 24.34H162.59V22.34H159.038V24.34ZM161.59 23.34V24.908H163.59V23.34H161.59ZM163.367 25.5378C164.216 24.4908 165.141 24.052 165.79 24.052V22.052C164.326 22.052 162.884 22.9572 161.813 24.2782L163.367 25.5378ZM165.79 24.052H167.55V22.052H165.79V24.052ZM167.55 24.052C168.459 24.052 169.173 24.2336 169.728 24.5659C170.274 24.8929 170.736 25.4078 171.08 26.2016L172.915 25.4064C172.427 24.2802 171.706 23.4191 170.756 22.8501C169.815 22.2864 168.721 22.052 167.55 22.052V24.052ZM172.84 26.344C173.846 24.775 175.084 24.052 175.902 24.052V22.052C174.095 22.052 172.326 23.4409 171.156 25.264L172.84 26.344ZM175.902 24.052H177.63V22.052H175.902V24.052ZM177.63 24.052C179.022 24.052 179.998 24.4822 180.656 25.2965C181.345 26.1497 181.814 27.5811 181.814 29.836H183.814C183.814 27.3549 183.306 25.3943 182.212 24.0395C181.086 22.6458 179.47 22.052 177.63 22.052V24.052ZM181.814 29.836V39.5H183.814V29.836H181.814ZM182.814 38.5H179.23V40.5H182.814V38.5ZM180.23 39.5V29.868H178.23V39.5H180.23ZM180.23 29.868C180.23 29.0845 180.2 28.407 180.106 27.8386C180.012 27.2719 179.842 26.7309 179.5 26.2843C178.771 25.3319 177.598 25.22 176.478 25.22V27.22C177.629 27.22 177.832 27.3961 177.912 27.4997C177.974 27.5811 178.066 27.7601 178.133 28.1654C178.2 28.569 178.23 29.1155 178.23 29.868H180.23ZM176.478 25.22H175.454V27.22H176.478V25.22ZM175.454 25.22C174.323 25.22 173.16 25.3574 172.436 26.3308C172.099 26.7825 171.927 27.3279 171.831 27.9046C171.734 28.4831 171.702 29.1703 171.702 29.964H173.702C173.702 29.2057 173.734 28.6489 173.803 28.2344C173.873 27.8181 173.968 27.6215 174.04 27.5252C174.131 27.4026 174.345 27.22 175.454 27.22V25.22ZM171.702 29.964V39.5H173.702V29.964H171.702ZM172.702 38.5H169.118V40.5H172.702V38.5ZM170.118 39.5V29.868H168.118V39.5H170.118ZM170.118 29.868C170.118 29.0866 170.09 28.4103 169.999 27.8435C169.909 27.279 169.743 26.7366 169.403 26.2881C168.677 25.3298 167.497 25.22 166.366 25.22V27.22C167.539 27.22 167.735 27.3982 167.809 27.4959C167.869 27.5754 167.959 27.753 168.025 28.1605C168.09 28.5657 168.118 29.1134 168.118 29.868H170.118ZM166.366 25.22H165.374V27.22H166.366V25.22ZM165.374 25.22C164.231 25.22 163.061 25.3561 162.331 26.3271C161.99 26.7794 161.816 27.326 161.719 27.9037C161.622 28.4828 161.59 29.1705 161.59 29.964H163.59C163.59 29.2055 163.622 28.6492 163.692 28.2353C163.761 27.82 163.857 27.6246 163.929 27.5289C164.023 27.4039 164.245 27.22 165.374 27.22V25.22ZM161.59 29.964V39.5H163.59V29.964H161.59ZM201.876 23.34H202.876V22.34H201.876V23.34ZM201.876 39.5V40.5H202.876V39.5H201.876ZM198.324 39.5H197.324V40.5H198.324V39.5ZM198.324 37.9H199.324V34.9599L197.532 37.2903L198.324 37.9ZM198.324 24.94L197.539 25.5596L199.324 27.8205V24.94H198.324ZM198.324 23.34V22.34H197.324V23.34H198.324ZM200.876 23.34V39.5H202.876V23.34H200.876ZM201.876 38.5H198.324V40.5H201.876V38.5ZM199.324 39.5V37.9H197.324V39.5H199.324ZM197.532 37.2903C196.751 38.3056 195.757 38.788 194.612 38.788V40.788C196.411 40.788 197.978 39.9904 199.117 38.5097L197.532 37.2903ZM194.612 38.788H192.34V40.788H194.612V38.788ZM192.34 38.788C190.124 38.788 188.7 38.2428 187.802 37.2496C186.884 36.2332 186.332 34.547 186.332 31.852H184.332C184.332 34.757 184.917 37.0388 186.318 38.5904C187.741 40.1652 189.821 40.788 192.34 40.788V38.788ZM186.332 31.852V30.956H184.332V31.852H186.332ZM186.332 30.956C186.332 28.2607 186.884 26.5843 187.8 25.5767C188.696 24.5911 190.12 24.052 192.34 24.052V22.052C189.825 22.052 187.744 22.6649 186.32 24.2313C184.916 25.7757 184.332 28.0513 184.332 30.956H186.332ZM192.34 24.052H194.612V22.052H192.34V24.052ZM194.612 24.052C195.746 24.052 196.748 24.557 197.539 25.5596L199.109 24.3204C197.981 22.891 196.423 22.052 194.612 22.052V24.052ZM199.324 24.94V23.34H197.324V24.94H199.324ZM198.324 24.34H201.876V22.34H198.324V24.34ZM194.516 25.348H192.756V27.348H194.516V25.348ZM192.756 25.348C191.279 25.348 189.917 25.5391 189.008 26.527C188.129 27.4832 187.916 28.9337 187.916 30.7H189.916C189.916 28.9463 190.168 28.2208 190.48 27.881C190.764 27.5729 191.322 27.348 192.756 27.348V25.348ZM187.916 30.7V32.108H189.916V30.7H187.916ZM187.916 32.108C187.916 33.8759 188.13 35.3298 189.004 36.2924C189.911 37.2904 191.272 37.492 192.756 37.492V35.492C191.329 35.492 190.77 35.2616 190.485 34.9476C190.167 34.5982 189.916 33.8601 189.916 32.108H187.916ZM192.756 37.492H194.516V35.492H192.756V37.492ZM194.516 37.492C195.987 37.492 197.341 37.2896 198.243 36.29C199.111 35.328 199.324 33.8763 199.324 32.108H197.324C197.324 33.8597 197.074 34.6 196.758 34.95C196.476 35.2624 195.926 35.492 194.516 35.492V37.492ZM199.324 32.108V30.7H197.324V32.108H199.324ZM199.324 30.7C199.324 28.9332 199.112 27.485 198.239 26.5295C197.335 25.5399 195.98 25.348 194.516 25.348V27.348C195.933 27.348 196.482 27.5721 196.762 27.8785C197.073 28.219 197.324 28.9468 197.324 30.7H199.324ZM206.609 26.572H207.609V25.572H206.609V26.572ZM203.633 26.572H202.633V27.572H203.633V26.572ZM203.633 23.34V22.34H202.633V23.34H203.633ZM206.609 23.34V24.34H207.609V23.34H206.609ZM206.609 19.148V18.148H205.609V19.148H206.609ZM210.161 19.148H211.161V18.148H210.161V19.148ZM210.161 23.34H209.161V24.34H210.161V23.34ZM213.841 23.34H214.841V22.34H213.841V23.34ZM213.841 26.572V27.572H214.841V26.572H213.841ZM210.161 26.572V25.572H209.161V26.572H210.161ZM213.905 36.204H214.905V35.2128L213.914 35.204L213.905 36.204ZM213.905 39.5L213.958 40.4986L214.905 40.448V39.5H213.905ZM206.609 25.572H203.633V27.572H206.609V25.572ZM204.633 26.572V23.34H202.633V26.572H204.633ZM203.633 24.34H206.609V22.34H203.633V24.34ZM207.609 23.34V19.148H205.609V23.34H207.609ZM206.609 20.148H210.161V18.148H206.609V20.148ZM209.161 19.148V23.34H211.161V19.148H209.161ZM210.161 24.34H213.841V22.34H210.161V24.34ZM212.841 23.34V26.572H214.841V23.34H212.841ZM213.841 25.572H210.161V27.572H213.841V25.572ZM209.161 26.572V33.036H211.161V26.572H209.161ZM209.161 33.036C209.161 33.746 209.167 34.3885 209.25 34.912C209.336 35.4549 209.527 36.0222 210.018 36.4522C210.483 36.8594 211.076 37.0163 211.659 37.0958C212.252 37.1766 212.999 37.196 213.896 37.204L213.914 35.204C213.003 35.196 212.378 35.1754 211.93 35.1142C211.472 35.0517 211.355 34.9646 211.336 34.9478C211.332 34.9444 211.32 34.9351 211.302 34.8948C211.28 34.8466 211.25 34.7574 211.225 34.598C211.171 34.2595 211.161 33.782 211.161 33.036H209.161ZM212.905 36.204V39.5H214.905V36.204H212.905ZM213.852 38.5014C211.75 38.6137 210.197 38.4958 209.176 37.9206C208.293 37.4235 207.609 36.4581 207.609 34.22H205.609C205.609 36.9099 206.477 38.6965 208.194 39.6634C209.773 40.5522 211.867 40.6103 213.958 40.4986L213.852 38.5014ZM207.609 34.22V26.572H205.609V34.22H207.609ZM232.343 32.716V33.716H233.343V32.716H232.343ZM219.479 32.716V31.716H218.46L218.479 32.7349L219.479 32.716ZM228.695 34.572V33.572H227.878L227.715 34.3729L228.695 34.572ZM232.247 34.572L233.239 34.6994L233.384 33.572H232.247V34.572ZM219.511 29.932H218.511V30.932H219.511V29.932ZM228.791 29.932V30.932H229.791V29.932H228.791ZM232.343 31.716H219.479V33.716H232.343V31.716ZM218.479 32.7349C218.495 33.6059 218.553 34.3592 218.693 34.9925C218.834 35.6308 219.072 36.2121 219.496 36.6774C220.354 37.6194 221.66 37.748 223.031 37.748V35.748C221.617 35.748 221.18 35.5566 220.974 35.3306C220.866 35.2119 220.742 34.9972 220.646 34.5615C220.549 34.1208 220.494 33.5221 220.479 32.6971L218.479 32.7349ZM223.031 37.748H225.367V35.748H223.031V37.748ZM225.367 37.748C225.901 37.748 226.404 37.7408 226.848 37.6894C227.295 37.6376 227.751 37.5346 228.169 37.2996C229.076 36.7897 229.452 35.8686 229.675 34.7711L227.715 34.3729C227.522 35.3234 227.306 35.4903 227.189 35.5564C227.094 35.6094 226.931 35.6664 226.618 35.7026C226.302 35.7392 225.904 35.748 225.367 35.748V37.748ZM228.695 35.572H232.247V33.572H228.695V35.572ZM231.255 34.4446C231.058 35.9766 230.461 37.0164 229.573 37.6924C228.664 38.3844 227.328 38.788 225.495 38.788V40.788C227.597 40.788 229.414 40.3276 230.785 39.2836C232.177 38.2236 232.987 36.6554 233.239 34.6994L231.255 34.4446ZM225.495 38.788H222.903V40.788H225.495V38.788ZM222.903 38.788C220.668 38.788 219.256 38.242 218.372 37.2535C217.465 36.2388 216.927 34.5531 216.927 31.852H214.927C214.927 34.7509 215.493 37.0332 216.881 38.5865C218.294 40.166 220.369 40.788 222.903 40.788V38.788ZM216.927 31.852V30.956H214.927V31.852H216.927ZM216.927 30.956C216.927 28.2546 217.465 26.5787 218.37 25.5728C219.253 24.5919 220.665 24.052 222.903 24.052V22.052C220.373 22.052 218.297 22.6641 216.883 24.2352C215.492 25.7813 214.927 28.0574 214.927 30.956H216.927ZM222.903 24.052H225.495V22.052H222.903V24.052ZM225.495 24.052C227.432 24.052 228.872 24.5789 229.821 25.4634C230.759 26.3382 231.343 27.6805 231.343 29.58H233.343C233.343 27.2555 232.615 25.3338 231.185 24.0006C229.765 22.6771 227.782 22.052 225.495 22.052V24.052ZM231.343 29.58V32.716H233.343V29.58H231.343ZM225.367 25.06H223.031V27.06H225.367V25.06ZM223.031 25.06C221.697 25.06 220.469 25.2638 219.614 26.0947C218.752 26.9322 218.511 28.1678 218.511 29.58H220.511C220.511 28.3042 220.75 27.7798 221.008 27.5293C221.272 27.2722 221.804 27.06 223.031 27.06V25.06ZM218.511 29.58V29.932H220.511V29.58H218.511ZM219.511 30.932H228.791V28.932H219.511V30.932ZM229.791 29.932V29.58H227.791V29.932H229.791ZM229.791 29.58C229.791 28.1527 229.528 26.9283 228.678 26.0972C227.832 25.2696 226.636 25.06 225.367 25.06V27.06C226.498 27.06 227.013 27.2664 227.28 27.5268C227.542 27.7837 227.791 28.3193 227.791 29.58H229.791Z" fill="#CAFFE5" mask="url(#path-3-outside-1_309_12449)"/>
<defs>
<filter id="filter0_i_309_12449" x="7.5" y="4" width="58" height="58" filterUnits="userSpaceOnUse" color-interpolation-filters="sRGB">
<feFlood flood-opacity="0" result="BackgroundImageFix"/>
<feBlend mode="normal" in="SourceGraphic" in2="BackgroundImageFix" result="shape"/>
<feColorMatrix in="SourceAlpha" type="matrix" values="0 0 0 0 0 0 0 0 0 0 0 0 0 0 0 0 0 0 127 0" result="hardAlpha"/>
<feOffset dx="8" dy="8"/>
<feGaussianBlur stdDeviation="4"/>
<feComposite in2="hardAlpha" operator="arithmetic" k2="-1" k3="1"/>
<feColorMatrix type="matrix" values="0 0 0 0 0.792157 0 0 0 0 1 0 0 0 0 0.898039 0 0 0 1 0"/>
<feBlend mode="normal" in2="shape" result="effect1_innerShadow_309_12449"/>
</filter>
<filter id="filter1_ii_309_12449" x="61.7878" y="9.41992" width="178.555" height="38.3682" filterUnits="userSpaceOnUse" color-interpolation-filters="sRGB">
<feFlood flood-opacity="0" result="BackgroundImageFix"/>
<feBlend mode="normal" in="SourceGraphic" in2="BackgroundImageFix" result="shape"/>
<feColorMatrix in="SourceAlpha" type="matrix" values="0 0 0 0 0 0 0 0 0 0 0 0 0 0 0 0 0 0 127 0" result="hardAlpha"/>
<feOffset dx="8" dy="8"/>
<feGaussianBlur stdDeviation="4"/>
<feComposite in2="hardAlpha" operator="arithmetic" k2="-1" k3="1"/>
<feColorMatrix type="matrix" values="0 0 0 0 0.792157 0 0 0 0 1 0 0 0 0 0.898039 0 0 0 0.5 0"/>
<feBlend mode="normal" in2="shape" result="effect1_innerShadow_309_12449"/>
<feColorMatrix in="SourceAlpha" type="matrix" values="0 0 0 0 0 0 0 0 0 0 0 0 0 0 0 0 0 0 127 0" result="hardAlpha"/>
<feOffset dx="-8" dy="-8"/>
<feGaussianBlur stdDeviation="4"/>
<feComposite in2="hardAlpha" operator="arithmetic" k2="-1" k3="1"/>
<feColorMatrix type="matrix" values="0 0 0 0 0.792157 0 0 0 0 1 0 0 0 0 0.898039 0 0 0 0.5 0"/>
<feBlend mode="normal" in2="effect1_innerShadow_309_12449" result="effect2_innerShadow_309_12449"/>
</filter>
</defs>
</svg>