<svg xmlns="http://www.w3.org/2000/svg" viewBox="0 0 1000 1000"><defs><style>.cls-1{isolation:isolate;}.cls-2{fill:#fff;}.cls-3{fill:#bed4e4;}.cls-4,.cls-8{fill:#34383f;}.cls-5{fill:#4c7ba2;}.cls-6{fill:#50b0d1;}.cls-7{fill:none;stroke:#50b0d1;stroke-miterlimit:10;}.cls-8{opacity:0.2;mix-blend-mode:multiply;}</style></defs><g class="cls-1"><g id="Layer_1" data-name="Layer 1"><path class="cls-2" d="M576.3,693.18c.21-.3.42-.6.62-.91l.08,0Zm56.45-79.37-9.35-5.21c-22.42-1.27-49.19-3-77.29-5-9-.65-18.1-1.34-27.25-2.06-39.28-3.11-79.22-6.86-112-11.08h0c-18.13-2.34-34.06-4.83-46.45-7.44-2.25-.48-4.39-1-6.43-1.49l-2-.53c-1.31-.35-2.57-.72-3.78-1.1s-2.35-.75-3.46-1.15l0,0c-27.8-10-28.7-27.5-34-66.06-.19-1.4-.37-2.92-.55-4.55s-.33-3.38-.49-5.22c-.31-3.69-.58-7.78-.82-12.22-.47-8.86-.8-19.08-1-30.07,0-1.16,0-2.33-.05-3.51-12.48-21.76-22.36-44.05-26.43-63.55q-.54-2.53-.93-5a21.61,21.61,0,0,1-.07-6,70.35,70.35,0,0,1-10,27.41c-.35.56-.71,1.12-1.07,1.67s-.82,1.22-1.25,1.82c-.25.36-.5.71-.77,1.06s-.52.71-.79,1.06q-.15.21-.33.42c-.39.51-.79,1-1.21,1.51s-.88,1.07-1.35,1.6-.78.89-1.18,1.32c-.16.19-.34.38-.52.56s-.48.52-.74.77-.75.79-1.14,1.17c-.1.11-.21.21-.32.31-.5.49-1,1-1.51,1.44l-.19.17c-.44.41-.89.82-1.35,1.21s-.62.54-.93.79-.72.61-1.08.89c-.18.15-.37.31-.56.45-.46.37-.92.73-1.39,1.07l-.5.38c-.51.38-1,.75-1.54,1.1l-.44.31c-.5.35-1,.69-1.52,1a69.65,69.65,0,0,1-7.63,4.32l-.92.44c-.93.44-1.88.86-2.84,1.26l-1,.41-.77.3-.88.34-1.4.49-1,.34c-1.42.47-2.87.89-4.33,1.27l-1.15.29c-.85.21-1.7.4-2.57.57-.41.09-.83.17-1.25.24l-.9.16-.72.12-.92.14-.86.12c-.56.08-1.13.15-1.7.21l-1.29.13q-3.24.3-6.56.3l-1.57,0-1.56,0-1.29-.07-.51,0-1.11-.09q-3.18-.25-6.27-.81c-.48-.08-1-.17-1.45-.27s-.83-.16-1.24-.25c-.62-.13-1.23-.28-1.85-.42-.93-.23-1.85-.47-2.76-.74L189,440.3l-1.41-.45c-.47-.15-.94-.31-1.41-.49s-1.16-.42-1.73-.64l-.63-.24-.2-.08-1.57-.65c4-9.74-.38-19-2.23-22.23-.06-.1-.11-.2-.17-.29l-.14-.24a4.42,4.42,0,0,1-.31-.49l-.1-.16h0c-1.59-2.57-3-5.13-4.26-7.67-12.32-24.7-11-47.53-10.51-57.11,0-.32,0-.62.05-.9,0-.48,0-1,.06-1.51.18-7-.67-17.71-3.79-23.26a10.11,10.11,0,0,0-1-1.56,6,6,0,0,0-1.8-1.54c-5.17-2.76-32.9,3.87-32.91,68.9,0,37.16,31.76,62.58,54.79,72,15.73,6.43,30.08,16.41,40,30.2,88.07,122.31,181.48,129,210.56,142.44,2.41,1.11,4.17,2.93,4.24,5.6.51,17.64,6.2,73.27,7.21,84.13a9.81,9.81,0,0,1-1.3,5.85c-18,30.91-36.62,88.82-40.44,101.32-.52,1.68-2.37,3.22-3.5,4.55L387.65,844a2.86,2.86,0,0,0,1.84,4.71c9.35,1.09,29.2,1.59,45.07-.92,3.83-.61,4.71-2.28,7.75-6.2,10.05-13,36.71-59.86,44.87-82.32a7.08,7.08,0,0,1,7.06-4.63c10.72.58,34.55,1.59,47.57-.08a6,6,0,0,1,6.58,4.68c3.58,16.51,16.64,64.13,24,91.47,1.56,5.79,2.89,7.69,9.66,8a271.3,271.3,0,0,0,48.65-2.06c2.74-.4,5.7-4.82,2.85-8.33a16.13,16.13,0,0,0-7.32-4.82,5.69,5.69,0,0,1-3.79-4.91A457.87,457.87,0,0,0,605,748.07a8.34,8.34,0,0,1,.32-5.72c1.76-4.1,5.08-12.93,8.08-26.84.62-2.87,1.23-6,1.8-9.27,1-5.67,1.88-12,2.6-19,.92-8.93,1.55-18.94,1.72-30.06a2.21,2.21,0,0,1,3.84-1.46,254.5,254.5,0,0,0,23,22.46q2.07,1.78,4.27,3.6l1,.78c9-13.17,17.2-30.05,23.78-46.51C653.48,625.13,632.75,613.81,632.75,613.81Z"/><path class="cls-2" d="M577,692.3l-.7.88c.21-.3.42-.6.62-.91Z"/><path class="cls-2" d="M796.85,695.1c-4.35,28.78-34.8,26.58-34.8,26.58-10,1.08-13.57,4-23,2.72-35.2-4.89-65.93-24.25-87.4-41.81,9-13.17,17.2-30.05,23.78-46.51l4.41,2.18h0c4.56,2.25,9.12,4.45,13.5,6.5,4.59,2.14,9,4.12,13,5.81,27.49,11.62,39.1-21.29,45.29-36s18.58-12.77,19.36-.38c.59,9.52-5,26.84-7.61,34.32a2.66,2.66,0,0,0,2.38,3.59C781.91,651.88,801.34,665.44,796.85,695.1Z"/><path class="cls-3" d="M675.41,636.08c-6.58,16.46-14.82,33.34-23.78,46.51l-1-.78q-2.2-1.81-4.27-3.6a254.5,254.5,0,0,1-23-22.46,2.21,2.21,0,0,0-3.84,1.46c-.17,11.12-.8,21.13-1.72,30.06-.72,7-1.62,13.3-2.6,19-12.68-3.77-25.71-8.18-38.86-13,.22-.3.42-.6.63-.91l-.7.88c-12.78-4.71-25.69-9.86-38.53-15.28l-21.23-9.22c-15.67-7-31.06-14.26-45.8-21.49l0,0c-69.37-34.06-124.24-67.4-125.94-68.44,1.11.4,2.26.78,3.46,1.15s2.47.75,3.78,1.1l2,.53c2,.52,4.18,1,6.43,1.49,12.39,2.61,28.32,5.1,46.45,7.44h0c32.74,4.22,72.68,8,112,11.08,9.15.72,18.27,1.41,27.25,2.06,28.1,2,54.87,3.74,77.29,5l9.35,5.21S653.48,625.13,675.41,636.08Z"/><path class="cls-4" d="M262.17,372.51a52.4,52.4,0,0,1-53.13,52,51.68,51.68,0,0,1-22.16-5.42,50.23,50.23,0,0,1-7.79-4.76c-1.59-2.57-3-5.13-4.26-7.67-12.32-24.7-11-47.53-10.51-57.11,0-.32,0-.62.05-.9,0-.48,0-1,.06-1.51a51.41,51.41,0,0,1,5.82-8.41,52.12,52.12,0,0,1,91.92,33.78Z"/><path class="cls-5" d="M563.39,240.57c-55.31-5.34-108.76-7.17-144.64-6.29-4.44-6.42-17.09-28.46-7.73-45.07,10.44-18.55,41-27.92,106.32,16v0A517.57,517.57,0,0,1,563.39,240.57Z"/><path class="cls-6" d="M660.09,253.86c-18.14-3.41-37.22-6.33-56.55-8.81-13.35-1.71-26.8-3.2-40.15-4.48a517.57,517.57,0,0,0-46-35.3v0c12.66-21.72,40.07-34.24,70.45-28.9C617.72,181.6,651.7,212,660.09,253.86Z"/><path class="cls-2" d="M234.79,305.73a71.1,71.1,0,0,1,46.34,66.66,70,70,0,0,1-.66,9.66c.45-2,.2-4.22.59-6.31-.78-7.26-.18-14.37.39-21.67,1.59-20.3,1.4-56.21-17.21-72.39-26.71-23.22-40.65-2.32-26.33,7.36l.27,7.48,1,7.74-4.42,1.47Z"/><path class="cls-7" d="M280.47,382.05A70.53,70.53,0,0,1,274.22,403,143.19,143.19,0,0,0,280.47,382.05Z"/><path class="cls-2" d="M280.4,378.82a6.39,6.39,0,0,1,.07-1.82c.07.63.1,1.23.11,1.78s0,.94,0,1.37C280.52,379.71,280.44,379.28,280.4,378.82Z"/><path class="cls-2" d="M280.57,380.17a5.36,5.36,0,0,1-.1,1.88c0,.13,0,.25-.06.38C280.47,381.7,280.54,381,280.57,380.17Z"/><path class="cls-3" d="M762.49,721.63c-7.7,3.85-14,4.09-23.46,2.77-8.81-8.76-4.86-25.82-4.86-25.82A44.75,44.75,0,0,0,762.49,721.63Z"/><path class="cls-5" d="M191.79,265a22.71,22.71,0,1,0-17.06,31l6.13,14.81,9.07-3.75-6.12-14.8A22.72,22.72,0,0,0,191.79,265ZM161,277.74a10.58,10.58,0,1,1,13.82,5.74A10.59,10.59,0,0,1,161,277.74Z"/><circle class="cls-2" cx="208.82" cy="373.39" r="6"/><path class="cls-2" d="M221.45,362.1v-3.9a5.12,5.12,0,0,1,2.76-4.55l14.58-7.59a1,1,0,0,1,1.36,1.35L232.56,362a5.12,5.12,0,0,1-4.55,2.76h-3.9A2.66,2.66,0,0,1,221.45,362.1Z"/><path class="cls-2" d="M194.1,376.69l-3,2.12a5.92,5.92,0,0,1-4.43,1l-19.79-3.47a1,1,0,0,1,0-1.91L186.67,371a5.91,5.91,0,0,1,4.43,1l3,2.13A1.6,1.6,0,0,1,194.1,376.69Z"/><path class="cls-3" d="M243.86,309.85s3.74-2.75,6.32-1.46,8.61-.86,10.3-3.79-17.27-5.12-17.27-5.12v5.19Z"/><path class="cls-5" d="M260.73,304.14l-.25.46A3.33,3.33,0,0,1,256,306l-4.79-2.47a3.62,3.62,0,0,0-4.9,1.56l-5,9.62-9.72-5,5-9.63a3.66,3.66,0,0,0-1.56-4.91l-4.79-2.47a3.33,3.33,0,0,1-1.43-4.48l.24-.47a3.35,3.35,0,0,1,4.48-1.43l25.78,13.33A3.34,3.34,0,0,1,260.73,304.14Z"/><path class="cls-6" d="M281.13,372.39a70,70,0,0,1-.66,9.66A143.19,143.19,0,0,1,274.22,403a70.61,70.61,0,0,1-3.81,6.94c-.35.57-.71,1.12-1.07,1.67s-.82,1.22-1.25,1.82c-.25.36-.5.71-.77,1.06s-.52.71-.79,1.06q-.15.21-.33.42c-.39.51-.79,1-1.21,1.51s-.88,1.07-1.35,1.6-.78.89-1.18,1.32c-.16.19-.34.38-.52.56s-.48.52-.74.77-.75.78-1.14,1.17c-.1.11-.21.21-.32.31-.5.49-1,1-1.51,1.44l-.19.17c-.44.41-.89.82-1.35,1.21s-.62.54-.93.79-.71.6-1.08.89c-.18.15-.37.31-.56.45-.46.37-.92.73-1.39,1.07l-.5.38c-.51.38-1,.74-1.54,1.1l-.44.31c-.5.34-1,.68-1.52,1a69.65,69.65,0,0,1-7.63,4.32l-.92.44c-.93.44-1.88.86-2.84,1.26l-1,.41-.77.3-.88.34-1.4.49-1,.34c-1.42.47-2.87.89-4.33,1.27l-1.15.29c-.85.21-1.7.4-2.57.57-.41.09-.83.17-1.25.24l-.9.16-.72.12-.92.14c-.28,0-.57.09-.86.12-.56.08-1.13.15-1.7.21l-1.29.13q-3.24.3-6.56.3l-1.57,0c-.52,0-1,0-1.56,0l-1.29-.07-.51,0q-.57,0-1.11-.09-3.18-.25-6.27-.81c-.49-.08-1-.17-1.45-.27l-1.24-.25c-.62-.13-1.23-.28-1.85-.42-.92-.23-1.84-.48-2.76-.74L189,440.3l-1.41-.45-1.41-.49c6.47-8.65.7-20.26.7-20.26h0A51.68,51.68,0,0,0,209,424.51a52.13,52.13,0,1,0-44.61-77.37c.18-7-.67-17.71-3.79-23.26a10.11,10.11,0,0,0-1-1.56,71.07,71.07,0,0,1,121.54,50.07Z"/><path class="cls-3" d="M281.4,393.53S263,471.07,179,447.83a2.43,2.43,0,0,1-1.24-3.85,42.24,42.24,0,0,0,4.27-6.23,71.14,71.14,0,0,0,91.06-32.53q.57-1.1,1.11-2.22a70.36,70.36,0,0,0,6.18-20.47,21.61,21.61,0,0,0,.07,6Q280.86,391,281.4,393.53Z"/><path class="cls-6" d="M179.65,415.23c-.16-.24-.31-.49-.45-.73C179.3,414.65,179.46,414.89,179.65,415.23Z"/><path class="cls-3" d="M740.4,689.7h-.78a15,15,0,0,1-2.39-.37l-.15,0c4.91-.45,9.34-3.11,10.86-6.67a6.6,6.6,0,0,0-1.6-7.48,15.3,15.3,0,0,0-11.54-4.68c-6.8,0-14,3.3-19.07,6.3a26.73,26.73,0,0,1,2-1.85,29.13,29.13,0,0,1,8.94-5.21,23.55,23.55,0,0,1,7.79-1.34,23.27,23.27,0,0,1,12,3.4,12.15,12.15,0,0,1,3.61,3.39,7.72,7.72,0,0,1,1.31,4.13c.16,3.64-.91,6.33-3.17,8A12.44,12.44,0,0,1,740.4,689.7Z"/><path class="cls-8" d="M186.88,419.09a50.23,50.23,0,0,1-7.79-4.76c-1.59-2.57-3-5.13-4.26-7.67-12.32-24.7-11-47.53-10.51-57.11,0-.32,0-.62.05-.9,0-.48,0-1,.06-1.51a51.41,51.41,0,0,1,5.82-8.41C170.1,339.76,164.6,379.35,186.88,419.09Z"/><g id="Forma_1" data-name="Forma 1"><path class="cls-2" d="M786.13,339.28c-.27,8.25-1.12,17.8-2.6,28.86C777.64,412.39,765,488,750,558.22c-4.12,19.3-10.79,33.12-24.63,41.73-6.93,4.31-15.64,7.31-26.73,9-2.77.44-5.7.79-8.77,1.06q-2.31.21-4.74.36c-1.62.09-3.28.17-5,.23-6.8.23-14.27.15-22.48-.24-9.53-.45-21.17-1-34.31-1.8-22.42-1.27-49.19-3-77.29-5-9-.65-18.1-1.34-27.25-2.06-39.28-3.11-79.22-6.86-112-11.08h0c-18.13-2.34-34.06-4.83-46.45-7.44-2.25-.48-4.39-1-6.43-1.49l-2-.53c-1.31-.35-2.57-.72-3.78-1.1s-2.35-.75-3.46-1.15l0,0c-27.8-10-28.7-27.5-34-66.06-.19-1.4-.37-2.92-.55-4.55s-.33-3.38-.49-5.22c-.31-3.69-.58-7.78-.82-12.22-.47-8.86-.8-19.08-1-30.07,0-1.16,0-2.33-.05-3.51-.27-21.12.06-44.81,1-67.19,1.79-47.28,7.05-88.59,7.08-88.59,0-.2,1.61-16,14.51-32.19a82.81,82.81,0,0,1,28.79-22.76,108.43,108.43,0,0,1,22.6-8,138.52,138.52,0,0,1,13.73-2.53q3.65-.48,7.52-.81t8-.49q3.69-.15,7.7-.24c35.88-.88,89.33.95,144.64,6.29,13.35,1.28,26.8,2.77,40.15,4.48,19.33,2.48,38.41,5.4,56.55,8.81,50.06,9.42,92.88,22.53,113.48,40,5.93,5,9.89,12.51,11.64,24.29.22,1.47.4,3,.55,4.62.07.8.14,1.63.2,2.47s.1,1.7.14,2.57C786.25,331.35,786.27,335.15,786.13,339.28Z"/></g><g id="Forma_1_copiar" data-name="Forma 1 copiar"><path class="cls-5" d="M754.71,376.21a175,175,0,0,0,.6-23.84c0-.42,0-.84-.08-1.25s-.05-.83-.08-1.23c0-.2,0-.41,0-.61s0-.4-.05-.59c0-.4-.07-.79-.1-1.18-.16-1.55-.34-3-.55-4.46,0-.35-.11-.7-.16-1.05l-.09-.52c0-.09,0-.17,0-.26s0-.17-.05-.25c-.11-.68-.24-1.35-.38-2-.26-1.29-.56-2.53-.88-3.71-2.58-9.45-6.78-15.28-12.32-19.11-26.4-18.09-85.41-29.37-148.92-37.19-63.52-7.66-131.51-11.37-169.86-11-1.21,0-2.39,0-3.56.08-.59,0-1.17,0-1.75.06l-1.71.08c-2.27.11-4.47.28-6.6.48q-6.37.63-12,1.74a92.52,92.52,0,0,0-19.56,6A65.38,65.38,0,0,0,352,294.52C341.07,307.74,339.89,321,339.91,321s-4.09,34.39-5.7,73.47c-.87,19.52-1.27,40.16-1.13,58.15.07,9,.26,17.34.59,24.56,0,.9.09,1.79.13,2.65,0,.44.05.86.07,1.29s.05.84.07,1.26q.15,2.49.33,4.74c.11,1.5.24,2.91.37,4.23s.28,2.56.43,3.7c4.91,36.33,4.76,49.29,43.51,56.67,58.65,11.14,208.6,22.21,266.49,22.92,7.26.17,13.83.08,19.8-.25l2.21-.13,2.15-.16c1.42-.12,2.79-.24,4.14-.39,2.68-.28,5.23-.63,7.64-1,9.63-1.62,17.13-4.17,23.08-7.65,11.87-7,17.58-17.61,21.3-32.7C739.27,477.5,752.09,412.92,754.71,376.21Z"/></g><g id="Forma_1_copiar_2" data-name="Forma 1 copiar 2"><path class="cls-6" d="M744.72,378.33a164.41,164.41,0,0,0,.57-22.71c0-.8-.09-1.59-.15-2.36,0-.19,0-.39,0-.58s0-.38-.05-.57c0-.37-.06-.75-.1-1.12-.14-1.48-.32-2.89-.52-4.24l-.15-1c0-.16-.06-.33-.08-.49l-.05-.25a2,2,0,0,0,0-.24c-.11-.65-.23-1.28-.36-1.9-.26-1.24-.54-2.41-.84-3.54-2.46-9-6.46-14.56-11.74-18.21-25.15-17.22-81.43-28-142.06-35.33s-125.63-10.17-162.51-9.32c-1.16,0-2.3.06-3.42.11l-1.68.08-1.65.1q-3.27.21-6.35.54c-4.1.45-7.94,1-11.55,1.79A94,94,0,0,0,383,285a65.62,65.62,0,0,0-23.89,17.24c-10.71,12.43-11.93,24.8-11.91,24.8s-4.19,32-5.56,68.85c-.76,18.39-1,37.92-.65,55,.16,8.54.44,16.47.85,23.34.05.86.1,1.7.15,2.53l.09,1.22c0,.4.05.8.08,1.2.12,1.58.24,3.09.37,4.51s.27,2.78.42,4,.3,2.44.46,3.52c5.22,34.66,5.33,47.09,42.45,54.18,56.25,10.72,199.36,21.32,254.43,22,6.92.17,13.18.08,18.86-.23,1.42-.08,2.81-.17,4.16-.28s2.66-.23,3.94-.37c2.55-.27,5-.6,7.27-1,9.17-1.54,16.31-4,22-7.28,11.31-6.65,16.73-16.78,20.28-31.17C730,474.83,742.23,413.31,744.72,378.33Z"/></g><path class="cls-2" d="M486.35,432.12c2.23-20.41,3.73-57.13-11.26-74.43a15.81,15.81,0,0,0-23.54-.39c-12.29,13.15-24.17,42.52-27.86,65.31a24.94,24.94,0,0,0,8.34,23c7.56,6.43,19.62,12.47,36.18,8.05A25,25,0,0,0,486.35,432.12Z"/><path class="cls-2" d="M508.49,486.35h0a42.77,42.77,0,0,0,59.45,7.32l1.3-1c10.69-8.19,3.57-25.25-9.77-23.4l-3.75.52a63.45,63.45,0,0,1-29.84-3l-2.78-1C510.69,461.45,500.29,476.06,508.49,486.35Z"/><path class="cls-3" d="M577,692.3l-.7.88c.21-.3.42-.6.62-.91Z"/><path class="cls-6" d="M578,693.6a61.59,61.59,0,1,1-112.77-49.23c11.83,5.76,24,11.49,36.32,17.13l-6.71,4.94a3.51,3.51,0,0,0-.4.36,2.83,2.83,0,0,0,2.1,4.74H526.4l-1.23.44-13.06,4.75-2.36.86-.77,2.94-5.79,22.29a2.82,2.82,0,0,0,4.4,3l22.25-16.23,2.89-2.11,10.53-7.68C554.83,684.61,566.42,689.25,578,693.6Z"/><path class="cls-5" d="M582,671.69a61.49,61.49,0,0,1-4,21.91c-11.53-4.35-23.12-9-34.69-13.81l2.37-1.74a3.6,3.6,0,0,0-2.14-6.51H530.18l1.51-5.39,2-7.22,5-17.87a3.15,3.15,0,0,0-4.9-3.41L518,649.3,504.88,659l-3.38,2.49c-12.34-5.64-24.49-11.37-36.32-17.13A61.59,61.59,0,0,1,582,671.69Z"/><polygon class="cls-3" points="527.38 672.57 526.37 672.94 525.5 672.57 527.38 672.57"/><path class="cls-5" d="M186.18,439.36c-.58-.2-1.16-.42-1.73-.64l-.63-.24-.2-.08-1.57-.65c4-9.74-.38-19-2.23-22.23-.06-.1-.11-.2-.17-.29l-.14-.24-.31-.49-.1-.16a50.86,50.86,0,0,0,7.78,4.75h0S192.65,430.71,186.18,439.36Z"/><path class="cls-2" d="M602.22,439.48c-.25-19.93,1.65-59,19.08-75.27a15.8,15.8,0,0,1,23.45,2.12c11.17,14.83,20.06,46.81,20.86,70.09a21.86,21.86,0,0,1-8.4,18c-8.5,6.65-23.26,13.55-42.56,4.54A21.71,21.71,0,0,1,602.22,439.48Z"/></g></g></svg>