<svg id="Layer_1" data-name="Layer 1" xmlns="http://www.w3.org/2000/svg" viewBox="0 0 1000 1000"><defs><style>.cls-1{fill:#50b0d1;}.cls-2{fill:#4c7ba2;}.cls-3{fill:#fff;}.cls-4{fill:#bed4e4;}</style></defs><path class="cls-1" d="M279,799c-17.1,13.08-64.74-1.22-64.74-1.22s-32.63-9-47.52-17.5-7.49-27.86-3.61-45.35c2.21-9.94,6.46-21.23,9.72-29.13a18.51,18.51,0,0,1,16.32-11.58,148.49,148.49,0,0,1,21.42.75,243.46,243.46,0,0,1,59.59,14.16c9.85,3.82,17.6,7.88,21.69,11.6a10.25,10.25,0,0,1,2.93,4C298.73,736.36,291.93,789.05,279,799Z"/><path class="cls-2" d="M293.54,694.15a54.41,54.41,0,0,1-1.69,26.54c-4.09-3.72-11.84-7.78-21.69-11.6a30.69,30.69,0,0,0-59.59-14.16,148.49,148.49,0,0,0-21.42-.75,18.9,18.9,0,0,0-3,.39,54.57,54.57,0,0,1,107.41-.42Z"/><path class="cls-3" d="M798,574.75c-65.64,55.51-147.85,62.1-190.28,61.21a232.91,232.91,0,0,1-32.52-3.06c.62,9.52,1,18.3,1.09,26.34a437.23,437.23,0,0,1-1.78,50.3c-.77,7.59,1,19.58,4,26.63,9.13,22,25.46,59,29.83,75.16,1.29,4.76,2.09,8.89,6.18,11.64l17.07,13a5.35,5.35,0,0,1-3,9.78l-51.8-2.13c-3.94,0-8-1.64-10-5-31.49-50.91-35.57-82.56-41.09-97a5.5,5.5,0,0,0-5.87-3.48c-19.22,2.5-43.12-.62-48.8-1.59a2.55,2.55,0,0,0-2.92,1.94c-8.19,35.26-16.85,70.55-27.38,87.37a15.63,15.63,0,0,1-13.28,7.35l-37-2c-3.1,0-4.56-2.73-2.29-4.82l11.44-11.25c4-21.79,10.59-61,15-79.06.95-3.89.36-7.71-.13-11.68-3.72-30.31-5.64-67.89-4.74-85.95.19-3.87-1.71-7.52-5.33-8.9-66.41-25.52-115,2.95-125.35,16.6a8.12,8.12,0,0,0-1.12,4.18c0,.74,0,1.42,0,2.11-.05,1.24-.05,2.48,0,3.71,0,.39.05.77.08,1.15.18,7.45-.46,13.18-2.07,17.63a23,23,0,0,1-1.16,2.71,18.54,18.54,0,0,1-4.63,5.79l0,0a24,24,0,0,1-6.72,3.85l-.63.25c-14.71,5.55-27,.5-34.45-3.53-13.06-7.1-20.86-27.59-7.34-55.14,28.81-56.77,94.56-61.27,94.56-61.27s3.92-2,13.56-4c18-3.66,55.94-7,125.67,4l161.74-.12,34.88,0h.42L684,545.87l39.45-26.42s-23.07-15-10.72-32.75a15.87,15.87,0,0,1,6.43-5.61c12.31-5.48,28,10.75,28,10.75-4.47-99.38,76.49-85.26,89.39-47.78a108.59,108.59,0,0,1,5.37,24.38C846,508.88,829,548.51,798,574.75Z"/><path class="cls-4" d="M626.94,567.52c-7,25.3-23.61,52.94-33.36,67.82q-1.27-.08-2.46-.18a154,154,0,0,1-15.91-2.26c.62,9.52,1,18.3,1.09,26.34-173.84-9.91-230.43-76.49-230.43-76.49L329,563.63c18-3.66,55.94-7,125.67,4l167.19-.12Z"/><path class="cls-1" d="M520.61,653.69a3.57,3.57,0,0,1-1.42,2.2l-2.41,1.75-2.65,1.94-8,5.86-2.93,2.13L480.65,684a2.86,2.86,0,0,1-4.46-3L482,658.4l.78-3,2.39-.87.24-.07,12.4-4.52.61-.22,1.23-.45H469.38a2.87,2.87,0,0,1-2.12-4.8,2.45,2.45,0,0,1,.41-.37l.87-.64C458.2,640.82,448.69,638,440,635a54.69,54.69,0,0,0-1.38,6.83,53.65,53.65,0,0,0-.54,7.66,55.54,55.54,0,0,0,109.28,14,50.41,50.41,0,0,0,1.28-6.54Q534,655.59,520.61,653.69Z"/><path class="cls-3" d="M231.51,772.91a3.56,3.56,0,0,1-4.42,3.09l-16-4.12a3.56,3.56,0,0,1-2.39-4.84l6.47-15.29a5.47,5.47,0,0,0-.1-4.58,14,14,0,0,1-1-9.85,14,14,0,0,1,27.15,7,13.93,13.93,0,0,1-5.67,8.07,5.47,5.47,0,0,0-2.3,4Z"/><g id="Forma_1" data-name="Forma 1"><path class="cls-3" d="M738.48,337.29c-1.86,43.49-7.54,118-16,187.52-2.32,19.1-7.59,33.09-20.29,42.66-6.35,4.79-14.55,8.46-25.17,11.11-2.66.67-5.47,1.26-8.42,1.79-1.48.28-3,.52-4.58.77s-3.17.44-4.81.64c-6.59.82-13.84,1.4-21.86,1.73-9.29.39-20.65.82-33.48,1.23-21.88.73-48,1.41-75.5,1.87-8.78.14-17.69.26-26.64.36-38.42.39-77.54.23-109.7-1h0l0,0c-17.81-.69-33.5-1.72-45.76-3.18-2.23-.27-4.35-.56-6.37-.89l-2-.34c-1.31-.23-2.56-.47-3.77-.74s-2.35-.52-3.45-.82h-.05c-27.87-7.25-30.26-24.22-38.76-61.21-.31-1.34-.62-2.79-.93-4.36s-.62-3.25-.94-5c-.61-3.56-1.23-7.5-1.86-11.79-1.22-8.57-2.43-18.47-3.56-29.13-.12-1.12-.23-2.25-.35-3.4-2.1-20.49-3.85-43.53-4.88-65.34-2.37-46.08-.85-86.66-.83-86.66,0-.19.17-15.7,11.3-32.52a80.83,80.83,0,0,1,26-24.61,106.6,106.6,0,0,1,21.26-9.74c4.08-1.36,8.44-2.59,13.11-3.65,2.33-.52,4.75-1,7.24-1.43s5.06-.83,7.71-1.17c2.39-.31,4.86-.62,7.46-.91,7.75-.88,16.35-1.71,25.64-2.47,14.66-1.18,31-2.17,48.47-2.87,21.13-.86,43.83-1.29,66.91-1.13,13.08.09,26.27.36,39.39.86q5.81.23,11.6.51c15,.73,29.82,1.75,44.08,3.13,49.43,4.79,92.17,13.8,113.7,29,6.19,4.35,10.69,11.29,13.42,22.58.34,1.41.65,2.89.92,4.44.14.77.29,1.56.42,2.38s.24,1.64.36,2.48c.45,3.4.8,7.09,1,11.11A282.38,282.38,0,0,1,738.48,337.29Z"/></g><g id="Forma_1_copiar" data-name="Forma 1 copiar"><path class="cls-2" d="M711.19,347.63a169.59,169.59,0,0,0-1.49-23.2l-.18-1.21c-.06-.4-.13-.8-.19-1.19,0-.19-.07-.39-.1-.58s-.06-.39-.1-.58l-.21-1.13c-.28-1.49-.58-2.92-.91-4.28-.08-.34-.17-.68-.25-1,0-.17-.09-.33-.13-.5l-.06-.24c0-.09-.05-.17-.07-.25-.18-.65-.36-1.28-.54-1.9-.37-1.24-.77-2.41-1.18-3.53-3.33-8.95-7.92-14.25-13.63-17.49-27.22-15.27-85.5-21.1-147.87-23.17-62.35-1.91-128.71.4-165.92,4.06l-3.46.38-1.69.21-1.66.23q-3.29.47-6.36,1.05Q359,274.46,353.71,276a90.61,90.61,0,0,0-18.47,7.54A64,64,0,0,0,313,303.31c-9.48,13.8-9.47,26.8-9.45,26.79s-1,33.75.85,71.84c.85,19,2.26,39.12,4,56.58.85,8.73,1.76,16.81,2.71,23.8.12.87.23,1.73.35,2.56l.18,1.25.18,1.21c.24,1.61.49,3.13.73,4.58s.49,2.81.73,4.08.49,2.46.74,3.55c7.93,34.86,8.91,47.46,47.18,51.26,57.93,5.72,204.53,3.43,260.81-.92,7.07-.46,13.45-1.12,19.21-2l2.13-.32,2.08-.34c1.37-.24,2.69-.48,4-.74,2.58-.51,5-1.06,7.33-1.67,9.21-2.41,16.27-5.53,21.75-9.43,10.92-7.8,15.54-18.63,17.85-33.62C705,447.35,711.84,383.51,711.19,347.63Z"/></g><g id="Forma_1_copiar_2" data-name="Forma 1 copiar 2"><path class="cls-1" d="M701.68,350.56a162.74,162.74,0,0,0-1.42-22.1c-.12-.78-.23-1.54-.36-2.29l-.09-.55-.09-.55c-.07-.36-.13-.72-.2-1.08q-.4-2.13-.87-4.08l-.24-1-.12-.47-.07-.24-.06-.23c-.16-.62-.34-1.22-.51-1.81-.36-1.18-.73-2.3-1.13-3.37-3.17-8.52-7.54-13.57-13-16.66-25.93-14.54-81.52-20.14-141-22s-122.9,1.05-158.64,5.08l-3.32.41-1.62.23-1.59.23q-3.16.5-6.12,1.09-5.93,1.17-11.06,2.74a91.14,91.14,0,0,0-17.87,7.37,64.08,64.08,0,0,0-21.71,18.81c-9.31,13-9.42,25.12-9.4,25.12s-1.28,31.47.59,67.35c.86,17.93,2.34,36.92,4.14,53.48.9,8.28,1.86,15.95,2.85,22.59.13.83.25,1.64.38,2.44l.18,1.18c.07.39.13.78.19,1.16.25,1.52.5,3,.75,4.35s.51,2.67.76,3.89.51,2.34.76,3.38c8.08,33.2,9.27,45.27,45.93,48.93,55.57,5.52,195.48,3.36,249-.78,6.73-.44,12.81-1.07,18.3-1.87,1.37-.2,2.71-.41,4-.63s2.56-.46,3.79-.7q3.69-.74,7-1.59c8.78-2.29,15.5-5.27,20.71-9,10.4-7.44,14.79-17.75,17-32C695.77,445.57,702.3,384.75,701.68,350.56Z"/></g><path class="cls-3" d="M455.53,425.28c.39-20-1.35-55.82-17.41-71.32a15.4,15.4,0,0,0-22.89,1.67c-10.8,13.84-19.78,43.4-21.38,65.86A24.28,24.28,0,0,0,404,443.08c7.89,5.59,20.13,10.4,35.83,4.67A24.34,24.34,0,0,0,455.53,425.28Z"/><path class="cls-3" d="M565,418.29c.63-19.43,4.18-57.42,21.86-72.49a15.41,15.41,0,0,1,22.75,3.08c10.24,14.94,17.51,46.47,17.28,69.18a21.33,21.33,0,0,1-9,17.16c-8.57,6.1-23.25,12.18-41.66,2.57A21.19,21.19,0,0,1,565,418.29Z"/><path class="cls-1" d="M543.52,176.61c-35.58,12.75-78.83,35.74-96.15,57-17.44.7-33.81,1.69-48.48,2.87.06-49.1,37.28-88.88,83.21-88.88C506.43,147.65,528.3,158.82,543.52,176.61Z"/><path class="cls-2" d="M650.55,186.88C648.9,210.5,609.35,237,609.35,237c-14.26-1.38-29.07-2.4-44.09-3.13q-5.78-.28-11.6-.51c-13.12-.5-26.3-.77-39.38-.86-23.08-.16-45.78.27-66.91,1.13,17.32-21.31,60.57-44.3,96.15-57,16.5-5.92,32.32-10.23,45-12.25C629.69,157.77,652.2,163.27,650.55,186.88Z"/><path class="cls-4" d="M277.81,656.18c0,.39.05.77.08,1.15.18,7.45-.46,13.18-2.07,17.63a26.5,26.5,0,0,1-5.79,8.5l0,0a24,24,0,0,1-6.72,3.85C273,676.88,276.52,664.24,277.81,656.18Z"/><path class="cls-4" d="M765.77,504.75a.68.68,0,0,1-.47-1.26c5.84-3.37,18.21-9.23,27.82-5.19,9.79,4.12,9.37,18.23,8.55,25a.69.69,0,0,1-1.34.11C798.26,516,790.84,500.17,765.77,504.75Z"/><path class="cls-4" d="M739.62,521c-6.26,13.41-27.89,48.48-86.42,59.39,0,0,54.73-26.7,70.24-61,0,0-23.07-15-10.72-32.75a15.87,15.87,0,0,1,6.43-5.61S718,496,737.68,512.53A7.13,7.13,0,0,1,739.62,521Z"/><path class="cls-3" d="M542.46,485v.17a15.9,15.9,0,0,1-14.16,15.56c-1.37.15-2.75.29-4.12.51a68.22,68.22,0,0,1-10.5,1,66,66,0,0,1-10.67-1c-1.31-.23-2.63-.36-3.95-.51a15.9,15.9,0,0,1-14.16-15.56V485a28.78,28.78,0,0,1,57.56,0Z"/><path class="cls-2" d="M549.13,649.45a54.5,54.5,0,0,1-.47,7.16c0,.11,0,.22,0,.33q-14.65-1.35-28-3.25a3.44,3.44,0,0,0,.06-1.11,3.64,3.64,0,0,0-3.65-3.29H503.54l1.52-5.44,2.05-7.33,5.11-18.12a3.2,3.2,0,0,0-5-3.46l-16,11.81-13.34,9.85-3.42,2.53-4,2.91-1.95,1.44C458.2,640.82,448.69,638,440,635c.15-.56.31-1.12.48-1.67a55.54,55.54,0,0,1,108.68,16.16Z"/></svg>