<svg id="Layer_1" data-name="Layer 1" xmlns="http://www.w3.org/2000/svg" viewBox="0 0 1000 1000"><defs><style>.cls-1{fill:#baa590;}.cls-2{fill:none;stroke:#50b0d1;stroke-miterlimit:10;}.cls-3{fill:#fff;}.cls-4{fill:#50b0d1;}.cls-5{fill:#4c7ba2;}.cls-6{fill:#d1fae3;}.cls-7{fill:#bed4e4;}</style></defs><ellipse class="cls-1" cx="536.75" cy="854.55" rx="290.8" ry="22.63"/><path class="cls-2" d="M641.12,595.29l-.18,0"/><path class="cls-3" d="M381,601.77c-.25.43-.81,1.37-1.64,2.6l1.89-2.58Zm29.7,35.52c3.63,2.48,5.91,13.78,6,14.72,4.47,45.82,15.55,95.34,29.44,177.87.65,3.84.43,7.77-2.17,10.68A40.28,40.28,0,0,0,437,851.2c-2.18,4.95-1.35,10.44,6.93,10.44,13.73,0,30.79-1.7,46.53-12.1,1.49-1,1.83-1.82,1.9-6.45l6.12-91.32s29.73,1.57,50.08-3.13c0,0-4.84,60.41,3.48,100.82.39,1.94.46,1.87,2.22,2.81,8.49,4.51,25.58,8.12,54.57,4.22,4.78-.64,6.48-6.92,3.51-10.72a56.27,56.27,0,0,0-8.61-8.94,11.4,11.4,0,0,1-4.12-10.39l13.12-90.32c2.53-15.51,6.93-38.29,9.17-63.66v-2.7c-1.91-.08-2.83-.19-4.78-.32s-3.92-.27-5.91-.45l-3-.27q-3-.29-6.09-.64c-5.11-.58-10.33-1.29-15.63-2.1q-4.77-.74-9.62-1.58l-3.24-.57c-14.33-2.6-29.08-5.89-43.73-9.56-8.53-2.13-17-4.42-25.37-6.76-12.08-3.39-23.88-6.94-35.12-10.49C419,621.09,380,605.29,379,604.9h0"/><path class="cls-2" d="M381.14,601.52l-.14.25"/><path class="cls-2" d="M523,188.15s0,0,0,0"/><path class="cls-2" d="M339.46,204.22s-.25-.2-.69-.59"/><path class="cls-4" d="M578.27,664.55a63.77,63.77,0,1,1-121.71-31.31c13.12,4.15,26.9,8.3,41,12.25,9.76,2.74,19.67,5.41,29.63,7.9C544.31,657.68,561.52,661.52,578.27,664.55Z"/><path class="cls-3" d="M542.61,666.54l-42,30.67a3.11,3.11,0,0,1-4.86-3.3L503,666l18.4-6.69h-33a3.12,3.12,0,0,1-1.89-5.63l11.15-8.22c9.76,2.74,19.67,5.41,29.63,7.9l-1.66,6h14.71A4,4,0,0,1,542.61,666.54Z"/><path class="cls-5" d="M578.47,659.51c0,1.7-.08,3.38-.21,5-1.52-.28-3-.56-4.58-.86-15.29-2.88-30.94-6.42-46.49-10.31L535,625.65a3.47,3.47,0,0,0-5.41-3.75l-32,23.58c-14.1-3.94-27.89-8.09-41-12.24.05-.11.1-.22.16-.33a63.82,63.82,0,0,1,31.57-31.44c15.9-.37,32.46-.86,49.41-1.45A63.77,63.77,0,0,1,578.47,659.51Z"/><path class="cls-6" d="M537.7,600c-17,.59-33.51,1.08-49.41,1.45A63.83,63.83,0,0,1,537.7,600Z"/><path class="cls-7" d="M535,625.66l-7.8,27.73c-10-2.49-19.87-5.16-29.63-7.9l32-23.6A3.48,3.48,0,0,1,535,625.66Z"/><path class="cls-7" d="M488.29,601.47a63.82,63.82,0,0,0-31.57,31.44c-44.14-14.43-74.58-23.26-75.48-23.62.05-.09-18.27-4.55-16.35-4.47l9.67-4.05,6.69,1c1.19.05,2.38.08,3.6.11C412.41,602.57,448.27,602.38,488.29,601.47Z"/><line class="cls-6" x1="380.21" y1="609.56" x2="380.39" y2="609.29"/><path class="cls-7" d="M578.26,664.56c.12-1.68.2-3.35.2-5.06A63.78,63.78,0,0,0,537.69,600c27-.92,50.85-7.73,78.78-9.19,1.14,11.67,6.66,34.53,6.78,47.38a4,4,0,0,0-.31,1.57l-1,30c-1.91-.08-2.83-.18-4.78-.31s-3.92-.28-5.91-.45l-3-.27c-2-.19-4-.41-6.09-.64-5.11-.58-10.33-1.29-15.63-2.1-2.73-.43-5.49-.88-8.26-1.35Z"/><path class="cls-3" d="M677.71,770.52C652.35,773,656.52,754.81,657.12,753s4-6.3-3.56-7.78c-15.14-1.54-12.34-18-4.23-18.73,3.19-.29,4.82-1.55,5.62-3,1.16-2.06.13-4.28-1.16-6.26-10.39-16-15.88-33.33-23.49-48.26-8.77-17.19-15-31.63-15-31.63l2.6-40,20-4.69s26.12,25.24,38.57,47.06,26.24,48.18,31.58,66.35C720.3,755,703.07,768.06,677.71,770.52Z"/><path class="cls-7" d="M676.44,639.74C669,671.4,630.3,669,630.3,669a210.73,210.73,0,0,0-20.38-31.69l-29.45-44.48,56.3-4.53S664,617.92,676.44,639.74Z"/><path class="cls-5" d="M518.61,214.73l-9.26.09s-23.06-.08-62.12,2c-25.22,1.36-55.48,6.72-92.16,10.49-6.85.71-13.21,3.32-19.2,4.66-4.26-3.9-28.47-30.66-19.58-54.66,9.09-24.54,44.4-41.83,132.17-1.11v0C468.9,185.7,492.17,198.32,518.61,214.73Z"/><path class="cls-4" d="M518.61,214.73c-26.44-16.41-49.71-29-70.15-38.49v0c11.16-28.81,42-49.32,79.92-48.73,39,.62,88.77,33.74,105.08,86.89"/><path class="cls-7" d="M306.58,613.14c-3.42,5.93-20.53,33.17-47.62,35.38a42.23,42.23,0,0,0,18.72-14.19A52.19,52.19,0,0,0,288,602.7v-.37a5.09,5.09,0,0,0,1.23,1.31A76.59,76.59,0,0,0,306,612.91C306.2,613,306.39,613.07,306.58,613.14Z"/><path class="cls-3" d="M414.88,619.57l-.33,11.76a19,19,0,0,1-5,11.37c-27.48,26.6-114.66,64.58-184.07,5.78a69.05,69.05,0,0,1-23.9-43.23,114.18,114.18,0,0,1,.66-34.32h0c.64-3.89,1.49-8,2.58-12.2,5.05-19.57,5.43-21.66,6.16-31.26.07-.89.1-1.78.11-2.67v-.3a4.5,4.5,0,0,1,6.68-4,20,20,0,0,1,2.88,1.28h0l.71.42h0a23.78,23.78,0,0,1,5.7,4.82l.05.07a24.38,24.38,0,0,1,2.06,2.73v0a24.81,24.81,0,0,1,3.69,9.39,47.19,47.19,0,0,1,.66,11.18,37.67,37.67,0,0,1-1,6.83h0c-.14.59-.26,1-.32,1.35a1.37,1.37,0,0,0,.22,1.22,1,1,0,0,0,1.24.36c5.16-3,15.2-6.18,25.49-3.31a37.08,37.08,0,0,1,5.33,2h0c.59.28,1.16.58,1.69.89A37.31,37.31,0,0,1,279,573l.11.16a56.51,56.51,0,0,1,8,26.35,5.34,5.34,0,0,0,.89,2.87v.37a52.19,52.19,0,0,1-10.35,31.63A42.23,42.23,0,0,1,259,648.52c27.09-2.21,44.2-29.45,47.62-35.38,16.6,6.57,28.64,10.38,58.31-8.32Z"/><g id="Forma_1" data-name="Forma 1"><path class="cls-3" d="M762.32,276.39c-.58-4.41-1.27-8.45-2.05-12.15-.2-.92-.4-1.83-.61-2.71s-.42-1.75-.65-2.59c-.44-1.68-.91-3.29-1.4-4.81-3.94-12.22-9.48-19.49-16.67-23.77-34-20.38-110.51-24.81-189.39-21.85s-160.37,13.34-206.49,22.85c-2.9.59-5.7,1.24-8.41,1.93s-5.33,1.42-7.85,2.2a147,147,0,0,0-14.15,5.11A116.93,116.93,0,0,0,292,253.1a89.19,89.19,0,0,0-26.58,29.28c-10.92,19.59-9.76,36.8-9.74,36.8s1.69,44.85,8.15,95.43c3.12,25.29,7.22,52,11.49,75.33,2.13,11.65,4.29,22.45,6.36,31.79,1,4.67,2,9,3,12.84q.74,2.91,1.45,5.46c.47,1.7.93,3.29,1.38,4.74,14.46,46.53,17.61,64,65.28,66,72.46,3.13,250.56-15.14,320.89-23.44,8.8-1,16.75-2.27,23.94-3.72q2.7-.54,5.25-1.13c1.71-.39,3.36-.8,5-1.21q4.83-1.26,9.13-2.68c11.48-3.8,20.22-8.54,26.82-14.34,13.19-11.6,17.84-27.48,18.81-48.72,3.52-77.3,3.55-159.92,2-208C764.28,295.51,763.5,285.21,762.32,276.39Z"/></g><g id="Forma_1_copiar" data-name="Forma 1 copiar"><path class="cls-5" d="M735.45,321.21a188.48,188.48,0,0,0-3.58-25.45l-.3-1.31c-.1-.44-.21-.87-.31-1.29,0-.22-.1-.43-.16-.64l-.15-.63-.33-1.23c-.43-1.62-.89-3.17-1.36-4.64l-.36-1.09-.19-.54-.09-.26-.09-.27c-.25-.7-.5-1.38-.76-2.05-.51-1.33-1-2.59-1.59-3.79-4.41-9.59-9.91-15-16.48-18.14-31.27-14.56-96-16.12-164.89-13.19C475.93,249.77,403,257.86,362.28,265c-1.28.23-2.54.46-3.77.71l-1.85.37-1.8.39c-2.4.53-4.7,1.09-6.93,1.68q-6.68,1.8-12.43,4A100.93,100.93,0,0,0,315.78,282a70.43,70.43,0,0,0-22.87,23.63c-9.3,16-8.21,30.31-8.19,30.3s1.74,37.28,6.93,79.11c2.53,20.91,5.76,42.92,9.09,62,1.66,9.56,3.34,18.38,5,26,.2,1,.4,1.89.6,2.8.1.46.2.91.31,1.36s.2.88.29,1.32q.6,2.63,1.19,5c.38,1.58.77,3.06,1.14,4.44s.75,2.67,1.12,3.85c11.64,37.76,13.77,51.56,56.27,52.56C431,575.8,592.32,561.05,654,551.56c7.75-1.1,14.72-2.36,21-3.76l2.32-.54,2.26-.55c1.49-.37,2.93-.75,4.33-1.14,2.81-.77,5.45-1.59,7.94-2.45,10-3.42,17.48-7.46,23.18-12.2,11.4-9.52,15.58-21.84,16.87-38.55C737,431.63,739.15,360.7,735.45,321.21Z"/></g><g id="Forma_1_copiar_2" data-name="Forma 1 copiar 2"><path class="cls-4" d="M725.21,325.24A179.85,179.85,0,0,0,721.8,301c-.19-.84-.38-1.67-.58-2.48l-.15-.61-.15-.59c-.1-.4-.2-.79-.31-1.18-.41-1.54-.85-3-1.3-4.42-.11-.35-.23-.7-.34-1l-.18-.51-.08-.25-.09-.25c-.24-.67-.48-1.32-.72-2-.49-1.27-1-2.47-1.52-3.61-4.2-9.14-9.44-14.34-15.7-17.29-29.79-13.85-91.52-15.39-157.27-12.44S408.05,265.77,369,273.19c-1.23.24-2.43.48-3.62.73l-1.77.38-1.73.4q-3.45.8-6.66,1.7-6.42,1.8-12,3.94A101.74,101.74,0,0,0,324.19,290a71,71,0,0,0-22.36,22.55c-9.18,15.11-8.29,28.47-8.27,28.47s1.22,34.79,6.27,74.18c2.45,19.68,5.67,40.48,9,58.58,1.68,9,3.38,17.43,5,24.66.2.91.41,1.8.61,2.66.1.44.21.87.31,1.29l.3,1.26c.4,1.66.8,3.24,1.19,4.73s.78,2.91,1.16,4.22.75,2.54,1.12,3.66c11.67,35.92,14,49.12,54.7,50.09C435,567.75,589,553.71,647.65,544.68c7.39-1,14-2.25,20-3.59,1.5-.33,3-.68,4.37-1s2.78-.71,4.12-1.08c2.67-.75,5.19-1.52,7.56-2.34,9.48-3.26,16.64-7.1,22.07-11.63,10.84-9.06,14.82-20.79,16.05-36.71C726.63,430.43,728.74,362.86,725.21,325.24Z"/></g><path class="cls-3" d="M570.44,411.92c1.53,12.09,9,22.56,19.48,26.16,6.06,2.09,13.85,2.94,23.64.91l.9-.2c18.71-4,30.49-24.68,26.07-45.66-5.3-25.12-17.28-60.55-43.73-74.24a12.14,12.14,0,0,0-11-.26C573.63,324.55,561.81,343.82,570.44,411.92Z"/><path class="cls-3" d="M512.72,492.61a35.15,35.15,0,0,1-25-6.8c-7.38-5.6-3.9-17.4,5.32-18.32l17.88-1.37,17.26-2.07c8.32-.81,13.69,8.73,8.58,15.33A35,35,0,0,1,512.72,492.61Z"/><path class="cls-3" d="M408.57,424.92l-4.85,2.85c-13.9,8.15-30.92-3.15-24.58-16.31h0c5.15-10.69,16.44-18.59,29.69-20.78l1.18-.2,1.18-.19c13.24-2.19,26.47,1.66,34.79,10.12h0c10.24,10.43-2.25,26.6-18,23.35l-5.5-1.13A19.83,19.83,0,0,0,408.57,424.92Z"/><path class="cls-7" d="M264.45,559c-12.08-4.69-26.63-1.58-33.8,5.89-.77.79-2.05-.31-2-1.41,0-.17,0-.35,0-.52.63-31.66-5.23-39-7.36-40.67a23.78,23.78,0,0,1,5.7,4.82l.05.07a24.38,24.38,0,0,1,2.06,2.73v0a24.81,24.81,0,0,1,3.69,9.39,47.19,47.19,0,0,1,.66,11.18,37.67,37.67,0,0,1-1,6.83h0c-.14.59-.26,1-.32,1.35a1.37,1.37,0,0,0,.22,1.22,1,1,0,0,0,1.24.36c5.16-3,15.2-6.18,25.49-3.31A37.08,37.08,0,0,1,264.45,559Z"/></svg>