<svg id="Layer_1" data-name="Layer 1" xmlns="http://www.w3.org/2000/svg" viewBox="0 0 1000 1000"><defs><style>.cls-1{fill:#50b0d1;}.cls-2{fill:#313338;}.cls-2,.cls-3,.cls-7,.cls-8{stroke:#fff;stroke-miterlimit:10;}.cls-2,.cls-3,.cls-7{stroke-linecap:round;}.cls-2,.cls-7,.cls-8{stroke-width:13px;}.cls-3,.cls-7,.cls-8{fill:none;}.cls-3{stroke-width:27px;}.cls-4{fill:#fff;}.cls-5{fill:#4c7ba2;}.cls-6{fill:#bed4e4;}</style></defs><path class="cls-1" d="M90.49,140.19H510.64a19.86,19.86,0,0,1,19.86,19.86V432.57a40,40,0,0,1-40,40H70.63a0,0,0,0,1,0,0V160.05a19.86,19.86,0,0,1,19.86-19.86Z"/><line class="cls-2" x1="300.61" y1="472.56" x2="300.61" y2="765.58"/><line class="cls-3" x1="460.71" y1="466.56" x2="51.94" y2="466.56"/><path class="cls-4" d="M420.46,255.24l8.21-35.3a3.94,3.94,0,0,0-4.73-4.73l-35.3,8.21a2.37,2.37,0,0,0-1.14,4l29,29A2.37,2.37,0,0,0,420.46,255.24Z"/><path class="cls-5" d="M286.4,499.14l-76-140.62a7.13,7.13,0,0,1,2.8-9.54h0a7.13,7.13,0,0,1,9.77,2.85l77.63,141.59"/><path class="cls-1" d="M677.06,235.66C651.93,217.29,629.69,200,610,189h0c13.3-27.89,45.6-46,83.37-42.55,38.89,3.56,87,42.35,99.21,96.58"/><path class="cls-4" d="M831.71,743c-18.27,7.2-19.12-7.13-18.43-14.64a3.78,3.78,0,0,0-3.32-4.09c-7.41-1-7.23-9.36-6.62-13.73a9.15,9.15,0,0,0-1-5.53c-11.64-22.05-30.61-39.75-43-49.76-2.71-2.2-5.11-4-7-5.45a3,3,0,0,0-4.83,2.55c.34,11.61.16,22.13-.35,31.48h0c-1.21,22.73-4.29,38.64-6.29,47a31.11,31.11,0,0,0,.06,13c4.8,26.27,3.14,60.11,1.67,70.65a4.08,4.08,0,0,0,2.42,4.26,30,30,0,0,1,8,5.5,4.39,4.39,0,0,1-2.25,7.5c-16.59,3-36.48,1.9-46.52,1a8.57,8.57,0,0,1-7.75-7.09c-4.24-24.68-4.85-64.85-4.92-81.12a5.71,5.71,0,0,0-6.53-5.61c-11,1.54-26.91,1.47-33.87,1.35a5.11,5.11,0,0,0-4.81,3.15l-32.59,79.09a11.77,11.77,0,0,1-3.93,5l-2.38,1.75a18,18,0,0,1-10.67,3.51H552.32a4.57,4.57,0,0,1-3.8-7.13c3.05-4.46,7.69-8.14,11.78-10.8a24.77,24.77,0,0,0,10.75-15.58,369.76,369.76,0,0,1,18.73-61.17c-4.25-30.5-5.19-72.41-4.27-88.36a6.09,6.09,0,0,0-5.71-6.42c-100.43-6.16-234.2-50.91-249-57.73-1-.45-2-.91-3.1-1.4-2.42-1.07-5.11-2.26-8-3.64-15.88-7.64-36.51-21-40.81-52.64-4.15-30.54,15.66-34.51,25.16-34.69a30.8,30.8,0,0,1,4.84.24c5.42-17,27.55,0,49.22,19.09s104.26,53.68,104.26,53.68l9.82,2.55L580.87,596.9l28.65,2.84,130.58,3.35,27.83,14.14a44.92,44.92,0,0,1,8,5.18c4.67,3.81,13.2,10.89,23.17,19.69,11.86,10.48,25.75,23.39,37.55,36.09C863.45,707.09,856,733.42,831.71,743Z"/><path class="cls-6" d="M799.06,642.1a119.82,119.82,0,0,0-39.65,13.11c-2.71-2.2-5.11-4-7-5.45a3,3,0,0,0-4.83,2.55c.34,11.61.16,22.13-.35,31.48h0c-164.25-17.09-275-115.06-275-115.06L580.87,596.9l28.65,2.84,130.58,3.35,27.83,14.14a44.92,44.92,0,0,1,8,5.18C780.56,626.22,789.09,633.3,799.06,642.1Z"/><path class="cls-5" d="M331.46,581.58l22.09,39.23a7.21,7.21,0,0,0,9.89,2.7h0a7.2,7.2,0,0,0,2.72-9.68l-23.35-43"/><path class="cls-6" d="M334.58,587.12c-2.42-1.07-12-5.23-14.83-6.61,43.33-41.61-15.65-87.33-15.65-87.33a30.8,30.8,0,0,1,4.84.24s28.45,12,40.64,41.22S334.58,587.12,334.58,587.12Z"/><path class="cls-5" d="M732.51,245.66l-10.21-1s-25.37-2.94-68.63-5.47c-27.93-1.62-61.9,2.53-102.76,2.15-7.63-.07-15,2-21.71,2.75-4.21-4.82-27.55-39.28-14.79-64.6,9.15-18.17,63.29-34.94,145.65,15.14v0C681.38,207.55,705.43,224.32,732.51,245.66Z"/><g id="Forma_1" data-name="Forma 1"><path class="cls-4" d="M925.26,348.51c-2.1,46.41-8.33,125.94-17.53,200.1C905.2,569,899.53,583.92,886,594.1c-6.79,5.09-15.55,9-26.89,11.79-2.84.71-5.84,1.33-9,1.89-1.58.29-3.21.55-4.88.81s-3.39.47-5.14.68c-7,.86-14.78,1.45-23.33,1.78-9.92.4-22.05.83-35.73,1.24-23.37.72-51.28,1.38-80.59,1.8l-5.91.08c-7.45.1-15,.18-22.53.24-11,.09-22.1.13-33.06.13-29.85,0-58.93-.45-84-1.49h0c-19-.78-35.75-1.92-48.83-3.51-2.38-.3-4.64-.61-6.8-1l-2.11-.37c-1.4-.24-2.74-.5-4-.79s-2.51-.56-3.69-.88a.08.08,0,0,1,0,0c-29.72-7.81-32.24-25.92-41.22-65.42-.33-1.43-.65-3-1-4.66s-.65-3.48-1-5.37c-.65-3.8-1.3-8-2-12.59-1.29-9.15-2.55-19.72-3.74-31.1-.12-1.19-.23-2.41-.36-3.63-2.19-21.87-4-46.47-5-69.75-2.42-49.19-.7-92.49-.68-92.49,0-.2.22-16.76,12.14-34.68a86.28,86.28,0,0,1,27.79-26.21A113.64,113.64,0,0,1,497,250.26a144,144,0,0,1,14-3.86c2.49-.55,5.07-1.06,7.72-1.52s5.41-.87,8.24-1.23c2.55-.32,5.19-.64,8-.94,8.27-.93,17.45-1.79,27.36-2.58,15.66-1.22,33.14-2.24,51.74-2.94,22.56-.87,46.79-1.27,71.42-1,14,.12,28,.45,42,1q6.19.24,12.38.57c16,.81,31.83,1.94,47,3.45,52.75,5.23,98.34,14.95,121.28,31.24,6.6,4.66,11.38,12.07,14.26,24.13.36,1.5.69,3.08,1,4.74.15.82.3,1.67.44,2.55s.26,1.75.38,2.64c.47,3.63.83,7.57,1.06,11.86A301.39,301.39,0,0,1,925.26,348.51Z"/></g><g id="Forma_1_copiar" data-name="Forma 1 copiar"><path class="cls-5" d="M896.1,359.49a179,179,0,0,0-1.53-24.77c-.06-.44-.12-.87-.19-1.3s-.13-.85-.2-1.26c0-.21-.07-.42-.1-.62s-.07-.42-.11-.62l-.21-1.21c-.3-1.59-.62-3.12-1-4.57-.09-.37-.18-.73-.26-1.08,0-.18-.1-.35-.14-.53s0-.17-.07-.26-.05-.18-.07-.26c-.18-.7-.38-1.37-.57-2-.4-1.33-.81-2.58-1.25-3.78-3.53-9.56-8.42-15.23-14.51-18.7-29-16.36-91.2-22.73-157.76-25.08s-137.37.1-177.1,3.92q-1.87.18-3.69.39l-1.8.23-1.77.23c-2.35.33-4.61.7-6.8,1.11-4.38.81-8.45,1.78-12.26,2.88a96.21,96.21,0,0,0-19.73,8,68.3,68.3,0,0,0-23.8,21c-10.15,14.7-10.17,28.58-10.15,28.57s-1.13,36,.73,76.68c.86,20.32,2.32,41.76,4.09,60.4.88,9.32,1.84,17.94,2.83,25.4.12.93.25,1.85.37,2.74.07.45.13.89.19,1.33s.13.87.19,1.3c.25,1.71.51,3.34.76,4.88s.52,3,.78,4.36.52,2.63.78,3.79c8.38,37.22,9.39,50.67,50.23,54.83,61.81,6.24,218.29,4.16,278.36-.34,7.55-.48,14.36-1.17,20.51-2l2.28-.34c.75-.11,1.49-.23,2.21-.36,1.46-.24,2.88-.5,4.26-.77,2.76-.54,5.37-1.12,7.83-1.76,9.84-2.55,17.39-5.87,23.23-10,11.69-8.31,16.64-19.85,19.14-35.84C889.26,465.9,896.71,397.78,896.1,359.49Z"/></g><g id="Forma_1_copiar_2" data-name="Forma 1 copiar 2"><path class="cls-1" d="M886,362.59a172.54,172.54,0,0,0-1.47-23.6c-.11-.83-.24-1.64-.37-2.43L884,336c0-.19-.07-.39-.1-.58-.07-.39-.14-.78-.21-1.15-.29-1.52-.59-3-.92-4.36-.09-.35-.17-.69-.26-1l-.12-.5-.07-.25a1.82,1.82,0,0,0-.07-.25c-.17-.66-.35-1.31-.54-1.94-.38-1.26-.78-2.45-1.19-3.59-3.36-9.11-8-14.51-13.82-17.82-27.64-15.58-87-21.69-150.48-23.79s-131.17.82-169.33,5c-1.2.13-2.38.28-3.54.43l-1.73.23-1.7.25q-3.37.53-6.54,1.14c-4.21.83-8.14,1.81-11.81,2.9a98,98,0,0,0-19.08,7.82,68.38,68.38,0,0,0-23.22,20c-10,13.86-10.12,26.79-10.1,26.79s-1.45,33.58.46,71.88c.88,19.14,2.42,39.41,4.3,57.09.93,8.84,1.94,17,3,24.12.13.89.27,1.75.4,2.6.06.43.13.85.19,1.27s.13.83.2,1.23c.26,1.63.53,3.18.79,4.65s.53,2.85.8,4.15.53,2.5.8,3.6c8.54,35.47,9.78,48.35,48.9,52.34,59.3,6,208.63,4.08,265.79-.21,7.18-.46,13.67-1.11,19.53-1.95,1.47-.21,2.89-.43,4.28-.67s2.74-.48,4-.73q3.95-.78,7.45-1.68c9.38-2.43,16.56-5.59,22.13-9.54,11.12-7.91,15.83-18.91,18.2-34.14C879.41,464,886.52,399.08,886,362.59Z"/></g><path class="cls-1" d="M686.29,673.49l-6.76,5-2.93,2.13L654.07,697a2.86,2.86,0,0,1-4.46-3l5.85-22.59.77-3,2.4-.86.24-.08,1.85-.67L671.27,663l.6-.22,1.24-.46H642.8a2.8,2.8,0,0,1-2.72-1.92q-14.15-4.74-27.28-10c-.32,1.44-.59,2.91-.79,4.39a53.89,53.89,0,0,0-.54,7.67,55.54,55.54,0,0,0,108.19,17.67Q702.52,677.33,686.29,673.49Z"/><path class="cls-5" d="M722.55,662.45a54.61,54.61,0,0,1-.47,7.16c0,.11,0,.22-.05.33a50.41,50.41,0,0,1-1.28,6.54c-.32,1.23-.68,2.44-1.09,3.64q-17.14-2.79-33.37-6.63l1.26-.92,2.65-1.93,2.41-1.75a3.59,3.59,0,0,0,1.42-2.2,3.46,3.46,0,0,0,.06-1.11,3.65,3.65,0,0,0-3.65-3.3H677l1.52-5.44,2-7.33,5.11-18.11a3.2,3.2,0,0,0-5-3.46l-16,11.81-13.34,9.84-3.43,2.54-4,2.91L642,656.48l-.87.64a2.45,2.45,0,0,0-.41.37,2.82,2.82,0,0,0-.6,2.87q-14.15-4.74-27.28-10c.18-.82.37-1.63.59-2.43.15-.57.31-1.12.48-1.67a55.61,55.61,0,0,1,25-31.75c11,0,22,0,33.06-.13,7.55-.06,15.08-.14,22.53-.24A55.52,55.52,0,0,1,722.55,662.45Z"/><path class="cls-4" d="M613.77,440.36c-.31-20.54-3.36-57.17-20.37-72.48A15.81,15.81,0,0,0,570,370.41c-10.57,14.56-18.73,45.17-19.58,68.25a24.93,24.93,0,0,0,11.12,21.77c8.29,5.45,21,9.95,36.9,3.52A25,25,0,0,0,613.77,440.36Z"/><path class="cls-4" d="M646.06,496.74h0a36.9,36.9,0,0,0,51.66.77l1-1c8.42-8,.73-22-10.54-19.15l-3.17.79c-8.48,2.13-16.78,1.53-25.86.19l-2.47-.59C645.64,475.18,638.07,488.67,646.06,496.74Z"/><path class="cls-4" d="M730.66,443.14c.11-19.93,2.72-59,20.45-74.91a15.79,15.79,0,0,1,23.4,2.54c10.9,15,19.21,47.17,19.59,70.46a21.88,21.88,0,0,1-8.72,17.83c-8.62,6.49-23.51,13.12-42.64,3.77A21.74,21.74,0,0,1,730.66,443.14Z"/><polyline class="cls-7" points="360.31 780.23 300.57 700.26 240.82 780.23"/><path class="cls-8" d="M75.34,472.56l68.87-96.18a6.61,6.61,0,0,1,10.79.07l8.18,11.75a6.6,6.6,0,0,0,10.58.34l70.86-89.08a6.6,6.6,0,0,1,10.12-.26l49.87,56.58a6.6,6.6,0,0,0,10.19-.34l91.51-119.35"/></svg>