<svg id="Layer_1" data-name="Layer 1" xmlns="http://www.w3.org/2000/svg" xmlns:xlink="http://www.w3.org/1999/xlink" viewBox="0 0 1000 1000"><defs><style>.cls-1{fill:#cc69cc;}.cls-2{fill:#9b5d95;}.cls-3{fill:#50b0d1;}.cls-4{fill:#4c7ba2;}.cls-5{fill:#fff;}.cls-6{fill:#bed4e4;}.cls-7{fill:url(#linear-gradient);}.cls-8{fill:#34383f;}</style><linearGradient id="linear-gradient" x1="-69.89" y1="455.26" x2="855.6" y2="527.07" gradientUnits="userSpaceOnUse"><stop offset="0" stop-color="#50b0d1"/><stop offset="1" stop-color="#50c3d1"/></linearGradient></defs><path class="cls-1" d="M797.19,289.24a41.44,41.44,0,0,0-42.05,38.06c-.1,1.24-.14,2.47-.14,3.7l-17.18-15.39a35,35,0,0,1,4-49.27c.42-.35.83-.68,1.25-1,18.11-14,44.75-5.13,51.77,16.66Z"/><path class="cls-1" d="M856.75,325.33l-19.44,12.38c.21-1.2.36-2.42.46-3.66a41.43,41.43,0,0,0-35.29-44.38l3.45-6.75c10.47-20.38,38.2-24.83,53.8-8.05.35.38.71.78,1.06,1.18A35,35,0,0,1,856.75,325.33Z"/><path class="cls-2" d="M837.77,334.05c-.1,1.24-.25,2.46-.46,3.66a42,42,0,0,1-2,7.4l-41.12,2.29-38.45-8.78A41.8,41.8,0,0,1,755,331c0-1.23,0-2.46.14-3.7a41.44,41.44,0,0,1,42.05-38.06c.87,0,1.76,0,2.65.12s1.76.18,2.64.31A41.43,41.43,0,0,1,837.77,334.05Z"/><path class="cls-3" d="M215.77,291.18c-29.22,13.45-64.17,36.15-77.28,55.49-14.72,1.89-28.53,3.95-40.88,6-3.59-41.62,25-78.1,64-81.51C182.18,269.38,201.55,277.23,215.77,291.18Z"/><path class="cls-4" d="M307.27,292c.35,20.15-31.21,45.57-31.21,45.57-12.19-.12-24.82.12-37.61.62q-4.92.18-9.87.42c-11.16.55-22.36,1.3-33.45,2.19-19.58,1.58-38.79,3.63-56.64,5.92,13.11-19.34,48.06-42,77.28-55.49,13.55-6.24,26.64-11.07,37.22-13.72C287.42,268.82,306.92,271.81,307.27,292Z"/><path class="cls-5" d="M493.12,622.46h0c-1.53,4.49-4.88,9.29-11.17,14a53.85,53.85,0,0,1-21.35,9.56c-19.63,4.15-70.52,12.68-117.88,1.73-10.55-2.44-19.53-4.63-27.16-6.57-12.16-3.11-20.91-5.61-27.14-7.56-5.91-1.84-9.57-3.19-11.79-4.09a2.47,2.47,0,0,0-3.39,2.06q-1,10.67-2,19.71c-3.64,32.95-7,50-7.76,53.61a6.6,6.6,0,0,0-.14,1.47c.24,16.44,8.42,40.16,11.43,48.37a6.72,6.72,0,0,0,3.57,3.83,31.44,31.44,0,0,1,10.92,8.83,3.35,3.35,0,0,1-2.28,5.44c-10.1,1-31.21,1.76-41.12-8.72-11-11.59-17-40.77-18.82-50.62a4,4,0,0,0-4-3.32H188.63a4,4,0,0,0-4,3.94c-.39,26.44-4.74,44.88-7.13,53.11a6.77,6.77,0,0,1-6.5,4.87H142.2a3.07,3.07,0,0,1-2.49-4.86,24.81,24.81,0,0,1,8.12-7.63,4.52,4.52,0,0,0,2.33-4.75c-1.79-10.92-5.85-47.54,4.62-117.63a2.51,2.51,0,0,0-3.46-2.68c-7.83,3.33-25,13-35,36a5.32,5.32,0,0,0,1,5.83,8.19,8.19,0,0,1,2.2,8c-1.62,6.93-6.94,4-6.52,12.73.53,10.91-31.85,19.37-38.31-2.76s16.81-52.05,46.25-72.18c0,0,39.42-26.31,91.08-28.22s65.35,3.8,65.35,3.8,20.9,3.59,47,6.07h0c21.27,2,46,3.28,65.68,1.25a52.15,52.15,0,0,0,24.75-9.26c7.48-5.28,17.84-11.73,22.85-11,8.36,1.26-13,15.45-5.06,16.46s36.21-18.74,54.83-1.52C487.45,599.79,497.38,609.93,493.12,622.46Z"/><path class="cls-5" d="M890.74,716c-11.78,1.7-20.32-23.18-23.07-13.12-2.35,8.56-7.26,8.29-7.51-.75-.21-7.09-13.31-38.32-22.21-56-3.62-7.22-6.55-12.2-7.62-12.43,0,0,.39,10.7.11,24.52-.33,16.94-1.65,38.57-5.89,50.91a5.71,5.71,0,0,0-.31,2c.15,5.13-1.64,27.81-7.13,52.7a3.22,3.22,0,0,0,2.09,3.75,14.44,14.44,0,0,1,5.72,3.39,3.09,3.09,0,0,1-1.81,5.22,115,115,0,0,1-28.11-.25,5.25,5.25,0,0,1-4.44-3.94c-2-8-5.91-29.1-1.36-58.16a4.87,4.87,0,0,0-4.1-5.6,105.63,105.63,0,0,0-24.42-.79,4.86,4.86,0,0,0-4.36,5.54c1.66,11.34,5,39.66.33,56.17a5.66,5.66,0,0,1-4.34,4,123,123,0,0,1-33.79,1.69,2.87,2.87,0,0,1-2.33-4.08c1.55-3.3,4.48-7.9,9.31-9.74a3.08,3.08,0,0,0,1.66-4.11c-4.86-11.26-18.34-62.17-18-123.83a4.08,4.08,0,0,0-4.14-4.13c-4.31.06-11.81,0-21.88-.87h0c-65.7-11.27-147.93-70-160.82-79.43a.89.89,0,0,1,.37-1.6c12.41-2.17,26.9-7.79,37.41-21.24h0c22.31,19.63,80,64.29,148.9,70.6,2.58.23,5.1.46,7.57.66,13.55,1.16,25.6,2,36.28,2.51,54.6,2.76,73.55-1.41,73.55-1.41a193.74,193.74,0,0,1,15.55,12.77c11.68,10.52,27.69,27,39.94,47.28,7.1,11.75,12.93,24.8,15.93,38.74C897.77,696.93,902.71,714.28,890.74,716Z"/><path class="cls-3" d="M555.48,418a40.39,40.39,0,1,0,17.77,54.29A40.41,40.41,0,0,0,555.48,418Zm-18.26,57.31a21.28,21.28,0,1,1,21.28-21.28A21.28,21.28,0,0,1,537.22,475.34Z"/><path class="cls-3" d="M527.8,487.39,483,575.82a15.87,15.87,0,0,1-21.32,7l-20.61-10.44a4,4,0,0,1-1.74-5.31l2.65-5.22a3.94,3.94,0,0,1,5.3-1.73l20.61,10.44a2.12,2.12,0,0,0,2.85-.94l3.48-6.86a3.79,3.79,0,0,0-1.66-5.08l-14.83-7.51a4,4,0,0,1-1.74-5.31l2.65-5.21a3.93,3.93,0,0,1,5.3-1.74l14.83,7.51a3.79,3.79,0,0,0,5.08-1.66l31.7-62.57Z"/><path class="cls-5" d="M550.14,516.58s-11.77,29.07-52.72,30.9h-.22S483,541.43,475.46,529.4c-6.35-10.2-7.85-24.7,8.33-43.46,6.52-7.57,13.83-11.9,21.16-13.76a38.56,38.56,0,0,1,29,4.59C548.76,485.47,557.69,502.51,550.14,516.58Z"/><path class="cls-6" d="M522.27,548.63a.9.9,0,0,1,.38-1.61c12.41-2.17,26.89-7.77,37.4-21.23h0c-6.41-5.62-9.91-9.2-9.91-9.2s-11.81,29.18-52.94,30.91l-3,6.07c77.06,57.31,151.05,71.29,188.88,74.49C617.38,616.78,535.18,558.09,522.27,548.63Z"/><path class="cls-6" d="M324.36,603.83c-13.93-1-35.94,29.83-35.94,29.83-5.91-1.84-9.57-3.19-11.79-4.09a2.48,2.48,0,0,0-3.4,2.06q-1,10.67-2,19.71c-54.77-6.82-150.28-29.16-150.28-29.16S160.34,595.87,212,594s65.34,3.8,65.34,3.8S298.25,601.35,324.36,603.83Z"/><g id="Forma_1" data-name="Forma 1"><path class="cls-5" d="M378.81,404.57c1.19,33.19,1.36,90.2-.9,143.57-.62,14.67-3.79,25.63-12.87,33.67-4.54,4-10.56,7.3-18.47,10-2,.67-4.09,1.28-6.3,1.86-1.11.3-2.26.58-3.43.86l-3.63.79c-4.95,1-10.44,1.88-16.51,2.62-7.05.85-15.66,1.86-25.39,3-16.6,1.87-36.45,3.95-57.3,5.95l-4.21.4c-5.3.5-10.66,1-16,1.48-7.84.7-15.73,1.37-23.54,2-21.27,1.71-42,3.09-59.94,3.8h0c-13.59.54-25.58.7-35,.33-1.72-.08-3.34-.17-4.9-.3l-1.53-.14q-1.52-.14-2.91-.33c-.93-.13-1.82-.26-2.68-.42a0,0,0,0,1,0,0C61.59,609.78,58.75,597,50.06,569.41c-.32-1-.64-2.1-1-3.27l-1-3.76c-.68-2.67-1.39-5.64-2.11-8.86-1.45-6.44-3-13.9-4.47-21.94-.15-.84-.3-1.7-.47-2.56-2.82-15.46-5.54-32.88-7.63-49.4-4.57-34.9-5.86-65.85-5.84-65.85s-.82-11.95,6.64-25.41a61.52,61.52,0,0,1,18.27-20.28,81.12,81.12,0,0,1,15.59-8.69c3-1.27,6.26-2.48,9.75-3.56,1.74-.53,3.55-1.05,5.41-1.53S87,353.37,89,353c1.8-.38,3.66-.76,5.62-1.13,5.84-1.14,12.33-2.29,19.35-3.43,11.08-1.77,23.48-3.51,36.69-5.09,16-1.93,33.26-3.62,50.81-4.88,10-.72,20-1.3,30-1.71,2.95-.12,5.91-.23,8.86-.31,11.46-.35,22.78-.46,33.71-.27,37.88.67,70.92,4.95,88.21,15.23,5,2.94,8.8,7.94,11.55,16.36.35,1,.67,2.16,1,3.32.15.58.31,1.18.46,1.8s.28,1.23.42,1.85c.55,2.56,1,5.35,1.44,8.39A213.83,213.83,0,0,1,378.81,404.57Z"/></g><g id="Forma_1_copiar" data-name="Forma 1 copiar"><path class="cls-4" d="M358.67,414.08a128.86,128.86,0,0,0-2.52-17.56l-.21-.91c-.07-.3-.15-.59-.22-.89,0-.14-.07-.29-.11-.44s-.07-.28-.11-.43l-.22-.85c-.31-1.12-.63-2.18-1-3.2-.08-.25-.16-.5-.25-.75s-.08-.25-.13-.37l-.06-.18-.06-.18c-.18-.49-.35-1-.53-1.42q-.54-1.38-1.11-2.61c-3.07-6.61-6.88-10.37-11.42-12.49-21.61-10-66.29-10.9-113.84-8.73s-97.86,8-125.94,13.06l-2.61.5-1.27.26-1.24.27c-1.65.37-3.24.76-4.78,1.18-3.07.83-5.92,1.76-8.57,2.76a69.39,69.39,0,0,0-13.59,6.84A48.78,48.78,0,0,0,53.19,404.3c-6.38,11.06-5.6,20.95-5.58,20.94s1.28,25.73,5,54.59c1.79,14.42,4.07,29.61,6.41,42.79,1.17,6.59,2.35,12.67,3.49,17.93.14.66.29,1.3.43,1.93l.21.94.21.91c.28,1.2.55,2.35.82,3.43s.54,2.11.81,3.06.52,1.85.77,2.66c8.13,26,9.63,35.56,39,36.15,44.4.87,155.75-9.68,198.29-16.37,5.35-.78,10.16-1.66,14.49-2.65l1.6-.37,1.56-.39c1-.26,2-.52,3-.79q2.91-.82,5.47-1.71c6.87-2.39,12.05-5.19,16-8.48,7.84-6.59,10.7-15.11,11.55-26.64C360,490.29,361.32,441.33,358.67,414.08Z"/></g><g id="Forma_1_copiar_2" data-name="Forma 1 copiar 2"><path class="cls-7" d="M351.62,416.88a123.3,123.3,0,0,0-2.41-16.73c-.13-.58-.27-1.15-.41-1.71,0-.14-.07-.28-.1-.42l-.11-.41-.21-.81c-.29-1.06-.59-2.08-.91-3.05l-.24-.72-.12-.35-.06-.17-.06-.17c-.17-.47-.33-.91-.5-1.35-.34-.88-.7-1.71-1.06-2.49-2.92-6.3-6.55-9.88-10.88-11.9-20.59-9.49-63.2-10.41-108.58-8.22s-93.4,8.18-120.33,13.39c-.85.16-1.68.33-2.5.51l-1.22.27-1.2.27q-2.37.57-4.59,1.2c-2.95.83-5.69,1.75-8.25,2.74a70.54,70.54,0,0,0-13.14,6.68,48.82,48.82,0,0,0-15.38,15.62c-6.3,10.45-5.65,19.67-5.64,19.66s.92,24,4.5,51.19c1.73,13.58,4,27.93,6.36,40.42,1.18,6.24,2.38,12,3.53,17,.14.62.29,1.23.43,1.83l.21.89.21.87c.29,1.14.56,2.23.84,3.26s.54,2,.81,2.91.52,1.75.77,2.52c8.14,24.77,9.77,33.88,37.88,34.45,42.59.86,148.86-9.18,189.33-15.55,5.09-.74,9.67-1.58,13.8-2.52,1-.23,2-.47,3-.72s1.92-.5,2.84-.76c1.85-.52,3.58-1.06,5.22-1.63,6.53-2.27,11.46-4.94,15.2-8.07,7.47-6.28,10.19-14.39,11-25.38C352.84,489.48,354.14,442.84,351.62,416.88Z"/></g><path class="cls-5" d="M239.19,508.34a7.52,7.52,0,0,1,8.37,9.78,23.07,23.07,0,0,1-39.82,6.72,7.56,7.56,0,0,1,4.67-12.2h0a167.07,167.07,0,0,1,26.21-4.25Z"/><path class="cls-5" d="M311.09,481.2c-2.32-14-8.17-38.77-21.38-47.51A10.94,10.94,0,0,0,274,437.82c-5.74,11.06-8.18,32.85-6.39,48.73a17.27,17.27,0,0,0,9.84,13.76A26.53,26.53,0,0,0,303,498.92,17.25,17.25,0,0,0,311.09,481.2Z"/><path class="cls-5" d="M128.11,503.47c.17-14.08,2.17-41.65,14.76-52.83a11.16,11.16,0,0,1,16.52,1.89c7.64,10.67,13.38,33.41,13.54,49.86A15.43,15.43,0,0,1,166.7,515c-6.12,4.55-16.66,9.17-30.14,2.48A15.35,15.35,0,0,1,128.11,503.47Z"/><path class="cls-6" d="M442.7,613.06a.33.33,0,0,1,.42-.49c2.77,1.66,8.09,5.46,8.63,10.41s-5.43,8.16-8.45,9.39a.33.33,0,0,1-.36-.54C445.55,629.25,450.44,622.47,442.7,613.06Z"/><path class="cls-3" d="M232.74,645.37a2.69,2.69,0,0,1,.27.2,2.88,2.88,0,0,1,.67.77,2.75,2.75,0,0,1,.35.94,2.2,2.2,0,0,1,.05.57c0,.11,0,.19,0,.31a3,3,0,0,1-.42,1.18l-.16.21a2.94,2.94,0,0,1-.39.4l-1.77,1.53-.46.4-1.47,1.26-.93.8-5,4.3-2.15,1.84-16.5,14.26a2.23,2.23,0,0,1-3.67-2.08l3.11-18,.43-2.36,1.79-.84.2-.07,1.39-.64,8-3.66.36-.17.1,0,.94-.43L193.85,648a2.2,2.2,0,0,1-2.24-1.31,2.23,2.23,0,0,1,.28-2.28c.1-.11.19-.22.3-.32l.64-.54.89-.8.54-.46,2.91-2.52.94-.83.1-.09c-9.3-1.85-18.36-3.73-26.83-5.51a39.06,39.06,0,0,0-1.08,4.06c-.1.43-.2.87-.28,1.33-.11.64-.21,1.28-.3,1.93-.15,1.15-.27,2.31-.34,3.47a44.77,44.77,0,0,0,.07,6,43.42,43.42,0,0,0,84.83,9c.23-.72.41-1.44.61-2.17.23-1,.45-1.93.62-2.9a45.53,45.53,0,0,0,.56-4.85C248.64,648.1,240.79,646.79,232.74,645.37ZM221,643.23v.06l-.48,2.51,10.07-.81C227.37,644.41,224.18,643.83,221,643.23Z"/><path class="cls-4" d="M256.1,648.63v.26c0,.11,0,.23,0,.34-7.43-1.13-15.28-2.44-23.33-3.86A2.76,2.76,0,0,0,231,645l-.43,0c-3.18-.58-6.37-1.16-9.58-1.76l.34-1.77,1.13-5.83,2.83-14.44a2.5,2.5,0,0,0-.88-2.43,2.47,2.47,0,0,0-3.21,0l-11.74,10.24-9.77,8.51-1.46,1.28c-9.3-1.85-18.36-3.73-26.83-5.51.08-.3.18-.59.28-.88a43.2,43.2,0,0,1,2.07-5L174,627c.11-.24.23-.47.36-.7A43.64,43.64,0,0,1,187.76,611c8.54-.7,17.17-1.44,25.75-2.21,5.89-.53,11.75-1.08,17.54-1.63a43.5,43.5,0,0,1,22.37,24.21A43.21,43.21,0,0,1,256,643,45.77,45.77,0,0,1,256.1,648.63Z"/><path class="cls-6" d="M224.39,618.76a2.5,2.5,0,0,1,.88,2.43l-2.83,14.44-1.13,5.83-.34,1.77c-7.6-1.41-15.25-2.89-22.76-4.39l1.46-1.28,9.77-8.51,11.74-10.24A2.47,2.47,0,0,1,224.39,618.76Z"/><path class="cls-6" d="M232.74,645.37l-2.19-.38.43,0A2.76,2.76,0,0,1,232.74,645.37Z"/><path class="cls-1" d="M781.94,644.92l0,.08-.73,1.78-1,2.48,10.91,1.28a2.89,2.89,0,0,1,2,1.06,2.73,2.73,0,0,1,.51.93,3,3,0,0,1,.18,1,2.27,2.27,0,0,1-.08.59c0,.1,0,.2-.08.31a2.84,2.84,0,0,1-.67,1.12.91.91,0,0,1-.21.18,3.43,3.43,0,0,1-.48.34l-2.12,1.2-.55.31-1.78,1-1.1.63-5.95,3.37-2.58,1.45-19.82,11.18a2.34,2.34,0,0,1-3.33-2.89l6.89-17.74.92-2.35,2-.47.2,0,1.56-.36,8.92-2.11.38-.1.13,0,1-.26L752.48,646a2.26,2.26,0,0,1-2-1.82,2.31,2.31,0,0,1,.75-2.26,2.12,2.12,0,0,1,.38-.26l.76-.44,1.08-.62.64-.36,3.49-2,1.14-.64,1.16-.67c-9.18-3.46-18.34-7.12-27.23-10.79a45.73,45.73,0,0,0-2.08,4.14c-.18.43-.36.86-.54,1.31-.25.63-.48,1.26-.71,1.91-.39,1.13-.75,2.3-1,3.49a43.83,43.83,0,0,0-1.17,6.16A45.31,45.31,0,0,0,812,669.88c.37-.69.72-1.39,1.06-2.1.45-.93.86-1.89,1.23-2.85a42.27,42.27,0,0,0,1.66-5.18c0-.09,0-.17.07-.26.34-1.37.63-2.76.84-4.18C806,652.68,794.16,649.08,781.94,644.92Z"/><path class="cls-6" d="M790.14,625.06l-5.49,13.27c-4.79-2.34-9.68-4.78-14.55-7.23l2.23-1.27,14.11-8a2.61,2.61,0,0,1,3.7,3.27Z"/><path class="cls-6" d="M881.84,658.19C866.28,662,838,646.1,838,646.1c-3.63-7.22-6.55-12.2-7.62-12.43,0,0,.38,10.7.11,24.52-63-11-179-68.69-179-68.69l17.87-10.35,41,20.71,6.18-2.82,7.63-3.46,28.64,6L778.85,605l63,5.93C853.58,621.43,869.59,637.88,881.84,658.19Z"/><g id="Forma_1-2" data-name="Forma 1"><path class="cls-5" d="M614.52,389.19c-2.74,34.53-5.5,93.95-5.57,149.66,0,15.32,2.79,26.89,11.89,35.68,4.55,4.39,10.67,8.09,18.8,11.21,2,.79,4.2,1.52,6.48,2.23,1.14.36,2.33.71,3.54,1s2.46.67,3.74,1c5.12,1.29,10.8,2.44,17.09,3.48,7.3,1.22,16.24,2.66,26.32,4.23,17.22,2.7,37.81,5.77,59.46,8.8l4.36.61c5.5.76,11.07,1.52,16.65,2.26,8.14,1.09,16.33,2.15,24.44,3.16,22.09,2.75,43.64,5.13,62.3,6.69h0c14.14,1.19,26.63,1.9,36.45,1.93,1.79,0,3.49,0,5.12-.09l1.6-.07c1.06,0,2.07-.12,3-.22s1.91-.18,2.81-.31c0,0,0,0,0,0,22.71-3,26.25-16.18,36.55-44.57.38-1,.76-2.16,1.16-3.36s.8-2.52,1.23-3.88c.83-2.75,1.71-5.82,2.61-9.14,1.8-6.65,3.71-14.35,5.65-22.66.2-.87.39-1.76.6-2.65,3.65-16,7.27-34,10.2-51.13,6.34-36.17,9.08-68.37,9.07-68.37s1.39-12.42-5.77-26.78a64.13,64.13,0,0,0-18.13-22,84.43,84.43,0,0,0-15.85-9.76,105.32,105.32,0,0,0-10-4.15c-1.79-.64-3.65-1.26-5.57-1.84s-3.92-1.15-6-1.68c-1.86-.47-3.78-.95-5.81-1.43-6-1.45-12.74-2.94-20-4.44-11.47-2.36-24.31-4.73-38-7-16.61-2.74-34.5-5.28-52.74-7.39-10.34-1.21-20.78-2.27-31.19-3.14-3.07-.27-6.15-.51-9.22-.73-11.92-.89-23.72-1.51-35.12-1.81-39.51-1-74.14,1.95-92.62,11.88-5.31,2.83-9.53,7.87-12.78,16.53-.41,1.07-.8,2.21-1.17,3.41-.18.59-.37,1.21-.56,1.85s-.35,1.27-.52,1.91c-.69,2.65-1.32,5.53-1.89,8.68C616.11,373.18,615.2,380.56,614.52,389.19Z"/></g><g id="Forma_1_copiar-2" data-name="Forma 1 copiar"><path class="cls-2" d="M632.88,403.51a134.85,134.85,0,0,1,3.43-18.18c.09-.32.17-.63.26-.94s.17-.62.26-.92.09-.3.14-.45.09-.3.13-.44c.09-.3.18-.59.28-.88.36-1.15.74-2.25,1.13-3.29l.3-.78.15-.37c0-.07,0-.13.08-.19l.07-.19c.2-.49.41-1,.61-1.45.42-.94.84-1.83,1.28-2.67,3.49-6.75,7.63-10.49,12.46-12.5,23-9.41,69.58-8.36,119-3.93s101.62,12.8,130.66,19.31c.91.21,1.81.42,2.69.64l1.32.33,1.28.34q2.56.69,4.93,1.44,4.74,1.51,8.8,3.27A72,72,0,0,1,936,389.4a50.8,50.8,0,0,1,15.65,17.77c6.15,11.81,4.88,22.08,4.87,22.07s-2.5,26.75-7.65,56.66c-2.52,15-5.58,30.68-8.62,44.31-1.52,6.81-3,13.1-4.45,18.53-.18.68-.35,1.34-.53,2-.09.33-.18.65-.26,1s-.18.63-.26.94q-.52,1.86-1,3.54c-.33,1.12-.66,2.17-1,3.15s-.62,1.9-.92,2.74c-9.65,26.76-11.65,36.62-42.25,35.9-46.31-1.1-161.87-17.14-205.9-26-5.54-1.06-10.51-2.2-15-3.42l-1.66-.46-1.6-.47c-1.06-.32-2.09-.64-3.08-1q-3-1-5.63-2c-7-2.8-12.32-6-16.26-9.56-7.88-7.22-10.47-16.22-10.84-28.29C628.08,482.87,628.88,431.79,632.88,403.51Z"/></g><g id="Forma_1_copiar_2-2" data-name="Forma 1 copiar 2"><path class="cls-1" d="M640.11,406.75a126.34,126.34,0,0,1,3.27-17.32c.16-.61.33-1.19.5-1.77l.12-.43c0-.14.09-.28.13-.42.09-.29.17-.56.26-.84.35-1.1.71-2.14,1.09-3.14.09-.24.18-.49.28-.73l.14-.36.07-.18.07-.18c.2-.47.39-.93.59-1.38.39-.9.8-1.75,1.21-2.55,3.33-6.43,7.28-10,11.88-11.9,21.88-9,66.34-8,113.53-3.66s97,12.76,124.8,19.42c.88.21,1.74.42,2.58.64l1.26.34,1.24.34c1.63.46,3.21.94,4.72,1.45,3,1,5.86,2.09,8.48,3.24a73,73,0,0,1,13.39,7.55,51,51,0,0,1,15.32,17c6.09,11.18,5,20.76,5,20.75s-2,25-7,53.14c-2.42,14.08-5.43,28.93-8.46,41.84-1.51,6.45-3,12.42-4.45,17.56-.18.65-.35,1.28-.53,1.9-.09.31-.17.61-.26.91s-.18.6-.26.9q-.52,1.77-1,3.36c-.33,1.06-.66,2.06-1,3s-.63,1.8-.93,2.59c-9.61,25.44-11.72,34.86-41,34.19-44.43-1-154.72-16.32-196.61-24.79-5.27-1-10-2.09-14.27-3.25-1.06-.29-2.1-.59-3.1-.89s-2-.61-2.93-.92c-1.9-.62-3.68-1.27-5.36-1.93-6.71-2.67-11.73-5.67-15.48-9.11-7.5-6.88-10-15.46-10.31-27C635.55,482.36,636.3,433.69,640.11,406.75Z"/></g><path class="cls-5" d="M780.11,534.56c10,.86,19.24-6.73,24-18.33a44.52,44.52,0,0,0,2.9-11c0-.29.08-.58.12-.87v0a3.16,3.16,0,0,0-1-2.25c-.2-.14-.42-.3-.64-.44h0a33.69,33.69,0,0,0-7.91-3.81,61.92,61.92,0,0,0-28.3-2.45,33.85,33.85,0,0,0-8.44,2.39h0l-.71.32a3.16,3.16,0,0,0-1.39,2.05v0c0,.29,0,.58,0,.87a44.39,44.39,0,0,0,1,11.38C762.32,524.62,770.16,533.7,780.11,534.56Z"/><path class="cls-8" d="M680.31,463.2s-7.26-1.08-10.58-5.85a1.1,1.1,0,0,0-2,.73,16,16,0,0,0,2.7,7.54c4.35,6.55,9.2,8,9.2,8"/><path class="cls-8" d="M888.63,485.26s7.3.76,11.7-3a1.1,1.1,0,0,1,1.75,1.2,15.9,15.9,0,0,1-4.5,6.62c-5.84,5.27-10.9,5.42-10.9,5.42"/><path class="cls-5" d="M735.3,470.07a7.82,7.82,0,0,1-2,7.62c-3.73,3.59-9.12,1.36-14.82-3.76a22.44,22.44,0,0,0-7.79-4.59,15.07,15.07,0,0,0-11.88,1.07,62.28,62.28,0,0,0-6.23,3.84A14.08,14.08,0,0,1,684,477a8.24,8.24,0,0,1-7.09-11.61,31,31,0,0,1,58.42,4.66Z"/><path class="cls-5" d="M836.27,483.38a7.35,7.35,0,0,0,.58,7.35c2.83,3.92,8.17,2.77,14.27-1a21.17,21.17,0,0,1,8-2.93,14.09,14.09,0,0,1,10.76,3,58.75,58.75,0,0,1,5.09,4.58,15.13,15.13,0,0,0,4.12,3,8.29,8.29,0,0,0,11.44-9.87,29,29,0,0,0-54.21-4.1Z"/><path class="cls-2" d="M817.12,653.33c0,.14,0,.27,0,.4-.06.53-.14,1.06-.22,1.58-10.84-2.63-22.7-6.23-34.92-10.39l2.33-5.66.38-.93,5.49-13.27a2.61,2.61,0,0,0-3.7-3.27l-14.11,8-2.23,1.27-9.51,5.43-.73.42c-9.18-3.46-18.34-7.12-27.23-10.79.1-.21.23-.42.35-.62a44.59,44.59,0,0,1,3.13-4.66c.13-.15.24-.32.38-.48l.51-.64a44.71,44.71,0,0,1,3.56-3.85A45.46,45.46,0,0,1,753.85,607c8.89,1,17.88,2.06,26.81,3,6.12.67,12.23,1.31,18.27,1.94a45.17,45.17,0,0,1,18.19,41.39Z"/><path class="cls-6" d="M493.11,622.46c-1.53,4.49-4.88,9.29-11.17,14a53.85,53.85,0,0,1-21.35,9.56c-19.63,4.15-70.52,12.68-117.88,1.73-10.55-2.44-19.53-4.63-27.16-6.57h0S455.49,657.5,493.11,622.46Z"/></svg>